<svg id="svg" version="1.1"
    xmlns="http://www.w3.org/2000/svg"
    xmlns:xlink="http://www.w3.org/1999/xlink" width="400" height="400" viewBox="0, 0, 400,400">
    <g id="svgg">
        <path id="core" d="M196.428 283.766 C 196.074 284.192,195.643 284.242,194.682 283.966 C 192.580 283.363,191.304 283.542,190.162 284.600 C 189.569 285.150,188.738 285.600,188.315 285.600 C 187.345 285.600,186.132 286.246,184.827 287.455 C 184.267 287.975,183.684 288.400,183.532 288.400 C 183.177 288.400,176.230 295.377,174.400 297.572 C 173.630 298.496,172.524 299.787,171.942 300.441 C 171.361 301.095,170.671 302.146,170.410 302.777 C 170.148 303.408,169.576 304.018,169.138 304.132 C 168.699 304.247,168.243 304.714,168.124 305.170 C 167.809 306.373,167.200 306.188,167.200 304.889 C 167.200 304.273,167.556 303.473,168.000 303.093 C 168.440 302.716,168.800 302.068,168.800 301.653 C 168.800 301.238,169.069 300.675,169.398 300.402 C 169.727 300.128,170.208 299.161,170.466 298.253 C 170.725 297.344,171.250 296.240,171.634 295.800 C 172.640 294.647,172.808 292.266,171.896 292.082 C 171.079 291.917,168.902 293.785,168.378 295.100 C 168.129 295.725,167.681 296.004,166.910 296.013 C 165.553 296.030,164.559 296.832,162.899 299.252 C 162.200 300.270,161.375 301.201,161.065 301.320 C 160.756 301.438,160.124 302.315,159.661 303.268 C 159.198 304.220,158.105 305.863,157.231 306.918 C 156.358 307.973,155.531 309.188,155.394 309.618 C 155.258 310.048,154.989 310.400,154.798 310.400 C 154.606 310.400,154.312 311.255,154.144 312.300 C 153.976 313.345,153.816 314.290,153.787 314.400 C 153.257 316.432,152.949 317.192,152.253 318.186 C 151.797 318.838,151.370 319.738,151.305 320.186 C 151.239 320.634,150.834 322.080,150.404 323.400 C 149.259 326.914,149.085 328.691,149.601 331.600 C 150.138 334.626,150.693 339.343,151.014 343.600 C 151.237 346.567,152.310 350.800,152.839 350.800 C 153.238 350.800,154.400 353.862,154.400 354.912 C 154.400 355.405,154.762 356.034,155.205 356.311 C 155.648 356.587,156.702 358.264,157.547 360.037 L 159.083 363.260 159.345 361.029 C 159.790 357.240,160.649 355.600,162.187 355.600 L 163.487 355.600 163.967 358.700 C 164.784 363.981,166.956 369.393,168.766 370.662 C 169.225 370.983,169.600 371.484,169.600 371.776 C 169.600 372.597,172.545 375.064,174.680 376.032 C 175.736 376.511,176.690 377.031,176.800 377.188 C 177.198 377.757,181.057 379.484,182.560 379.766 C 183.406 379.925,184.391 380.217,184.749 380.415 C 190.701 383.706,209.567 383.220,211.720 379.720 C 212.136 379.044,213.252 379.057,214.198 379.749 C 215.627 380.794,219.405 375.590,220.406 371.200 C 220.682 369.990,221.132 368.550,221.407 368.000 C 221.681 367.450,222.223 365.380,222.610 363.400 C 223.632 358.168,223.809 357.824,224.357 360.000 C 224.965 362.415,228.079 368.738,228.677 368.773 C 228.940 368.788,229.418 369.176,229.739 369.635 C 230.485 370.699,231.435 370.252,234.000 367.629 C 234.990 366.617,236.534 365.161,237.430 364.394 C 240.332 361.912,241.164 360.442,241.596 357.029 C 241.831 355.176,242.292 353.512,242.749 352.870 C 243.167 352.282,243.739 351.033,244.020 350.095 C 244.300 349.158,244.770 348.191,245.065 347.946 C 245.359 347.702,245.600 347.237,245.600 346.913 C 245.600 346.589,245.853 345.846,246.162 345.262 C 247.832 342.109,248.103 340.488,247.762 335.667 C 247.581 333.100,247.421 330.820,247.407 330.600 C 247.394 330.380,247.174 329.660,246.919 329.000 C 246.665 328.340,246.343 326.782,246.204 325.537 C 246.065 324.293,245.590 322.583,245.149 321.737 C 244.446 320.391,243.740 318.199,242.426 313.275 C 242.232 312.546,241.641 311.286,241.113 310.475 C 240.585 309.664,239.917 308.415,239.628 307.700 C 239.339 306.985,238.947 306.400,238.756 306.400 C 238.566 306.400,237.978 305.716,237.451 304.881 C 234.462 300.147,231.486 298.472,225.414 298.110 L 221.762 297.892 220.685 299.172 C 219.369 300.736,219.047 300.572,218.189 297.895 C 217.820 296.743,217.086 294.910,216.559 293.821 C 216.031 292.733,215.600 291.636,215.600 291.383 C 215.600 291.131,215.247 290.604,214.815 290.214 C 214.383 289.823,213.841 288.932,213.611 288.233 C 213.177 286.918,208.893 284.448,208.001 284.999 C 207.787 285.132,206.591 285.406,205.343 285.609 C 204.079 285.815,202.428 286.426,201.615 286.989 C 200.813 287.545,199.948 288.000,199.693 288.000 C 199.437 288.000,199.048 288.336,198.828 288.747 C 198.608 289.158,197.882 289.604,197.214 289.737 C 196.428 289.894,195.989 290.231,195.968 290.690 C 195.949 291.138,195.784 290.982,195.524 290.268 C 195.171 289.298,195.252 288.983,196.089 288.068 C 197.425 286.609,198.859 284.020,198.581 283.569 C 198.236 283.010,196.958 283.127,196.428 283.766 M163.918 328.632 C 164.091 333.898,163.404 335.641,162.378 332.535 C 161.902 331.091,162.063 326.070,162.613 325.178 C 163.329 324.020,163.807 325.285,163.918 328.632 " stroke="none" fill="rgb(189, 247, 251)" fill-rule="evenodd">
		  </path>
        <path id="body" d="M217.200 6.580 C 217.200 8.723,219.472 12.897,220.376 12.413 C 222.774 11.129,221.831 6.800,219.153 6.800 C 218.770 6.800,218.174 6.517,217.829 6.171 C 217.257 5.600,217.200 5.637,217.200 6.580 M206.400 22.128 C 205.313 22.689,205.208 23.944,206.067 26.114 C 206.780 27.913,206.239 31.813,205.035 33.549 C 204.466 34.371,204.000 35.244,204.000 35.489 C 204.000 36.069,201.243 38.935,200.092 39.551 C 199.602 39.813,199.200 40.292,199.200 40.614 C 199.200 40.936,199.014 41.200,198.787 41.200 C 197.822 41.200,195.549 44.024,195.675 45.067 L 195.800 46.110 197.466 44.488 C 199.073 42.924,203.547 40.418,204.794 40.383 C 209.915 40.239,217.756 27.878,215.018 24.265 C 213.137 21.784,209.037 20.767,206.400 22.128 M181.600 56.711 C 176.474 57.388,173.226 59.927,172.338 63.952 C 172.065 65.188,171.562 66.411,171.221 66.668 C 170.108 67.508,170.335 76.454,171.500 77.694 C 171.995 78.221,172.406 78.820,172.414 79.026 C 172.453 80.068,177.192 84.083,178.814 84.448 C 179.747 84.657,180.960 85.182,181.509 85.614 C 182.058 86.046,182.837 86.400,183.239 86.400 C 183.641 86.400,185.371 86.848,187.085 87.395 C 190.672 88.540,193.342 88.667,195.127 87.776 C 195.895 87.393,197.191 87.191,198.489 87.253 C 199.650 87.308,200.984 87.223,201.454 87.064 C 201.989 86.883,203.109 87.092,204.454 87.624 C 205.634 88.090,207.653 88.643,208.940 88.851 C 211.709 89.300,216.173 91.459,217.646 93.062 C 221.369 97.114,217.200 104.159,211.891 102.786 C 206.298 101.339,204.081 100.595,203.333 99.913 C 201.289 98.050,195.889 95.231,195.136 95.634 C 194.173 96.150,194.137 96.039,196.122 98.696 C 198.809 102.293,200.400 104.989,200.400 105.948 C 200.400 106.431,200.824 107.676,201.342 108.713 C 204.641 115.316,205.759 125.849,203.936 133.144 C 202.364 139.437,199.090 146.651,197.193 148.000 C 197.038 148.110,196.631 148.740,196.288 149.400 C 195.946 150.060,195.010 151.230,194.209 152.000 C 193.407 152.770,192.178 154.021,191.476 154.779 C 188.184 158.337,182.932 162.200,177.200 165.281 C 175.770 166.050,173.520 167.373,172.200 168.222 C 170.880 169.071,168.990 170.177,168.000 170.680 C 167.010 171.182,164.719 172.810,162.908 174.297 C 161.097 175.783,157.627 178.618,155.197 180.595 C 152.766 182.572,150.288 184.905,149.689 185.779 C 149.090 186.654,147.815 188.186,146.855 189.185 C 145.895 190.183,144.682 191.630,144.159 192.400 C 140.534 197.739,140.000 198.624,140.000 199.291 C 140.000 199.647,139.550 200.473,139.000 201.127 C 137.790 202.565,137.695 204.208,138.786 204.793 C 139.444 205.145,139.686 205.032,140.266 204.107 C 140.647 203.498,141.239 202.712,141.580 202.360 C 141.921 202.008,142.672 201.198,143.248 200.560 C 143.824 199.922,144.868 198.950,145.567 198.400 C 146.266 197.850,147.774 196.542,148.919 195.492 C 150.063 194.443,151.914 192.969,153.030 192.217 C 154.147 191.465,155.315 190.544,155.625 190.170 C 155.935 189.797,156.821 189.065,157.594 188.544 C 158.367 188.022,159.810 186.974,160.800 186.213 C 162.468 184.931,165.152 183.499,169.600 181.517 C 170.590 181.076,172.840 180.028,174.600 179.189 C 180.397 176.423,181.442 176.000,182.466 176.000 C 183.024 176.000,184.272 175.463,185.240 174.807 C 186.208 174.151,187.240 173.611,187.533 173.607 C 188.780 173.590,199.261 168.690,200.029 167.766 C 200.255 167.493,201.322 167.059,202.400 166.800 C 203.478 166.541,204.567 166.081,204.819 165.777 C 205.071 165.473,206.648 164.544,208.324 163.712 C 210.000 162.881,212.175 161.435,213.157 160.500 C 214.139 159.565,215.181 158.800,215.472 158.800 C 216.285 158.800,216.134 161.719,215.263 162.846 C 214.857 163.371,214.253 164.610,213.920 165.600 C 212.880 168.691,208.678 174.180,203.968 178.600 C 203.734 178.820,203.150 179.378,202.671 179.840 C 202.192 180.302,201.125 180.997,200.300 181.385 C 199.475 181.774,198.800 182.246,198.800 182.435 C 198.800 182.625,198.215 183.079,197.500 183.446 C 196.785 183.812,196.104 184.258,195.988 184.438 C 195.871 184.617,194.223 185.576,192.325 186.568 C 190.427 187.561,188.268 188.785,187.527 189.287 C 186.786 189.789,185.374 190.539,184.390 190.953 C 183.405 191.366,181.098 192.401,179.262 193.253 C 177.425 194.104,175.605 194.800,175.216 194.800 C 174.826 194.800,174.079 195.136,173.554 195.547 C 173.029 195.958,171.660 196.495,170.511 196.741 C 169.362 196.986,167.744 197.550,166.917 197.993 C 166.089 198.437,164.772 198.800,163.991 198.800 C 163.209 198.800,161.884 199.150,161.046 199.577 C 160.208 200.004,159.024 200.463,158.416 200.597 C 157.808 200.730,156.935 201.271,156.476 201.799 C 156.017 202.326,154.926 202.951,154.052 203.186 C 153.177 203.421,152.403 203.766,152.331 203.951 C 152.259 204.136,151.390 204.684,150.400 205.169 C 147.550 206.564,145.157 207.917,144.451 208.531 C 144.093 208.843,143.143 209.403,142.340 209.776 C 140.714 210.530,132.526 218.325,131.391 220.200 C 130.991 220.860,130.335 221.635,129.932 221.923 C 129.529 222.210,129.200 222.663,129.200 222.930 C 129.200 223.196,128.783 224.041,128.274 224.807 C 124.105 231.077,122.671 244.364,125.556 250.000 C 125.950 250.770,126.390 251.877,126.533 252.459 C 126.677 253.041,127.423 254.301,128.191 255.259 C 128.959 256.217,129.905 257.426,130.293 257.948 C 130.682 258.469,131.314 259.189,131.698 259.548 C 132.082 259.906,132.877 260.695,133.464 261.300 C 134.052 261.905,134.678 262.400,134.856 262.400 C 136.375 262.400,143.211 267.721,144.430 269.853 C 146.267 273.064,146.379 277.946,144.681 280.800 C 144.092 281.790,143.607 283.011,143.605 283.513 C 143.602 284.016,143.167 285.281,142.638 286.324 C 141.889 287.803,141.618 289.147,141.409 292.411 C 141.262 294.715,140.869 298.284,140.535 300.341 C 140.201 302.399,140.026 304.456,140.145 304.911 C 140.526 306.367,139.575 309.600,138.360 310.984 C 137.722 311.711,137.200 312.739,137.200 313.268 C 137.200 313.798,136.844 314.929,136.409 315.783 C 135.259 318.039,134.519 320.980,134.230 324.443 C 134.091 326.116,133.806 328.081,133.598 328.809 C 133.333 329.732,133.399 331.230,133.818 333.766 C 134.147 335.765,134.579 340.010,134.778 343.200 C 135.084 348.120,135.294 349.334,136.165 351.200 C 136.730 352.410,137.194 353.971,137.196 354.669 C 137.198 355.413,137.591 356.406,138.145 357.069 C 138.665 357.691,139.212 358.589,139.361 359.064 C 139.510 359.540,140.074 360.219,140.616 360.573 C 141.157 360.928,141.600 361.484,141.600 361.809 C 141.600 362.136,141.963 362.400,142.413 362.400 C 142.859 362.400,143.322 362.654,143.441 362.963 C 143.560 363.273,144.160 363.735,144.775 363.990 C 145.886 364.450,148.000 367.202,148.000 368.189 C 148.000 368.474,148.324 368.792,148.721 368.895 C 149.140 369.005,150.084 370.405,150.976 372.242 C 151.821 373.979,152.936 375.909,153.456 376.531 C 153.975 377.153,154.400 377.887,154.400 378.163 C 154.400 378.439,154.841 378.901,155.381 379.190 C 155.920 379.478,156.541 380.229,156.760 380.857 C 156.979 381.486,157.352 382.000,157.588 382.000 C 157.824 382.000,158.233 382.495,158.498 383.100 C 159.176 384.651,162.014 388.400,162.510 388.400 C 162.738 388.400,163.502 388.840,164.208 389.379 C 164.913 389.917,166.010 390.485,166.645 390.642 C 167.280 390.798,168.232 391.207,168.760 391.549 C 170.182 392.470,174.518 392.821,178.395 392.330 C 183.404 391.695,190.800 392.935,190.800 394.410 C 190.800 394.625,191.150 394.800,191.577 394.800 C 192.005 394.800,192.987 395.173,193.760 395.629 C 196.565 397.285,209.032 397.608,213.000 396.128 C 216.535 394.809,217.077 394.572,218.103 393.900 C 218.690 393.516,220.478 393.016,222.077 392.789 C 225.181 392.349,227.934 391.658,228.620 391.148 C 228.851 390.976,229.841 390.707,230.820 390.552 C 231.799 390.396,233.500 389.849,234.600 389.338 C 235.700 388.826,237.085 388.406,237.679 388.404 C 238.903 388.399,245.600 382.164,245.600 381.028 C 245.600 380.678,245.975 380.079,246.432 379.696 C 246.890 379.313,247.618 378.316,248.051 377.481 C 248.483 376.645,249.098 375.861,249.418 375.738 C 249.738 375.615,250.000 375.170,250.000 374.748 C 250.000 373.770,252.927 367.924,253.765 367.229 C 254.114 366.939,254.400 366.352,254.400 365.924 C 254.400 365.497,254.850 364.557,255.400 363.836 C 255.950 363.114,256.400 362.341,256.400 362.116 C 256.400 361.892,256.749 361.264,257.175 360.722 C 257.602 360.180,258.075 359.211,258.227 358.568 C 258.544 357.232,261.840 352.000,262.365 352.000 C 262.557 352.000,262.836 351.505,262.986 350.900 C 263.136 350.295,263.576 349.440,263.964 349.000 C 264.983 347.843,267.028 344.000,267.370 342.600 C 267.531 341.940,267.930 341.103,268.257 340.740 C 272.403 336.138,273.682 317.706,270.355 310.499 C 269.720 309.123,269.200 307.828,269.200 307.620 C 269.200 307.412,268.750 306.396,268.200 305.362 C 267.650 304.327,267.200 303.176,267.200 302.802 C 267.200 302.429,266.852 301.809,266.426 301.423 C 266.000 301.038,265.266 299.975,264.794 299.061 C 263.402 296.366,262.653 295.077,261.699 293.738 C 261.205 293.044,260.800 292.287,260.800 292.056 C 260.800 291.825,260.376 291.011,259.858 290.247 C 258.686 288.521,258.250 284.448,258.636 278.846 C 258.940 274.430,258.489 273.395,257.422 276.062 C 256.563 278.210,256.215 277.737,255.663 273.671 C 255.122 269.684,255.079 269.600,253.550 269.600 C 251.158 269.600,249.818 271.464,250.027 274.501 C 250.159 276.426,250.027 279.360,249.817 279.151 C 249.471 278.805,249.285 268.081,249.601 266.742 C 249.775 266.004,249.937 265.620,249.959 265.890 C 250.008 266.476,252.282 267.726,252.522 267.299 C 253.765 265.082,252.999 264.312,249.579 264.339 C 247.660 264.354,247.623 264.331,247.364 262.948 C 247.190 262.019,246.804 261.430,246.227 261.210 C 245.704 261.011,245.147 260.253,244.839 259.318 C 244.548 258.437,243.948 257.592,243.462 257.378 C 242.988 257.170,242.427 256.607,242.216 256.126 C 241.832 255.251,240.448 254.400,239.408 254.400 C 239.103 254.400,238.740 254.040,238.600 253.600 C 238.460 253.160,238.030 252.800,237.643 252.800 C 237.256 252.800,236.533 252.368,236.037 251.839 C 235.540 251.311,234.345 250.680,233.380 250.437 C 232.399 250.190,231.445 249.658,231.216 249.230 C 230.991 248.809,230.243 248.341,229.555 248.190 C 228.157 247.883,224.863 245.639,224.825 244.967 C 224.811 244.729,224.125 244.099,223.300 243.567 C 222.475 243.035,221.501 242.002,221.136 241.270 C 220.771 240.539,220.187 239.729,219.839 239.470 C 219.491 239.212,218.998 237.920,218.745 236.600 C 218.491 235.280,218.050 233.928,217.765 233.594 C 216.138 231.694,216.210 215.197,217.856 212.514 C 218.155 212.027,218.400 211.361,218.400 211.034 C 218.400 209.432,219.317 206.400,219.801 206.400 C 220.559 206.400,220.841 208.230,220.478 210.800 C 219.751 215.946,220.130 227.658,221.086 229.600 C 221.573 230.590,222.253 232.030,222.597 232.800 C 223.592 235.030,224.269 236.073,225.474 237.231 C 226.093 237.827,227.230 239.137,228.000 240.144 C 228.770 241.151,229.697 242.076,230.060 242.201 C 230.422 242.326,231.142 242.843,231.660 243.351 C 233.945 245.593,236.000 244.942,236.000 241.976 C 236.000 240.215,235.882 239.935,235.000 239.600 C 234.450 239.391,234.000 238.980,234.000 238.688 C 234.000 238.395,233.564 237.565,233.031 236.843 C 232.499 236.121,231.845 234.601,231.578 233.465 C 231.311 232.329,230.859 230.937,230.573 230.371 C 229.850 228.940,229.637 213.688,230.280 209.400 C 230.926 205.088,233.944 196.614,235.570 194.548 C 236.026 193.967,236.400 193.098,236.400 192.617 C 236.400 192.136,236.916 190.765,237.547 189.571 C 238.178 188.377,239.088 186.050,239.570 184.400 C 240.052 182.750,240.796 180.320,241.223 179.000 C 242.679 174.503,242.222 173.126,237.938 169.105 L 235.885 167.177 236.143 164.117 C 236.286 162.434,236.658 160.666,236.970 160.189 C 237.283 159.712,237.738 157.810,237.983 155.961 C 238.651 150.902,239.191 147.225,239.590 145.000 C 239.981 142.818,239.600 138.825,238.366 132.193 C 236.829 123.931,235.812 122.013,229.666 115.781 L 227.280 113.361 227.669 111.223 C 227.882 110.047,228.328 108.671,228.659 108.166 C 229.348 107.114,230.277 91.643,229.830 88.663 C 229.394 85.754,226.872 81.898,224.990 81.264 C 222.188 80.320,215.170 81.383,211.483 83.310 C 207.557 85.363,199.542 84.628,199.265 82.191 C 199.057 80.369,198.522 80.001,196.051 79.987 C 194.810 79.980,192.813 79.610,191.600 79.162 C 190.390 78.715,188.950 78.244,188.400 78.116 C 185.331 77.399,180.000 70.399,180.000 67.085 C 180.000 64.703,180.920 61.809,181.996 60.804 C 182.596 60.243,183.219 59.371,183.379 58.866 C 183.539 58.361,184.031 57.815,184.471 57.652 C 185.501 57.271,183.164 56.505,181.600 56.711 M261.546 100.728 C 261.186 100.878,260.246 101.810,259.457 102.800 C 258.667 103.790,257.342 105.452,256.511 106.494 C 255.680 107.536,254.882 108.391,254.738 108.394 C 254.594 108.397,253.722 109.030,252.800 109.800 C 251.878 110.570,250.781 111.200,250.362 111.200 C 249.874 111.200,249.600 111.480,249.600 111.976 C 249.600 112.403,249.401 112.876,249.157 113.026 C 248.201 113.618,249.699 113.871,251.130 113.360 C 254.152 112.281,254.531 112.491,255.886 116.000 C 257.415 119.961,257.417 129.805,255.888 131.509 C 255.547 131.889,255.141 132.920,254.985 133.800 C 254.830 134.680,254.385 135.940,253.997 136.600 C 253.609 137.260,253.166 138.250,253.013 138.800 C 252.860 139.350,252.313 140.700,251.798 141.800 C 249.610 146.473,248.776 148.613,248.539 150.158 C 248.401 151.061,247.863 152.536,247.344 153.435 C 246.825 154.334,246.400 155.632,246.400 156.320 C 246.400 157.069,246.068 157.878,245.569 158.343 C 245.021 158.853,244.783 159.494,244.869 160.227 C 245.042 161.692,245.895 161.928,246.383 160.645 C 246.596 160.084,247.152 159.394,247.619 159.113 C 248.085 158.831,248.834 157.888,249.283 157.018 C 249.733 156.148,251.035 154.438,252.179 153.218 C 253.322 151.998,255.099 149.920,256.128 148.600 C 257.157 147.280,258.248 145.930,258.554 145.600 C 263.216 140.564,265.447 134.186,264.040 129.920 C 263.323 127.747,264.495 123.326,266.776 119.600 C 269.239 115.576,269.491 106.280,267.251 102.095 C 266.533 100.754,263.329 99.987,261.546 100.728 M225.202 121.427 C 225.971 122.432,227.071 123.827,227.647 124.527 C 229.759 127.094,230.449 129.130,230.689 133.500 C 230.915 137.595,230.394 139.225,229.827 136.201 C 229.682 135.432,229.122 134.326,228.582 133.743 C 228.042 133.160,227.600 132.467,227.600 132.204 C 227.600 131.940,227.222 131.382,226.759 130.963 C 226.297 130.544,225.644 129.661,225.308 129.001 C 224.973 128.340,224.396 127.510,224.027 127.157 C 223.657 126.803,223.123 125.453,222.839 124.157 C 222.556 122.860,222.170 121.406,221.982 120.925 C 221.700 120.205,221.796 120.020,222.520 119.880 C 223.004 119.786,223.491 119.684,223.602 119.654 C 223.713 119.625,224.433 120.422,225.202 121.427 M162.495 125.471 C 161.066 127.075,161.065 128.176,162.490 128.629 C 163.418 128.923,164.400 127.971,164.400 126.777 C 164.400 126.409,164.773 125.634,165.229 125.054 L 166.058 124.000 164.929 124.002 C 164.135 124.004,163.413 124.439,162.495 125.471 M169.019 143.300 C 168.933 143.575,168.782 144.645,168.683 145.679 C 168.584 146.712,168.132 148.269,167.679 149.139 C 166.668 151.077,167.142 152.083,168.898 151.729 C 170.460 151.414,172.616 147.074,172.230 145.020 C 171.886 143.186,169.460 141.887,169.019 143.300 M262.200 148.588 C 261.980 148.666,261.307 148.839,260.705 148.971 C 259.943 149.139,259.355 149.712,258.772 150.854 C 257.829 152.704,257.951 152.945,260.200 153.678 C 261.501 154.102,261.824 154.410,261.929 155.322 C 262.065 156.509,263.487 157.482,264.512 157.089 C 265.192 156.828,266.193 152.421,265.867 151.124 C 265.411 149.308,263.635 148.080,262.200 148.588 M250.648 185.702 C 248.729 188.218,248.378 190.452,249.269 194.480 L 249.738 196.600 250.028 195.254 C 250.187 194.513,250.664 193.433,251.087 192.854 C 251.739 191.960,254.007 185.616,254.002 184.700 C 253.996 183.770,251.568 184.495,250.648 185.702 M213.297 202.613 C 212.819 203.466,212.202 202.694,212.578 201.714 C 212.754 201.254,212.950 201.190,213.255 201.495 C 213.538 201.778,213.552 202.156,213.297 202.613 M211.600 204.181 C 211.600 205.018,210.733 206.800,210.326 206.800 C 210.136 206.800,209.796 207.284,209.572 207.875 C 209.347 208.466,208.803 209.321,208.364 209.775 C 207.607 210.557,205.815 212.735,203.600 215.564 C 203.050 216.267,202.038 217.433,201.352 218.155 C 198.684 220.965,198.515 221.495,199.900 222.721 C 202.364 224.901,202.077 230.282,199.229 235.300 C 197.373 238.570,196.517 237.364,197.661 233.089 C 198.238 230.931,197.581 225.884,196.578 224.776 C 195.645 223.744,194.324 224.467,191.851 227.361 L 189.959 229.575 190.043 232.688 C 190.134 236.067,189.405 239.667,188.117 242.200 C 187.669 243.080,187.165 244.250,186.998 244.800 C 186.686 245.822,184.424 249.299,183.922 249.526 C 183.770 249.595,183.448 250.225,183.207 250.926 C 182.952 251.666,181.913 252.871,180.730 253.800 C 179.609 254.680,178.246 256.069,177.702 256.886 C 176.668 258.439,174.708 260.116,173.127 260.801 C 172.617 261.022,171.390 261.833,170.400 262.602 C 169.410 263.371,168.150 264.218,167.600 264.484 C 166.531 265.001,164.337 266.657,162.958 267.988 C 162.495 268.434,161.944 268.800,161.735 268.800 C 161.526 268.800,160.284 269.878,158.977 271.197 C 156.614 273.579,155.390 274.089,154.058 273.244 C 152.673 272.367,154.062 261.251,155.813 259.200 C 156.095 258.870,156.530 257.832,156.780 256.892 C 157.030 255.953,157.587 254.965,158.017 254.696 C 158.458 254.421,158.800 253.767,158.800 253.199 C 158.800 252.536,159.109 252.054,159.700 251.795 C 160.243 251.557,160.649 250.980,160.723 250.341 C 160.799 249.678,161.147 249.202,161.652 249.070 C 162.096 248.954,162.555 248.492,162.673 248.043 C 162.790 247.594,163.238 247.115,163.668 246.979 C 164.097 246.842,164.642 246.306,164.879 245.786 C 165.116 245.266,165.690 244.787,166.155 244.721 C 166.620 244.654,167.023 244.375,167.050 244.100 C 167.078 243.825,167.123 243.441,167.150 243.247 C 167.178 243.052,167.558 242.800,167.995 242.685 C 168.433 242.571,168.968 242.010,169.185 241.439 C 169.402 240.867,169.766 240.400,169.993 240.400 C 170.220 240.400,170.797 239.950,171.275 239.400 C 171.753 238.850,172.360 238.400,172.623 238.400 C 172.887 238.400,173.337 238.117,173.624 237.771 C 173.911 237.425,174.834 236.791,175.673 236.363 C 176.513 235.934,177.200 235.348,177.200 235.059 C 177.200 234.771,177.695 234.284,178.300 233.978 C 180.149 233.040,190.665 224.528,190.977 223.717 C 191.086 223.433,191.440 223.200,191.765 223.200 C 192.089 223.200,192.590 222.882,192.877 222.493 C 193.165 222.104,193.850 221.499,194.400 221.149 C 195.277 220.590,199.809 216.136,205.947 209.800 C 207.012 208.700,208.012 207.395,208.169 206.900 C 208.326 206.405,208.762 206.000,209.139 206.000 C 209.533 206.000,210.017 205.490,210.278 204.800 C 210.746 203.559,211.600 203.159,211.600 204.181 M252.785 227.228 C 251.919 228.845,252.795 230.308,257.300 234.771 C 258.565 236.024,259.600 237.344,259.600 237.705 C 259.600 238.065,259.897 238.526,260.260 238.729 C 261.084 239.190,260.837 245.250,259.920 247.066 C 259.605 247.690,259.161 248.560,258.933 249.000 C 256.637 253.433,254.800 258.245,254.800 259.825 C 254.800 262.590,257.238 263.757,257.788 261.255 C 257.933 260.595,258.282 259.864,258.564 259.630 C 258.846 259.396,259.395 258.498,259.785 257.634 C 260.226 256.655,260.842 255.976,261.420 255.831 C 261.930 255.703,262.457 255.250,262.592 254.824 C 262.728 254.398,263.445 253.849,264.187 253.604 C 264.929 253.359,265.761 252.888,266.036 252.556 C 266.311 252.225,267.098 251.719,267.785 251.432 C 269.010 250.920,271.802 247.915,272.779 246.056 C 275.375 241.116,273.748 230.183,270.052 227.732 C 268.169 226.482,266.000 227.375,266.000 229.400 C 266.000 231.877,261.821 231.961,259.540 229.530 C 258.956 228.908,258.089 228.400,257.613 228.400 C 257.136 228.400,256.157 227.950,255.436 227.400 C 253.841 226.184,253.360 226.153,252.785 227.228 M155.162 228.700 C 154.867 229.085,154.575 229.475,154.513 229.567 C 154.451 229.658,154.400 229.343,154.400 228.867 C 154.400 228.334,154.650 228.000,155.049 228.000 C 155.604 228.000,155.621 228.101,155.162 228.700 M153.400 231.300 C 153.255 232.015,152.715 232.960,152.200 233.400 C 151.685 233.840,151.140 234.869,150.990 235.687 C 150.839 236.505,150.383 237.559,149.975 238.028 C 149.568 238.498,149.026 239.514,148.771 240.287 C 148.516 241.060,147.968 242.032,147.554 242.446 C 147.139 242.861,146.799 243.695,146.798 244.300 C 146.794 246.064,146.060 248.222,145.198 249.002 C 144.490 249.642,144.400 250.236,144.400 254.262 C 144.400 258.919,144.022 259.891,143.191 257.372 C 142.932 256.587,142.480 255.852,142.188 255.740 C 140.402 255.055,140.446 245.031,142.245 242.761 C 142.490 242.453,142.809 241.700,142.955 241.090 C 143.101 240.479,143.531 239.663,143.910 239.277 C 144.290 238.890,145.086 237.928,145.681 237.139 C 147.032 235.344,150.775 231.600,151.217 231.600 C 151.398 231.600,151.660 231.240,151.800 230.800 C 152.268 229.326,153.709 229.776,153.400 231.300 M236.588 249.620 C 236.207 250.235,236.728 250.632,237.242 250.118 C 237.529 249.831,237.536 249.607,237.262 249.439 C 237.039 249.300,236.735 249.382,236.588 249.620 M242.667 253.467 C 242.000 254.134,242.472 254.800,243.613 254.800 C 244.498 254.800,244.922 255.043,245.183 255.700 C 245.496 256.489,245.532 256.440,245.470 255.301 C 245.420 254.375,245.205 254.001,244.724 254.001 C 244.352 254.000,243.936 253.820,243.800 253.600 C 243.515 253.138,243.050 253.083,242.667 253.467 M246.800 258.776 C 246.800 259.203,246.980 259.664,247.200 259.800 C 247.427 259.940,247.600 259.604,247.600 259.024 C 247.600 258.461,247.420 258.000,247.200 258.000 C 246.980 258.000,246.800 258.349,246.800 258.776 M154.800 275.000 C 154.800 275.739,154.588 276.000,153.987 276.000 C 153.518 276.000,153.021 276.381,152.812 276.900 C 152.497 277.684,152.447 277.610,152.425 276.320 C 152.408 275.313,152.624 274.709,153.100 274.432 C 154.254 273.760,154.800 273.943,154.800 275.000 M256.830 280.900 C 256.491 281.787,256.482 281.784,256.200 280.701 C 256.043 280.096,256.041 279.286,256.197 278.901 C 256.644 277.793,257.267 279.758,256.830 280.900 M198.581 283.569 C 198.859 284.020,197.425 286.609,196.089 288.068 C 195.252 288.983,195.171 289.298,195.524 290.268 C 195.784 290.982,195.949 291.138,195.968 290.690 C 195.989 290.231,196.428 289.894,197.214 289.737 C 197.882 289.604,198.608 289.158,198.828 288.747 C 199.048 288.336,199.437 288.000,199.693 288.000 C 199.948 288.000,200.813 287.545,201.615 286.989 C 202.428 286.426,204.079 285.815,205.343 285.609 C 206.591 285.406,207.787 285.132,208.001 284.999 C 208.893 284.448,213.177 286.918,213.611 288.233 C 213.841 288.932,214.383 289.823,214.815 290.214 C 215.247 290.604,215.600 291.131,215.600 291.383 C 215.600 291.636,216.031 292.733,216.559 293.821 C 217.086 294.910,217.820 296.743,218.189 297.895 C 219.047 300.572,219.369 300.736,220.685 299.172 L 221.762 297.892 225.414 298.110 C 231.486 298.472,234.462 300.147,237.451 304.881 C 237.978 305.716,238.566 306.400,238.756 306.400 C 238.947 306.400,239.339 306.985,239.628 307.700 C 239.917 308.415,240.585 309.664,241.113 310.475 C 241.641 311.286,242.232 312.546,242.426 313.275 C 243.740 318.199,244.446 320.391,245.149 321.737 C 245.590 322.583,246.065 324.293,246.204 325.537 C 246.343 326.782,246.665 328.340,246.919 329.000 C 247.174 329.660,247.394 330.380,247.407 330.600 C 247.421 330.820,247.581 333.100,247.762 335.667 C 248.103 340.488,247.832 342.109,246.162 345.262 C 245.853 345.846,245.600 346.589,245.600 346.913 C 245.600 347.237,245.359 347.702,245.065 347.946 C 244.770 348.191,244.300 349.158,244.020 350.095 C 243.739 351.033,243.167 352.282,242.749 352.870 C 242.292 353.512,241.831 355.176,241.596 357.029 C 241.164 360.442,240.332 361.912,237.430 364.394 C 236.534 365.161,234.990 366.617,234.000 367.629 C 231.435 370.252,230.485 370.699,229.739 369.635 C 229.418 369.176,228.940 368.788,228.677 368.773 C 228.079 368.738,224.965 362.415,224.357 360.000 C 223.809 357.824,223.632 358.168,222.610 363.400 C 222.223 365.380,221.681 367.450,221.407 368.000 C 221.132 368.550,220.682 369.990,220.406 371.200 C 219.405 375.590,215.627 380.794,214.198 379.749 C 213.252 379.057,212.136 379.044,211.720 379.720 C 209.567 383.220,190.701 383.706,184.749 380.415 C 184.391 380.217,183.406 379.925,182.560 379.766 C 181.057 379.484,177.198 377.757,176.800 377.188 C 176.690 377.031,175.736 376.511,174.680 376.032 C 172.545 375.064,169.600 372.597,169.600 371.776 C 169.600 371.484,169.225 370.983,168.766 370.662 C 166.956 369.393,164.784 363.981,163.967 358.700 L 163.487 355.600 162.187 355.600 C 160.649 355.600,159.790 357.240,159.345 361.029 L 159.083 363.260 157.547 360.037 C 156.702 358.264,155.648 356.587,155.205 356.311 C 154.762 356.034,154.400 355.405,154.400 354.912 C 154.400 353.862,153.238 350.800,152.839 350.800 C 152.310 350.800,151.237 346.567,151.014 343.600 C 150.693 339.343,150.138 334.626,149.601 331.600 C 149.085 328.691,149.259 326.914,150.404 323.400 C 150.834 322.080,151.239 320.634,151.305 320.186 C 151.370 319.738,151.797 318.838,152.253 318.186 C 152.949 317.192,153.257 316.432,153.787 314.400 C 153.816 314.290,153.976 313.345,154.144 312.300 C 154.312 311.255,154.606 310.400,154.798 310.400 C 154.989 310.400,155.258 310.048,155.394 309.618 C 155.531 309.188,156.358 307.973,157.231 306.918 C 158.105 305.863,159.198 304.220,159.661 303.268 C 160.124 302.315,160.756 301.438,161.065 301.320 C 161.375 301.201,162.200 300.270,162.899 299.252 C 164.559 296.832,165.553 296.030,166.910 296.013 C 167.681 296.004,168.129 295.725,168.378 295.100 C 168.902 293.785,171.079 291.917,171.896 292.082 C 172.808 292.266,172.640 294.647,171.634 295.800 C 171.250 296.240,170.725 297.344,170.466 298.253 C 170.208 299.161,169.727 300.128,169.398 300.402 C 169.069 300.675,168.800 301.238,168.800 301.653 C 168.800 302.068,168.440 302.716,168.000 303.093 C 167.556 303.473,167.200 304.273,167.200 304.889 C 167.200 306.188,167.809 306.373,168.124 305.170 C 168.243 304.714,168.699 304.247,169.138 304.132 C 169.576 304.018,170.148 303.408,170.410 302.777 C 170.671 302.146,171.361 301.095,171.942 300.441 C 172.524 299.787,173.630 298.496,174.400 297.572 C 176.230 295.377,183.177 288.400,183.532 288.400 C 183.684 288.400,184.267 287.975,184.827 287.455 C 186.132 286.246,187.345 285.600,188.315 285.600 C 188.738 285.600,189.569 285.150,190.162 284.600 C 191.304 283.542,192.580 283.363,194.682 283.966 C 195.643 284.242,196.074 284.192,196.428 283.766 C 196.958 283.127,198.236 283.010,198.581 283.569 M162.613 325.178 C 162.063 326.070,161.902 331.091,162.378 332.535 C 163.404 335.641,164.091 333.898,163.918 328.632 C 163.807 325.285,163.329 324.020,162.613 325.178 " stroke="none" fill="#5cbadf" fill-rule="evenodd"></path>
        <path id="outline" d="M214.618 2.537 C 213.516 3.343,213.932 6.728,215.338 8.400 C 215.922 9.094,216.400 10.084,216.400 10.600 C 216.400 11.116,216.805 12.049,217.300 12.672 C 217.795 13.296,218.398 14.165,218.640 14.603 C 219.832 16.759,223.773 14.437,224.615 11.083 C 224.868 10.075,223.281 7.283,222.200 6.834 C 221.980 6.743,221.350 6.190,220.800 5.605 C 220.250 5.020,219.178 4.326,218.417 4.063 C 217.657 3.799,216.656 3.228,216.192 2.793 C 215.469 2.113,215.248 2.077,214.618 2.537 M219.153 6.800 C 220.874 6.800,222.460 9.593,221.625 11.154 C 220.495 13.264,219.651 13.024,218.385 10.231 C 217.045 7.276,216.745 5.088,217.829 6.171 C 218.174 6.517,218.770 6.800,219.153 6.800 M205.960 19.539 C 203.057 19.826,202.000 20.429,202.000 21.799 C 202.000 22.714,203.761 26.205,204.432 26.620 C 205.091 27.027,204.835 30.447,204.049 31.753 C 203.635 32.439,203.082 33.630,202.819 34.400 C 202.480 35.393,201.241 36.724,198.554 38.981 C 193.814 42.961,192.400 45.194,192.400 48.700 C 192.400 52.920,193.734 52.679,197.200 47.831 C 199.253 44.960,205.063 41.218,207.509 41.193 C 209.164 41.175,213.946 36.859,214.603 34.791 C 214.741 34.356,215.014 34.000,215.210 34.000 C 215.406 34.000,215.953 32.695,216.425 31.100 C 216.897 29.505,217.428 28.020,217.604 27.800 C 218.860 26.230,216.760 21.061,214.435 19.999 C 213.174 19.423,209.276 19.211,205.960 19.539 M213.153 22.565 C 215.146 24.036,215.575 24.822,215.572 27.000 C 215.565 31.593,208.572 40.277,204.794 40.383 C 203.547 40.418,199.073 42.924,197.466 44.488 L 195.800 46.110 195.675 45.067 C 195.549 44.024,197.822 41.200,198.787 41.200 C 199.014 41.200,199.200 40.936,199.200 40.614 C 199.200 40.292,199.602 39.813,200.092 39.551 C 201.243 38.935,204.000 36.069,204.000 35.489 C 204.000 35.244,204.466 34.371,205.035 33.549 C 206.239 31.813,206.780 27.913,206.067 26.114 C 204.743 22.770,205.652 21.616,209.622 21.606 C 211.349 21.601,212.136 21.815,213.153 22.565 M179.200 54.290 C 178.650 54.389,177.840 54.801,177.400 55.205 C 176.960 55.610,176.060 56.066,175.400 56.220 C 174.202 56.499,170.800 59.414,170.800 60.162 C 170.800 60.379,170.355 61.199,169.811 61.983 C 169.009 63.142,167.622 68.094,167.511 70.200 C 167.484 70.711,168.341 76.428,168.808 78.854 C 169.164 80.703,171.316 84.400,172.037 84.400 C 172.246 84.400,172.602 84.805,172.829 85.300 C 173.243 86.206,177.455 88.800,178.512 88.800 C 178.825 88.800,179.927 89.250,180.962 89.800 C 181.996 90.350,183.308 90.800,183.877 90.800 C 185.193 90.800,196.155 101.751,196.579 103.490 C 196.728 104.100,197.270 105.230,197.782 106.000 C 198.294 106.770,198.838 108.120,198.990 109.000 C 199.143 109.880,199.598 111.140,200.003 111.800 C 200.408 112.460,201.008 114.530,201.337 116.400 C 201.665 118.270,202.129 120.307,202.367 120.926 C 203.035 122.663,202.909 128.571,202.166 130.313 C 201.818 131.131,201.371 132.910,201.173 134.267 C 200.975 135.624,200.360 137.586,199.806 138.627 C 199.253 139.667,198.800 140.821,198.800 141.190 C 198.800 141.559,198.350 142.283,197.800 142.800 C 197.250 143.317,196.800 143.972,196.800 144.256 C 196.800 144.540,196.260 145.387,195.600 146.139 C 194.940 146.891,194.400 147.681,194.400 147.895 C 194.400 148.109,192.645 150.026,190.500 152.154 C 184.989 157.622,185.013 157.600,184.586 157.604 C 184.214 157.608,181.370 159.658,179.875 160.999 C 179.476 161.357,178.396 162.010,177.475 162.449 C 175.025 163.619,173.491 164.513,172.219 165.513 C 171.599 166.001,170.857 166.400,170.571 166.400 C 170.284 166.400,169.458 166.940,168.736 167.600 C 168.013 168.260,167.127 168.800,166.766 168.800 C 166.172 168.800,164.839 169.704,162.000 172.032 C 161.450 172.483,160.010 173.518,158.800 174.334 C 153.088 178.181,140.800 191.025,140.800 193.147 C 140.800 193.363,140.362 194.060,139.826 194.696 C 139.290 195.333,138.723 196.382,138.566 197.027 C 138.408 197.672,137.767 198.791,137.140 199.514 C 136.513 200.237,136.000 201.064,136.000 201.352 C 136.000 201.640,135.569 202.377,135.043 202.989 C 134.516 203.602,133.979 204.770,133.849 205.584 C 133.719 206.399,133.272 207.373,132.857 207.749 C 132.441 208.125,132.003 209.159,131.884 210.047 C 131.765 210.935,131.404 211.963,131.081 212.331 C 130.758 212.699,130.209 214.422,129.861 216.160 C 129.473 218.092,128.911 219.656,128.414 220.186 C 127.966 220.662,127.600 221.234,127.600 221.456 C 127.600 221.679,127.170 222.265,126.644 222.758 C 126.119 223.252,125.580 224.199,125.448 224.862 C 125.315 225.525,124.831 226.595,124.372 227.239 C 123.913 227.884,123.387 229.444,123.202 230.706 C 123.017 231.967,122.574 234.080,122.218 235.400 C 121.280 238.873,121.342 243.661,122.366 246.698 C 122.824 248.060,123.200 249.556,123.200 250.022 C 123.200 252.334,127.898 259.507,131.352 262.470 C 134.884 265.500,135.527 265.966,136.505 266.212 C 137.089 266.359,137.779 266.734,138.039 267.047 C 138.298 267.359,139.137 267.912,139.902 268.275 C 143.325 269.899,144.433 279.451,141.638 283.234 C 139.394 286.270,138.698 289.675,138.442 298.859 C 138.238 306.147,138.095 307.635,137.534 308.259 C 137.167 308.666,136.554 309.810,136.172 310.800 C 135.789 311.790,135.244 312.873,134.961 313.206 C 134.677 313.540,134.251 314.680,134.013 315.741 C 133.776 316.801,133.194 318.418,132.720 319.334 C 131.582 321.536,131.467 336.820,132.538 343.400 C 133.821 351.281,134.417 354.167,134.928 354.977 C 135.214 355.430,135.754 356.610,136.128 357.600 C 136.563 358.749,137.597 360.123,138.986 361.400 C 143.776 365.803,146.523 368.674,147.341 370.134 C 147.813 370.978,148.479 372.148,148.820 372.734 C 149.160 373.320,150.033 374.835,150.758 376.100 C 151.483 377.365,152.206 378.400,152.364 378.400 C 152.522 378.400,152.952 379.030,153.319 379.800 C 153.687 380.570,154.166 381.200,154.385 381.200 C 154.604 381.200,155.155 381.875,155.608 382.700 C 160.396 391.414,168.578 395.400,178.804 393.999 C 183.496 393.357,189.420 394.847,192.400 397.419 C 192.894 397.846,199.104 398.800,201.384 398.800 C 201.723 398.800,202.000 399.070,202.000 399.400 C 202.000 399.867,202.533 400.000,204.400 400.000 C 206.267 400.000,206.800 399.867,206.800 399.400 C 206.800 398.977,207.243 398.794,208.300 398.779 C 210.899 398.743,215.337 397.781,217.000 396.894 C 219.471 395.577,225.866 393.613,227.712 393.605 C 228.324 393.602,229.854 393.173,231.112 392.651 C 232.370 392.129,234.084 391.579,234.920 391.429 C 235.756 391.279,237.268 390.716,238.280 390.178 C 239.291 389.640,240.327 389.200,240.582 389.200 C 241.438 389.200,246.588 383.821,247.800 381.661 C 248.460 380.485,249.384 379.043,249.854 378.458 C 250.324 377.872,251.003 376.765,251.363 375.997 C 252.187 374.236,255.584 368.096,256.458 366.786 C 256.820 366.244,257.250 365.350,257.413 364.800 C 257.576 364.250,258.135 363.291,258.655 362.669 C 259.175 362.047,259.600 361.227,259.600 360.847 C 259.600 360.467,260.050 359.545,260.600 358.800 C 261.150 358.055,261.600 357.126,261.600 356.736 C 261.600 356.347,262.116 355.437,262.746 354.714 C 263.376 353.991,264.011 353.019,264.156 352.553 C 264.302 352.087,264.776 351.384,265.210 350.991 C 265.645 350.598,266.005 350.079,266.011 349.838 C 266.017 349.597,266.557 348.693,267.211 347.829 C 267.865 346.965,268.400 345.965,268.400 345.606 C 268.400 345.248,268.850 344.345,269.400 343.600 C 269.950 342.855,270.400 341.946,270.400 341.582 C 270.400 341.217,270.849 340.074,271.398 339.042 C 271.947 338.010,272.512 336.408,272.654 335.482 C 272.796 334.557,273.290 333.080,273.752 332.200 C 275.104 329.625,274.959 317.379,273.529 313.400 C 272.976 311.860,272.400 309.943,272.251 309.140 C 272.101 308.337,271.718 307.464,271.400 307.200 C 271.082 306.936,270.701 306.063,270.555 305.260 C 270.409 304.457,269.967 303.340,269.572 302.777 C 269.178 302.214,268.553 300.999,268.184 300.077 C 267.815 299.155,267.380 298.400,267.217 298.400 C 267.055 298.400,266.599 297.685,266.205 296.812 C 265.811 295.938,265.154 294.920,264.745 294.550 C 264.335 294.179,264.000 293.668,264.000 293.413 C 264.000 293.159,263.625 292.548,263.166 292.055 C 261.337 290.093,259.651 280.547,260.765 278.465 C 261.496 277.099,262.306 269.500,261.995 266.934 C 261.652 264.113,262.021 261.492,262.901 260.489 C 263.233 260.110,263.615 259.437,263.750 258.994 C 263.884 258.551,265.209 257.111,266.694 255.794 C 271.853 251.220,274.800 247.900,274.800 246.662 C 274.800 246.036,275.205 244.956,275.700 244.262 C 277.019 242.412,277.056 234.045,275.752 232.200 C 275.286 231.540,274.766 230.554,274.597 230.009 C 272.850 224.395,266.452 221.362,262.241 224.153 C 258.435 226.676,254.368 225.017,253.100 220.424 C 252.886 219.648,252.383 218.595,251.982 218.086 C 251.581 217.576,251.131 216.183,250.982 214.991 C 250.710 212.815,249.892 211.546,249.205 212.237 C 247.957 213.493,246.535 225.942,247.568 226.580 C 247.770 226.705,248.135 227.737,248.378 228.873 C 248.808 230.877,250.972 233.998,253.458 236.200 C 253.954 236.640,255.103 237.990,256.011 239.200 L 257.661 241.400 257.485 244.600 C 257.319 247.611,255.521 252.210,253.565 254.631 C 253.373 254.868,253.043 256.283,252.832 257.774 C 252.621 259.265,252.353 260.581,252.236 260.697 C 251.890 261.043,249.666 258.448,248.773 256.658 C 246.631 252.362,245.956 251.200,245.600 251.200 C 245.389 251.200,244.849 250.480,244.400 249.600 C 243.951 248.720,243.436 248.000,243.256 248.000 C 243.076 248.000,242.691 247.283,242.402 246.406 C 242.113 245.529,241.547 244.514,241.146 244.151 C 240.744 243.787,240.303 242.891,240.166 242.159 C 240.029 241.427,239.666 240.621,239.359 240.366 C 239.053 240.112,238.537 239.010,238.213 237.918 C 237.888 236.825,237.277 235.362,236.854 234.666 C 236.431 233.969,235.957 232.590,235.800 231.600 C 235.644 230.610,235.166 229.419,234.739 228.954 C 234.167 228.331,233.862 227.132,233.578 224.391 C 233.367 222.346,232.925 219.769,232.597 218.664 C 231.744 215.792,231.832 211.449,232.800 208.696 C 233.240 207.444,233.600 205.820,233.600 205.088 C 233.600 204.295,234.005 203.207,234.600 202.400 C 235.150 201.655,235.600 200.835,235.600 200.579 C 235.600 200.322,236.140 199.101,236.800 197.864 C 237.460 196.627,238.000 195.287,238.000 194.885 C 238.000 194.484,238.450 193.545,239.000 192.800 C 239.550 192.055,240.000 190.975,240.000 190.400 C 240.000 189.825,240.450 188.745,241.000 188.000 C 241.550 187.255,242.000 186.236,242.000 185.736 C 242.000 185.236,242.540 184.275,243.200 183.600 C 243.860 182.925,244.400 182.032,244.400 181.617 C 244.400 181.201,244.863 180.312,245.428 179.640 C 246.184 178.742,246.510 177.806,246.661 176.109 C 246.773 174.839,247.206 172.900,247.623 171.800 C 248.039 170.700,248.551 168.378,248.759 166.641 C 249.011 164.531,249.413 163.108,249.969 162.357 C 250.426 161.738,250.800 160.722,250.800 160.097 C 250.800 158.755,253.209 156.199,254.857 155.794 C 258.836 154.817,261.226 161.676,258.172 165.307 C 257.637 165.942,257.200 166.803,257.200 167.221 C 257.200 167.640,256.750 168.276,256.200 168.637 C 255.499 169.096,255.200 169.653,255.200 170.498 C 255.200 171.611,254.766 172.269,251.839 175.600 C 250.499 177.125,253.309 177.888,254.944 176.443 C 259.224 172.658,259.437 172.350,260.773 168.000 C 261.482 165.690,262.232 163.530,262.440 163.200 C 264.104 160.561,264.523 160.000,264.835 160.000 C 265.749 160.000,267.920 155.740,268.164 153.469 C 268.534 150.020,267.954 148.390,265.805 146.847 C 263.212 144.985,263.055 142.892,265.327 140.468 C 266.157 139.581,266.202 139.170,266.233 132.068 C 266.265 124.763,266.289 124.557,267.333 122.640 C 267.920 121.563,268.400 120.391,268.400 120.037 C 268.400 119.683,268.827 118.585,269.350 117.597 C 270.496 115.427,271.019 110.336,270.592 105.505 L 270.306 102.277 267.938 99.939 C 264.005 96.054,261.645 96.903,256.067 104.207 C 252.765 108.531,250.427 110.130,247.112 110.328 C 243.849 110.523,243.331 110.981,244.151 112.945 C 245.538 116.265,247.848 117.285,251.482 116.184 C 254.334 115.319,256.160 125.013,253.800 128.486 C 253.250 129.295,252.800 130.133,252.800 130.348 C 252.800 130.563,252.378 131.247,251.862 131.869 C 251.346 132.491,250.814 133.569,250.679 134.265 C 250.544 134.960,250.021 135.980,249.517 136.531 C 249.013 137.082,248.060 138.178,247.400 138.968 C 246.250 140.344,243.952 142.000,243.193 142.000 C 242.792 142.000,242.275 140.221,241.623 136.600 C 239.758 126.251,239.392 124.923,237.369 121.200 C 237.070 120.650,236.511 119.570,236.126 118.800 C 235.741 118.030,235.060 116.860,234.613 116.200 C 233.848 115.071,233.788 114.228,233.600 102.000 C 233.408 89.548,233.363 88.941,232.534 87.600 C 232.057 86.830,231.536 85.490,231.375 84.623 C 230.994 82.572,228.856 80.409,226.045 79.232 C 223.691 78.247,223.948 78.243,214.956 79.423 L 209.711 80.111 207.478 79.054 C 205.439 78.090,204.721 77.984,199.238 77.840 C 193.876 77.700,193.117 77.593,192.162 76.842 C 191.574 76.379,190.700 76.000,190.220 76.000 C 189.740 76.000,188.812 75.415,188.159 74.700 C 187.505 73.985,186.257 72.741,185.385 71.936 C 182.512 69.283,182.000 68.332,182.000 65.650 L 182.000 63.226 184.956 60.231 L 187.912 57.237 186.958 55.943 C 185.517 53.990,183.380 53.535,179.200 54.290 M184.471 57.652 C 184.031 57.815,183.539 58.361,183.379 58.866 C 183.219 59.371,182.596 60.243,181.996 60.804 C 180.920 61.809,180.000 64.703,180.000 67.085 C 180.000 70.399,185.331 77.399,188.400 78.116 C 188.950 78.244,190.390 78.715,191.600 79.162 C 192.813 79.610,194.810 79.980,196.051 79.987 C 198.522 80.001,199.057 80.369,199.265 82.191 C 199.542 84.628,207.557 85.363,211.483 83.310 C 215.170 81.383,222.188 80.320,224.990 81.264 C 226.872 81.898,229.394 85.754,229.830 88.663 C 230.277 91.643,229.348 107.114,228.659 108.166 C 228.328 108.671,227.882 110.047,227.669 111.223 L 227.280 113.361 229.666 115.781 C 235.812 122.013,236.829 123.931,238.366 132.193 C 239.600 138.825,239.981 142.818,239.590 145.000 C 239.191 147.225,238.651 150.902,237.983 155.961 C 237.738 157.810,237.283 159.712,236.970 160.189 C 236.658 160.666,236.286 162.434,236.143 164.117 L 235.885 167.177 237.938 169.105 C 242.222 173.126,242.679 174.503,241.223 179.000 C 240.796 180.320,240.052 182.750,239.570 184.400 C 239.088 186.050,238.178 188.377,237.547 189.571 C 236.916 190.765,236.400 192.136,236.400 192.617 C 236.400 193.098,236.026 193.967,235.570 194.548 C 233.944 196.614,230.926 205.088,230.280 209.400 C 229.637 213.688,229.850 228.940,230.573 230.371 C 230.859 230.937,231.311 232.329,231.578 233.465 C 231.845 234.601,232.499 236.121,233.031 236.843 C 233.564 237.565,234.000 238.395,234.000 238.688 C 234.000 238.980,234.450 239.391,235.000 239.600 C 235.882 239.935,236.000 240.215,236.000 241.976 C 236.000 244.942,233.945 245.593,231.660 243.351 C 231.142 242.843,230.422 242.326,230.060 242.201 C 229.697 242.076,228.770 241.151,228.000 240.144 C 227.230 239.137,226.093 237.827,225.474 237.231 C 224.269 236.073,223.592 235.030,222.597 232.800 C 222.253 232.030,221.573 230.590,221.086 229.600 C 220.130 227.658,219.751 215.946,220.478 210.800 C 220.841 208.230,220.559 206.400,219.801 206.400 C 219.317 206.400,218.400 209.432,218.400 211.034 C 218.400 211.361,218.155 212.027,217.856 212.514 C 216.210 215.197,216.138 231.694,217.765 233.594 C 218.050 233.928,218.491 235.280,218.745 236.600 C 218.998 237.920,219.491 239.212,219.839 239.470 C 220.187 239.729,220.771 240.539,221.136 241.270 C 221.501 242.002,222.475 243.035,223.300 243.567 C 224.125 244.099,224.811 244.729,224.825 244.967 C 224.863 245.639,228.157 247.883,229.555 248.190 C 230.243 248.341,230.991 248.809,231.216 249.230 C 231.445 249.658,232.399 250.190,233.380 250.437 C 234.345 250.680,235.540 251.311,236.037 251.839 C 236.533 252.368,237.256 252.800,237.643 252.800 C 238.030 252.800,238.460 253.160,238.600 253.600 C 238.740 254.040,239.103 254.400,239.408 254.400 C 240.448 254.400,241.832 255.251,242.216 256.126 C 242.427 256.607,242.988 257.170,243.462 257.378 C 243.948 257.592,244.548 258.437,244.839 259.318 C 245.147 260.253,245.704 261.011,246.227 261.210 C 246.804 261.430,247.190 262.019,247.364 262.948 C 247.623 264.331,247.660 264.354,249.579 264.339 C 252.999 264.312,253.765 265.082,252.522 267.299 C 252.282 267.726,250.008 266.476,249.959 265.890 C 249.937 265.620,249.775 266.004,249.601 266.742 C 249.285 268.081,249.471 278.805,249.817 279.151 C 250.027 279.360,250.159 276.426,250.027 274.501 C 249.818 271.464,251.158 269.600,253.550 269.600 C 255.079 269.600,255.122 269.684,255.663 273.671 C 256.215 277.737,256.563 278.210,257.422 276.062 C 258.489 273.395,258.940 274.430,258.636 278.846 C 258.250 284.448,258.686 288.521,259.858 290.247 C 260.376 291.011,260.800 291.825,260.800 292.056 C 260.800 292.287,261.205 293.044,261.699 293.738 C 262.653 295.077,263.402 296.366,264.794 299.061 C 265.266 299.975,266.000 301.038,266.426 301.423 C 266.852 301.809,267.200 302.429,267.200 302.802 C 267.200 303.176,267.650 304.327,268.200 305.362 C 268.750 306.396,269.200 307.412,269.200 307.620 C 269.200 307.828,269.720 309.123,270.355 310.499 C 273.682 317.706,272.403 336.138,268.257 340.740 C 267.930 341.103,267.531 341.940,267.370 342.600 C 267.028 344.000,264.983 347.843,263.964 349.000 C 263.576 349.440,263.136 350.295,262.986 350.900 C 262.836 351.505,262.557 352.000,262.365 352.000 C 261.840 352.000,258.544 357.232,258.227 358.568 C 258.075 359.211,257.602 360.180,257.175 360.722 C 256.749 361.264,256.400 361.892,256.400 362.116 C 256.400 362.341,255.950 363.114,255.400 363.836 C 254.850 364.557,254.400 365.497,254.400 365.924 C 254.400 366.352,254.114 366.939,253.765 367.229 C 252.927 367.924,250.000 373.770,250.000 374.748 C 250.000 375.170,249.738 375.615,249.418 375.738 C 249.098 375.861,248.483 376.645,248.051 377.481 C 247.618 378.316,246.890 379.313,246.432 379.696 C 245.975 380.079,245.600 380.678,245.600 381.028 C 245.600 382.164,238.903 388.399,237.679 388.404 C 237.085 388.406,235.700 388.826,234.600 389.338 C 233.500 389.849,231.799 390.396,230.820 390.552 C 229.841 390.707,228.851 390.976,228.620 391.148 C 227.934 391.658,225.181 392.349,222.077 392.789 C 220.478 393.016,218.690 393.516,218.103 393.900 C 217.077 394.572,216.535 394.809,213.000 396.128 C 209.032 397.608,196.565 397.285,193.760 395.629 C 192.987 395.173,192.005 394.800,191.577 394.800 C 191.150 394.800,190.800 394.625,190.800 394.410 C 190.800 392.935,183.404 391.695,178.395 392.330 C 174.518 392.821,170.182 392.470,168.760 391.549 C 168.232 391.207,167.280 390.798,166.645 390.642 C 166.010 390.485,164.913 389.917,164.208 389.379 C 163.502 388.840,162.738 388.400,162.510 388.400 C 162.014 388.400,159.176 384.651,158.498 383.100 C 158.233 382.495,157.824 382.000,157.588 382.000 C 157.352 382.000,156.979 381.486,156.760 380.857 C 156.541 380.229,155.920 379.478,155.381 379.190 C 154.841 378.901,154.400 378.439,154.400 378.163 C 154.400 377.887,153.975 377.153,153.456 376.531 C 152.936 375.909,151.821 373.979,150.976 372.242 C 150.084 370.405,149.140 369.005,148.721 368.895 C 148.324 368.792,148.000 368.474,148.000 368.189 C 148.000 367.202,145.886 364.450,144.775 363.990 C 144.160 363.735,143.560 363.273,143.441 362.963 C 143.322 362.654,142.859 362.400,142.413 362.400 C 141.963 362.400,141.600 362.136,141.600 361.809 C 141.600 361.484,141.157 360.928,140.616 360.573 C 140.074 360.219,139.510 359.540,139.361 359.064 C 139.212 358.589,138.665 357.691,138.145 357.069 C 137.591 356.406,137.198 355.413,137.196 354.669 C 137.194 353.971,136.730 352.410,136.165 351.200 C 135.294 349.334,135.084 348.120,134.778 343.200 C 134.579 340.010,134.147 335.765,133.818 333.766 C 133.399 331.230,133.333 329.732,133.598 328.809 C 133.806 328.081,134.091 326.116,134.230 324.443 C 134.519 320.980,135.259 318.039,136.409 315.783 C 136.844 314.929,137.200 313.798,137.200 313.268 C 137.200 312.739,137.722 311.711,138.360 310.984 C 139.575 309.600,140.526 306.367,140.145 304.911 C 140.026 304.456,140.201 302.399,140.535 300.341 C 140.869 298.284,141.262 294.715,141.409 292.411 C 141.618 289.147,141.889 287.803,142.638 286.324 C 143.167 285.281,143.602 284.016,143.605 283.513 C 143.607 283.011,144.092 281.790,144.681 280.800 C 146.379 277.946,146.267 273.064,144.430 269.853 C 143.211 267.721,136.375 262.400,134.856 262.400 C 134.678 262.400,134.052 261.905,133.464 261.300 C 132.877 260.695,132.082 259.906,131.698 259.548 C 131.314 259.189,130.682 258.469,130.293 257.948 C 129.905 257.426,128.959 256.217,128.191 255.259 C 127.423 254.301,126.677 253.041,126.533 252.459 C 126.390 251.877,125.950 250.770,125.556 250.000 C 122.671 244.364,124.105 231.077,128.274 224.807 C 128.783 224.041,129.200 223.196,129.200 222.930 C 129.200 222.663,129.529 222.210,129.932 221.923 C 130.335 221.635,130.991 220.860,131.391 220.200 C 132.526 218.325,140.714 210.530,142.340 209.776 C 143.143 209.403,144.093 208.843,144.451 208.531 C 145.157 207.917,147.550 206.564,150.400 205.169 C 151.390 204.684,152.259 204.136,152.331 203.951 C 152.403 203.766,153.177 203.421,154.052 203.186 C 154.926 202.951,156.017 202.326,156.476 201.799 C 156.935 201.271,157.808 200.730,158.416 200.597 C 159.024 200.463,160.208 200.004,161.046 199.577 C 161.884 199.150,163.209 198.800,163.991 198.800 C 164.772 198.800,166.089 198.437,166.917 197.993 C 167.744 197.550,169.362 196.986,170.511 196.741 C 171.660 196.495,173.029 195.958,173.554 195.547 C 174.079 195.136,174.826 194.800,175.216 194.800 C 175.605 194.800,177.425 194.104,179.262 193.253 C 181.098 192.401,183.405 191.366,184.390 190.953 C 185.374 190.539,186.786 189.789,187.527 189.287 C 188.268 188.785,190.427 187.561,192.325 186.568 C 194.223 185.576,195.871 184.617,195.988 184.438 C 196.104 184.258,196.785 183.812,197.500 183.446 C 198.215 183.079,198.800 182.625,198.800 182.435 C 198.800 182.246,199.475 181.774,200.300 181.385 C 201.125 180.997,202.192 180.302,202.671 179.840 C 203.150 179.378,203.734 178.820,203.968 178.600 C 208.678 174.180,212.880 168.691,213.920 165.600 C 214.253 164.610,214.857 163.371,215.263 162.846 C 216.134 161.719,216.285 158.800,215.472 158.800 C 215.181 158.800,214.139 159.565,213.157 160.500 C 212.175 161.435,210.000 162.881,208.324 163.712 C 206.648 164.544,205.071 165.473,204.819 165.777 C 204.567 166.081,203.478 166.541,202.400 166.800 C 201.322 167.059,200.255 167.493,200.029 167.766 C 199.261 168.690,188.780 173.590,187.533 173.607 C 187.240 173.611,186.208 174.151,185.240 174.807 C 184.272 175.463,183.024 176.000,182.466 176.000 C 181.442 176.000,180.397 176.423,174.600 179.189 C 172.840 180.028,170.590 181.076,169.600 181.517 C 165.152 183.499,162.468 184.931,160.800 186.213 C 159.810 186.974,158.367 188.022,157.594 188.544 C 156.821 189.065,155.935 189.797,155.625 190.170 C 155.315 190.544,154.147 191.465,153.030 192.217 C 151.914 192.969,150.063 194.443,148.919 195.492 C 147.774 196.542,146.266 197.850,145.567 198.400 C 144.868 198.950,143.824 199.922,143.248 200.560 C 142.672 201.198,141.921 202.008,141.580 202.360 C 141.239 202.712,140.647 203.498,140.266 204.107 C 139.686 205.032,139.444 205.145,138.786 204.793 C 137.695 204.208,137.790 202.565,139.000 201.127 C 139.550 200.473,140.000 199.647,140.000 199.291 C 140.000 198.624,140.534 197.739,144.159 192.400 C 144.682 191.630,145.895 190.183,146.855 189.185 C 147.815 188.186,149.090 186.654,149.689 185.779 C 150.288 184.905,152.766 182.572,155.197 180.595 C 157.627 178.618,161.097 175.783,162.908 174.297 C 164.719 172.810,167.010 171.182,168.000 170.680 C 168.990 170.177,170.880 169.071,172.200 168.222 C 173.520 167.373,175.770 166.050,177.200 165.281 C 182.932 162.200,188.184 158.337,191.476 154.779 C 192.178 154.021,193.407 152.770,194.209 152.000 C 195.010 151.230,195.946 150.060,196.288 149.400 C 196.631 148.740,197.038 148.110,197.193 148.000 C 199.090 146.651,202.364 139.437,203.936 133.144 C 205.759 125.849,204.641 115.316,201.342 108.713 C 200.824 107.676,200.400 106.431,200.400 105.948 C 200.400 104.989,198.809 102.293,196.122 98.696 C 194.137 96.039,194.173 96.150,195.136 95.634 C 195.889 95.231,201.289 98.050,203.333 99.913 C 204.081 100.595,206.298 101.339,211.891 102.786 C 217.200 104.159,221.369 97.114,217.646 93.062 C 216.173 91.459,211.709 89.300,208.940 88.851 C 207.653 88.643,205.634 88.090,204.454 87.624 C 203.109 87.092,201.989 86.883,201.454 87.064 C 200.984 87.223,199.650 87.308,198.489 87.253 C 197.191 87.191,195.895 87.393,195.127 87.776 C 193.342 88.667,190.672 88.540,187.085 87.395 C 185.371 86.848,183.641 86.400,183.239 86.400 C 182.837 86.400,182.058 86.046,181.509 85.614 C 180.960 85.182,179.747 84.657,178.814 84.448 C 177.192 84.083,172.453 80.068,172.414 79.026 C 172.406 78.820,171.995 78.221,171.500 77.694 C 170.335 76.454,170.108 67.508,171.221 66.668 C 171.562 66.411,172.065 65.188,172.338 63.952 C 173.226 59.927,176.474 57.388,181.600 56.711 C 183.164 56.505,185.501 57.271,184.471 57.652 M210.808 92.106 C 211.574 92.453,212.564 92.840,213.009 92.966 C 216.025 93.823,217.580 98.009,215.409 99.431 C 213.893 100.424,206.669 99.856,205.806 98.675 C 205.581 98.368,204.678 97.721,203.799 97.238 C 200.042 95.172,199.006 94.378,198.320 93.041 L 197.593 91.625 198.795 91.312 C 200.693 90.819,209.210 91.382,210.808 92.106 M265.549 100.842 C 269.266 102.138,270.057 114.239,266.776 119.600 C 264.495 123.326,263.323 127.747,264.040 129.920 C 265.447 134.186,263.216 140.564,258.554 145.600 C 258.248 145.930,257.157 147.280,256.128 148.600 C 255.099 149.920,253.322 151.998,252.179 153.218 C 251.035 154.438,249.733 156.148,249.283 157.018 C 248.834 157.888,248.085 158.831,247.619 159.113 C 247.152 159.394,246.596 160.084,246.383 160.645 C 245.895 161.928,245.042 161.692,244.869 160.227 C 244.783 159.494,245.021 158.853,245.569 158.343 C 246.068 157.878,246.400 157.069,246.400 156.320 C 246.400 155.632,246.825 154.334,247.344 153.435 C 247.863 152.536,248.401 151.061,248.539 150.158 C 248.776 148.613,249.610 146.473,251.798 141.800 C 252.313 140.700,252.860 139.350,253.013 138.800 C 253.166 138.250,253.609 137.260,253.997 136.600 C 254.385 135.940,254.830 134.680,254.985 133.800 C 255.141 132.920,255.547 131.889,255.888 131.509 C 257.417 129.805,257.415 119.961,255.886 116.000 C 254.531 112.491,254.152 112.281,251.130 113.360 C 249.699 113.871,248.201 113.618,249.157 113.026 C 249.401 112.876,249.600 112.403,249.600 111.976 C 249.600 111.480,249.874 111.200,250.362 111.200 C 250.781 111.200,251.878 110.570,252.800 109.800 C 253.722 109.030,254.594 108.397,254.738 108.394 C 254.882 108.391,255.680 107.536,256.511 106.494 C 257.342 105.452,258.667 103.790,259.457 102.800 C 261.420 100.338,262.816 99.889,265.549 100.842 M168.654 118.715 C 168.077 119.629,167.068 120.654,166.413 120.993 C 163.269 122.619,159.600 126.029,159.600 127.325 C 159.600 127.670,159.421 128.064,159.201 128.199 C 158.558 128.597,159.918 130.824,162.013 132.800 C 163.726 134.416,163.950 134.833,164.204 136.882 C 164.381 138.308,164.846 139.649,165.444 140.459 C 166.209 141.496,166.400 142.249,166.400 144.223 C 166.400 146.803,166.233 147.140,163.028 151.055 C 162.462 151.745,162.000 152.483,162.000 152.694 C 162.000 152.905,161.640 153.493,161.200 154.000 C 158.971 156.570,161.804 159.046,164.727 157.082 C 165.537 156.537,166.684 155.981,167.276 155.844 C 171.403 154.895,175.205 150.149,175.194 145.962 C 175.188 143.507,174.592 142.732,169.516 138.575 C 166.515 136.117,166.180 135.310,166.475 131.237 C 166.605 129.439,166.892 128.606,167.722 127.620 C 168.315 126.915,168.800 126.006,168.800 125.600 C 168.800 125.194,169.250 124.327,169.800 123.673 C 170.950 122.306,171.197 119.096,170.252 117.803 C 169.736 117.098,169.639 117.154,168.654 118.715 M222.520 119.880 C 221.796 120.020,221.700 120.205,221.982 120.925 C 222.170 121.406,222.556 122.860,222.839 124.157 C 223.123 125.453,223.657 126.803,224.027 127.157 C 224.396 127.510,224.973 128.340,225.308 129.001 C 225.644 129.661,226.297 130.544,226.759 130.963 C 227.222 131.382,227.600 131.940,227.600 132.204 C 227.600 132.467,228.042 133.160,228.582 133.743 C 229.122 134.326,229.682 135.432,229.827 136.201 C 230.394 139.225,230.915 137.595,230.689 133.500 C 230.449 129.130,229.759 127.094,227.647 124.527 C 227.071 123.827,225.971 122.432,225.202 121.427 C 224.433 120.422,223.713 119.625,223.602 119.654 C 223.491 119.684,223.004 119.786,222.520 119.880 M165.229 125.054 C 164.773 125.634,164.400 126.409,164.400 126.777 C 164.400 128.703,161.975 129.411,161.415 127.648 C 161.067 126.552,163.522 124.005,164.929 124.002 L 166.058 124.000 165.229 125.054 M171.209 143.205 C 173.342 144.346,171.481 151.208,168.898 151.729 C 167.142 152.083,166.668 151.077,167.679 149.139 C 168.132 148.269,168.584 146.712,168.683 145.679 C 168.976 142.617,169.377 142.224,171.209 143.205 M265.117 149.522 C 266.291 151.060,265.849 156.576,264.512 157.089 C 263.487 157.482,262.065 156.509,261.929 155.322 C 261.824 154.410,261.501 154.102,260.200 153.678 C 257.951 152.945,257.829 152.704,258.772 150.854 C 259.355 149.712,259.943 149.139,260.705 148.971 C 261.307 148.839,261.980 148.666,262.200 148.588 C 262.958 148.320,264.601 148.845,265.117 149.522 M189.772 177.369 C 189.612 178.008,188.891 178.838,188.017 179.389 C 187.201 179.904,185.289 181.501,183.767 182.939 C 180.834 185.710,178.800 187.363,176.938 188.489 C 176.312 188.867,175.530 189.353,175.200 189.568 C 174.870 189.783,174.060 190.228,173.400 190.558 C 169.102 192.707,168.000 193.329,168.000 193.607 C 168.000 193.779,167.055 194.144,165.900 194.418 C 164.745 194.692,163.291 195.340,162.669 195.858 C 162.047 196.376,161.129 196.800,160.629 196.800 C 160.129 196.800,158.873 197.250,157.838 197.800 C 156.804 198.350,155.708 198.800,155.403 198.800 C 155.098 198.800,153.287 199.610,151.378 200.600 C 148.422 202.134,144.167 203.327,146.500 201.968 C 146.885 201.744,147.200 201.249,147.200 200.868 C 147.200 200.205,150.760 196.980,155.000 193.803 C 156.100 192.979,157.272 191.965,157.604 191.549 C 157.937 191.133,158.776 190.479,159.470 190.096 C 163.221 188.025,163.864 187.614,164.562 186.843 C 164.981 186.379,165.739 186.000,166.246 186.000 C 166.754 186.000,167.491 185.671,167.884 185.268 C 168.844 184.287,174.257 181.600,175.274 181.600 C 175.720 181.600,176.619 181.150,177.273 180.600 C 177.927 180.050,178.853 179.599,179.331 179.599 C 179.809 179.598,180.797 179.233,181.526 178.789 C 182.255 178.344,183.785 177.786,184.926 177.549 C 186.067 177.311,187.539 176.784,188.198 176.376 C 189.602 175.507,190.152 175.854,189.772 177.369 M251.280 182.966 C 246.626 185.944,245.078 192.318,247.775 197.392 C 248.339 198.452,248.800 199.641,248.800 200.034 C 248.800 203.487,250.294 203.183,250.796 199.628 C 250.990 198.259,251.610 196.256,252.174 195.177 C 252.738 194.098,253.200 192.848,253.200 192.400 C 253.200 191.952,253.641 190.734,254.180 189.693 C 255.925 186.324,255.822 182.015,253.990 181.708 C 253.665 181.654,252.446 182.220,251.280 182.966 M254.002 184.700 C 254.007 185.616,251.739 191.960,251.087 192.854 C 250.664 193.433,250.187 194.513,250.028 195.254 L 249.738 196.600 249.269 194.480 C 248.378 190.452,248.729 188.218,250.648 185.702 C 251.568 184.495,253.996 183.770,254.002 184.700 M212.578 201.714 C 212.202 202.694,212.819 203.466,213.297 202.613 C 213.552 202.156,213.538 201.778,213.255 201.495 C 212.950 201.190,212.754 201.254,212.578 201.714 M210.278 204.800 C 210.017 205.490,209.533 206.000,209.139 206.000 C 208.762 206.000,208.326 206.405,208.169 206.900 C 208.012 207.395,207.012 208.700,205.947 209.800 C 199.809 216.136,195.277 220.590,194.400 221.149 C 193.850 221.499,193.165 222.104,192.877 222.493 C 192.590 222.882,192.089 223.200,191.765 223.200 C 191.440 223.200,191.086 223.433,190.977 223.717 C 190.665 224.528,180.149 233.040,178.300 233.978 C 177.695 234.284,177.200 234.771,177.200 235.059 C 177.200 235.348,176.513 235.934,175.673 236.363 C 174.834 236.791,173.911 237.425,173.624 237.771 C 173.337 238.117,172.887 238.400,172.623 238.400 C 172.360 238.400,171.753 238.850,171.275 239.400 C 170.797 239.950,170.220 240.400,169.993 240.400 C 169.766 240.400,169.402 240.867,169.185 241.439 C 168.968 242.010,168.433 242.571,167.995 242.685 C 167.558 242.800,167.178 243.052,167.150 243.247 C 167.123 243.441,167.078 243.825,167.050 244.100 C 167.023 244.375,166.620 244.654,166.155 244.721 C 165.690 244.787,165.116 245.266,164.879 245.786 C 164.642 246.306,164.097 246.842,163.668 246.979 C 163.238 247.115,162.790 247.594,162.673 248.043 C 162.555 248.492,162.096 248.954,161.652 249.070 C 161.147 249.202,160.799 249.678,160.723 250.341 C 160.649 250.980,160.243 251.557,159.700 251.795 C 159.109 252.054,158.800 252.536,158.800 253.199 C 158.800 253.767,158.458 254.421,158.017 254.696 C 157.587 254.965,157.030 255.953,156.780 256.892 C 156.530 257.832,156.095 258.870,155.813 259.200 C 154.062 261.251,152.673 272.367,154.058 273.244 C 155.390 274.089,156.614 273.579,158.977 271.197 C 160.284 269.878,161.526 268.800,161.735 268.800 C 161.944 268.800,162.495 268.434,162.958 267.988 C 164.337 266.657,166.531 265.001,167.600 264.484 C 168.150 264.218,169.410 263.371,170.400 262.602 C 171.390 261.833,172.617 261.022,173.127 260.801 C 174.708 260.116,176.668 258.439,177.702 256.886 C 178.246 256.069,179.609 254.680,180.730 253.800 C 181.913 252.871,182.952 251.666,183.207 250.926 C 183.448 250.225,183.770 249.595,183.922 249.526 C 184.424 249.299,186.686 245.822,186.998 244.800 C 187.165 244.250,187.669 243.080,188.117 242.200 C 189.405 239.667,190.134 236.067,190.043 232.688 L 189.959 229.575 191.851 227.361 C 194.324 224.467,195.645 223.744,196.578 224.776 C 197.581 225.884,198.238 230.931,197.661 233.089 C 196.517 237.364,197.373 238.570,199.229 235.300 C 202.077 230.282,202.364 224.901,199.900 222.721 C 198.515 221.495,198.684 220.965,201.352 218.155 C 202.038 217.433,203.050 216.267,203.600 215.564 C 205.815 212.735,207.607 210.557,208.364 209.775 C 208.803 209.321,209.347 208.466,209.572 207.875 C 209.796 207.284,210.136 206.800,210.326 206.800 C 210.733 206.800,211.600 205.018,211.600 204.181 C 211.600 203.159,210.746 203.559,210.278 204.800 M255.436 227.400 C 256.157 227.950,257.136 228.400,257.613 228.400 C 258.089 228.400,258.956 228.908,259.540 229.530 C 261.821 231.961,266.000 231.877,266.000 229.400 C 266.000 227.375,268.169 226.482,270.052 227.732 C 273.748 230.183,275.375 241.116,272.779 246.056 C 271.802 247.915,269.010 250.920,267.785 251.432 C 267.098 251.719,266.311 252.225,266.036 252.556 C 265.761 252.888,264.929 253.359,264.187 253.604 C 263.445 253.849,262.728 254.398,262.592 254.824 C 262.457 255.250,261.930 255.703,261.420 255.831 C 260.842 255.976,260.226 256.655,259.785 257.634 C 259.395 258.498,258.846 259.396,258.564 259.630 C 258.282 259.864,257.933 260.595,257.788 261.255 C 257.238 263.757,254.800 262.590,254.800 259.825 C 254.800 258.245,256.637 253.433,258.933 249.000 C 259.161 248.560,259.605 247.690,259.920 247.066 C 260.837 245.250,261.084 239.190,260.260 238.729 C 259.897 238.526,259.600 238.065,259.600 237.705 C 259.600 237.344,258.565 236.024,257.300 234.771 C 252.795 230.308,251.919 228.845,252.785 227.228 C 253.360 226.153,253.841 226.184,255.436 227.400 M154.400 228.867 C 154.400 229.343,154.451 229.658,154.513 229.567 C 154.575 229.475,154.867 229.085,155.162 228.700 C 155.621 228.101,155.604 228.000,155.049 228.000 C 154.650 228.000,154.400 228.334,154.400 228.867 M151.800 230.800 C 151.660 231.240,151.398 231.600,151.217 231.600 C 150.775 231.600,147.032 235.344,145.681 237.139 C 145.086 237.928,144.290 238.890,143.910 239.277 C 143.531 239.663,143.101 240.479,142.955 241.090 C 142.809 241.700,142.490 242.453,142.245 242.761 C 140.446 245.031,140.402 255.055,142.188 255.740 C 142.480 255.852,142.932 256.587,143.191 257.372 C 144.022 259.891,144.400 258.919,144.400 254.262 C 144.400 250.236,144.490 249.642,145.198 249.002 C 146.060 248.222,146.794 246.064,146.798 244.300 C 146.799 243.695,147.139 242.861,147.554 242.446 C 147.968 242.032,148.516 241.060,148.771 240.287 C 149.026 239.514,149.568 238.498,149.975 238.028 C 150.383 237.559,150.839 236.505,150.990 235.687 C 151.140 234.869,151.685 233.840,152.200 233.400 C 153.519 232.273,153.960 230.000,152.859 230.000 C 152.405 230.000,151.943 230.349,151.800 230.800 M187.520 234.080 C 188.232 234.792,188.103 236.419,187.203 238.098 C 186.765 238.915,186.219 240.425,185.988 241.452 C 185.758 242.480,185.126 243.847,184.585 244.491 C 184.043 245.135,183.597 245.873,183.593 246.131 C 183.575 247.244,177.817 254.070,174.632 256.753 C 174.209 257.109,173.469 257.805,172.986 258.300 C 172.503 258.795,171.992 259.200,171.850 259.200 C 171.562 259.200,167.975 261.686,165.200 263.809 C 164.210 264.566,162.770 265.538,162.000 265.967 C 161.230 266.397,159.812 267.480,158.849 268.375 C 157.087 270.011,156.028 270.425,155.967 269.500 C 155.809 267.082,156.182 264.008,156.777 262.822 C 157.170 262.040,157.724 260.680,158.009 259.800 C 158.293 258.920,159.254 257.210,160.144 256.000 C 163.258 251.765,172.379 243.278,177.246 240.086 C 180.524 237.936,181.560 237.154,183.063 235.691 C 185.100 233.709,186.605 233.165,187.520 234.080 M237.242 250.118 C 236.728 250.632,236.207 250.235,236.588 249.620 C 236.735 249.382,237.039 249.300,237.262 249.439 C 237.536 249.607,237.529 249.831,237.242 250.118 M243.800 253.600 C 243.936 253.820,244.352 254.000,244.724 254.001 C 245.205 254.001,245.420 254.375,245.470 255.301 C 245.532 256.440,245.496 256.489,245.183 255.700 C 244.922 255.043,244.498 254.800,243.613 254.800 C 242.869 254.800,242.400 254.594,242.400 254.267 C 242.400 253.279,243.328 252.837,243.800 253.600 M247.600 259.024 C 247.600 259.604,247.427 259.940,247.200 259.800 C 246.980 259.664,246.800 259.203,246.800 258.776 C 246.800 258.349,246.980 258.000,247.200 258.000 C 247.420 258.000,247.600 258.461,247.600 259.024 M153.100 274.432 C 152.624 274.709,152.408 275.313,152.425 276.320 C 152.447 277.610,152.497 277.684,152.812 276.900 C 153.021 276.381,153.518 276.000,153.987 276.000 C 154.588 276.000,154.800 275.739,154.800 275.000 C 154.800 273.943,154.254 273.760,153.100 274.432 M256.197 278.901 C 256.041 279.286,256.043 280.096,256.200 280.701 C 256.482 281.784,256.491 281.787,256.830 280.900 C 257.267 279.758,256.644 277.793,256.197 278.901 " stroke="none" fill="#4e7792" fill-rule="evenodd"></path>
    </g>
</svg>