<?xml version="1.0" standalone="no"?>
<!DOCTYPE svg PUBLIC "-//W3C//DTD SVG 20010904//EN"
 "http://www.w3.org/TR/2001/REC-SVG-20010904/DTD/svg10.dtd">
<svg version="1.0" xmlns="http://www.w3.org/2000/svg"
 width="185.000000pt" height="185.000000pt" viewBox="0 0 185.000000 185.000000"
 preserveAspectRatio="xMidYMid meet">
<metadata>
Created by potrace 1.10, written by Peter Selinger 2001-2011
</metadata>
<g transform="translate(0.000000,185.000000) scale(0.050000,-0.050000)"
fill="#000000" stroke="none">
<path d="M1980 3661 c0 -56 47 -120 73 -98 36 30 34 57 -8 89 -42 32 -65 35
-65 9z"/>
<path d="M1860 3502 c0 -11 9 -25 20 -32 32 -20 24 -44 -40 -117 -84 -96 -83
-153 2 -90 201 152 234 242 93 253 -41 4 -75 -3 -75 -14z"/>
<path d="M1598 3162 c-84 -67 -42 -282 54 -282 61 0 168 -125 199 -231 57
-195 -10 -317 -259 -478 -193 -125 -285 -222 -350 -371 -27 -61 -65 -147 -85
-191 -64 -142 -33 -264 93 -360 67 -51 72 -63 61 -128 -7 -39 -18 -111 -23
-161 -6 -49 -24 -118 -39 -153 -58 -126 -25 -426 50 -466 20 -11 59 -59 87
-106 78 -133 130 -170 254 -183 61 -6 156 -17 212 -23 118 -14 362 48 413 106
17 19 83 128 146 242 153 275 161 348 63 549 -82 169 -82 347 0 413 135 109
102 320 -46 292 -62 -12 -69 -8 -96 58 -37 88 -41 88 -47 0 -5 -72 18 -135 68
-185 32 -32 32 -71 -1 -163 l-25 -70 -73 130 c-115 205 -129 308 -63 463 29
69 66 167 83 216 48 146 64 180 86 180 42 0 43 -61 3 -130 -23 -38 -34 -70
-25 -70 26 0 82 71 82 104 0 17 14 42 30 56 33 28 41 113 11 123 -12 5 -11 52
1 127 58 336 38 396 -89 273 -36 -35 -81 -63 -101 -63 -31 0 -33 -5 -11 -31
14 -17 37 -26 52 -21 72 28 39 -160 -39 -225 -25 -20 -32 -12 -43 51 -8 41
-27 99 -43 129 -15 31 -28 112 -28 182 0 186 -22 208 -209 209 -208 2 -321 78
-243 163 65 72 -27 93 -110 25z m380 -320 c15 -10 22 -32 16 -49 -14 -37 -114
-12 -155 39 -28 33 89 41 139 10z m96 -352 c31 -58 31 -59 -6 -31 -21 15 -13
4 17 -26 30 -30 55 -67 55 -83 0 -16 12 -24 27 -18 17 6 32 -6 39 -31 5 -23 2
-36 -8 -30 -17 11 -23 -11 -25 -106 0 -25 -9 -45 -18 -45 -10 0 -12 -8 -6 -18
6 -11 -3 -33 -20 -50 -17 -18 -26 -40 -20 -50 6 -11 2 -25 -10 -33 -12 -7 -17
-26 -11 -41 6 -15 3 -28 -5 -28 -23 0 -66 -99 -52 -121 6 -11 3 -19 -8 -19
-32 0 -46 -107 -26 -198 18 -80 171 -262 220 -262 29 0 63 -99 63 -184 0 -48
14 -98 32 -118 29 -32 28 -37 -13 -58 -35 -19 -48 -19 -61 3 -9 15 -24 28 -32
29 -42 4 -83 34 -91 67 -6 22 -37 41 -82 49 -40 8 -73 23 -73 34 0 11 -9 15
-20 8 -11 -7 -20 -3 -20 8 0 12 -45 19 -108 16 -59 -2 -104 -10 -99 -18 12
-21 -133 -78 -158 -63 -12 8 -15 4 -7 -10 9 -14 2 -23 -17 -23 -17 0 -31 11
-31 25 -1 17 -7 15 -20 -5 -18 -27 -22 -27 -40 0 -29 44 -25 56 25 80 43 21
43 21 6 -9 -75 -60 -15 -51 131 21 177 88 278 162 278 204 0 24 -10 22 -46
-13 -60 -56 -104 -59 -70 -4 13 21 31 34 40 29 8 -6 10 4 4 21 -7 17 2 53 19
79 17 27 26 66 19 92 -12 43 -13 43 -36 -13 l-24 -57 -9 64 c-5 35 -3 60 5 55
8 -5 21 -1 28 11 19 31 46 24 56 -15 5 -19 6 -11 2 18 -4 33 8 66 32 87 22 20
34 43 28 53 -6 10 -56 -23 -112 -72 -92 -84 -156 -119 -126 -71 7 11 -2 20
-19 20 -17 0 -29 -11 -26 -25 3 -14 -8 -22 -23 -19 -16 3 -63 -28 -105 -69
-42 -41 -78 -67 -79 -56 -1 10 -19 -17 -41 -61 l-39 -80 13 70 c7 39 35 105
62 147 28 42 47 80 43 84 -14 13 -132 -103 -173 -172 l-43 -69 5 80 c3 44 10
85 15 90 6 6 25 44 44 84 31 67 114 125 206 144 11 2 40 15 65 29 25 13 45 19
45 12 0 -6 25 8 55 31 30 24 55 50 54 57 -1 7 31 36 70 65 39 29 89 74 111
100 l40 48 -42 -35 c-23 -19 -49 -28 -58 -20 -9 8 -11 5 -3 -8 17 -30 -48 -54
-74 -28 -13 13 -50 -3 -111 -47 -93 -67 -322 -179 -336 -165 -36 36 368 258
445 245 29 -6 45 -2 38 10 -7 11 0 35 14 53 24 28 22 31 -11 18 -27 -10 -18
10 32 72 39 47 82 119 97 160 15 41 32 75 39 75 7 0 9 34 5 75 -8 81 6 72 69
-45z m-334 -977 c0 -83 -282 -351 -297 -282 -10 46 56 136 167 227 106 88 130
98 130 55z m149 -392 c7 -10 -6 -29 -28 -40 -22 -12 -51 -42 -63 -66 l-23 -45
48 44 c86 80 142 69 174 -31 17 -53 34 -78 43 -63 94 152 333 -274 240 -430
-19 -33 -41 -95 -49 -137 -10 -59 -21 -74 -45 -64 -25 9 -27 6 -9 -15 23 -28
12 -54 -21 -54 -28 0 -76 131 -79 214 -1 53 -7 34 -20 -60 -17 -139 -66 -243
-101 -221 -11 7 -27 2 -35 -11 -20 -32 -318 47 -354 94 -15 19 -32 68 -39 109
-15 87 -48 100 -49 20 -1 -80 -94 102 -106 208 -11 96 6 210 30 195 9 -6 17
-1 17 11 0 11 -10 21 -23 21 -14 0 -10 15 10 37 18 20 33 42 33 50 0 20 146
154 157 143 5 -5 23 2 40 15 17 14 8 -6 -20 -45 -29 -38 -63 -92 -76 -120
l-23 -50 41 50 c23 28 70 85 104 127 78 96 200 157 226 114z m417 -256 c-12
-32 -10 -32 25 -5 35 27 37 27 14 -2 -14 -18 -22 -45 -17 -60 23 -73 34 -146
19 -132 -21 22 -66 200 -54 219 18 28 26 15 13 -20z"/>
<path d="M1995 1901 c-44 -57 -67 -103 -56 -111 19 -11 141 157 141 194 0 25
-6 20 -85 -83z"/>
<path d="M1514 2565 c-47 -50 -51 -62 -27 -83 48 -39 57 -117 21 -173 -43 -64
-21 -86 48 -48 68 38 78 100 25 148 -45 41 -53 91 -19 125 12 12 19 37 15 55
-6 28 -17 23 -63 -24z"/>
<path d="M2304 1996 c-27 -27 -31 -113 -7 -152 11 -17 24 0 40 53 36 121 24
156 -33 99z"/>
</g>
</svg>
