<?xml version="1.0" standalone="no"?>
<!DOCTYPE svg PUBLIC "-//W3C//DTD SVG 20010904//EN"
 "http://www.w3.org/TR/2001/REC-SVG-20010904/DTD/svg10.dtd">
<svg version="1.0" xmlns="http://www.w3.org/2000/svg"
 width="555.000000pt" height="555.000000pt" viewBox="0 0 555.000000 555.000000"
 preserveAspectRatio="xMidYMid meet">
<metadata>
Created by potrace 1.10, written by Peter Selinger 2001-2011
</metadata>
<g transform="translate(0.000000,555.000000) scale(0.100000,-0.100000)"
fill="#000000" stroke="none">
<path d="M2900 5518 c-8 -18 -15 -58 -15 -88 0 -39 -4 -54 -13 -52 -14 2 -105
-62 -137 -97 -15 -18 -19 -35 -17 -82 3 -66 -3 -80 -63 -159 -23 -30 -54 -79
-69 -107 l-26 -53 -51 0 c-149 0 -304 -188 -285 -348 13 -106 33 -155 92 -220
38 -43 76 -71 125 -96 124 -62 190 -136 230 -257 34 -103 35 -170 4 -273 -15
-52 -35 -99 -48 -111 -12 -12 -35 -37 -50 -55 -20 -24 -31 -30 -39 -22 -6 6
-17 8 -24 5 -10 -4 -14 3 -14 24 0 17 -19 56 -50 102 -27 41 -50 80 -50 88 0
7 7 40 16 72 20 72 14 102 -32 146 -41 40 -48 41 -95 18 -113 -58 -159 -115
-159 -196 0 -35 5 -59 14 -66 8 -7 22 -37 32 -68 18 -58 16 -80 -17 -188 -11
-38 -10 -45 15 -95 33 -67 29 -88 -26 -131 -196 -151 -340 -343 -418 -559 -8
-19 -38 -89 -68 -155 -67 -148 -87 -254 -71 -374 15 -107 59 -183 176 -300 89
-90 93 -95 93 -138 0 -24 -5 -53 -10 -63 -13 -24 -36 -153 -45 -245 -4 -39
-24 -121 -46 -186 -36 -106 -39 -125 -39 -220 1 -261 45 -415 151 -529 54 -58
59 -65 150 -201 56 -83 122 -158 188 -211 l33 -28 523 0 c463 0 524 2 536 16
7 8 30 24 51 35 55 28 102 73 153 145 25 36 45 67 45 69 0 2 13 23 29 47 16
24 36 59 45 78 9 19 24 49 34 65 210 371 223 406 230 580 6 170 -10 222 -151
490 -25 48 -36 210 -19 278 6 23 13 54 17 69 3 15 35 61 70 102 75 86 100 136
110 225 20 170 -115 343 -262 336 -51 -2 -54 -1 -103 48 -57 56 -70 89 -47
115 8 9 25 36 38 60 69 125 68 124 69 212 0 74 3 90 25 123 14 20 44 72 66
114 22 43 51 95 63 116 31 52 40 128 20 176 -12 29 -14 59 -8 151 6 109 11
135 48 270 18 63 20 140 7 188 -12 41 -84 128 -122 147 -15 8 -42 15 -60 15
-37 0 -130 -54 -174 -100 -31 -33 -110 -90 -124 -90 -10 0 -25 66 -22 92 5 39
-20 171 -40 211 -27 55 -84 113 -134 140 -36 18 -58 21 -205 22 -176 2 -255
14 -289 46 -31 29 -28 78 9 124 17 21 30 41 30 45 0 3 17 14 37 24 21 10 43
26 50 36 7 10 34 26 60 35 65 23 151 91 191 149 38 58 66 145 64 202 -1 30 6
53 23 78 62 92 67 120 30 181 -14 22 -25 50 -25 63 0 21 -3 22 -108 22 l-107
0 -15 -32z m96 -13 c4 -8 12 -15 19 -15 20 0 105 -80 105 -99 -1 -21 -42 -67
-67 -75 -16 -5 -25 1 -42 29 -11 20 -21 41 -21 46 0 6 -9 22 -20 36 -19 25
-27 73 -13 86 11 12 33 7 39 -8z m-4 -268 c31 -36 34 -63 13 -91 -8 -11 -15
-30 -15 -42 0 -12 -7 -27 -15 -34 -8 -7 -15 -17 -15 -22 0 -14 -73 -78 -89
-78 -31 0 -101 -43 -127 -78 -15 -20 -31 -39 -34 -42 -4 -3 -9 -13 -13 -22 -3
-10 -16 -18 -27 -18 -17 0 -20 6 -20 44 0 57 29 101 97 151 54 39 93 98 93
138 0 13 -13 36 -30 52 -33 32 -40 72 -13 77 10 2 51 2 93 0 70 -3 77 -6 102
-35z m-394 -465 c18 -23 16 -28 -21 -51 -45 -28 -63 -50 -70 -88 -6 -29 -1
-38 46 -86 73 -75 102 -87 207 -87 69 0 90 -4 101 -16 11 -14 27 -16 93 -10
44 3 84 10 90 16 35 35 156 -30 156 -84 0 -13 7 -29 15 -36 12 -10 15 -45 15
-193 0 -163 2 -185 21 -224 11 -23 25 -45 30 -49 5 -3 9 -13 9 -23 0 -10 6
-24 14 -30 8 -7 17 -39 20 -72 3 -32 9 -86 12 -119 5 -49 9 -60 24 -60 22 0
110 97 110 121 0 9 7 22 15 29 8 7 15 18 15 25 0 7 7 18 15 25 22 18 20 120
-2 159 -20 35 -26 37 -43 16 -15 -18 -49 -19 -70 -2 -42 33 -67 106 -32 92 72
-28 128 -7 178 67 40 60 81 98 108 98 12 0 37 -16 56 -35 l34 -36 -1 -95 c-1
-72 -5 -100 -17 -113 -9 -10 -16 -26 -16 -36 0 -10 -7 -26 -15 -35 -15 -17
-18 -52 -15 -163 1 -58 -2 -72 -19 -91 -32 -34 -27 -63 14 -83 34 -16 35 -18
35 -77 0 -57 -3 -64 -40 -105 -22 -25 -40 -50 -40 -57 0 -38 -36 -114 -73
-151 -66 -69 -121 -52 -59 18 15 17 26 35 25 40 -2 4 13 32 32 61 40 61 45
108 15 138 -11 11 -28 20 -38 20 -23 0 -62 -44 -62 -69 0 -10 -7 -24 -15 -31
-9 -8 -15 -30 -15 -59 -1 -25 -7 -57 -15 -71 -8 -14 -14 -41 -15 -61 0 -20 -7
-42 -15 -49 -8 -7 -15 -18 -15 -25 0 -6 -9 -20 -20 -30 -11 -10 -20 -26 -20
-36 0 -10 -4 -21 -10 -24 -5 -3 -10 -17 -10 -29 0 -13 -7 -29 -15 -36 -8 -7
-15 -20 -15 -29 0 -10 -7 -26 -15 -37 -8 -10 -15 -26 -15 -35 0 -9 -7 -22 -15
-29 -8 -7 -15 -24 -15 -39 -1 -14 -7 -37 -15 -51 -19 -33 -19 -102 0 -147 8
-19 15 -54 15 -77 0 -23 7 -51 15 -62 8 -10 15 -31 15 -45 0 -15 7 -32 15 -39
8 -7 15 -19 15 -27 0 -8 6 -27 14 -41 8 -15 17 -34 20 -42 4 -8 15 -28 26 -45
11 -16 23 -38 26 -47 3 -9 12 -19 20 -22 8 -3 14 -14 14 -24 0 -11 7 -25 15
-32 8 -7 15 -18 15 -26 0 -7 10 -29 21 -49 18 -30 24 -33 36 -23 11 8 13 23 9
48 -4 24 -1 43 9 56 8 10 15 25 15 33 0 8 6 22 14 30 7 9 18 35 24 59 9 38 7
46 -15 80 -14 20 -45 56 -69 80 -23 24 -46 56 -49 73 -4 16 -11 31 -16 34 -13
9 -11 130 3 161 10 22 10 28 -5 39 -9 7 -17 20 -17 29 0 20 36 21 44 1 3 -8
12 -15 21 -15 11 0 15 -10 15 -35 0 -19 4 -43 9 -53 6 -9 12 -29 15 -43 7 -31
52 -79 76 -79 9 0 27 11 40 25 38 41 88 35 139 -16 22 -23 41 -49 41 -59 0
-10 7 -23 15 -30 11 -9 15 -33 15 -85 0 -52 -4 -76 -15 -85 -8 -7 -15 -21 -15
-32 0 -18 -36 -58 -110 -123 -58 -50 -69 -79 -67 -180 0 -66 -4 -103 -18 -138
-17 -46 -17 -49 1 -110 10 -34 38 -90 61 -125 24 -34 43 -68 43 -76 0 -7 7
-19 15 -26 8 -7 15 -23 15 -35 0 -12 7 -28 15 -35 8 -7 15 -20 15 -30 0 -10 7
-34 15 -53 10 -25 15 -71 15 -140 0 -81 -3 -107 -15 -117 -8 -7 -15 -25 -15
-39 0 -15 -7 -36 -15 -47 -8 -10 -15 -29 -15 -42 0 -12 -7 -25 -15 -28 -8 -4
-15 -14 -15 -23 0 -9 -5 -22 -11 -28 -13 -13 -33 -47 -48 -80 -6 -13 -15 -23
-21 -23 -5 0 -10 -8 -10 -19 0 -10 -7 -24 -15 -31 -8 -7 -15 -21 -15 -31 0
-10 -5 -21 -10 -24 -6 -4 -17 -21 -25 -38 -20 -45 -62 -118 -75 -131 -5 -5
-10 -16 -10 -24 0 -8 -13 -31 -30 -52 -16 -21 -30 -42 -30 -47 0 -14 -79 -83
-95 -83 -7 0 -18 -7 -25 -15 -7 -8 -23 -15 -37 -15 -13 0 -40 -7 -60 -15 -19
-8 -46 -15 -59 -15 -25 0 -100 -23 -151 -46 -46 -21 -305 -20 -323 1 -7 8 -20
15 -30 15 -10 0 -23 7 -30 15 -9 11 -39 14 -148 13 l-137 -2 -50 33 c-45 30
-145 147 -145 170 0 5 -6 11 -12 14 -7 3 -29 35 -48 72 -34 65 -54 89 -133
156 -49 41 -65 80 -88 209 -23 133 -26 355 -4 384 8 11 15 27 15 36 0 16 31
82 49 103 5 7 12 71 14 142 3 127 15 181 46 218 15 19 26 124 17 161 -7 27
-72 76 -101 76 -9 0 -18 7 -21 15 -4 8 -11 15 -16 15 -5 0 -24 16 -41 37 -18
20 -40 43 -49 52 -10 8 -18 23 -18 32 0 9 -7 22 -15 29 -8 7 -15 24 -15 38 0
15 -7 45 -16 69 -14 35 -14 50 -4 100 6 32 14 77 17 100 3 23 11 47 19 54 8 6
14 20 14 31 0 10 7 21 15 24 8 4 15 13 15 20 0 8 7 17 15 20 10 4 15 20 15 48
0 22 7 50 15 60 8 11 15 28 15 39 0 10 7 25 15 33 8 9 15 24 15 33 0 10 7 24
15 31 8 7 15 19 15 27 0 7 7 16 15 19 8 4 15 17 15 30 0 12 6 27 13 31 7 4 21
24 31 45 11 20 62 78 114 129 85 85 108 104 150 125 8 4 28 20 45 35 17 16 39
29 48 29 9 0 19 7 23 15 3 8 15 15 26 15 11 0 20 3 20 8 0 4 21 19 47 32 27
14 52 30 58 36 5 7 28 23 50 37 65 40 171 152 188 200 4 9 11 17 17 17 5 0 10
11 10 24 0 13 7 29 15 36 8 7 15 26 15 42 0 16 7 43 16 60 11 21 14 47 11 87
-7 78 -26 161 -43 185 -8 11 -14 30 -14 42 0 12 -7 27 -15 34 -8 7 -15 20 -15
29 0 23 -163 181 -188 181 -11 0 -25 7 -32 15 -7 8 -21 15 -32 15 -31 0 -72
31 -128 97 -5 7 -10 27 -10 46 0 19 -5 49 -11 67 -24 68 45 240 97 240 12 0
27 7 34 14 12 15 79 26 115 18 11 -2 26 -11 33 -20z m-228 -892 c0 -36 -4 -52
-15 -56 -8 -4 -15 -12 -15 -20 0 -8 -9 -22 -20 -31 -14 -13 -20 -30 -20 -62 0
-42 4 -48 66 -108 61 -58 65 -65 59 -96 -12 -59 -37 -94 -84 -118 -25 -12 -53
-28 -63 -36 -9 -8 -29 -13 -45 -11 -34 4 -44 40 -18 66 84 86 106 142 70 172
-8 7 -18 30 -21 51 -4 26 -19 51 -45 78 -22 22 -39 43 -39 48 0 4 31 37 68 73
38 36 72 73 75 83 4 9 16 17 27 17 17 0 20 -6 20 -50z m1164 -908 c-1 -33 -8
-60 -18 -71 -9 -10 -16 -29 -16 -42 0 -14 -4 -29 -9 -34 -6 -6 -11 -35 -13
-65 -3 -47 -6 -55 -23 -55 -16 0 -21 8 -23 40 -2 22 -8 44 -13 50 -5 5 -9 39
-9 76 0 67 0 68 46 114 61 60 79 57 78 -13z m-136 -279 c11 -21 5 -45 -14 -56
-8 -4 -14 -17 -14 -27 0 -28 -21 -36 -37 -14 -24 32 7 114 43 114 7 0 17 -8
22 -17z"/>
<path d="M2714 4278 c-9 -14 30 -52 80 -77 24 -12 47 -28 50 -36 3 -8 17 -15
31 -15 15 0 35 -5 46 -11 11 -6 33 -8 48 -4 23 5 30 13 34 42 8 44 -2 57 -57
82 -47 20 -222 35 -232 19z"/>
<path d="M3146 3984 c-9 -22 -8 -24 9 -24 8 0 15 9 15 20 0 24 -15 27 -24 4z"/>
<path d="M3055 3890 c-9 -14 23 -96 57 -147 16 -23 38 -62 49 -87 30 -68 43
-59 36 23 -6 72 -13 90 -61 156 -45 61 -68 76 -81 55z"/>
<path d="M3312 3496 c-6 -13 -14 -53 -17 -88 -4 -35 -13 -78 -22 -96 -23 -51
-20 -92 8 -113 13 -10 30 -19 37 -19 18 0 15 41 -5 55 -11 8 -13 17 -7 26 5 8
14 37 19 64 11 48 12 50 43 47 24 -1 32 2 32 15 0 9 6 24 14 32 8 9 17 30 20
48 10 42 -11 54 -25 14 -12 -34 -39 -42 -39 -13 0 17 -28 52 -42 52 -2 0 -10
-11 -16 -24z"/>
<path d="M3557 3492 c-19 -21 -22 -42 -7 -42 16 0 51 40 45 50 -9 15 -20 12
-38 -8z"/>
<path d="M2950 3326 c-16 -18 -50 -43 -75 -55 -24 -12 -47 -26 -50 -32 -4 -5
-14 -9 -24 -9 -9 0 -55 -25 -101 -55 -46 -30 -89 -55 -96 -55 -6 0 -17 -7 -24
-15 -7 -8 -17 -15 -23 -15 -10 0 -148 -63 -177 -80 -8 -5 -35 -20 -60 -32 -25
-13 -49 -29 -53 -35 -4 -7 -15 -13 -24 -13 -13 0 -75 -43 -111 -77 -7 -7 -16
-13 -20 -13 -4 0 -23 -14 -42 -31 -19 -17 -48 -41 -64 -54 -20 -16 -29 -32
-30 -54 0 -17 -6 -31 -12 -31 -10 0 -54 -45 -54 -55 0 -3 7 -5 15 -5 8 0 15 5
15 10 0 6 7 10 15 10 8 0 24 9 35 20 11 11 25 20 31 20 6 0 8 7 5 15 -3 10 1
18 11 22 9 4 24 14 32 22 9 9 34 25 56 35 22 10 52 25 67 33 14 7 31 13 38 13
6 0 18 7 26 15 9 8 26 15 39 15 12 0 25 7 29 15 3 8 14 15 24 15 10 0 23 5 29
11 12 12 46 32 78 47 11 6 38 28 60 49 22 22 59 52 82 66 23 15 54 42 70 62
23 29 35 35 65 35 49 0 68 -9 68 -31 0 -20 -15 -26 -25 -9 -6 10 -54 -18 -55
-33 0 -15 -44 -67 -55 -67 -7 0 -20 -9 -30 -20 -10 -11 -22 -20 -27 -20 -13 0
-68 -42 -68 -52 0 -16 25 -7 69 22 24 17 50 30 58 30 13 0 62 31 91 58 7 6 17
12 21 12 4 0 40 33 80 73 53 53 82 94 111 153 22 45 40 84 40 87 0 2 -7 7 -15
11 -9 3 -27 -7 -45 -28z"/>
<path d="M3054 2922 c-4 -12 -13 -22 -20 -22 -8 0 -14 -7 -14 -15 0 -8 -13
-30 -30 -48 -16 -19 -30 -37 -30 -41 0 -8 -59 -85 -93 -122 -14 -15 -52 -57
-84 -94 -32 -36 -82 -86 -112 -111 -58 -48 -111 -98 -111 -105 0 -2 12 -9 26
-14 23 -9 29 -5 66 35 23 25 47 45 54 45 35 0 29 -124 -11 -214 -28 -64 -22
-71 18 -22 36 43 55 79 73 136 20 65 17 88 -13 116 l-26 24 48 47 c51 51 146
173 185 238 13 22 27 42 30 45 4 3 10 12 13 20 4 8 19 35 32 59 18 31 22 48
15 55 -7 7 -12 4 -16 -12z"/>
<path d="M3043 2708 c-45 -99 -53 -143 -53 -272 0 -121 7 -158 41 -216 5 -8
13 -24 18 -35 13 -31 151 -125 183 -125 6 0 20 -7 30 -17 35 -32 31 -3 -5 31
-21 19 -37 41 -37 49 0 8 -10 25 -23 39 -59 63 -117 147 -131 188 -18 53 -21
224 -5 285 30 108 18 153 -18 73z"/>
<path d="M2113 2371 c-106 -105 -159 -176 -168 -223 -2 -10 -9 -34 -16 -52
-11 -31 -9 -40 15 -89 14 -30 38 -62 51 -71 14 -9 25 -15 25 -14 0 2 -4 30
-10 62 -8 48 -6 70 7 110 21 65 52 134 64 141 5 4 9 13 9 20 0 15 77 122 104
145 17 13 22 50 7 50 -5 0 -44 -36 -88 -79z"/>
<path d="M3647 2354 c-8 -8 1 -24 14 -24 5 0 9 7 9 15 0 15 -12 20 -23 9z"/>
<path d="M2570 2313 c-8 -4 -32 -23 -53 -45 -21 -21 -51 -45 -67 -53 -17 -9
-30 -20 -30 -25 0 -6 -4 -10 -9 -10 -22 0 -231 -204 -231 -225 0 -5 -7 -23
-16 -40 -15 -27 -26 -64 -41 -137 -3 -16 -9 -28 -14 -28 -5 0 -9 -10 -9 -22
-1 -13 -9 -41 -20 -63 -11 -22 -19 -43 -20 -47 0 -15 21 -8 27 10 3 9 20 34
36 55 24 31 27 40 17 52 -10 12 -9 15 4 15 9 0 16 3 16 8 0 11 63 75 100 101
19 14 39 30 43 38 4 7 13 13 19 13 15 0 85 57 143 117 67 70 71 76 79 101 4
12 12 22 17 22 5 0 9 10 9 21 0 12 9 37 21 55 20 34 23 85 4 90 -5 1 -17 0
-25 -3z"/>
<path d="M2738 1997 c-39 -37 -97 -73 -190 -119 -144 -71 -262 -145 -285 -177
-18 -26 -4 -27 45 -2 123 61 181 89 212 101 19 8 46 22 59 32 13 10 27 18 31
18 18 0 128 82 163 120 33 37 49 81 30 80 -5 -1 -33 -24 -65 -53z"/>
<path d="M3437 1734 c-4 -54 -11 -102 -17 -108 -5 -5 -10 -25 -10 -44 0 -27 8
-42 36 -69 20 -19 40 -31 45 -26 5 5 -3 31 -16 59 -19 40 -23 58 -16 81 5 17
10 68 12 114 3 71 1 84 -12 87 -13 2 -17 -13 -22 -94z"/>
<path d="M2610 1660 c0 -5 7 -10 15 -10 8 0 15 5 15 10 0 6 -7 10 -15 10 -8 0
-15 -4 -15 -10z"/>
<path d="M2816 1622 c-16 -9 -37 -24 -46 -32 -9 -8 -31 -27 -48 -43 -18 -15
-32 -34 -32 -42 0 -21 7 -19 38 13 36 36 103 87 125 95 20 7 23 27 5 27 -7 0
-26 -8 -42 -18z"/>
<path d="M2532 1604 c-12 -8 -22 -19 -22 -24 0 -5 -28 -38 -62 -74 -87 -88
-172 -226 -140 -226 11 0 42 38 52 66 5 13 14 24 20 24 5 0 10 5 10 11 0 12
82 120 120 159 45 45 61 68 52 74 -5 3 -18 -2 -30 -10z"/>
<path d="M2930 1600 c0 -5 9 -10 21 -10 11 0 17 5 14 10 -3 6 -13 10 -21 10
-8 0 -14 -4 -14 -10z"/>
<path d="M2990 1518 c0 -18 6 -43 14 -54 8 -11 16 -40 18 -65 3 -45 20 -60 26
-24 7 38 32 55 83 55 26 0 51 -4 54 -10 3 -5 16 -10 28 -10 22 0 22 1 -3 20
-14 11 -35 20 -47 20 -12 0 -24 4 -28 10 -3 6 -15 5 -31 -2 -21 -10 -28 -8
-54 17 -17 16 -30 34 -30 41 0 6 -7 17 -15 24 -13 11 -15 8 -15 -22z"/>
<path d="M2215 1467 c-4 -10 -5 -21 -1 -24 10 -10 18 4 13 24 -4 17 -4 17 -12
0z"/>
<path d="M2182 1419 c2 -6 8 -10 13 -10 5 0 11 4 13 10 2 6 -4 11 -13 11 -9 0
-15 -5 -13 -11z"/>
<path d="M3240 1395 c0 -6 69 -75 75 -75 14 0 1 25 -27 51 -30 27 -48 36 -48
24z"/>
<path d="M3371 1259 c-8 -15 -9 -24 -2 -33 6 -7 14 -35 18 -62 3 -27 12 -54
19 -61 7 -7 15 -32 19 -55 7 -51 25 -89 37 -82 14 9 9 48 -18 125 -15 41 -26
85 -25 97 1 16 -6 26 -19 29 -22 6 -26 23 -9 40 6 6 7 13 2 16 -5 3 -15 -3
-22 -14z"/>
<path d="M3590 1142 c0 -10 4 -22 9 -27 5 -6 14 -27 21 -48 6 -21 17 -36 23
-34 17 6 12 65 -7 86 -9 10 -16 23 -16 29 0 7 -7 12 -15 12 -8 0 -15 -8 -15
-18z"/>
<path d="M2240 1030 c-22 -42 -3 -167 22 -142 17 17 19 149 2 156 -7 3 -18 -3
-24 -14z"/>
<path d="M3470 876 c0 -8 5 -18 10 -21 6 -3 10 3 10 14 0 12 -4 21 -10 21 -5
0 -10 -6 -10 -14z"/>
<path d="M3450 753 c0 -6 -9 -13 -20 -16 -14 -4 -20 -14 -20 -35 0 -17 -4 -34
-10 -37 -12 -7 -14 -45 -2 -45 10 0 65 131 58 138 -3 3 -6 1 -6 -5z"/>
<path d="M3085 688 c-2 -7 -6 -69 -9 -138 -3 -69 -8 -146 -12 -172 -6 -51 9
-68 20 -23 5 18 13 25 31 25 14 0 25 -4 25 -10 0 -5 5 -10 12 -10 9 0 9 3 0
12 -7 7 -12 24 -12 39 0 15 -7 43 -15 62 -10 23 -15 69 -15 126 0 50 -5 93
-10 96 -6 3 -12 0 -15 -7z"/>
<path d="M2227 603 c-13 -12 -7 -85 10 -134 23 -65 43 -65 32 -1 -4 26 -8 68
-8 95 -1 44 -14 60 -34 40z"/>
<path d="M2300 351 c0 -11 5 -23 10 -26 6 -3 10 3 10 14 0 11 -4 23 -10 26 -5
3 -10 -3 -10 -14z"/>
</g>
</svg>
