<?xml version="1.0" standalone="no"?>
<!DOCTYPE svg PUBLIC "-//W3C//DTD SVG 20010904//EN"
 "http://www.w3.org/TR/2001/REC-SVG-20010904/DTD/svg10.dtd">
<svg version="1.0" xmlns="http://www.w3.org/2000/svg"
 width="1350.000000pt" height="1101.000000pt" viewBox="0 0 1350.000000 1101.000000"
 preserveAspectRatio="xMidYMid meet">
<metadata>
Created by potrace 1.10, written by Peter Selinger 2001-2011
</metadata>
<g transform="translate(0.000000,1101.000000) scale(0.100000,-0.100000)"
fill="#000000" stroke="none">
<path d="M11866 10563 c-3 -10 -15 -31 -26 -48 -11 -16 -24 -40 -30 -53 -5
-13 -17 -30 -25 -38 -8 -9 -15 -21 -15 -29 0 -7 -7 -15 -15 -19 -8 -3 -15 -12
-15 -21 0 -8 -4 -15 -9 -15 -5 0 -13 -10 -17 -22 -3 -12 -11 -26 -16 -32 -14
-17 -152 -225 -163 -247 -5 -10 -13 -19 -17 -19 -3 0 -17 -17 -29 -37 -22 -36
-113 -164 -162 -227 -12 -16 -33 -45 -47 -65 -14 -20 -33 -44 -42 -55 -10 -11
-30 -38 -45 -60 -16 -23 -38 -52 -50 -66 -13 -14 -23 -28 -23 -32 0 -3 -6 -13
-13 -20 -7 -7 -37 -44 -67 -83 -30 -38 -57 -72 -60 -75 -3 -3 -37 -43 -75 -90
-39 -47 -79 -96 -90 -109 -11 -13 -27 -32 -35 -41 -8 -9 -40 -45 -70 -81 -68
-79 -102 -118 -115 -133 -6 -6 -28 -33 -50 -61 -22 -27 -42 -52 -45 -55 -15
-15 -50 -71 -50 -80 0 -5 -4 -10 -8 -10 -8 0 -38 -56 -62 -117 -14 -37 -18
-38 -57 -19 -15 8 -44 21 -63 29 -19 9 -51 23 -72 31 -20 9 -44 16 -53 16 -9
0 -23 7 -31 15 -9 8 -27 15 -42 15 -15 0 -36 7 -46 15 -11 8 -32 15 -48 15
-15 0 -28 4 -28 9 0 6 -20 13 -45 17 -25 3 -48 10 -50 15 -3 4 -26 11 -50 15
-25 3 -48 10 -50 15 -3 4 -27 11 -53 15 -26 3 -51 10 -57 14 -10 7 -195 38
-230 39 -11 0 -123 2 -250 6 -207 5 -486 -3 -605 -19 -25 -3 -85 -10 -135 -16
-162 -17 -448 -75 -495 -99 -9 -5 -30 -12 -49 -16 -18 -4 -44 -13 -59 -21 -15
-8 -31 -14 -35 -14 -4 0 -35 -13 -69 -30 -71 -35 -78 -36 -108 -10 -13 11 -29
20 -37 20 -7 0 -31 11 -53 25 -22 14 -42 25 -46 25 -7 0 -136 60 -217 101 -31
16 -64 29 -72 29 -8 0 -15 5 -15 10 0 6 -5 10 -11 10 -11 0 -67 24 -165 71
-33 16 -66 29 -73 29 -7 0 -19 7 -27 15 -9 8 -26 15 -38 15 -13 0 -29 7 -36
15 -7 8 -23 15 -35 15 -12 0 -28 7 -35 15 -7 8 -21 15 -30 15 -10 0 -31 6 -47
14 -15 8 -46 22 -68 32 -22 9 -52 23 -67 31 -14 7 -35 13 -46 13 -11 0 -25 7
-32 15 -7 8 -23 15 -37 15 -13 0 -31 7 -39 15 -9 8 -27 15 -42 15 -15 0 -36 7
-46 15 -11 8 -30 15 -42 15 -12 0 -35 7 -50 15 -16 8 -42 15 -57 15 -16 0 -52
7 -80 16 -107 32 -103 31 -412 70 -125 16 -289 20 -368 8 -52 -8 -58 -30 -19
-63 18 -14 32 -32 32 -39 0 -14 40 -75 53 -80 4 -2 7 -12 7 -23 0 -11 7 -22
15 -25 8 -4 15 -14 15 -25 0 -10 6 -22 14 -26 7 -4 22 -24 33 -43 20 -37 54
-92 63 -100 7 -7 29 -42 37 -60 3 -8 18 -31 33 -50 15 -19 58 -87 95 -150 69
-115 141 -228 170 -265 8 -10 15 -23 15 -28 0 -5 6 -14 13 -21 6 -8 19 -24 27
-36 8 -13 30 -43 47 -67 18 -24 33 -48 33 -53 0 -6 3 -10 8 -10 4 0 18 -17 32
-38 14 -20 27 -39 31 -42 3 -3 36 -45 74 -95 38 -49 72 -92 75 -95 3 -3 24
-27 45 -55 22 -27 47 -56 55 -65 16 -18 33 -38 95 -115 48 -61 77 -94 133
-154 38 -41 55 -81 35 -81 -5 0 -19 -17 -33 -38 -14 -20 -29 -42 -35 -48 -5
-6 -17 -22 -25 -34 -21 -32 -83 -114 -90 -120 -3 -3 -35 -41 -72 -85 -127
-154 -232 -247 -493 -441 -10 -7 -25 -14 -31 -14 -7 0 -14 -4 -16 -8 -1 -5
-15 -15 -30 -23 -60 -31 -245 -123 -273 -135 -16 -7 -46 -20 -67 -28 -20 -9
-42 -16 -50 -16 -8 0 -18 -4 -24 -9 -5 -4 -43 -18 -84 -31 -41 -12 -86 -27
-100 -32 -25 -10 -61 -18 -175 -38 -33 -6 -80 -15 -105 -21 -70 -16 -297 -23
-370 -11 -36 6 -94 16 -130 22 -36 6 -78 15 -95 20 -16 4 -64 18 -105 30 -41
12 -83 26 -92 31 -10 5 -23 9 -30 9 -7 1 -31 9 -53 20 -22 11 -46 19 -53 20
-7 0 -20 4 -30 9 -9 5 -52 26 -94 47 -43 21 -78 41 -78 46 0 4 -5 8 -11 8 -16
0 -115 79 -169 133 -10 10 -24 15 -33 11 -10 -3 -17 -2 -17 4 0 6 -12 23 -28
39 -54 57 -74 101 -76 166 -1 40 3 51 24 67 27 21 88 26 118 11 9 -5 37 -19
62 -32 91 -45 100 -51 95 -60 -4 -5 -28 -9 -55 -9 -27 0 -52 -4 -55 -10 -3 -5
-14 -10 -24 -10 -45 0 -86 -71 -62 -109 10 -15 15 -8 24 29 5 20 18 29 59 43
48 15 106 22 149 18 8 0 35 -19 60 -41 52 -47 59 -48 59 -15 0 25 -71 104
-142 158 -38 30 -227 127 -245 127 -7 0 -13 4 -13 9 0 5 -14 12 -31 16 -17 4
-42 13 -57 21 -15 8 -38 14 -53 14 -14 0 -31 6 -37 13 -9 8 -55 12 -155 12
-117 0 -147 -3 -172 -17 -16 -10 -34 -18 -38 -18 -9 0 -12 -2 -80 -62 -73 -63
-156 -193 -157 -243 0 -12 -6 -27 -12 -34 -8 -7 -13 -42 -13 -94 0 -66 4 -87
20 -109 11 -15 26 -28 33 -28 15 0 16 32 0 48 -15 15 -11 104 9 167 22 72 41
113 80 172 35 53 136 143 161 143 8 0 29 7 47 16 51 24 235 11 348 -25 17 -6
45 -13 61 -16 l29 -6 -46 -45 c-44 -42 -47 -48 -47 -96 0 -50 26 -128 42 -128
4 0 8 -6 8 -14 0 -23 169 -190 235 -232 110 -71 173 -103 250 -128 52 -18 108
-40 137 -56 10 -6 23 -10 29 -10 6 0 25 -6 42 -13 63 -27 224 -69 352 -92 151
-27 408 -11 615 39 112 26 154 38 187 52 17 8 40 14 51 14 12 0 23 4 27 9 3 5
20 13 37 17 18 3 39 10 48 15 8 5 44 20 80 35 99 40 166 74 265 132 85 51 194
121 205 132 3 3 37 31 77 62 98 79 251 232 351 351 42 51 168 222 190 259 12
20 29 38 36 41 8 3 43 -23 82 -61 105 -103 177 -162 197 -162 33 0 17 28 -46
81 -34 29 -76 67 -93 84 -17 16 -49 46 -70 66 -48 44 -112 115 -184 204 -30
37 -71 84 -90 104 -19 21 -53 59 -75 86 -22 27 -48 57 -57 67 -10 10 -18 20
-18 22 0 3 -13 20 -30 38 -16 18 -30 36 -30 41 0 4 -14 21 -30 37 -16 16 -30
33 -30 39 0 5 -7 11 -15 15 -8 3 -15 11 -15 17 0 7 -7 21 -17 31 -9 10 -13 21
-9 25 8 8 55 -46 56 -64 0 -7 7 -13 15 -13 8 0 15 -6 15 -14 0 -8 7 -16 15
-20 8 -3 15 -10 15 -15 0 -6 12 -24 27 -40 16 -17 42 -47 58 -67 17 -20 35
-42 41 -48 5 -6 34 -38 64 -71 224 -252 367 -396 473 -480 21 -17 44 -35 51
-41 6 -6 21 -14 33 -18 11 -3 28 -22 39 -41 10 -19 24 -37 31 -40 13 -4 33 31
33 59 0 12 50 40 115 65 62 23 305 55 318 42 7 -7 1 -14 -17 -21 -34 -13 -29
-32 10 -42 16 -4 47 -11 69 -17 22 -6 63 -11 91 -11 28 0 65 -7 81 -15 26 -13
60 -14 213 -9 172 7 182 8 190 28 5 15 3 23 -9 28 -9 4 -138 7 -288 7 -153 1
-274 5 -277 10 -7 11 54 51 77 51 16 0 37 28 37 49 0 16 -53 13 -86 -4 -21
-11 -63 -15 -157 -15 -185 0 -315 -32 -383 -95 -32 -29 -33 -30 -53 -10 -9 9
-45 39 -81 67 -69 53 -377 360 -445 442 -22 26 -53 63 -70 81 -41 44 -111 126
-133 154 -9 12 -44 56 -77 96 -33 41 -73 92 -90 115 -16 22 -40 53 -52 68 -39
50 -133 193 -133 203 0 5 -11 26 -24 47 -12 20 -27 48 -31 62 -4 14 -11 30
-15 35 -4 6 -10 22 -14 38 -7 29 -33 37 -42 12 -4 -8 3 -33 15 -55 12 -22 21
-47 21 -54 0 -8 7 -16 15 -20 17 -6 21 -56 5 -56 -6 0 -14 8 -17 18 -10 25
-155 265 -170 280 -7 7 -13 18 -13 24 0 8 -54 92 -70 108 -9 9 -30 44 -39 67
-6 11 -14 24 -19 27 -6 3 -20 25 -32 48 -12 24 -25 45 -29 48 -7 5 -16 21 -58
92 -15 26 -36 49 -46 52 -11 2 -16 9 -12 15 8 14 186 13 270 0 33 -6 106 -14
163 -18 56 -5 115 -13 130 -19 15 -6 55 -13 90 -16 35 -3 72 -10 82 -16 10 -6
46 -13 80 -17 33 -3 63 -10 66 -14 3 -5 27 -11 54 -15 28 -4 50 -10 50 -15 0
-5 7 -9 16 -9 16 0 89 -30 136 -55 14 -8 33 -15 41 -15 8 0 28 -7 43 -15 16
-8 36 -15 44 -15 8 0 24 -7 34 -15 11 -8 28 -15 38 -15 10 0 18 -4 18 -9 0 -5
12 -12 28 -15 26 -6 67 -24 124 -53 14 -7 33 -13 42 -13 9 0 16 -4 16 -10 0
-5 5 -10 11 -10 6 0 27 -7 47 -16 77 -35 161 -74 263 -123 59 -28 112 -51 118
-51 6 0 11 -4 11 -10 0 -5 7 -10 16 -10 8 0 34 -10 57 -22 82 -42 95 -48 110
-48 9 0 17 -3 19 -7 2 -5 68 -41 148 -81 80 -40 172 -87 205 -105 33 -19 87
-48 120 -66 33 -18 67 -39 76 -47 8 -8 19 -14 23 -14 7 0 136 -73 196 -111 8
-5 22 -12 30 -16 8 -4 21 -13 28 -20 7 -7 19 -13 27 -13 7 0 15 -7 19 -15 6
-17 33 -19 56 -5 12 7 11 13 -10 35 -14 15 -45 36 -68 47 -51 23 -141 76 -160
95 -7 7 -17 13 -22 13 -5 0 -43 20 -83 45 -41 25 -80 45 -86 45 -6 0 -11 3
-11 8 0 4 -24 18 -52 32 -29 13 -55 27 -58 31 -7 10 -157 79 -170 79 -19 0 -5
24 21 37 71 34 135 54 349 114 41 11 119 25 250 44 52 8 111 17 130 20 19 3
155 12 301 20 236 13 295 13 514 0 136 -8 252 -18 257 -21 6 -4 41 -13 77 -20
86 -16 151 -32 176 -43 26 -12 110 -37 153 -46 18 -4 45 -13 60 -21 15 -8 35
-14 44 -14 9 0 19 -4 22 -9 4 -5 24 -12 46 -16 22 -4 40 -11 40 -15 0 -5 14
-11 31 -15 17 -4 42 -13 57 -21 15 -8 35 -14 44 -14 9 0 20 -4 23 -10 3 -5 15
-10 26 -10 11 0 22 -7 25 -15 4 -8 17 -15 30 -15 13 0 41 -9 61 -20 21 -11 43
-20 50 -20 7 0 13 -4 13 -10 0 -5 5 -10 12 -10 16 0 342 -161 346 -172 2 -4 8
-8 14 -8 12 0 252 -146 323 -196 68 -49 199 -146 205 -153 3 -3 34 -31 70 -61
54 -46 189 -170 249 -231 29 -28 85 -93 126 -144 21 -28 42 -52 45 -55 4 -3
42 -53 86 -112 118 -160 205 -299 290 -468 38 -76 94 -200 94 -209 0 -5 7 -22
15 -37 8 -16 15 -37 15 -46 0 -9 4 -19 9 -22 5 -3 12 -22 16 -42 3 -20 10 -44
15 -53 35 -63 74 -363 68 -516 -6 -138 -27 -324 -39 -348 -5 -9 -12 -39 -16
-65 -3 -26 -9 -51 -13 -57 -5 -5 -11 -28 -16 -49 -4 -22 -13 -51 -20 -65 -8
-14 -14 -34 -14 -43 0 -9 -4 -20 -10 -23 -5 -3 -10 -17 -10 -29 0 -13 -7 -29
-15 -36 -19 -16 -20 -60 -1 -60 8 0 18 10 22 22 3 12 13 28 20 36 8 7 14 20
14 28 0 9 7 22 15 30 8 9 15 25 15 37 0 12 7 31 15 41 8 11 15 31 15 45 0 14
7 35 15 45 8 11 15 36 15 56 0 20 5 41 11 47 6 6 14 44 19 84 5 41 14 99 19
129 12 68 13 343 1 430 -15 118 -32 205 -41 215 -5 5 -9 16 -9 25 0 23 -41
153 -51 165 -5 5 -9 15 -9 23 0 11 -10 37 -50 127 -63 142 -177 357 -213 400
-4 6 -31 46 -59 90 -29 44 -56 85 -60 90 -5 6 -17 21 -28 34 -11 13 -20 27
-20 30 0 3 -13 20 -28 37 -15 18 -45 53 -67 80 -22 26 -55 65 -74 86 -25 29
-35 51 -41 95 -5 32 -12 70 -16 86 -6 25 -4 27 28 27 24 0 41 8 60 28 14 15
33 33 43 41 32 26 5 107 -80 241 -46 73 -44 91 16 157 30 31 59 62 64 68 6 7
19 29 30 51 11 21 23 41 26 44 14 12 39 71 34 80 -3 6 -37 10 -76 10 -79 0
-82 5 -50 74 41 89 51 115 51 138 0 13 5 29 11 35 5 5 12 34 15 64 3 30 9 68
15 84 5 17 14 80 19 140 5 61 14 162 20 225 6 63 15 145 20 183 13 86 13 366
0 454 -5 38 -14 109 -19 158 -16 147 -30 237 -40 264 -5 15 -12 45 -15 69 -4
24 -11 51 -16 60 -5 9 -11 29 -14 43 -3 15 -19 41 -36 59 -34 36 -36 45 -15
54 19 7 20 56 1 56 -7 0 -16 -8 -20 -17z m12 -156 c20 -24 45 -135 72 -312 6
-38 15 -95 21 -125 16 -88 22 -489 10 -645 -19 -224 -37 -399 -43 -415 -4 -8
-9 -44 -12 -79 -3 -35 -11 -70 -17 -77 -7 -9 -6 -19 3 -34 10 -16 10 -22 1
-28 -7 -4 -15 -27 -19 -50 -4 -23 -10 -42 -14 -42 -5 0 -11 -18 -15 -40 -4
-22 -11 -42 -16 -46 -5 -3 -9 -12 -9 -21 0 -9 -13 -38 -30 -65 -42 -67 -40
-113 4 -83 12 9 43 15 74 15 51 0 53 -1 46 -22 -8 -27 -62 -96 -119 -153 -22
-22 -47 -52 -55 -68 -12 -25 -11 -32 21 -95 19 -37 36 -69 40 -72 10 -10 46
-86 53 -114 9 -35 -24 -76 -61 -76 -13 0 -35 -7 -48 -16 -31 -20 -32 -55 -5
-109 31 -62 8 -61 -51 2 -30 32 -90 90 -134 128 -44 39 -89 78 -100 88 -11 10
-33 28 -48 40 -15 12 -36 29 -47 37 -10 8 -28 22 -40 30 -12 8 -42 30 -66 48
-23 17 -48 32 -53 32 -6 0 -11 3 -11 8 0 4 -23 21 -51 37 -28 17 -63 38 -78
47 -14 10 -35 22 -46 28 -11 6 -42 24 -70 40 -27 17 -75 42 -105 57 -30 15
-57 30 -60 33 -10 12 -91 50 -105 50 -8 0 -15 5 -15 10 0 6 -5 10 -12 10 -6 0
-43 15 -82 34 -106 51 -142 66 -160 66 -25 0 -19 25 24 95 22 36 40 69 40 74
0 5 6 16 13 23 7 7 30 35 52 63 22 27 45 55 50 61 6 6 30 35 55 64 25 29 50
58 55 64 6 6 35 40 65 76 30 36 57 67 60 70 3 3 30 34 60 70 30 36 57 67 60
70 7 6 181 226 230 290 19 25 38 50 43 55 4 6 24 33 44 60 21 28 41 55 46 60
4 6 37 51 72 100 35 50 68 95 72 100 12 14 142 206 185 273 87 135 158 254
158 267 0 8 5 17 11 20 5 4 15 19 21 33 l11 27 8 -28 c4 -16 12 -34 17 -40z
m-6014 -2026 c4 -5 3 -17 0 -26 -5 -13 -8 -14 -15 -3 -5 7 -9 19 -9 26 0 14
16 16 24 3z m34 -70 c3 -8 -1 -12 -9 -9 -7 2 -15 10 -17 17 -3 8 1 12 9 9 7
-2 15 -10 17 -17z m26 -37 c4 -9 4 -19 2 -21 -8 -8 -26 8 -26 23 0 19 16 18
24 -2z m36 -50 c0 -17 -22 -14 -28 4 -2 7 3 12 12 12 9 0 16 -7 16 -16z m88
-122 c2 -7 -3 -12 -12 -12 -9 0 -16 7 -16 16 0 17 22 14 28 -4z"/>
<path d="M10820 8810 c0 -11 4 -28 9 -38 5 -9 14 -28 20 -42 6 -14 15 -32 20
-40 5 -8 12 -22 15 -30 10 -25 88 -163 154 -272 69 -113 132 -192 132 -165 0
10 -4 17 -10 17 -5 0 -12 11 -16 25 -3 14 -10 25 -15 25 -8 0 -27 31 -48 78
-6 12 -15 22 -21 22 -5 0 -10 7 -10 16 0 9 -13 36 -30 61 -16 24 -30 50 -30
57 0 8 -7 16 -15 20 -8 3 -15 14 -15 24 0 11 -7 25 -15 32 -8 7 -15 21 -15 31
0 11 -4 19 -9 19 -5 0 -12 12 -15 26 -4 15 -14 33 -21 41 -8 8 -15 23 -15 34
0 11 -7 22 -15 25 -8 4 -15 17 -15 30 0 13 -4 24 -10 24 -5 0 -10 -9 -10 -20z"/>
<path d="M5640 8826 c0 -17 37 -46 58 -46 8 0 1 13 -16 30 -34 34 -42 37 -42
16z"/>
<path d="M5866 8562 c-7 -12 49 -68 99 -101 22 -14 47 -33 56 -41 27 -26 63
-54 89 -71 14 -9 35 -25 47 -35 11 -11 31 -26 43 -34 21 -14 59 -42 88 -65 7
-5 21 -17 30 -26 9 -9 31 -25 47 -35 17 -10 34 -24 38 -31 4 -7 14 -13 22 -13
7 0 15 -4 17 -8 10 -27 194 -136 204 -121 5 9 -62 79 -77 79 -5 0 -16 8 -26
18 -31 31 -100 82 -112 82 -6 0 -11 4 -11 8 0 5 -30 30 -66 57 -36 26 -74 56
-83 65 -9 9 -38 32 -66 51 -27 19 -54 40 -58 47 -4 6 -15 12 -22 12 -8 0 -15
4 -15 9 0 5 -8 12 -17 15 -10 4 -38 25 -63 47 -25 23 -54 45 -65 50 -11 5 -33
18 -50 28 -35 22 -42 24 -49 13z"/>
<path d="M8435 8548 c-11 -6 -37 -28 -58 -50 -21 -21 -43 -38 -48 -38 -5 0 -9
-6 -9 -13 0 -7 -13 -26 -30 -42 -29 -28 -39 -55 -21 -55 5 0 17 12 27 28 9 15
53 62 97 105 76 73 87 90 42 65z"/>
<path d="M6645 7947 c-10 -5 -39 -7 -66 -4 -74 9 -87 -30 -22 -66 12 -7 48
-30 80 -52 68 -47 90 -61 120 -74 11 -5 24 -15 28 -20 3 -6 15 -11 25 -11 10
0 20 -4 22 -8 4 -10 85 -52 99 -52 6 0 17 -7 25 -15 9 -8 24 -15 35 -15 10 0
19 -4 19 -9 0 -5 13 -12 30 -16 16 -4 32 -11 35 -16 4 -5 22 -9 41 -9 19 0 34
-3 34 -7 0 -3 -27 -31 -60 -62 -64 -60 -67 -67 -47 -94 10 -15 17 -16 46 -6
24 8 43 9 69 1 21 -6 57 -16 82 -22 25 -6 80 -20 122 -31 78 -20 148 -22 149
-4 0 6 -15 13 -33 16 -19 3 -40 9 -48 15 -8 5 -33 14 -55 20 -22 7 -65 20 -95
29 -30 9 -75 20 -99 24 -25 3 -46 11 -48 18 -5 13 68 63 92 63 8 0 15 7 15 15
0 17 -30 35 -59 35 -12 0 -21 5 -21 10 0 6 -9 10 -19 10 -11 0 -26 7 -35 15
-8 8 -18 15 -23 15 -11 0 -322 159 -333 170 -3 3 -23 14 -45 25 -22 11 -51 30
-65 44 l-25 24 35 -7 c78 -16 127 -18 134 -7 4 6 -3 15 -18 21 -14 5 -26 13
-26 18 0 14 -77 30 -95 19z"/>
<path d="M11343 7604 c-4 -11 1 -22 13 -31 50 -36 84 -74 162 -178 29 -38 56
-74 60 -80 19 -25 70 -117 100 -180 55 -115 61 -129 68 -158 3 -15 10 -30 15
-33 5 -3 9 -13 9 -22 0 -9 6 -29 14 -44 8 -14 17 -45 21 -67 4 -23 10 -43 15
-46 4 -3 11 -28 15 -55 4 -27 10 -52 15 -55 4 -3 11 -31 15 -62 4 -32 12 -64
17 -70 6 -7 15 -73 20 -145 10 -136 0 -287 -21 -325 -6 -10 -20 -40 -31 -68
-33 -79 -84 -180 -92 -183 -5 -2 -8 -9 -8 -16 0 -7 -9 -23 -20 -36 -11 -13
-20 -27 -20 -32 0 -5 -6 -15 -12 -22 -7 -8 -20 -24 -28 -36 -35 -52 -76 -102
-140 -170 -19 -20 -58 -62 -86 -92 -44 -46 -192 -158 -210 -158 -4 0 -26 -13
-51 -30 -24 -16 -51 -30 -59 -30 -9 0 -32 -7 -52 -16 -69 -30 -77 -33 -130
-39 -29 -3 -68 -13 -87 -22 -18 -9 -41 -13 -51 -9 -16 6 -16 8 2 25 10 10 25
27 32 37 7 11 28 41 47 68 19 27 35 55 35 63 0 7 5 13 10 13 6 0 10 9 10 19 0
11 7 26 15 35 18 18 19 48 3 64 -16 16 -2 28 16 13 15 -13 32 1 21 18 -5 9 34
88 58 119 5 7 22 36 37 65 14 29 43 82 63 119 20 37 37 74 37 81 0 8 7 20 15
27 8 7 15 23 15 35 0 12 7 28 15 35 8 7 15 25 15 40 0 15 7 33 15 40 8 7 15
27 15 45 0 18 7 38 15 45 9 7 15 29 15 55 0 23 7 59 15 78 22 53 20 97 -5 97
-27 0 -46 -43 -55 -125 -4 -38 -11 -74 -15 -80 -4 -5 -11 -29 -15 -52 -4 -24
-11 -43 -16 -43 -5 0 -9 -8 -9 -17 -1 -10 -9 -36 -20 -58 -11 -22 -20 -47 -20
-55 0 -8 -7 -24 -15 -34 -8 -11 -15 -28 -15 -38 0 -10 -4 -18 -10 -18 -5 0
-10 -5 -10 -11 0 -12 -40 -99 -50 -109 -3 -3 -14 -23 -25 -45 -32 -64 -127
-186 -187 -241 -54 -49 -185 -134 -207 -134 -6 0 -11 -4 -11 -10 0 -5 -9 -10
-19 -10 -11 0 -26 -6 -33 -14 -8 -7 -28 -17 -46 -21 -17 -3 -34 -11 -37 -16
-4 -5 -16 -9 -28 -9 -12 0 -34 -6 -48 -14 -14 -7 -54 -16 -89 -20 -39 -5 -73
-15 -88 -27 -55 -43 -71 -13 -28 51 43 64 52 79 78 130 13 25 29 51 36 58 6 7
12 20 12 28 0 9 7 22 15 30 8 9 15 24 15 33 0 10 7 24 15 31 8 7 15 18 15 25
0 8 6 26 14 42 30 57 46 102 46 125 0 12 7 32 15 42 8 11 15 36 15 57 0 20 7
50 15 65 8 16 15 49 15 75 0 25 6 51 13 57 8 9 13 58 14 163 1 124 -1 151 -13
156 -8 3 -17 3 -20 1 -2 -3 -7 -63 -10 -134 -3 -71 -12 -148 -20 -172 -8 -23
-14 -65 -14 -92 0 -27 -4 -52 -10 -55 -5 -3 -10 -24 -10 -45 0 -22 -7 -45 -16
-54 -8 -9 -18 -32 -21 -51 -3 -20 -10 -38 -14 -41 -5 -3 -9 -18 -9 -34 0 -17
-23 -74 -52 -127 -28 -54 -58 -111 -66 -128 -9 -16 -18 -32 -21 -35 -3 -3 -25
-41 -47 -85 -26 -51 -52 -87 -72 -100 -43 -28 -40 -42 11 -48 73 -9 282 14
302 34 5 5 16 9 25 9 8 0 28 7 44 15 15 8 33 15 39 15 12 0 160 70 167 79 3 4
23 18 45 31 39 24 102 77 134 113 8 9 19 17 23 17 15 0 8 -48 -7 -54 -8 -3
-15 -10 -15 -16 0 -12 -41 -73 -52 -78 -5 -2 -8 -9 -8 -16 0 -17 -99 -126
-115 -126 -26 0 -28 -23 -5 -42 17 -13 39 -18 91 -18 37 0 71 4 74 10 3 5 28
12 55 16 27 4 55 13 61 20 16 20 49 18 49 -3 0 -10 -7 -40 -15 -67 -19 -62
-19 -188 0 -241 8 -22 15 -57 15 -77 0 -37 27 -78 50 -78 15 0 12 26 -5 40
-18 15 -20 46 -2 57 12 7 17 9 36 12 14 2 65 52 84 83 9 15 17 39 17 54 0 14
6 38 14 52 16 32 36 152 36 222 0 41 3 50 21 55 12 4 25 3 30 -2 9 -9 -5 -164
-22 -243 -6 -25 -14 -67 -19 -94 -5 -27 -14 -54 -20 -60 -5 -5 -10 -42 -10
-80 -1 -39 -5 -91 -10 -116 -6 -25 -15 -71 -21 -102 -6 -32 -15 -58 -20 -58
-5 0 -9 -6 -9 -13 0 -14 -34 -81 -53 -104 -7 -8 -23 -27 -37 -42 -14 -15 -50
-56 -80 -92 -72 -83 -104 -116 -165 -164 -58 -46 -97 -80 -135 -115 -15 -14
-40 -34 -56 -46 -103 -72 -165 -114 -171 -114 -5 0 -30 -18 -58 -40 -27 -22
-55 -40 -61 -40 -6 0 -28 -13 -50 -30 -21 -16 -45 -30 -52 -30 -8 0 -26 -6
-40 -14 -15 -8 -50 -18 -78 -23 -60 -11 -339 2 -369 16 -11 5 -41 12 -67 16
-27 3 -48 10 -48 16 0 5 -15 9 -33 9 -18 0 -42 7 -53 15 -10 8 -28 15 -40 15
-11 0 -29 7 -40 15 -10 8 -31 15 -45 15 -15 0 -32 7 -39 15 -7 8 -25 15 -41
15 -15 0 -31 5 -34 11 -4 5 -17 14 -28 20 -12 5 -29 13 -37 17 -88 49 -107 51
-176 20 -71 -31 -256 -221 -344 -354 -42 -63 -58 -94 -50 -94 6 0 10 5 10 10
0 6 8 10 18 10 17 0 20 -12 25 -102 3 -57 12 -175 19 -263 16 -216 16 -229 -2
-232 -15 -3 -50 59 -50 89 0 30 -48 175 -76 231 -8 16 -14 33 -14 37 0 5 -13
29 -30 53 -16 25 -30 48 -30 52 0 3 -19 32 -43 63 -57 75 -146 207 -167 247
-6 11 -19 34 -30 50 -11 17 -22 35 -24 40 -2 6 -7 17 -10 25 -4 8 -17 35 -31
59 -14 24 -25 52 -25 61 0 9 28 46 63 81 96 99 126 137 158 203 16 34 33 68
37 76 30 54 42 84 42 104 0 13 15 39 33 58 97 105 118 130 178 209 35 48 71
97 79 109 47 69 100 112 100 82 0 -8 68 -42 83 -42 4 0 7 13 7 28 0 22 -9 34
-38 52 -34 21 -37 27 -28 47 15 30 67 50 149 58 51 4 67 2 68 -7 0 -7 0 -39
-1 -70 -1 -53 13 -114 48 -200 13 -32 20 -38 44 -38 16 0 38 5 49 10 19 11 18
12 -11 41 -16 17 -30 41 -30 54 0 13 -5 25 -12 27 -13 5 -40 113 -42 168 l-1
35 66 6 c36 3 80 11 96 18 17 7 46 11 64 9 34 -3 34 -3 31 -49 -5 -72 41 -189
75 -189 16 0 44 78 41 112 -5 49 -28 48 -28 -1 0 -41 -16 -56 -26 -23 -3 9
-12 29 -20 44 -21 39 -18 95 5 108 11 5 52 15 93 20 40 6 105 18 144 27 39 9
77 14 84 11 9 -3 13 -36 15 -116 l3 -113 -34 -27 c-35 -28 -44 -59 -20 -68 15
-6 82 33 106 61 20 24 16 163 -6 210 -24 52 -15 61 66 69 73 8 144 -3 208 -30
18 -8 39 -14 47 -14 24 0 90 -38 120 -70 31 -33 60 -39 69 -15 5 15 -84 115
-103 115 -5 0 -16 6 -23 13 -7 7 -49 25 -93 40 -186 65 -236 72 -333 52 -41
-8 -101 -15 -134 -15 -59 0 -167 -17 -298 -46 -36 -8 -77 -14 -92 -14 -15 0
-39 -5 -55 -11 -15 -6 -57 -15 -92 -20 -36 -5 -71 -15 -78 -21 -10 -8 -17 -8
-24 -1 -14 14 -1 37 50 88 22 22 40 48 41 58 0 9 4 17 9 17 5 0 11 8 15 18 3
9 24 44 46 77 22 33 43 67 47 75 3 8 9 17 12 20 3 3 16 23 27 45 12 22 30 41
40 43 46 8 50 13 25 31 -18 14 -20 20 -11 26 8 5 18 2 25 -8 15 -21 82 -22
109 -2 11 8 36 15 56 15 20 0 41 5 46 10 6 6 35 13 65 17 30 3 59 9 64 13 6 4
55 10 109 14 55 4 106 12 113 18 8 6 75 12 170 14 86 2 160 7 164 11 21 21
-36 53 -93 53 -25 0 -49 7 -61 18 -16 14 -38 17 -144 15 -99 -1 -127 -4 -136
-17 -8 -10 -32 -16 -72 -18 -74 -4 -72 -23 3 -23 33 0 56 6 61 14 6 10 42 13
141 12 73 0 135 -2 137 -5 16 -16 -17 -26 -85 -26 -42 0 -109 -7 -147 -15 -39
-8 -92 -15 -120 -15 -28 0 -59 -7 -69 -15 -26 -19 -69 -19 -107 1 -31 16 -34
37 -6 42 13 3 61 32 171 104 34 23 171 125 192 144 12 10 44 37 70 59 175 145
454 431 454 465 0 31 -47 -6 -178 -138 -168 -169 -283 -276 -362 -337 -30 -24
-65 -51 -77 -61 -11 -11 -31 -26 -43 -34 -12 -8 -32 -23 -43 -32 -28 -22 -39
-31 -59 -43 -58 -36 -158 -106 -163 -115 -3 -5 -15 -10 -26 -10 -10 0 -19 -5
-19 -10 0 -6 -10 -15 -22 -20 -13 -6 -38 -19 -55 -30 -38 -22 -42 -11 -13 35
33 52 70 126 70 140 0 7 7 18 15 25 8 7 15 23 15 35 0 12 7 28 15 35 8 7 15
22 15 34 0 11 7 30 15 40 8 11 15 30 15 42 0 12 7 27 15 34 8 7 15 27 15 45 0
21 6 35 16 39 20 8 15 70 -7 74 -18 3 -59 -73 -59 -112 0 -14 -4 -26 -9 -26
-5 0 -12 -18 -16 -40 -4 -22 -11 -40 -16 -40 -5 0 -9 -7 -9 -16 0 -9 -10 -38
-22 -63 -11 -25 -34 -73 -49 -106 -15 -33 -42 -91 -60 -130 -18 -38 -39 -76
-46 -83 -7 -7 -13 -17 -13 -21 0 -5 -11 -6 -25 -3 -29 5 -34 -14 -9 -32 9 -7
12 -18 8 -29 -9 -25 -24 -21 -24 8 0 22 -4 25 -34 25 -21 0 -36 -6 -40 -15 -3
-8 -17 -15 -31 -15 -14 0 -25 -4 -25 -10 0 -5 -17 -19 -37 -30 -46 -24 -83
-55 -83 -68 0 -20 29 -20 53 -1 14 10 35 19 46 19 12 0 24 7 27 15 4 8 18 15
34 15 16 0 35 7 44 15 15 16 46 20 46 7 0 -4 -7 -17 -15 -27 -9 -11 -45 -65
-80 -120 -35 -55 -68 -104 -72 -110 -5 -5 -34 -49 -66 -97 -31 -47 -75 -108
-97 -135 -58 -68 -56 -66 -75 -104 -10 -19 -41 -57 -69 -84 -51 -51 -113 -123
-130 -153 -49 -84 -368 -384 -450 -422 -6 -3 -29 -16 -51 -30 -72 -45 -79 -48
-155 -85 -146 -71 -245 -111 -313 -125 -21 -4 -44 -13 -50 -19 -6 -6 -24 -11
-39 -11 -16 0 -45 -7 -65 -15 -19 -8 -48 -15 -63 -15 -15 0 -46 -6 -68 -14
-23 -8 -102 -18 -177 -22 -102 -5 -135 -10 -135 -20 0 -8 12 -16 28 -19 15 -3
48 -13 74 -21 34 -12 70 -14 140 -10 51 3 112 6 136 6 51 0 86 16 78 36 -4 11
5 14 43 14 27 0 51 5 53 10 2 6 30 14 63 19 33 5 54 9 48 10 -7 0 -13 6 -13
11 0 6 30 11 68 11 37 1 58 3 47 6 -33 8 -42 23 -13 23 14 0 31 7 38 15 7 9
22 15 34 13 25 -4 49 -86 40 -141 -4 -26 -1 -45 10 -62 9 -14 16 -45 16 -74 0
-52 2 -56 66 -106 22 -16 60 -51 87 -77 l47 -48 -2 31 c-4 41 12 46 36 12 18
-24 18 -27 3 -38 -21 -15 -21 -29 -2 -45 13 -11 15 -8 15 14 0 14 5 26 11 26
15 0 48 -42 49 -61 0 -9 7 -22 15 -29 8 -7 15 -19 15 -27 0 -7 7 -16 15 -19 8
-4 15 -12 15 -20 0 -17 -12 -18 -28 -2 -9 9 -12 9 -12 -2 0 -8 15 -33 34 -55
29 -34 36 -38 50 -26 20 17 21 40 1 47 -8 4 -15 18 -15 34 0 16 -7 30 -15 34
-8 3 -15 15 -15 26 0 11 -4 20 -10 20 -5 0 -13 12 -16 27 -4 15 -20 41 -36 58
-15 16 -28 35 -28 41 0 7 -46 59 -102 117 -57 57 -117 122 -135 143 -35 42
-42 84 -18 104 8 7 15 19 15 26 0 8 8 14 18 14 11 0 28 -23 51 -73 19 -39 63
-109 98 -154 34 -46 63 -85 63 -88 0 -6 13 -23 41 -53 8 -9 23 -33 32 -53 9
-20 24 -39 32 -43 8 -3 15 -14 15 -24 0 -11 7 -25 15 -32 8 -7 15 -19 15 -27
0 -8 7 -21 15 -29 8 -9 15 -24 15 -34 0 -10 7 -20 15 -24 8 -3 15 -14 15 -25
0 -10 7 -21 15 -25 22 -8 18 -33 -7 -51 -19 -13 -21 -18 -10 -33 7 -9 24 -41
38 -69 14 -29 30 -55 35 -58 5 -4 9 -18 9 -33 0 -15 7 -38 16 -50 16 -24 44
-30 44 -9 0 21 -31 101 -41 108 -17 10 -24 81 -8 89 28 16 33 9 31 -43 -2 -47
-1 -50 11 -29 15 26 27 19 27 -15 0 -13 7 -26 15 -29 10 -4 15 -20 15 -45 0
-25 5 -39 13 -39 12 0 44 -63 66 -131 14 -44 14 -89 1 -89 -5 0 -10 7 -10 15
0 9 -7 18 -15 21 -8 4 -15 14 -15 23 0 10 -7 26 -15 37 -8 10 -15 26 -15 34
-1 19 -35 60 -49 60 -16 0 -13 -36 4 -50 8 -7 15 -19 15 -27 0 -7 6 -16 14
-19 8 -3 17 -16 20 -30 4 -13 11 -24 16 -24 6 0 10 -9 10 -20 0 -10 6 -23 14
-27 16 -9 27 -64 30 -143 1 -30 5 -62 8 -70 15 -42 38 -153 38 -187 0 -22 7
-48 15 -59 23 -30 20 -139 -4 -163 -11 -11 -25 -38 -31 -60 -6 -22 -22 -49
-38 -61 l-27 -22 1 -171 c1 -95 5 -193 9 -220 5 -32 3 -52 -5 -62 -16 -19 -30
-10 -30 19 0 15 -20 39 -67 77 -88 72 -203 184 -203 198 0 6 -4 11 -9 11 -10
0 -20 16 -66 108 -28 55 -48 72 -89 72 -35 0 -56 10 -56 26 0 8 -10 14 -25 14
-14 0 -28 7 -31 15 -4 8 -17 15 -30 15 -17 0 -24 6 -24 20 0 11 -4 20 -9 20
-14 0 -229 220 -279 285 -25 33 -54 68 -64 78 -10 10 -18 23 -18 28 0 6 -10
25 -22 42 -13 18 -32 52 -44 77 -11 25 -46 70 -76 102 -30 31 -65 77 -78 102
-12 25 -26 48 -31 52 -5 3 -9 19 -9 35 0 17 -6 32 -15 35 -8 4 -15 14 -15 24
0 22 -47 80 -64 80 -12 0 -77 31 -99 47 -7 5 -48 18 -92 28 -44 10 -96 25
-115 34 -49 22 -140 87 -171 122 l-26 30 -96 -93 c-52 -51 -171 -165 -263
-253 -184 -176 -190 -182 -219 -216 -25 -30 -90 -79 -104 -79 -6 0 -11 6 -11
13 0 8 -17 21 -37 30 -21 9 -45 21 -53 26 -44 28 -137 54 -184 52 -40 -2 -48
0 -39 10 9 9 3 20 -30 50 -23 20 -45 35 -49 32 -13 -7 -9 -51 5 -56 6 -2 8 -8
4 -13 -10 -10 -37 6 -51 32 -6 10 -15 22 -20 26 -9 6 -18 58 -20 113 -1 23 3
30 17 29 21 -2 23 22 2 30 -9 3 -15 19 -15 41 0 23 -4 35 -12 33 -44 -8 -100
63 -132 166 -23 76 -24 265 -2 349 9 32 16 70 16 85 0 43 64 210 117 307 12
22 34 64 48 93 15 28 30 52 35 52 4 0 11 8 14 18 10 27 29 55 59 87 15 17 27
33 27 37 0 6 71 69 173 156 15 12 34 22 42 22 8 0 15 4 15 8 0 4 32 32 71 62
39 29 76 61 82 70 20 27 69 60 89 60 14 0 18 -6 16 -26 -3 -22 3 -28 42 -41
25 -8 66 -33 91 -54 26 -22 51 -39 55 -39 14 0 176 -113 186 -130 7 -11 21
-15 43 -12 27 3 43 -4 81 -32 26 -20 51 -36 57 -36 5 0 31 -15 57 -34 51 -37
122 -60 213 -71 32 -3 69 -13 84 -20 14 -7 31 -11 38 -9 6 3 16 -1 22 -8 13
-16 -1 -58 -20 -58 -8 0 -27 -11 -43 -25 -16 -14 -43 -33 -60 -41 -44 -21 -88
-69 -81 -88 7 -18 87 -23 87 -6 0 6 11 10 24 10 14 0 28 5 31 11 4 5 17 14 28
20 62 26 165 108 285 225 58 57 109 104 113 104 37 0 104 68 85 87 -4 4 -49
-14 -99 -40 -51 -26 -99 -47 -108 -47 -9 0 -33 -7 -52 -15 -51 -21 -298 -21
-357 0 -23 8 -57 15 -75 15 -22 0 -40 9 -61 30 -16 16 -37 30 -46 30 -9 0 -19
4 -23 9 -3 6 -27 20 -53 33 -26 13 -53 29 -60 36 -7 6 -18 12 -23 12 -5 0 -38
20 -75 45 -36 25 -68 45 -71 45 -3 0 -22 14 -43 30 -21 17 -41 30 -44 30 -7 0
-121 81 -148 104 -9 8 -39 32 -67 52 -28 21 -51 44 -51 51 0 35 -170 173 -235
189 -14 3 -28 10 -31 15 -3 5 -15 9 -26 9 -12 0 -51 10 -87 23 l-66 22 140 3
c77 2 156 -1 175 -7 19 -5 62 -14 95 -19 84 -14 157 -31 175 -41 9 -5 31 -12
50 -16 19 -4 41 -11 50 -16 8 -4 49 -17 90 -30 41 -12 84 -25 95 -29 11 -4 47
-15 80 -24 33 -10 74 -22 90 -28 17 -5 48 -13 70 -17 22 -4 50 -13 62 -19 12
-7 36 -12 53 -12 17 0 45 -8 63 -17 45 -24 234 -23 268 1 13 9 30 16 39 16 15
0 192 87 245 121 17 10 37 22 45 26 98 45 420 353 420 401 0 6 4 12 8 14 9 3
116 182 144 238 35 72 58 129 58 144 0 9 4 16 9 16 5 0 12 18 16 40 4 22 11
42 15 45 5 3 12 27 15 53 4 26 13 62 21 80 20 43 15 87 -9 87 -13 0 -24 -15
-38 -55 -10 -30 -19 -63 -19 -73 0 -20 -25 -101 -47 -154 -7 -17 -13 -34 -13
-39 0 -10 -96 -200 -121 -239 -10 -16 -22 -37 -26 -45 -22 -47 -139 -189 -233
-284 l-109 -109 -148 2 c-105 1 -165 -3 -206 -14 -32 -8 -68 -15 -80 -15 -13
0 -29 -6 -35 -12 -7 -7 -54 -18 -105 -25 -159 -20 -231 -31 -267 -42 -19 -6
-57 -11 -84 -11 -27 0 -66 -5 -87 -11 -31 -10 -44 -9 -72 5 -19 9 -42 16 -50
16 -9 0 -18 4 -21 9 -4 5 -24 12 -46 16 -22 4 -42 10 -45 15 -3 4 -22 11 -42
15 -21 4 -42 10 -48 15 -5 4 -32 13 -60 19 -27 7 -77 19 -110 28 -112 29 -242
37 -396 25 -151 -11 -292 -32 -305 -44 -4 -5 -19 -8 -34 -8 -14 0 -35 -7 -46
-15 -10 -8 -26 -15 -34 -15 -8 0 -35 -17 -59 -38 -32 -27 -43 -43 -38 -55 9
-23 17 -21 54 13 18 17 38 30 45 30 8 0 22 6 33 13 40 27 153 39 258 28 54 -5
104 -14 110 -20 7 -5 30 -13 52 -17 22 -4 49 -13 60 -20 11 -8 27 -14 35 -14
16 0 78 -48 168 -131 24 -21 47 -39 52 -39 14 0 22 -19 13 -34 -4 -7 -30 -32
-58 -54 -27 -22 -76 -65 -109 -96 -32 -31 -63 -56 -68 -56 -16 0 -163 -116
-221 -174 -49 -49 -131 -157 -150 -196 -4 -8 -16 -28 -27 -45 -11 -16 -22 -37
-26 -45 -28 -73 -65 -109 -111 -110 -18 0 -33 -4 -33 -10 0 -5 -8 -10 -17 -10
-10 0 -31 -7 -47 -15 -15 -8 -36 -15 -45 -15 -9 0 -28 -6 -42 -14 -14 -7 -47
-16 -72 -20 -26 -4 -49 -11 -52 -17 -4 -5 -23 -9 -43 -9 -20 -1 -55 -8 -77
-16 -51 -20 -416 -30 -525 -15 -103 14 -191 31 -215 41 -11 5 -37 11 -57 15
-20 3 -50 12 -65 20 -15 8 -34 15 -41 15 -7 0 -20 4 -30 9 -9 6 -53 26 -97 47
-44 20 -82 41 -83 45 -2 5 -9 9 -15 9 -6 0 -56 30 -112 67 -87 59 -124 87
-169 128 -6 6 -33 28 -61 50 -53 43 -123 113 -158 158 -12 15 -30 38 -39 49
-10 12 -18 25 -18 30 0 5 -7 16 -15 24 -8 9 -15 31 -15 50 0 24 -5 34 -15 34
-11 0 -15 -12 -15 -45 0 -63 49 -143 150 -244 71 -71 170 -161 178 -161 4 0
27 -18 52 -40 25 -22 48 -40 52 -40 4 0 13 -6 20 -13 19 -18 96 -68 128 -83 8
-4 17 -10 20 -14 5 -6 143 -74 185 -91 11 -4 42 -17 69 -28 27 -12 58 -21 70
-21 12 0 26 -4 32 -9 5 -6 34 -14 64 -20 30 -6 78 -14 105 -20 127 -25 291
-33 426 -21 74 7 154 16 179 22 25 5 72 14 105 20 33 5 64 14 69 19 6 5 21 9
35 9 15 0 39 7 55 15 15 8 33 15 39 15 12 0 97 40 117 56 21 15 59 24 65 14 3
-5 -1 -21 -9 -37 -56 -112 -76 -167 -76 -210 -1 -27 -9 -82 -19 -123 -17 -71
-20 -75 -47 -78 -16 -2 -43 -10 -61 -18 -17 -7 -34 -14 -37 -14 -5 0 -101 -57
-121 -72 -132 -100 -216 -178 -315 -294 -38 -44 -113 -163 -140 -221 -13 -28
-28 -49 -32 -47 -13 8 -9 61 6 98 7 18 17 52 21 74 4 23 10 44 15 47 5 3 11
23 15 46 4 22 13 53 21 67 8 15 14 32 14 38 0 7 7 25 15 40 8 16 15 39 15 52
0 12 4 22 10 22 5 0 12 16 16 35 3 19 12 39 20 46 8 6 14 22 14 35 0 13 4 24
10 24 5 0 12 11 16 25 3 14 9 25 13 25 3 0 16 17 29 38 13 20 38 47 57 60 40
25 46 52 13 52 -18 0 -94 -69 -133 -122 -27 -36 -115 -229 -115 -252 0 -9 -4
-16 -9 -16 -5 0 -12 -16 -15 -35 -4 -19 -13 -47 -21 -62 -8 -15 -15 -40 -15
-55 0 -15 -4 -29 -9 -32 -5 -3 -12 -27 -16 -53 -4 -27 -11 -52 -15 -58 -4 -5
-10 -39 -13 -75 -2 -36 -10 -126 -18 -200 -17 -176 -18 -302 -1 -308 6 -2 12
-15 12 -28 0 -32 66 -104 95 -104 32 0 50 24 31 40 -9 6 -20 9 -25 5 -32 -19
-75 96 -74 195 1 80 19 200 33 214 5 5 10 17 10 26 0 17 89 198 109 221 6 8
28 37 48 64 130 174 305 328 455 399 32 15 60 31 63 37 4 5 14 9 24 9 16 0 19
-13 24 -102 3 -57 11 -119 18 -138 32 -96 77 -166 115 -180 30 -12 41 -37 26
-61 -18 -28 -15 -126 4 -162 9 -18 20 -39 24 -47 10 -22 80 -60 111 -60 14 0
34 -7 45 -15 10 -8 33 -15 51 -15 17 0 35 -5 38 -10 13 -20 85 -50 122 -50 40
0 107 -20 124 -37 7 -7 -3 -18 -28 -35 -52 -35 -103 -84 -143 -138 -18 -25
-38 -49 -44 -55 -45 -41 -126 -175 -140 -231 -4 -16 -18 -43 -32 -61 -13 -17
-24 -35 -24 -38 0 -3 -11 -21 -25 -39 -14 -18 -36 -54 -50 -80 -14 -26 -31
-54 -38 -62 -27 -30 -37 -43 -37 -50 0 -10 -73 -129 -82 -132 -4 -2 -8 -8 -8
-14 0 -6 -20 -44 -45 -85 -25 -40 -45 -78 -45 -83 0 -5 -6 -15 -12 -22 -17
-17 -148 -281 -148 -296 0 -7 -4 -12 -10 -12 -5 0 -10 -5 -10 -11 0 -5 -9 -31
-21 -57 -11 -26 -27 -63 -35 -82 -8 -19 -19 -42 -23 -50 -5 -9 -12 -30 -15
-48 -4 -17 -12 -34 -17 -37 -5 -4 -9 -14 -9 -23 0 -9 -7 -30 -15 -46 -8 -15
-15 -36 -15 -45 0 -9 -7 -29 -15 -44 -8 -15 -17 -43 -21 -63 -3 -19 -10 -36
-14 -39 -5 -3 -11 -23 -15 -45 -4 -22 -10 -42 -15 -45 -5 -3 -11 -23 -15 -45
-4 -22 -11 -40 -16 -40 -5 0 -9 -12 -9 -27 0 -16 -7 -41 -15 -57 -8 -15 -15
-38 -15 -50 0 -12 -7 -31 -15 -42 -8 -10 -15 -38 -15 -60 0 -24 -6 -47 -15
-54 -22 -18 -18 -30 10 -30 29 0 45 26 45 73 0 19 7 40 15 47 8 7 15 27 15 44
0 17 7 40 15 50 8 11 15 31 15 45 0 14 7 35 15 45 8 11 15 32 15 47 0 14 7 32
15 39 8 7 15 24 15 39 0 14 7 35 15 45 8 11 15 31 15 45 0 14 7 35 15 45 8 11
15 27 15 37 0 9 7 30 15 45 8 16 15 37 15 46 0 9 4 19 9 22 5 3 12 18 15 33 4
16 13 42 20 58 8 17 19 41 24 55 62 147 64 151 144 315 35 72 66 132 70 135 4
3 12 17 18 30 15 36 56 106 102 173 21 32 55 88 75 124 19 37 42 73 49 81 8 7
14 19 14 27 0 7 3 15 8 17 11 5 52 66 52 78 0 5 4 10 9 10 5 0 13 10 17 22 3
12 12 28 18 35 38 43 76 106 76 125 0 16 237 252 324 323 44 36 51 38 115 38
l67 0 161 -160 c88 -88 182 -189 209 -224 26 -35 53 -68 60 -74 6 -5 33 -39
60 -75 26 -36 53 -69 59 -75 7 -5 27 -30 45 -55 18 -25 38 -49 44 -55 16 -14
72 -88 77 -100 2 -5 27 -43 54 -83 28 -40 55 -81 60 -90 6 -9 28 -44 51 -77
22 -34 43 -67 47 -75 4 -8 16 -28 27 -45 11 -16 24 -39 30 -50 6 -11 19 -33
30 -50 10 -16 29 -50 42 -75 13 -25 26 -47 30 -50 4 -3 12 -17 18 -30 6 -14
26 -52 45 -85 19 -33 52 -96 75 -140 23 -44 45 -87 50 -95 11 -19 124 -255
163 -340 16 -36 36 -77 43 -92 8 -14 14 -35 14 -46 0 -11 7 -25 15 -32 8 -7
15 -25 15 -40 0 -15 7 -33 15 -40 8 -7 15 -19 15 -26 0 -8 9 -14 20 -14 15 0
20 7 20 29 0 16 -6 31 -15 35 -9 3 -15 18 -15 39 0 19 -7 40 -15 47 -8 7 -15
25 -15 40 0 15 -7 33 -15 40 -8 7 -15 23 -15 35 0 12 -7 28 -15 35 -8 7 -15
20 -15 29 0 10 -7 26 -15 37 -8 10 -15 26 -15 35 0 9 -7 22 -15 29 -8 7 -15
23 -15 35 0 12 -7 28 -15 35 -8 7 -15 20 -15 30 0 10 -7 23 -15 30 -8 7 -15
20 -15 30 0 10 -7 23 -15 30 -8 7 -15 20 -15 30 0 10 -7 23 -15 30 -8 7 -15
21 -15 31 0 10 -5 21 -11 24 -5 4 -14 17 -20 28 -5 12 -13 29 -18 37 -5 8 -12
22 -15 30 -4 8 -15 29 -26 45 -11 17 -22 37 -26 45 -3 8 -10 22 -15 30 -5 8
-14 24 -19 35 -6 11 -19 34 -29 50 -11 17 -32 54 -47 83 -15 28 -31 52 -36 52
-4 0 -8 7 -8 16 0 9 -13 33 -28 53 -16 20 -32 43 -35 51 -4 8 -16 29 -27 45
-11 17 -24 40 -30 53 -5 12 -14 22 -19 22 -5 0 -12 8 -15 18 -12 32 -37 72
-45 72 -5 0 -11 8 -15 18 -8 24 -29 56 -44 65 -6 4 -12 13 -12 19 0 5 -13 27
-30 48 -16 21 -30 43 -30 49 0 6 -4 11 -8 11 -5 0 -30 30 -57 66 -26 36 -57
74 -68 84 -10 10 -16 23 -12 29 3 6 0 11 -8 11 -7 0 -23 18 -36 40 -12 22 -26
40 -32 40 -5 0 -9 9 -9 20 0 13 -5 18 -15 14 -10 -4 -15 0 -15 15 0 13 -6 21
-16 21 -11 0 -14 5 -10 16 4 11 -1 18 -14 21 -11 3 -20 9 -20 13 0 8 -122 133
-171 176 -13 11 -71 62 -129 112 -57 51 -109 92 -116 92 -17 0 -170 -83 -184
-100 -10 -12 -70 -51 -70 -46 0 13 741 741 768 755 26 14 29 12 91 -48 20 -19
49 -40 66 -48 16 -7 37 -17 45 -22 33 -18 120 -41 158 -41 23 0 43 -4 47 -9 3
-6 27 -20 52 -33 49 -24 83 -51 83 -67 0 -5 6 -22 14 -38 12 -25 32 -70 50
-113 23 -54 68 -111 108 -136 27 -17 38 -31 38 -49 0 -67 136 -260 304 -432
34 -35 81 -86 106 -113 25 -28 54 -55 65 -61 11 -5 27 -13 35 -18 54 -30 82
-41 110 -41 41 0 70 -16 70 -39 0 -10 14 -37 30 -59 17 -23 30 -45 30 -48 0
-27 150 -178 273 -274 15 -12 27 -28 27 -37 0 -8 14 -35 30 -60 17 -24 30 -47
30 -51 0 -14 110 -121 130 -127 11 -4 20 -10 20 -15 0 -4 11 -11 25 -14 24 -6
25 -9 25 -91 0 -46 -4 -95 -9 -108 -5 -14 -13 -91 -17 -171 l-7 -147 -32 65
c-17 35 -46 77 -64 94 -19 17 -30 35 -27 41 4 6 1 11 -7 11 -8 0 -17 7 -21 15
-3 8 -17 15 -31 15 -16 0 -25 6 -25 15 0 10 -11 15 -35 15 -19 0 -35 5 -35 10
0 16 -53 12 -78 -6 -14 -10 -34 -14 -50 -11 -15 3 -35 1 -44 -4 -22 -12 -24
-49 -3 -49 8 0 15 5 15 10 0 6 5 10 10 10 6 0 10 -7 10 -15 0 -8 -7 -15 -15
-15 -17 0 -21 -55 -5 -65 6 -3 10 -17 10 -31 0 -14 7 -27 15 -30 8 -4 15 -17
15 -30 0 -15 6 -24 16 -24 8 0 12 -4 9 -10 -7 -12 28 -85 77 -160 19 -30 38
-65 42 -77 4 -13 14 -23 22 -23 8 0 14 -10 14 -24 0 -13 7 -26 15 -30 8 -3 15
-14 15 -24 0 -11 7 -25 15 -32 8 -7 15 -21 15 -31 0 -11 7 -19 15 -19 9 0 15
-10 15 -26 0 -18 4 -24 14 -21 7 3 20 -3 30 -14 20 -24 20 -29 0 -29 -11 0
-14 -5 -10 -16 3 -9 6 -27 6 -40 0 -17 6 -24 20 -24 16 0 20 7 20 35 0 19 3
35 6 35 11 0 44 -21 70 -45 16 -15 39 -25 56 -25 29 0 29 1 27 53 -2 38 4 67
19 99 12 24 22 59 22 76 0 17 9 46 20 64 13 21 20 51 20 81 0 38 7 58 36 100
20 28 47 58 60 65 24 13 32 46 14 57 -16 10 -12 35 8 42 23 8 62 44 62 57 0 6
12 22 26 36 30 29 92 118 100 142 4 10 26 27 51 39 29 14 42 26 39 35 -10 25
31 15 49 -12 10 -16 22 -23 32 -20 9 4 21 2 27 -2 6 -5 23 -12 37 -15 14 -4
38 -18 53 -32 23 -21 27 -32 22 -55 -3 -16 -1 -32 5 -36 6 -4 8 -20 5 -38 -13
-63 -11 -134 6 -266 24 -186 34 -237 61 -284 13 -23 34 -74 47 -113 l25 -73
56 0 c54 0 56 1 52 25 -3 13 -11 30 -19 36 -8 6 -14 22 -14 34 0 12 -7 28 -15
35 -8 7 -15 20 -15 29 0 9 -7 25 -15 35 -8 11 -15 29 -15 41 0 12 -7 30 -15
41 -8 10 -15 36 -15 56 0 20 -7 63 -15 95 -20 78 -20 347 0 383 8 14 14 39 15
56 0 17 7 37 15 44 8 7 17 28 21 49 4 20 11 42 17 49 15 19 14 145 -1 150 -7
2 -12 10 -12 17 0 8 -6 18 -13 22 -7 4 -20 20 -29 34 -42 66 -153 149 -200
149 -13 0 -29 5 -36 12 -9 9 -15 9 -23 1 -18 -18 -3 -42 28 -48 69 -14 155
-80 220 -168 33 -44 35 -52 29 -95 -4 -26 -11 -71 -15 -100 -6 -47 -21 -71
-42 -72 -4 0 -18 9 -32 20 -14 11 -29 20 -35 20 -5 0 -20 8 -33 19 -13 10 -37
21 -54 24 -94 18 -100 21 -103 57 -2 19 -17 54 -33 78 -16 24 -29 49 -29 57 0
8 -4 16 -9 20 -5 3 -12 19 -16 36 -4 17 -13 42 -21 57 -8 15 -14 35 -14 44 0
9 -3 18 -7 20 -5 2 -21 29 -37 61 -16 31 -33 60 -37 63 -5 3 -9 14 -9 25 0 10
-4 19 -10 19 -5 0 -10 5 -10 10 0 27 31 4 77 -56 12 -16 31 -40 42 -54 29 -36
34 -42 52 -70 15 -22 26 -36 69 -87 5 -7 10 -15 10 -19 0 -3 9 -17 20 -31 11
-14 20 -36 20 -49 0 -12 4 -25 9 -28 5 -4 12 -25 16 -49 15 -98 30 -104 37
-14 4 47 1 72 -13 104 -11 23 -19 47 -19 52 0 6 -3 11 -7 11 -11 1 -68 79 -68
94 0 7 -22 32 -50 56 -54 46 -68 69 -53 86 6 9 16 9 37 1 25 -9 32 -7 69 29
36 34 42 45 42 81 0 23 -3 43 -7 45 -5 2 -21 22 -36 44 -27 40 -28 43 -17 110
6 37 16 74 22 81 11 13 53 8 75 -9 6 -5 23 -6 37 -2 19 4 33 1 46 -11 14 -12
23 -14 37 -6 36 19 46 37 32 62 -16 30 -50 58 -70 59 -9 0 -22 7 -29 15 -8 9
-30 15 -60 15 -25 0 -49 3 -52 6 -4 3 0 22 8 41 12 28 15 81 13 255 -1 162 1
222 10 228 17 10 81 137 81 161 0 11 7 22 15 25 8 4 15 14 15 23 0 9 7 25 15
35 21 28 21 274 0 302 -8 10 -15 31 -15 45 0 14 -7 34 -15 45 -16 21 -20 74
-6 74 4 0 19 -8 32 -19 47 -36 108 -56 230 -76 43 -6 280 22 293 36 6 5 18 9
29 9 41 0 187 82 239 134 27 28 51 19 27 -11 -14 -16 -31 -44 -51 -83 -7 -14
-18 -31 -25 -38 -7 -7 -13 -18 -13 -23 0 -5 -5 -15 -10 -22 -6 -7 -34 -48 -63
-91 -65 -100 -115 -156 -139 -156 -25 0 -23 -27 3 -35 21 -7 63 24 112 83 10
12 24 28 31 35 6 6 23 30 36 52 13 22 30 46 37 53 7 7 13 19 13 27 0 7 4 15 8
17 10 4 19 20 90 165 30 59 78 157 108 217 31 59 53 115 50 122 -3 8 -16 14
-29 14 -21 0 -28 -9 -47 -62 -59 -160 -150 -247 -355 -339 -21 -9 -76 -23
-160 -41 -99 -20 -339 7 -379 43 -6 5 -16 9 -24 9 -25 0 -81 51 -87 81 -4 16
-11 31 -16 34 -5 4 -9 13 -9 22 0 9 -8 25 -17 36 -16 17 -16 20 -2 30 40 30
40 72 1 119 -8 9 -11 22 -7 27 9 16 51 13 65 -4 7 -8 27 -15 46 -15 18 0 40
-7 49 -16 27 -27 375 -58 398 -35 6 6 20 11 30 11 10 0 33 6 50 14 18 8 39 17
47 20 8 3 29 15 45 26 17 11 37 23 45 27 18 8 73 46 80 54 3 4 25 17 49 30 24
12 57 34 72 48 44 41 58 51 67 51 5 0 18 8 29 17 11 10 60 50 108 88 92 74
245 221 307 296 20 24 55 66 77 92 75 89 112 190 122 337 8 121 26 248 39 271
5 9 12 33 15 53 4 20 11 39 16 42 5 3 9 20 9 39 0 20 6 35 15 39 20 7 21 76 1
76 -22 0 -30 19 -15 36 10 13 14 13 29 -1 12 -11 20 -13 25 -5 3 5 29 10 56 9
27 -1 55 3 61 9 14 14 0 20 -57 24 -22 2 -40 8 -40 13 0 6 18 13 40 16 35 5
261 112 275 129 3 4 16 13 29 19 21 12 22 14 7 29 -14 14 -19 14 -58 -7 -133
-70 -154 -81 -168 -81 -8 0 -33 -7 -55 -15 -50 -18 -98 -19 -93 -3 3 7 15 15
29 18 13 3 28 15 34 26 5 11 30 40 55 65 48 48 95 103 120 139 8 12 20 28 25
34 16 19 51 70 58 86 4 8 16 29 27 45 10 17 29 50 41 75 12 25 28 57 35 72 8
14 14 33 14 42 0 9 4 16 10 16 5 0 13 12 16 27 4 15 13 38 20 52 8 14 14 36
14 47 0 12 7 35 15 50 21 40 21 177 0 194 -11 9 -15 35 -15 104 0 61 -5 100
-15 120 -8 15 -15 47 -15 70 0 23 -7 51 -15 62 -8 10 -15 37 -15 60 0 22 -7
49 -15 60 -8 10 -15 28 -15 40 0 11 -7 29 -15 40 -8 10 -15 27 -15 37 0 11 -7
35 -16 55 -8 21 -21 51 -28 67 -32 76 -120 245 -128 245 -4 0 -8 6 -8 13 0 12
-9 26 -50 74 -5 7 -10 15 -10 19 0 10 -85 109 -146 172 -53 54 -80 64 -91 36z
m-1713 -2094 c26 -16 -3 -33 -45 -26 -30 6 -34 10 -25 22 14 16 48 18 70 4z
m-90 -45 c0 -10 -10 -15 -29 -15 -32 0 -50 15 -29 23 27 11 58 7 58 -8z m1730
-305 c0 -6 -7 -24 -14 -39 -8 -15 -18 -52 -22 -81 -4 -30 -13 -65 -20 -79 -8
-14 -14 -38 -14 -52 0 -31 -56 -119 -76 -119 -33 0 -47 116 -18 144 8 9 19 16
24 16 12 0 21 31 15 51 -8 26 -21 24 -30 -3 -4 -14 -8 -18 -12 -10 -8 20 21
72 44 78 12 3 25 14 28 25 6 18 73 79 87 79 5 0 8 -5 8 -10z m-2955 -1160 c-3
-5 -13 -10 -21 -10 -8 0 -14 5 -14 10 0 6 9 10 21 10 11 0 17 -4 14 -10z m-58
-26 c2 -5 -13 -18 -33 -29 -20 -11 -50 -32 -68 -47 -32 -29 -46 -34 -46 -19 0
14 32 47 79 80 44 31 61 35 68 15z m33 -63 c0 -5 -11 -12 -24 -15 -14 -3 -29
-18 -36 -36 -9 -23 -19 -30 -40 -30 -14 0 -30 3 -33 6 -10 10 36 54 56 54 10
0 25 7 33 15 17 16 44 20 44 6z m1041 -236 c30 -19 61 -35 70 -35 20 0 127
-69 153 -98 15 -18 16 -24 6 -37 -10 -12 -10 -25 -1 -59 6 -25 11 -58 11 -74
0 -16 7 -35 15 -42 8 -7 15 -19 15 -26 0 -8 6 -14 14 -14 18 0 29 -33 21 -60
-4 -12 -1 -27 5 -35 7 -8 9 -26 5 -44 -3 -16 -1 -48 5 -70 6 -23 12 -65 13
-94 1 -33 7 -56 17 -64 13 -10 13 -15 -4 -43 -10 -17 -24 -62 -32 -98 -8 -37
-23 -79 -34 -94 -11 -15 -20 -34 -20 -43 0 -8 -11 -38 -25 -67 -14 -28 -25
-67 -25 -85 0 -31 -2 -33 -27 -27 -50 12 -83 34 -83 54 0 11 8 39 17 62 13 32
14 43 4 46 -7 2 -16 15 -21 28 -6 15 -17 24 -32 24 -12 0 -42 7 -65 16 -39 15
-49 29 -44 58 1 4 -5 19 -14 32 -8 13 -15 33 -15 45 0 11 -6 33 -14 47 -8 15
-17 34 -20 42 -4 8 -15 29 -26 45 -20 30 -26 43 -35 71 -3 8 -9 12 -15 9 -15
-9 -12 -45 4 -51 8 -3 17 -16 20 -30 4 -13 11 -24 16 -24 6 0 10 -11 10 -24 0
-14 7 -32 16 -40 19 -20 24 -120 7 -137 -10 -10 -18 -9 -40 9 -16 12 -38 27
-50 32 -13 5 -23 18 -23 30 0 11 -9 28 -20 37 -11 10 -20 30 -20 45 0 14 -7
33 -15 42 -8 8 -15 26 -15 40 0 21 -5 26 -25 26 -16 0 -25 6 -25 16 0 8 -5 12
-10 9 -7 -4 -7 -11 -2 -18 5 -7 13 -33 16 -59 4 -26 11 -50 17 -53 5 -4 9 -78
9 -169 0 -167 12 -239 46 -267 17 -14 19 -69 1 -69 -7 0 -17 10 -22 22 -6 12
-17 24 -25 28 -8 4 -29 14 -45 23 -30 15 -64 9 -52 -10 3 -5 31 -22 61 -37 62
-31 73 -45 105 -134 23 -60 23 -64 8 -115 -15 -47 -21 -91 -18 -124 2 -19 56
-16 97 6 51 28 67 18 60 -34 -8 -49 -33 -102 -65 -136 l-22 -24 -29 35 c-16
19 -30 40 -30 45 0 6 -9 16 -20 23 -11 7 -20 17 -20 22 0 20 -35 50 -60 50
-38 0 -47 11 -55 60 -4 25 -13 55 -21 67 -36 56 0 72 47 21 l29 -32 0 36 c0
37 -27 98 -44 98 -5 0 -15 -8 -21 -17 -12 -17 -14 -17 -35 2 -18 17 -21 29
-20 95 1 41 -1 82 -4 91 -6 15 3 45 23 79 16 27 36 211 38 355 1 77 2 145 2
151 1 7 10 14 21 17 20 5 20 7 5 44 -9 21 -19 64 -21 95 -4 41 -17 79 -45 133
-23 42 -38 79 -36 82 15 14 137 -105 137 -134 0 -7 4 -13 10 -13 5 0 16 -12
24 -27 12 -24 15 -26 21 -11 5 13 -9 39 -46 88 -30 38 -57 70 -61 70 -5 0 -8
7 -8 15 0 8 -4 15 -8 15 -5 0 -13 10 -19 22 -8 19 -5 27 16 48 14 14 58 61 96
103 39 43 82 85 97 93 35 19 97 18 119 -1 15 -15 17 -14 23 10 4 14 10 25 15
25 5 0 33 -16 62 -35z m-429 -495 c4 -41 8 -82 8 -90 2 -29 -25 -160 -32 -160
-4 0 -8 64 -8 143 0 78 -3 153 -7 166 -5 19 -2 22 13 19 16 -3 20 -16 26 -78z
m-302 -125 c0 -14 -4 -25 -10 -25 -5 0 -10 11 -10 25 0 14 5 25 10 25 6 0 10
-11 10 -25z m658 -389 c53 -34 91 -79 98 -115 4 -17 11 -34 15 -37 5 -3 9 -21
9 -40 0 -66 34 -122 88 -144 25 -11 27 -19 9 -44 -17 -24 -111 -24 -137 -1 -9
8 -24 15 -32 15 -9 0 -21 7 -28 15 -7 8 -17 15 -22 15 -6 0 -28 14 -50 31 -49
39 -49 74 -1 104 39 24 41 39 8 61 -30 20 -36 15 -50 -34 -15 -54 -41 -54 -65
0 -34 75 -23 131 35 180 29 25 79 22 123 -6z m260 -230 c3 -16 -28 -56 -43
-56 -6 0 3 59 11 72 9 14 29 4 32 -16z m51 -254 c-7 -31 -14 -82 -16 -112 -5
-62 -12 -74 -37 -64 -14 5 -17 14 -13 40 7 42 -2 106 -14 98 -5 -3 -9 -18 -9
-34 0 -42 -10 -60 -31 -60 -25 0 -41 -42 -33 -84 5 -28 0 -38 -35 -74 -23 -23
-43 -42 -46 -42 -3 0 -14 -9 -25 -20 -34 -34 -48 -26 -48 25 1 38 7 51 35 78
19 17 50 53 69 80 20 26 43 47 51 47 10 0 14 6 10 20 -7 26 17 94 35 98 7 1
19 20 26 42 6 21 24 51 38 65 25 25 25 27 8 46 -17 18 -16 20 3 42 11 12 24
31 29 42 14 32 17 -167 3 -233z m-176 48 c38 1 53 -22 22 -34 -8 -3 -15 -16
-15 -29 0 -14 -7 -30 -15 -37 -8 -7 -15 -18 -15 -26 0 -7 -18 -32 -40 -55
l-39 -42 -11 27 c-5 15 -13 39 -16 53 -4 14 -15 28 -25 30 -23 6 -25 45 -4 63
24 20 17 30 -20 30 -32 0 -43 8 -30 22 3 3 43 4 88 1 45 -2 99 -3 120 -3z
m-356 -290 l30 -60 -24 -32 c-26 -37 -30 -70 -8 -88 10 -9 15 -32 15 -76 0
-34 5 -66 10 -69 6 -3 10 -21 10 -39 0 -18 7 -41 15 -52 8 -10 15 -27 15 -37
0 -11 6 -31 13 -45 24 -47 45 -96 52 -119 3 -13 11 -23 16 -23 5 0 9 -9 9 -19
0 -11 6 -26 13 -33 8 -7 17 -26 21 -41 3 -15 11 -27 16 -27 6 0 10 -7 10 -14
0 -16 45 -105 61 -121 5 -5 9 -19 9 -32 0 -13 7 -26 15 -29 9 -4 15 -19 15
-36 0 -23 -15 -47 -60 -98 -33 -37 -60 -71 -60 -75 0 -4 -13 -24 -28 -44 -16
-20 -32 -43 -35 -51 -4 -8 -18 -33 -32 -55 -13 -22 -24 -47 -25 -56 0 -9 -7
-19 -15 -23 -8 -3 -15 -15 -15 -26 0 -11 -7 -23 -15 -26 -8 -4 -15 -14 -15
-24 0 -30 -18 -33 -55 -10 -39 24 -39 20 -24 150 6 52 14 156 17 230 7 133 19
171 34 100 4 -19 14 -62 22 -94 8 -33 13 -63 10 -68 -8 -12 -7 -186 1 -199 14
-21 25 14 25 77 0 34 7 77 14 96 13 31 13 43 -1 101 -9 37 -20 67 -24 67 -5 0
-11 16 -15 36 -4 19 -13 38 -20 41 -8 3 -14 15 -14 27 0 12 -7 31 -15 42 -8
10 -15 29 -15 41 0 12 -7 35 -15 52 -8 17 -22 45 -30 62 -8 17 -15 38 -15 47
0 9 -7 26 -15 36 -8 11 -15 29 -15 40 0 11 -6 27 -14 35 -9 10 -18 66 -25 156
-17 213 14 405 65 405 17 0 24 8 29 30 5 23 12 30 29 30 18 0 30 -13 53 -60z
m466 19 c36 -37 38 -43 28 -71 -6 -17 -11 -48 -11 -68 0 -20 -3 -39 -6 -42 -7
-8 -112 54 -118 69 -3 7 7 26 23 43 20 22 27 38 23 55 -5 27 3 55 15 55 4 0
25 -18 46 -41z m183 0 c7 -13 -9 -26 -44 -35 -25 -7 -94 24 -86 38 8 12 122
10 130 -3z m49 -30 c4 -6 5 -12 2 -15 -7 -7 -37 7 -37 17 0 13 27 11 35 -2z
m-502 -64 c1 -5 -6 -11 -15 -13 -11 -2 -18 3 -18 13 0 17 30 18 33 0z m-95
-51 c18 -23 32 -45 32 -49 0 -4 13 -24 28 -44 16 -20 32 -43 35 -51 4 -8 18
-35 32 -59 14 -24 25 -50 25 -56 0 -7 7 -18 15 -25 8 -7 15 -19 15 -28 0 -8
20 -56 44 -106 61 -127 76 -162 76 -176 0 -7 7 -18 17 -25 27 -20 5 -34 -53
-34 -54 1 -86 -12 -70 -28 4 -5 38 -8 74 -9 89 -1 92 -1 92 -21 0 -9 7 -24 15
-33 8 -9 12 -25 8 -39 -5 -21 -10 -22 -47 -17 -29 5 -47 2 -61 -8 -11 -9 -28
-16 -39 -16 -17 0 -18 5 -12 50 6 42 4 50 -10 50 -9 0 -18 9 -21 20 -3 11 -9
20 -13 20 -5 0 -18 21 -30 48 -12 26 -26 54 -31 62 -5 8 -14 27 -20 43 -6 15
-15 27 -20 27 -5 0 -9 11 -9 24 0 14 -6 31 -13 38 -8 7 -17 30 -21 51 -4 20
-11 37 -16 37 -6 0 -10 10 -10 23 0 12 -6 31 -14 42 -7 11 -16 41 -20 67 -4
26 -11 50 -16 53 -14 8 -24 135 -12 147 7 7 7 16 0 28 -12 19 -2 59 11 44 4
-5 22 -28 39 -50z m112 -29 c0 -38 26 -42 57 -9 25 27 26 27 39 9 11 -15 17
-16 26 -7 17 17 45 15 67 -5 91 -85 91 -85 91 -127 0 -23 3 -50 6 -61 3 -11
-2 -29 -10 -40 -13 -19 -15 -19 -33 -3 -12 11 -19 33 -21 64 -1 26 -9 55 -17
64 -8 9 -15 23 -15 31 0 20 -47 62 -60 54 -8 -5 -7 -12 3 -23 8 -10 17 -29 21
-44 3 -16 11 -28 16 -28 19 0 11 -69 -10 -90 -22 -22 -30 -25 -30 -10 0 9 -62
88 -147 189 -28 33 -30 61 -3 61 15 0 20 -7 20 -25z m-564 -1000 c6 -8 14 -15
17 -15 17 0 137 -139 137 -158 0 -5 6 -15 14 -21 8 -7 17 -27 20 -47 8 -41 58
-92 107 -108 40 -13 47 -35 26 -80 -27 -57 -39 -100 -48 -170 -10 -69 -23
-106 -38 -106 -12 0 -87 107 -110 157 -5 11 -15 24 -20 28 -6 3 -11 15 -11 26
0 10 -4 19 -10 19 -5 0 -13 12 -16 26 -4 14 -17 45 -30 67 -13 23 -28 52 -33
64 -5 11 -15 24 -20 28 -6 3 -11 17 -11 29 0 13 -7 29 -15 36 -8 7 -15 18 -15
25 0 7 -7 18 -15 25 -8 7 -15 23 -15 35 0 13 -7 25 -15 29 -8 3 -15 14 -15 26
0 11 -9 25 -20 32 -25 16 -26 53 -2 68 23 14 124 4 138 -15z"/>
<path d="M9052 3183 c5 -25 28 -28 28 -4 0 12 -6 21 -16 21 -9 0 -14 -7 -12
-17z"/>
<path d="M9084 3138 c-4 -6 0 -16 9 -23 10 -7 17 -19 17 -28 0 -9 5 -19 10
-22 15 -9 12 18 -6 53 -17 35 -20 37 -30 20z"/>
<path d="M8936 1904 c-3 -9 -6 -39 -6 -67 1 -44 5 -56 30 -81 36 -35 58 -26
24 11 -20 21 -24 36 -24 84 0 57 -12 84 -24 53z"/>
<path d="M9400 1060 c-12 -8 -11 -10 8 -10 12 0 22 5 22 10 0 13 -11 13 -30 0z"/>
<path d="M7320 7085 c-7 -8 -27 -15 -46 -15 -18 0 -36 -4 -39 -10 -4 -6 10
-10 34 -10 23 0 41 4 41 10 0 5 18 13 40 16 22 4 43 11 46 15 9 16 -63 10 -76
-6z"/>
<path d="M6720 7060 c0 -5 12 -10 28 -10 21 0 24 2 12 10 -20 13 -40 13 -40 0z"/>
<path d="M7115 7036 c-27 -8 -62 -16 -77 -20 -16 -3 -28 -11 -28 -16 0 -15 61
-11 90 5 14 8 42 14 62 15 39 0 58 14 32 24 -19 7 -18 8 -79 -8z"/>
<path d="M6825 7030 c3 -5 21 -10 38 -10 24 0 28 3 17 10 -20 13 -63 13 -55 0z"/>
<path d="M6560 6910 c0 -30 68 -126 161 -229 138 -150 186 -194 204 -187 10 3
-18 38 -93 113 -126 127 -174 183 -209 241 -14 23 -29 42 -34 42 -5 0 -9 7 -9
15 0 8 -4 15 -10 15 -5 0 -10 -5 -10 -10z"/>
<path d="M10545 6880 c-3 -5 -1 -27 4 -47 6 -21 11 -104 11 -185 0 -92 4 -148
10 -148 6 0 10 15 10 33 2 133 13 243 26 257 13 13 18 11 47 -21 37 -40 70
-127 88 -233 12 -72 8 -84 -35 -99 -17 -6 -4 -14 35 -20 52 -8 64 3 50 43 -6
18 -11 50 -11 70 0 21 -7 43 -15 50 -9 7 -15 29 -15 51 0 22 -4 47 -9 57 -5 9
-19 37 -31 62 -27 56 -63 94 -112 120 -45 23 -45 23 -53 10z"/>
<path d="M2924 6817 c-8 -23 4 -107 17 -107 12 0 12 90 -1 110 -8 12 -10 12
-16 -3z"/>
<path d="M2954 6658 c3 -13 6 -26 6 -30 0 -5 5 -8 10 -8 6 0 10 14 10 30 0 21
-5 30 -16 30 -12 0 -15 -6 -10 -22z"/>
<path d="M11990 6626 c0 -8 5 -18 10 -21 6 -3 10 1 10 9 0 8 -4 18 -10 21 -5
3 -10 -1 -10 -9z"/>
<path d="M2976 6594 c-4 -11 1 -25 14 -38 l21 -21 -3 34 c-3 38 -22 52 -32 25z"/>
<path d="M12020 6577 c0 -10 17 -53 37 -95 45 -94 63 -158 56 -196 l-6 -29 31
23 c37 28 39 34 12 57 -11 10 -20 29 -20 44 0 15 -7 32 -15 39 -8 7 -15 20
-15 29 0 9 -7 25 -15 35 -8 11 -15 26 -15 33 0 8 -5 19 -10 26 -6 7 -17 21
-25 32 -13 18 -14 18 -15 2z"/>
<path d="M6950 6470 c0 -10 6 -23 14 -27 7 -4 30 -21 50 -38 103 -84 119 -95
127 -95 6 0 24 -13 42 -30 18 -16 36 -30 40 -30 9 0 31 -17 55 -42 9 -10 20
-18 24 -18 4 0 30 -13 56 -30 27 -16 54 -30 61 -30 6 0 28 -11 49 -24 20 -12
48 -27 62 -31 14 -4 32 -13 40 -20 8 -7 39 -20 68 -29 29 -8 58 -19 65 -23 29
-19 191 -54 327 -72 41 -5 82 -12 90 -16 16 -6 60 -90 60 -113 0 -7 4 -20 10
-30 5 -9 15 -30 22 -47 l12 -30 4 28 c2 17 -3 36 -12 46 -9 10 -16 31 -16 47
0 17 -6 36 -12 43 -7 7 -13 30 -13 53 l0 40 -113 2 c-71 1 -117 7 -124 14 -7
7 -38 12 -69 12 -41 0 -58 4 -63 15 -3 9 -18 15 -39 15 -18 0 -42 7 -53 15
-10 8 -32 15 -47 15 -15 0 -30 7 -33 15 -4 9 -19 15 -39 15 -20 0 -35 6 -39
15 -3 8 -14 15 -25 15 -11 0 -26 7 -35 15 -8 8 -23 15 -34 15 -11 0 -22 7 -26
15 -3 8 -12 15 -19 15 -8 0 -33 14 -55 30 -23 17 -46 30 -50 30 -5 0 -20 9
-33 20 -36 30 -42 34 -74 54 -16 10 -38 26 -47 35 -30 29 -47 41 -55 41 -4 0
-25 15 -45 33 -77 67 -100 87 -104 87 -2 0 -4 -9 -4 -20z"/>
<path d="M2475 6415 c-103 -13 -185 -30 -220 -45 -11 -4 -42 -16 -70 -25 -92
-32 -218 -97 -300 -155 -27 -20 -62 -43 -77 -53 -49 -31 -234 -220 -289 -297
-94 -129 -145 -223 -192 -360 -29 -83 -40 -154 -44 -299 -4 -125 -2 -148 14
-178 13 -25 24 -33 44 -33 28 0 28 0 72 -125 13 -39 50 -119 58 -125 4 -3 9
-14 13 -26 8 -25 74 -94 90 -94 20 0 39 18 32 29 -4 6 -16 11 -26 11 -10 0
-22 9 -25 20 -3 11 -11 20 -16 20 -5 0 -9 5 -9 10 0 15 21 12 40 -5 10 -9 47
-18 91 -21 79 -7 72 -9 202 49 26 12 47 25 47 29 0 5 5 8 12 8 13 0 30 14 97
81 49 49 101 140 101 177 0 32 -35 29 -57 -5 -39 -61 -49 -64 -161 -60 -57 3
-109 10 -115 16 -6 6 -18 11 -26 11 -9 1 -34 9 -56 20 -22 11 -46 19 -52 20
-7 0 -13 4 -13 9 0 5 -10 13 -22 17 -26 8 -35 14 -111 87 -33 31 -64 57 -68
57 -4 0 -14 16 -23 35 -20 41 -15 68 26 143 34 63 76 108 138 148 68 43 80 49
156 73 38 13 83 28 99 33 44 16 334 22 389 9 25 -6 67 -16 94 -22 26 -6 52
-15 57 -19 6 -4 22 -10 38 -14 36 -8 34 -22 -4 -30 -17 -3 -28 -10 -24 -16 8
-13 85 -13 85 0 0 6 8 10 18 10 16 -1 16 -1 0 -14 -20 -15 -24 -36 -8 -36 17
0 70 -41 135 -105 74 -73 108 -117 191 -242 35 -54 67 -102 71 -108 5 -5 17
-23 27 -40 36 -56 191 -207 281 -274 90 -68 197 -134 290 -181 28 -14 52 -28
53 -32 2 -5 9 -8 15 -8 7 0 37 -13 67 -28 30 -15 84 -39 120 -52 36 -13 76
-30 90 -37 14 -7 32 -13 40 -13 9 0 20 -4 25 -8 6 -5 44 -18 85 -31 41 -13 84
-26 95 -31 33 -14 208 -57 285 -71 30 -6 71 -15 90 -20 35 -10 125 -22 280
-39 109 -12 398 -11 464 1 28 6 80 14 115 19 36 5 69 14 75 20 5 5 24 10 41
10 16 0 43 7 59 15 15 8 34 15 42 15 28 0 95 43 92 59 -4 22 -42 26 -61 7 -9
-9 -24 -16 -34 -16 -10 0 -29 -6 -43 -13 -15 -8 -48 -17 -74 -20 -26 -4 -53
-10 -59 -14 -57 -37 -500 -50 -702 -20 -228 33 -260 38 -280 47 -11 5 -42 14
-70 19 -89 18 -150 32 -170 41 -11 5 -54 18 -95 30 -41 12 -89 28 -107 36 -17
8 -36 14 -42 14 -6 0 -19 4 -29 10 -9 5 -35 16 -57 25 -74 30 -172 73 -235
103 -71 35 -294 171 -336 207 -7 6 -27 21 -45 35 -53 39 -189 180 -218 225
-14 22 -28 42 -31 45 -4 3 -17 23 -30 45 -13 22 -27 42 -30 45 -3 3 -17 23
-30 45 -14 22 -32 49 -41 60 -9 11 -40 48 -69 83 -29 35 -80 84 -113 109 -78
57 -75 53 -54 64 21 12 22 29 3 29 -8 0 -21 6 -28 13 -33 34 -195 100 -288
119 -117 24 -412 10 -470 -21 -9 -5 -30 -12 -49 -16 -18 -4 -44 -13 -59 -21
-15 -8 -33 -14 -39 -14 -7 0 -13 -4 -13 -9 0 -5 -11 -12 -26 -15 -36 -9 -167
-143 -193 -198 -30 -62 -45 -167 -37 -253 4 -38 7 -81 9 -95 4 -47 -26 -28
-40 25 -14 52 -9 200 7 220 5 6 11 35 14 65 5 50 23 115 46 165 5 11 18 42 30
68 53 121 159 268 279 387 126 125 232 201 381 273 154 74 229 97 415 127 123
21 458 -1 489 -31 6 -5 17 -9 26 -9 8 0 32 -9 53 -20 20 -11 44 -20 52 -20 8
0 15 -4 15 -9 0 -5 10 -13 22 -17 12 -3 26 -10 32 -15 6 -5 43 -33 81 -61 39
-29 75 -59 81 -67 11 -15 44 -9 44 7 0 20 -195 182 -218 182 -5 0 -15 7 -22
15 -7 8 -20 15 -30 15 -10 0 -23 7 -30 15 -7 8 -20 15 -30 15 -10 0 -31 7 -46
15 -16 8 -40 15 -54 15 -15 0 -30 4 -36 10 -11 11 -204 30 -289 29 -33 -1
-105 -7 -160 -14z m-1045 -1254 c0 -19 91 -118 139 -153 21 -15 123 -67 176
-90 23 -9 102 -27 156 -35 21 -3 51 2 73 11 59 24 63 8 11 -40 -56 -51 -151
-109 -194 -119 -17 -3 -33 -11 -36 -16 -8 -12 -172 -12 -180 1 -3 6 -13 10
-21 10 -29 0 -71 62 -89 130 -3 14 -10 34 -15 45 -34 82 -60 224 -47 259 9 22
27 20 27 -3z"/>
<path d="M5859 6407 c-57 -55 -100 -109 -96 -120 4 -13 137 116 137 133 0 16
-16 11 -41 -13z"/>
<path d="M10636 6354 c-9 -22 -8 -24 9 -24 8 0 15 9 15 20 0 24 -15 27 -24 4z"/>
<path d="M5730 6271 c0 -19 -291 -298 -393 -376 -25 -19 -60 -48 -79 -65 -18
-16 -36 -30 -41 -30 -5 0 -26 -13 -47 -30 -21 -16 -43 -30 -49 -30 -13 0 -32
-14 -59 -42 -9 -10 -27 -18 -39 -18 -13 0 -23 -4 -23 -10 0 -5 -11 -12 -25
-16 -13 -3 -29 -12 -36 -20 -6 -8 -22 -14 -34 -14 -13 0 -25 -7 -29 -15 -3 -9
-18 -15 -35 -15 -16 0 -31 -6 -35 -15 -3 -9 -18 -15 -35 -15 -16 0 -31 -6 -34
-14 -3 -8 -20 -16 -38 -18 -18 -2 -34 -9 -37 -15 -5 -18 30 -16 54 2 10 8 31
15 45 15 15 0 32 7 39 15 7 8 19 15 27 15 15 0 164 70 173 81 3 4 25 16 50 28
83 40 213 128 343 233 38 30 150 137 265 251 82 82 111 127 82 127 -5 0 -10
-4 -10 -9z"/>
<path d="M10695 6240 c-4 -6 6 -10 22 -10 22 0 25 2 13 10 -19 12 -27 12 -35
0z"/>
<path d="M10768 6243 c-10 -2 -18 -8 -18 -12 0 -3 8 -18 18 -31 15 -22 17 -52
17 -257 -1 -213 4 -264 19 -215 3 9 7 129 8 267 3 266 4 261 -44 248z"/>
<path d="M12168 6166 c-22 -16 -23 -24 -2 -28 30 -6 64 -145 88 -355 7 -62 15
-116 19 -119 14 -14 7 201 -8 241 -8 22 -14 60 -15 85 0 25 -6 55 -14 66 -8
11 -16 43 -18 70 -3 53 -18 65 -50 40z"/>
<path d="M2081 5821 c-8 -5 75 -11 200 -14 118 -3 232 -11 254 -17 22 -6 58
-15 80 -20 114 -24 141 -32 157 -40 9 -5 36 -12 60 -16 24 -3 53 -13 65 -20
12 -8 36 -14 52 -14 16 0 33 -4 36 -10 3 -5 15 -10 25 -10 23 0 94 -36 111
-56 6 -8 17 -14 23 -14 7 0 33 -21 58 -47 26 -27 76 -78 112 -115 62 -65 86
-80 86 -58 0 6 -3 10 -7 10 -5 0 -28 26 -53 57 -52 65 -112 127 -159 163 -18
14 -39 31 -46 38 -8 6 -20 12 -28 12 -8 0 -20 7 -27 15 -7 8 -22 15 -34 15
-12 0 -30 6 -41 14 -11 7 -46 16 -77 20 -32 4 -60 12 -63 17 -4 5 -26 9 -50 9
-29 0 -45 5 -49 15 -3 9 -18 15 -39 15 -18 0 -42 7 -53 15 -10 8 -41 15 -69
15 -28 0 -59 7 -69 15 -16 12 -61 15 -230 15 -116 0 -217 -4 -225 -9z"/>
<path d="M11340 5769 c-19 -10 -45 -19 -58 -19 -22 0 -63 -22 -90 -47 -7 -7
-16 -13 -20 -13 -17 -1 -52 -40 -58 -64 -5 -21 -3 -26 14 -26 11 0 25 7 32 15
7 8 17 15 22 15 6 0 27 13 47 29 20 15 60 36 88 45 29 10 55 22 58 27 4 5 34
9 69 9 66 0 94 14 75 37 -18 21 -137 16 -179 -8z"/>
<path d="M12010 5758 c-13 -20 -32 -92 -44 -168 -2 -14 -7 -116 -11 -228 -4
-111 -11 -205 -16 -208 -5 -3 -9 -33 -9 -67 -1 -117 -55 -523 -77 -577 -6 -15
-20 -67 -43 -165 -7 -27 -16 -54 -21 -60 -5 -5 -9 -16 -9 -25 0 -8 -7 -28 -15
-44 -8 -15 -15 -33 -15 -38 0 -6 -6 -24 -14 -41 -8 -18 -24 -54 -36 -82 -43
-100 -138 -278 -151 -283 -5 -2 -9 -8 -9 -13 0 -17 -135 -203 -220 -303 -32
-38 -177 -183 -216 -216 -85 -72 -225 -175 -264 -193 -8 -4 -37 -21 -65 -37
-46 -28 -154 -82 -247 -124 -20 -9 -42 -16 -50 -16 -8 0 -18 -4 -24 -10 -16
-16 -163 -31 -184 -20 -30 16 -60 12 -60 -8 0 -37 122 -68 168 -43 9 6 38 13
64 16 26 3 50 10 53 16 4 5 13 9 22 9 17 0 43 11 193 83 288 137 568 376 777
665 35 48 67 92 71 97 20 25 82 134 82 143 0 6 3 12 8 14 4 2 31 53 60 113 30
61 58 118 63 127 5 10 9 23 9 30 1 7 9 31 20 53 11 22 19 46 20 53 0 7 4 20 9
30 6 9 19 51 31 92 11 41 25 91 31 110 14 49 29 124 40 200 6 36 15 81 20 100
6 19 14 85 20 145 5 61 13 151 18 200 5 50 10 137 10 195 1 150 29 423 44 432
7 4 18 8 25 8 15 0 16 32 0 48 -18 18 -42 14 -58 -10z"/>
<path d="M10767 5683 c-11 -10 -8 -73 3 -73 6 0 10 18 10 40 0 41 -2 45 -13
33z"/>
<path d="M10892 5615 c-36 -39 -38 -45 -17 -45 8 0 15 4 15 9 0 5 8 12 18 15
9 3 22 17 29 31 17 38 -7 32 -45 -10z"/>
<path d="M11440 5598 c-24 -4 -53 -16 -63 -26 -18 -19 -18 -19 35 -14 52 4 84
21 77 39 -2 5 -23 6 -49 1z"/>
<path d="M12114 5566 c-3 -8 4 -25 16 -38 12 -13 27 -35 32 -50 6 -16 14 -28
19 -28 5 0 9 -8 9 -18 0 -10 7 -27 15 -38 8 -10 15 -26 15 -34 0 -8 7 -28 15
-44 8 -15 15 -39 15 -52 0 -13 6 -41 14 -61 22 -58 27 -153 11 -183 -21 -38
-18 -50 13 -50 23 0 31 7 46 41 17 38 17 42 2 51 -12 7 -16 25 -16 83 0 41 -4
77 -10 80 -5 3 -10 21 -10 38 0 18 -7 45 -15 61 -8 15 -15 36 -15 46 0 10 -7
23 -15 30 -8 7 -15 20 -15 30 0 10 -7 23 -15 30 -8 7 -15 18 -15 25 0 19 -66
95 -82 95 -5 0 -11 -7 -14 -14z"/>
<path d="M9687 5564 c-13 -13 5 -24 39 -24 24 0 34 4 32 13 -5 13 -60 22 -71
11z"/>
<path d="M11233 5521 c-12 -10 -32 -37 -44 -60 -11 -22 -25 -44 -30 -47 -5 -3
-9 -20 -9 -39 0 -21 -6 -37 -16 -43 -9 -5 -14 -18 -12 -31 4 -29 22 -28 26 1
2 13 10 27 18 31 8 4 14 18 14 31 0 13 7 29 15 36 8 7 15 18 15 24 0 19 50 66
70 66 14 0 20 -7 20 -24 0 -13 7 -26 15 -30 8 -3 15 -12 15 -21 0 -8 5 -15 10
-15 6 0 10 7 10 15 0 22 -28 75 -40 75 -5 0 -10 10 -12 23 -4 28 -36 33 -65 8z"/>
<path d="M4538 5489 c-23 -13 -23 -30 2 -62 11 -14 20 -35 20 -47 0 -11 4 -19
8 -16 5 3 7 18 4 34 -5 38 12 70 40 74 12 2 23 9 26 16 5 15 -74 16 -100 1z"/>
<path d="M3685 5403 c-27 -8 -77 -18 -109 -22 -36 -3 -61 -11 -64 -19 -3 -11
15 -12 92 -6 112 8 122 3 132 -62 9 -63 24 -54 26 16 1 33 2 70 2 82 1 28 -15
31 -79 11z"/>
<path d="M3445 5340 c-8 -13 25 -13 45 0 12 8 9 10 -12 10 -15 0 -30 -4 -33
-10z"/>
<path d="M4538 5337 c-5 -10 -8 -29 -8 -42 0 -13 -7 -28 -16 -33 -9 -5 -14
-17 -12 -28 3 -16 7 -14 26 14 17 23 22 43 20 69 -2 28 -5 33 -10 20z"/>
<path d="M9691 5303 c-30 -2 -64 -11 -75 -19 -11 -8 -34 -14 -51 -14 -16 0
-39 -7 -49 -15 -11 -8 -26 -15 -34 -15 -7 0 -20 -7 -28 -15 -9 -8 -24 -15 -33
-15 -10 0 -24 -7 -31 -15 -7 -8 -18 -15 -26 -15 -7 0 -17 -6 -21 -14 -4 -8
-17 -15 -27 -17 -23 -5 -34 -29 -13 -29 8 0 20 7 27 15 7 8 22 15 34 15 11 0
30 7 40 15 11 8 27 15 37 15 9 0 22 7 29 15 7 8 23 15 36 15 13 0 24 4 24 10
0 5 17 12 38 15 20 4 46 10 57 15 11 4 47 12 80 17 45 6 61 12 63 26 2 10 -2
16 -10 15 -7 -1 -37 -3 -67 -5z"/>
<path d="M9832 5288 c3 -7 17 -14 31 -16 15 -2 27 -10 27 -18 0 -8 10 -14 25
-14 14 0 28 -7 31 -15 4 -8 16 -15 29 -15 13 0 25 -7 29 -15 3 -8 16 -15 30
-15 13 0 26 -5 28 -11 2 -6 13 -9 23 -7 20 5 20 5 0 13 -11 5 -24 14 -28 22
-4 7 -14 13 -21 13 -8 0 -19 7 -26 15 -7 8 -21 15 -32 15 -10 0 -21 7 -24 15
-4 8 -17 15 -30 15 -14 0 -27 7 -30 15 -8 19 -68 21 -62 3z"/>
<path d="M3765 5219 c23 -73 156 -189 217 -189 13 0 29 -5 36 -12 7 -7 12 -8
12 -2 0 17 -23 34 -46 34 -13 0 -29 7 -38 15 -8 8 -21 15 -29 15 -21 0 -125
107 -129 132 -2 12 -9 23 -17 26 -10 3 -11 -2 -6 -19z"/>
<path d="M4425 5146 c-33 -36 -67 -66 -77 -66 -9 0 -21 -6 -25 -14 -4 -8 -21
-16 -37 -18 -33 -3 -49 -28 -18 -28 27 0 117 47 145 76 12 13 35 36 51 52 15
16 26 37 25 46 -3 13 -20 0 -64 -48z"/>
<path d="M11778 5172 c-5 -44 1 -74 13 -66 12 7 12 91 0 98 -5 3 -11 -11 -13
-32z"/>
<path d="M8560 5020 c0 -21 51 -58 133 -98 45 -22 90 -43 100 -46 30 -10 9
-26 -33 -26 -21 0 -41 -4 -45 -10 -7 -11 66 -50 94 -50 11 0 23 -4 26 -10 3
-5 17 -10 30 -10 22 0 24 4 27 58 l3 57 43 14 c78 24 46 41 -124 65 -50 8 -99
18 -110 24 -10 5 -38 13 -61 17 -24 4 -43 11 -43 16 0 5 -9 9 -20 9 -11 0 -20
-5 -20 -10z"/>
<path d="M4085 5010 c3 -5 31 -10 61 -10 30 0 54 5 54 10 0 6 -27 10 -61 10
-37 0 -58 -4 -54 -10z"/>
<path d="M11747 4933 c-7 -39 -1 -57 14 -48 11 8 12 85 0 85 -4 0 -11 -16 -14
-37z"/>
<path d="M11716 4822 c-3 -4 -5 -21 -4 -38 0 -16 -7 -56 -16 -89 -19 -72 -21
-108 -3 -103 7 3 13 27 15 60 2 34 9 61 17 68 10 8 15 31 15 61 0 44 -11 62
-24 41z"/>
<path d="M9341 4741 c-21 -29 -27 -51 -15 -51 7 0 29 25 44 52 18 30 -8 30
-29 -1z"/>
<path d="M10800 4676 c0 -14 5 -26 10 -26 6 0 10 9 10 19 0 11 -4 23 -10 26
-6 4 -10 -5 -10 -19z"/>
<path d="M7768 4670 c-14 -10 -44 -22 -67 -26 -56 -9 -62 -24 -9 -24 35 0 50
7 82 35 42 37 36 49 -6 15z"/>
<path d="M8640 4682 c0 -5 -20 -19 -45 -31 -38 -19 -45 -27 -45 -52 0 -39 13
-37 33 6 9 19 23 35 31 35 7 0 21 11 30 25 9 14 12 25 6 25 -5 0 -10 -4 -10
-8z"/>
<path d="M9745 4660 c-3 -5 -19 -10 -34 -10 -16 0 -48 -7 -72 -15 -24 -9 -69
-20 -99 -25 -87 -14 -123 -25 -128 -38 -5 -15 61 -17 88 -2 11 6 54 13 97 16
43 4 83 10 88 14 6 4 23 10 40 14 36 9 55 24 55 42 0 16 -26 19 -35 4z"/>
<path d="M9028 4577 c-21 -19 -38 -39 -38 -45 0 -17 34 -15 69 5 40 23 50 10
18 -23 -30 -30 -35 -54 -12 -54 8 0 15 5 15 10 0 6 9 10 19 10 37 0 51 12 51
41 0 22 -6 30 -25 35 -17 4 -24 12 -22 27 3 35 -33 32 -75 -6z"/>
<path d="M11668 4574 c-4 -6 -10 -31 -14 -55 -4 -24 -10 -49 -15 -55 -5 -5
-15 -37 -23 -70 -8 -32 -24 -85 -35 -116 -24 -65 -27 -102 -8 -96 6 3 13 21
15 41 2 19 10 41 18 47 8 7 14 29 14 50 0 24 5 40 15 44 9 3 15 18 15 37 0 17
7 46 16 64 15 32 17 132 2 109z"/>
<path d="M6995 4500 c28 -12 78 -12 70 0 -3 6 -25 10 -48 9 -33 0 -38 -2 -22
-9z"/>
<path d="M8282 4495 c-7 -8 -23 -15 -36 -15 -13 0 -26 -7 -30 -15 -3 -10 -19
-15 -44 -15 -22 0 -45 -6 -52 -14 -6 -8 -32 -16 -58 -18 -25 -2 -47 -9 -50
-16 -6 -20 105 -4 168 25 31 15 81 28 117 31 l63 5 -23 23 c-25 27 -37 29 -55
9z"/>
<path d="M7285 4483 c-149 -4 -202 -15 -130 -29 20 -3 65 -4 98 -1 34 3 93 1
130 -4 57 -9 74 -8 103 6 46 22 43 35 -8 33 -24 -1 -110 -4 -193 -5z"/>
<path d="M8395 4470 c-4 -6 5 -10 19 -10 14 0 26 5 26 10 0 6 -9 10 -19 10
-11 0 -23 -4 -26 -10z"/>
<path d="M7845 4381 c-3 -5 -1 -12 5 -16 14 -9 120 5 120 16 0 12 -117 12
-125 0z"/>
<path d="M7658 4353 c12 -2 32 -2 45 0 12 2 2 4 -23 4 -25 0 -35 -2 -22 -4z"/>
<path d="M5988 4189 c-19 -11 -24 -29 -8 -29 5 0 14 9 20 20 12 23 12 23 -12
9z"/>
<path d="M11538 4138 c-18 -41 -90 -116 -129 -135 -13 -6 -36 -14 -51 -17 -40
-9 -35 -26 7 -26 37 0 69 17 119 63 17 15 34 27 38 27 5 0 8 8 8 17 0 9 7 24
16 34 9 10 14 29 12 46 l-4 28 -16 -37z"/>
<path d="M10594 3976 c-14 -10 -51 -16 -110 -18 -81 -3 -89 -5 -89 -23 0 -19
7 -20 99 -20 69 0 101 4 103 12 3 7 20 15 39 19 25 5 34 11 32 23 -4 21 -48
25 -74 7z"/>
<path d="M7100 3818 c1 -18 25 -48 39 -48 14 0 14 15 1 41 -12 21 -40 26 -40
7z"/>
<path d="M11270 3736 c0 -8 5 -18 10 -21 6 -3 10 -17 10 -30 0 -13 -4 -27 -10
-30 -5 -3 -10 -15 -10 -26 0 -10 5 -19 10 -19 6 0 10 6 10 13 0 7 8 20 18 29
47 45 56 78 21 78 -11 0 -29 5 -40 10 -15 8 -19 7 -19 -4z"/>
<path d="M5690 3705 c0 -28 15 -34 24 -9 10 25 7 34 -9 34 -9 0 -15 -9 -15
-25z"/>
<path d="M11221 3566 c-8 -13 -11 -30 -8 -38 4 -9 8 -6 12 9 4 12 13 24 21 27
18 7 18 26 1 26 -8 0 -19 -11 -26 -24z"/>
<path d="M5627 3416 c-14 -11 -17 -30 -17 -119 0 -84 3 -106 15 -111 8 -3 15
-15 15 -26 0 -11 5 -20 11 -20 7 0 9 8 4 23 -4 12 -13 63 -20 112 -11 77 -10
94 2 118 17 34 14 40 -10 23z"/>
<path d="M8475 3100 c-4 -7 -1 -16 6 -21 17 -10 26 8 11 23 -6 6 -12 6 -17 -2z"/>
<path d="M5670 3071 c0 -10 6 -24 14 -31 8 -6 16 -21 18 -33 2 -12 6 -17 10
-12 6 10 -27 95 -37 95 -3 0 -5 -8 -5 -19z"/>
<path d="M6839 2980 c-23 -22 -39 -43 -35 -47 4 -5 13 0 20 10 7 9 18 17 25
17 6 0 11 7 11 15 0 8 6 15 14 15 18 0 30 17 17 24 -5 4 -28 -12 -52 -34z"/>
<path d="M5790 2820 c0 -19 3 -21 12 -12 9 9 9 15 0 24 -9 9 -12 7 -12 -12z"/>
<path d="M8730 2475 c0 -8 41 -47 45 -43 11 11 -10 48 -26 48 -11 0 -19 -2
-19 -5z"/>
<path d="M6866 2233 c-3 -3 -6 -19 -6 -33 0 -27 60 -91 165 -175 20 -16 42
-35 49 -41 6 -6 16 -13 22 -15 6 -2 26 -16 45 -32 19 -15 66 -49 104 -77 39
-27 75 -53 80 -58 6 -4 18 -11 28 -15 9 -3 17 -11 17 -16 0 -5 11 -12 25 -15
14 -4 25 -11 25 -16 0 -6 7 -10 15 -10 9 0 18 -7 21 -15 4 -8 14 -15 24 -15
10 0 23 -7 30 -15 7 -8 19 -15 27 -15 7 0 16 -7 19 -15 4 -8 14 -15 25 -15 10
0 22 -6 26 -12 9 -14 37 -33 70 -47 11 -6 24 -15 28 -20 3 -6 15 -11 26 -11
11 0 22 -7 25 -15 4 -8 14 -15 24 -15 10 0 23 -7 30 -15 7 -8 19 -15 27 -15 7
0 16 -7 19 -15 4 -8 15 -15 25 -15 11 0 22 -7 25 -15 4 -8 17 -15 30 -15 14 0
27 -7 30 -15 4 -8 14 -15 24 -15 10 0 25 -7 34 -15 8 -8 24 -15 36 -15 11 0
23 -7 26 -15 4 -8 16 -15 29 -15 12 0 28 -7 35 -15 7 -8 23 -15 35 -15 12 0
28 -7 35 -15 7 -8 26 -15 42 -15 16 0 31 -6 34 -15 4 -8 18 -15 34 -15 15 0
33 -7 40 -15 17 -20 80 -20 80 0 0 10 -10 15 -29 15 -16 0 -34 7 -41 15 -7 8
-25 15 -40 15 -15 0 -33 7 -40 15 -7 8 -25 15 -41 15 -16 0 -29 5 -29 10 0 6
-12 16 -27 23 -16 6 -32 17 -36 24 -4 7 -21 13 -38 13 -17 0 -32 6 -35 15 -4
8 -16 15 -29 15 -12 0 -28 7 -35 15 -7 8 -20 15 -30 15 -10 0 -23 7 -30 15 -7
8 -21 15 -31 15 -11 0 -19 4 -19 8 0 4 -15 15 -32 23 -51 23 -121 63 -136 77
-7 6 -20 12 -28 12 -8 0 -14 3 -14 8 0 4 -17 16 -37 27 -41 22 -131 78 -149
93 -6 5 -20 13 -32 16 -12 4 -22 12 -22 17 0 5 -5 9 -10 9 -12 0 -114 70 -118
82 -2 4 -9 8 -16 8 -7 0 -22 8 -34 18 -52 43 -70 56 -114 84 -27 16 -48 33
-48 36 0 4 -17 18 -37 32 -84 56 -203 169 -203 192 0 19 -14 31 -24 21z"/>
<path d="M6387 2212 c-10 -10 -17 -23 -17 -29 0 -5 -10 -18 -21 -29 -12 -10
-32 -35 -44 -54 -13 -19 -42 -55 -64 -80 -23 -25 -54 -59 -69 -77 -15 -18 -34
-40 -43 -50 -47 -51 -79 -170 -50 -187 5 -3 18 -23 29 -43 10 -21 45 -73 76
-117 54 -76 56 -80 56 -142 0 -45 -6 -76 -20 -102 -22 -43 -84 -96 -137 -118
-21 -9 -45 -22 -53 -28 -8 -7 -31 -19 -50 -26 -35 -13 -90 -57 -90 -72 0 -10
26 -10 48 1 9 4 33 15 52 23 75 32 171 81 192 99 76 63 102 99 113 154 18 97
0 163 -68 240 -10 11 -34 44 -53 73 -20 29 -44 60 -53 70 -33 31 -34 58 -4 89
78 81 189 208 213 243 8 12 20 28 25 34 22 23 75 117 75 131 0 21 -23 19 -43
-3z"/>
<path d="M6556 1811 c-3 -5 9 -28 28 -52 37 -49 74 -112 106 -179 76 -159 95
-195 102 -198 4 -2 8 -8 8 -13 0 -9 66 -108 79 -119 3 -3 24 -27 46 -55 22
-27 43 -51 47 -53 4 -2 10 -19 14 -38 3 -19 10 -37 15 -40 5 -3 9 -20 9 -38 0
-18 7 -41 15 -52 8 -10 15 -28 15 -39 0 -11 7 -33 15 -49 8 -15 15 -36 15 -45
0 -9 6 -28 14 -43 8 -15 17 -40 21 -57 4 -17 11 -31 16 -31 5 0 9 -7 9 -16 0
-9 6 -28 14 -42 7 -15 27 -56 43 -92 102 -218 156 -318 180 -333 7 -4 13 -15
13 -23 0 -8 7 -17 15 -20 8 -4 15 -12 15 -20 0 -8 7 -14 15 -14 8 0 15 2 15 4
0 5 -39 88 -50 106 -5 8 -23 44 -40 80 -17 36 -38 76 -46 90 -20 35 -80 170
-89 200 -4 14 -14 32 -22 41 -13 15 -32 62 -73 179 -7 19 -25 71 -41 116 -16
45 -29 87 -29 95 0 30 -50 117 -106 189 -62 77 -163 242 -181 295 -35 102 -36
107 -19 123 16 17 52 10 139 -26 28 -11 43 -12 60 -5 l22 11 -25 11 c-14 6
-32 15 -40 20 -30 18 -108 51 -119 51 -6 0 -19 4 -29 9 -9 6 -39 19 -67 31
-27 12 -63 28 -78 36 -33 16 -44 17 -51 5z"/>
<path d="M5378 1555 c-3 -3 -26 -6 -51 -7 -36 0 -49 -5 -60 -22 -18 -29 -10
-55 20 -67 37 -14 70 -1 82 32 7 20 17 29 31 29 15 0 20 5 18 17 -3 18 -29 29
-40 18z m-62 -62 c-11 -11 -19 6 -11 24 8 17 8 17 12 0 3 -10 2 -21 -1 -24z"/>
<path d="M5110 1425 c-10 -12 -7 -16 16 -26 16 -6 37 -15 46 -20 10 -5 26 -9
37 -9 10 0 24 -7 31 -15 7 -8 23 -15 36 -15 15 0 24 6 24 15 0 9 -9 15 -21 15
-33 0 -16 25 20 28 24 3 31 8 29 20 -3 14 -13 16 -53 14 -28 -2 -57 -10 -66
-18 -13 -12 -17 -11 -32 6 -20 24 -50 26 -67 5z"/>
<path d="M5124 1326 c-6 -16 30 -71 55 -82 45 -21 107 -32 119 -22 16 13 -1
35 -30 40 -13 2 -24 15 -32 38 -10 33 -14 35 -59 38 -35 2 -49 -1 -53 -12z
m84 -27 c-2 -6 -8 -10 -13 -10 -5 0 -11 4 -13 10 -2 6 4 11 13 11 9 0 15 -5
13 -11z"/>
<path d="M5019 1247 c5 -12 22 -25 39 -29 17 -5 34 -13 37 -18 3 -6 22 -10 42
-10 26 0 36 -5 40 -20 6 -22 24 -25 54 -9 25 13 15 29 -17 29 -14 0 -32 7 -40
15 -9 8 -25 15 -36 15 -12 0 -29 7 -39 16 -10 9 -33 19 -52 24 -33 7 -35 6
-28 -13z"/>
<path d="M8466 1211 c-8 -13 21 -34 39 -27 25 9 18 36 -9 36 -14 0 -27 -4 -30
-9z"/>
<path d="M5085 1141 c-8 -26 4 -68 21 -75 19 -7 18 -26 -1 -26 -9 0 -18 -7
-21 -15 -4 -8 -15 -15 -25 -15 -11 0 -22 -7 -25 -15 -9 -21 -34 -19 -60 6 -22
21 -44 19 -44 -4 0 -14 28 -40 53 -50 19 -7 22 -23 7 -32 -5 -3 -10 -11 -10
-17 0 -10 16 -8 55 8 19 8 19 7 3 -10 -10 -9 -18 -21 -18 -26 0 -5 -9 -10 -20
-12 -29 -4 -24 -20 14 -42 32 -18 34 -18 55 0 25 22 26 33 4 49 -15 11 -13 14
13 26 22 11 30 22 32 48 2 23 -2 37 -12 43 -26 14 -18 28 15 28 26 0 30 3 27
23 -1 13 7 32 20 45 26 26 28 51 5 58 -10 3 -26 10 -35 15 -28 14 -46 11 -53
-10z"/>
<path d="M5001 1100 c-16 -9 -6 -30 15 -30 15 0 20 25 6 34 -4 2 -14 1 -21 -4z"/>
<path d="M5705 1055 c-21 -22 -25 -35 -25 -89 0 -41 5 -67 14 -75 7 -6 16 -37
19 -69 2 -33 10 -67 15 -78 6 -10 14 -36 17 -56 3 -21 10 -38 14 -38 5 0 12
-20 15 -45 4 -25 11 -45 16 -45 5 0 12 -15 15 -32 4 -18 14 -42 21 -53 8 -11
14 -27 14 -36 0 -10 8 -32 17 -51 9 -18 22 -45 30 -60 7 -14 13 -36 13 -47 0
-12 4 -21 10 -21 5 0 13 -12 16 -26 4 -15 20 -52 35 -83 16 -31 29 -61 29 -68
0 -6 3 -13 8 -15 4 -1 14 -16 22 -33 11 -21 24 -31 44 -33 l29 -4 -22 28 c-11
14 -21 33 -21 40 0 8 -4 14 -10 14 -5 0 -13 12 -16 27 -4 15 -13 34 -21 41 -7
7 -13 20 -13 28 0 9 -7 22 -15 30 -8 9 -15 26 -15 40 0 13 -4 24 -10 24 -5 0
-10 15 -10 34 0 18 -7 39 -15 46 -8 7 -15 23 -15 35 0 12 -7 28 -15 35 -8 7
-15 25 -15 40 0 15 -7 33 -15 40 -8 7 -15 22 -15 34 0 12 -9 29 -20 39 -11 9
-20 29 -20 46 0 16 -7 42 -15 57 -8 16 -15 41 -15 56 0 15 -4 29 -9 32 -4 3
-11 33 -15 65 -4 33 -11 63 -16 66 -11 7 -14 125 -3 125 12 0 88 -54 97 -70 5
-8 45 -50 90 -94 44 -43 153 -149 242 -235 168 -163 410 -392 424 -401 4 -3
45 -39 91 -81 46 -42 100 -91 119 -108 31 -28 91 -44 89 -23 0 4 -21 24 -47
46 -43 35 -193 172 -313 286 -26 25 -91 86 -145 135 -142 132 -354 345 -354
356 0 5 -4 9 -9 9 -6 0 -57 46 -115 102 -99 94 -151 138 -168 138 -4 0 -19
-11 -33 -25z"/>
<path d="M5588 871 c-72 -46 -149 -138 -178 -212 -34 -84 -38 -128 -23 -210 8
-41 18 -99 23 -129 12 -66 30 -131 42 -144 4 -6 8 -16 8 -24 0 -8 9 -45 21
-83 21 -68 21 -69 57 -69 33 0 34 1 19 18 -10 10 -17 25 -17 33 0 9 -7 24 -15
35 -8 10 -15 30 -15 44 0 14 -6 37 -14 52 -8 14 -17 49 -21 77 -4 28 -11 53
-16 57 -5 3 -9 25 -9 50 0 24 -9 70 -20 101 -11 32 -20 64 -20 73 0 44 80 173
158 256 45 47 82 88 82 90 0 10 -37 1 -62 -15z"/>
<path d="M5851 758 c1 -51 4 -104 8 -118 6 -22 8 -19 14 21 7 55 -3 189 -14
189 -5 0 -9 -42 -8 -92z"/>
<path d="M4914 819 c-3 -6 -2 -21 4 -32 6 -12 13 -29 15 -38 3 -9 21 -29 41
-44 l35 -27 31 22 c32 22 38 48 18 68 -10 10 -16 8 -28 -8 -20 -27 -48 -17
-56 19 -3 14 -7 32 -10 39 -4 15 -40 16 -50 1z"/>
<path d="M6161 785 c3 -2 27 -16 54 -30 27 -15 118 -79 202 -143 85 -64 169
-126 188 -138 20 -11 41 -29 49 -39 7 -10 18 -15 24 -11 6 3 31 -7 56 -24 25
-17 70 -39 101 -50 31 -11 68 -28 82 -40 14 -11 33 -20 42 -20 9 0 27 -7 41
-15 14 -8 52 -28 85 -44 33 -17 85 -44 115 -62 91 -52 124 -69 136 -69 6 0 17
-7 24 -15 7 -8 16 -15 21 -15 5 0 9 7 9 15 0 8 -4 15 -10 15 -5 0 -18 8 -28
17 -10 10 -29 25 -42 33 -12 8 -28 21 -36 27 -7 7 -17 13 -23 13 -5 0 -16 6
-23 13 -13 14 -26 21 -115 67 -26 14 -49 28 -51 33 -2 4 -9 7 -15 7 -7 0 -29
9 -50 20 -20 11 -44 20 -52 20 -8 0 -15 5 -15 10 0 6 -5 10 -11 10 -7 0 -33
10 -58 21 -25 12 -62 29 -81 37 -77 33 -159 83 -220 132 -59 48 -198 147 -233
165 -20 11 -37 23 -37 26 0 4 -13 10 -30 14 -16 4 -32 11 -35 16 -4 5 -20 9
-37 9 -17 0 -29 -2 -27 -5z"/>
<path d="M6013 246 c9 -7 17 -18 17 -23 0 -20 172 -193 191 -193 10 0 19 3 19
7 0 13 -220 223 -233 223 -7 0 -4 -6 6 -14z"/>
</g>
</svg>
