<?xml version="1.0" standalone="no"?>
<!DOCTYPE svg PUBLIC "-//W3C//DTD SVG 20010904//EN"
 "http://www.w3.org/TR/2001/REC-SVG-20010904/DTD/svg10.dtd">
<svg version="1.0" xmlns="http://www.w3.org/2000/svg"
 width="2099.000000pt" height="1710.000000pt" viewBox="0 0 2099.000000 1710.000000"
 preserveAspectRatio="xMidYMid meet">

<g transform="translate(0.000000,1710.000000) scale(0.100000,-0.100000)"
fill="#000000" stroke="none">
<path d="M18459 16369 c-35 -75 -43 -89 -50 -89 -4 0 -17 -21 -30 -47 -12 -27
-26 -50 -29 -53 -4 -3 -15 -21 -26 -40 -10 -19 -25 -39 -31 -43 -7 -4 -13 -14
-13 -21 0 -8 -6 -19 -14 -25 -8 -7 -22 -27 -31 -46 -9 -19 -20 -35 -25 -35 -6
0 -10 -6 -10 -14 0 -8 -6 -21 -12 -28 -18 -18 -92 -129 -100 -150 -4 -10 -12
-18 -18 -18 -5 0 -10 -7 -10 -15 0 -9 -7 -18 -15 -21 -8 -4 -15 -10 -15 -15 0
-6 -18 -34 -40 -64 -22 -30 -40 -58 -40 -64 0 -5 -7 -11 -15 -15 -8 -3 -15
-12 -15 -20 0 -7 -7 -16 -15 -20 -8 -3 -15 -12 -15 -20 0 -7 -7 -17 -16 -20
-8 -3 -12 -10 -9 -16 3 -6 -1 -13 -9 -16 -9 -3 -16 -13 -16 -20 0 -8 -7 -17
-15 -20 -8 -4 -15 -13 -15 -20 0 -8 -7 -17 -15 -20 -8 -4 -15 -13 -15 -20 0
-8 -7 -17 -15 -20 -8 -4 -15 -13 -15 -20 0 -8 -7 -17 -15 -20 -8 -4 -15 -12
-15 -20 0 -7 -7 -17 -16 -22 -9 -5 -14 -11 -12 -13 5 -6 -64 -99 -74 -99 -4 0
-8 -7 -8 -15 0 -9 -7 -18 -15 -21 -8 -4 -15 -13 -15 -20 0 -8 -7 -17 -15 -20
-8 -4 -12 -10 -9 -15 3 -5 -2 -12 -10 -15 -9 -3 -16 -13 -16 -20 0 -8 -7 -17
-15 -20 -8 -4 -15 -13 -15 -20 0 -8 -7 -17 -15 -20 -8 -4 -15 -12 -15 -19 0
-7 -7 -15 -15 -19 -8 -3 -15 -10 -15 -15 0 -6 -11 -22 -25 -37 -14 -15 -25
-33 -25 -40 0 -8 -4 -14 -8 -14 -5 0 -28 -27 -52 -60 -24 -33 -47 -60 -52 -60
-4 0 -8 -7 -8 -15 0 -9 -7 -18 -15 -21 -8 -4 -15 -10 -15 -15 0 -4 -11 -20
-25 -35 -14 -15 -25 -31 -25 -35 0 -5 -8 -17 -17 -27 -10 -10 -36 -39 -58 -66
-22 -27 -50 -60 -63 -75 -13 -14 -35 -43 -49 -63 -14 -21 -30 -38 -34 -38 -5
0 -9 -4 -9 -10 0 -5 -8 -18 -17 -28 -10 -10 -38 -42 -63 -72 -25 -29 -55 -64
-67 -76 -13 -13 -23 -26 -23 -29 0 -3 -8 -13 -17 -23 -10 -10 -43 -47 -73 -82
-30 -35 -70 -79 -87 -98 -18 -18 -33 -38 -33 -43 0 -5 -4 -9 -10 -9 -5 0 -10
-6 -10 -14 0 -8 -9 -18 -20 -21 -11 -4 -18 -11 -15 -16 4 -5 -1 -12 -9 -15 -9
-3 -16 -10 -16 -15 0 -5 -8 -17 -17 -27 -16 -15 -59 -66 -115 -136 -10 -11
-22 -26 -28 -33 -5 -7 -10 -15 -10 -19 0 -3 -13 -23 -28 -43 -16 -20 -37 -52
-48 -71 -10 -19 -26 -40 -34 -47 -8 -7 -11 -13 -6 -13 5 0 2 -7 -5 -16 -7 -9
-14 -21 -16 -28 -1 -9 -44 -126 -48 -133 -1 -1 -73 26 -161 61 -333 132 -724
263 -1011 337 -133 35 -170 40 -290 44 -76 2 -214 9 -308 14 -507 31 -1193
-11 -1645 -100 -267 -53 -518 -128 -720 -216 l-125 -55 -35 18 c-19 10 -47 26
-61 36 -14 9 -29 15 -32 11 -4 -3 -12 -1 -19 5 -21 17 -106 62 -117 62 -6 0
-33 13 -61 30 -27 16 -50 27 -50 25 0 -3 -19 5 -42 17 -24 13 -47 23 -53 23
-5 0 -14 3 -20 7 -31 19 -106 59 -112 60 -17 2 -39 12 -64 29 -14 10 -29 16
-32 13 -3 -4 -23 4 -44 17 -21 13 -43 24 -49 24 -6 0 -30 10 -55 22 -52 26
-142 67 -149 69 -3 0 -23 9 -45 19 -22 9 -42 17 -45 17 -3 0 -16 6 -30 13 -14
8 -54 26 -90 40 -36 15 -80 34 -98 43 -19 9 -43 17 -54 19 -11 2 -32 9 -47 17
-14 8 -46 22 -71 31 -25 10 -65 27 -90 38 -25 11 -60 27 -77 34 -18 7 -47 20
-65 27 -75 32 -123 51 -128 51 -3 1 -14 6 -26 12 -11 7 -32 14 -45 17 -13 3
-49 14 -79 26 -30 12 -66 23 -79 26 -13 3 -32 9 -43 15 -10 5 -18 7 -18 4 0
-3 -18 4 -40 15 -22 11 -40 18 -40 15 0 -2 -12 0 -27 6 -16 6 -37 13 -48 15
-11 2 -40 8 -65 14 -25 6 -54 13 -65 15 -95 21 -116 28 -105 35 16 10 -12 16
-135 30 -49 6 -139 19 -200 30 -252 44 -354 53 -581 51 -121 -1 -233 -5 -250
-10 -42 -11 -44 -45 -4 -70 18 -10 48 -48 70 -85 21 -36 46 -73 54 -82 9 -8
16 -21 16 -28 0 -6 7 -21 15 -31 16 -21 64 -97 114 -180 75 -127 86 -145 92
-145 4 0 30 -41 59 -90 29 -50 58 -94 65 -98 7 -4 22 -25 34 -47 12 -22 32
-58 45 -80 13 -22 41 -71 61 -110 20 -38 42 -75 49 -80 6 -6 24 -35 39 -66 15
-31 36 -65 45 -75 10 -11 33 -46 51 -79 19 -33 44 -71 56 -85 12 -14 37 -51
54 -82 18 -32 36 -58 41 -58 5 0 23 -26 41 -57 18 -32 40 -65 49 -73 9 -8 29
-34 44 -58 15 -24 38 -56 51 -70 13 -15 38 -48 57 -74 78 -109 104 -144 129
-168 14 -14 39 -46 57 -72 17 -25 44 -59 59 -75 37 -39 140 -163 243 -293 46
-58 124 -152 174 -208 50 -57 106 -121 124 -142 l33 -39 -63 -88 c-109 -155
-263 -355 -361 -468 -126 -147 -378 -391 -507 -491 -470 -366 -1060 -622
-1680 -731 -114 -20 -191 -26 -365 -30 -254 -6 -409 11 -652 72 -178 45 -424
125 -417 136 3 5 -6 9 -20 9 -33 0 -211 78 -323 142 -113 65 -179 114 -281
212 -45 43 -82 75 -82 70 0 -18 174 -196 241 -245 38 -29 69 -54 69 -56 0 -11
-156 107 -245 185 -112 98 -217 223 -260 308 -55 108 -44 210 28 255 27 17 45
20 108 16 63 -3 88 -10 160 -45 46 -22 118 -65 160 -94 l75 -53 -88 3 c-195 8
-326 -80 -298 -199 8 -32 8 -32 9 15 1 40 6 53 34 81 44 44 118 65 229 65 120
0 173 -14 203 -55 14 -17 25 -37 25 -43 0 -6 5 -14 11 -17 7 -5 9 7 6 38 -5
41 -13 52 -87 124 -113 108 -151 133 -344 229 -408 203 -758 252 -991 139
-122 -59 -239 -183 -310 -330 -54 -110 -74 -184 -81 -295 -6 -89 14 -223 37
-244 9 -8 10 -5 5 14 -4 14 -9 64 -13 111 -18 260 163 580 397 699 79 40 157
52 300 47 151 -5 274 -32 440 -95 l95 -36 -43 -8 c-97 -16 -152 -82 -152 -182
0 -111 66 -224 224 -382 179 -179 380 -313 562 -373 49 -16 130 -47 179 -69
199 -87 501 -175 705 -206 396 -61 852 -6 1344 161 339 115 603 243 886 428
393 258 720 595 1077 1109 46 65 83 113 83 105 0 -10 3 -10 12 -1 9 9 38 -14
127 -101 125 -122 216 -200 274 -236 74 -46 57 -13 -38 74 -222 204 -286 265
-402 388 -68 71 -121 133 -118 137 3 4 -2 14 -11 21 -9 7 -44 47 -78 89 -33
41 -77 91 -96 110 -19 19 -53 57 -75 84 -22 27 -54 63 -71 80 -16 17 -41 47
-54 66 -13 19 -42 56 -64 81 -23 26 -66 79 -96 119 -30 39 -60 77 -65 83 -6 7
-25 33 -43 59 -18 25 -38 52 -45 60 -7 7 -22 27 -32 43 -11 17 -40 57 -65 91
-25 33 -52 71 -60 84 -8 12 -24 35 -35 49 -38 49 -61 86 -116 181 -29 52 -61
103 -70 113 -10 11 -31 45 -49 78 -17 32 -35 59 -39 59 -4 0 -17 21 -30 47
-13 26 -36 63 -51 83 -15 19 -45 67 -66 105 -21 39 -42 72 -47 74 -5 2 -17 22
-26 45 -10 22 -34 62 -54 88 -19 25 -32 50 -29 54 4 4 2 4 -5 0 -8 -4 -18 6
-29 26 -9 18 -49 83 -89 143 -39 61 -84 133 -100 160 -15 28 -33 55 -39 60 -7
6 -27 37 -45 70 -44 78 -65 105 -101 127 -17 10 -30 22 -30 28 0 13 280 13
360 0 30 -5 78 -12 105 -15 87 -11 106 -15 115 -20 5 -3 58 -8 117 -11 59 -3
143 -12 185 -20 43 -8 82 -13 87 -10 5 4 11 1 13 -5 2 -7 24 -11 48 -11 25 0
61 -4 80 -9 20 -5 89 -18 155 -29 174 -29 319 -72 458 -136 67 -31 166 -71
220 -90 150 -53 698 -295 950 -420 70 -34 127 -61 127 -58 0 2 25 -10 55 -27
30 -17 55 -28 55 -25 0 3 23 -8 50 -24 28 -17 58 -30 66 -30 9 0 28 -8 42 -18
24 -16 57 -33 72 -36 5 -1 71 -31 140 -64 19 -9 48 -25 63 -35 16 -11 31 -17
34 -13 3 3 18 -3 32 -13 14 -9 58 -33 96 -52 39 -18 92 -46 118 -61 26 -16 52
-28 58 -28 5 0 35 -16 65 -35 30 -19 58 -35 63 -35 9 0 54 -23 96 -50 17 -11
37 -23 45 -26 8 -4 21 -12 29 -18 7 -5 19 -11 25 -12 7 -1 51 -25 97 -54 46
-29 89 -53 95 -54 14 -2 182 -103 207 -124 9 -8 20 -12 24 -9 3 4 13 1 21 -5
8 -7 22 -17 33 -23 10 -5 58 -34 106 -63 63 -39 92 -51 102 -45 21 13 26 33 8
33 -7 0 -22 9 -32 20 -10 11 -24 20 -30 20 -7 0 -18 7 -25 15 -7 8 -16 12 -21
9 -5 -3 -21 3 -36 14 -16 10 -42 28 -60 40 -18 12 -36 22 -41 22 -5 0 -17 9
-27 20 -10 11 -23 20 -28 20 -6 0 -18 7 -28 16 -9 8 -23 16 -31 18 -7 1 -46
22 -86 46 -40 25 -81 50 -90 55 -9 6 -24 14 -32 20 -8 5 -20 10 -27 11 -7 1
-33 16 -58 33 -25 17 -50 31 -54 31 -5 0 -14 7 -21 15 -7 8 -18 15 -26 15 -13
0 -128 64 -156 88 -9 8 -21 11 -26 8 -5 -3 -15 1 -22 9 -7 8 -16 15 -21 15 -5
0 -33 16 -63 35 -29 19 -56 32 -59 29 -3 -4 -16 1 -27 9 -22 15 -22 16 20 37
61 31 249 103 352 134 501 152 1245 231 1944 206 419 -15 711 -62 998 -160 50
-16 100 -30 113 -30 29 0 250 -79 511 -182 162 -64 205 -86 212 -103 12 -31
35 -45 25 -16 -3 11 -4 21 -1 21 17 0 360 -158 541 -250 598 -303 1050 -624
1475 -1050 390 -389 696 -807 935 -1278 185 -362 302 -701 352 -1022 25 -160
25 -620 0 -795 -43 -302 -115 -555 -216 -760 -89 -180 -90 -181 -91 -57 0 177
-45 353 -138 537 -50 100 -86 156 -127 198 -43 43 -51 32 -10 -15 78 -92 195
-375 229 -558 17 -87 24 -250 12 -269 -4 -6 -16 -11 -27 -11 -10 0 -19 -4 -19
-10 0 -10 21 -14 49 -10 13 1 13 -1 2 -14 -8 -9 -11 -19 -8 -22 7 -8 122 167
164 250 97 193 182 475 225 747 19 124 22 184 23 434 0 316 -7 388 -65 625
-141 575 -544 1303 -1006 1816 l-72 80 -17 99 c-9 54 -23 119 -31 144 -7 25
-11 48 -8 51 3 3 33 7 67 10 46 4 62 9 62 20 0 18 19 40 34 40 6 0 11 5 11 10
0 6 6 10 13 10 6 0 20 12 31 26 18 25 18 27 -4 105 -13 43 -26 79 -29 79 -3 0
-15 20 -26 45 -11 25 -23 45 -27 45 -5 0 -8 7 -8 15 0 8 -4 15 -10 15 -5 0
-10 9 -10 20 0 11 -4 20 -10 20 -5 0 -10 7 -10 15 0 8 -4 15 -10 15 -5 0 -10
6 -10 13 0 7 -12 30 -27 52 -17 25 -22 40 -15 43 23 7 13 30 -10 25 l-23 -6
22 22 c12 11 25 21 29 21 8 0 116 112 147 153 12 16 27 34 32 40 6 7 19 28 28
47 10 19 28 52 39 72 19 34 20 68 1 68 -4 0 -21 -28 -38 -63 -16 -34 -36 -66
-42 -70 -7 -4 -13 -12 -13 -17 0 -6 -8 -18 -17 -28 -10 -10 -39 -42 -65 -70
-26 -29 -51 -52 -55 -53 -4 0 -25 -21 -46 -46 -35 -41 -37 -49 -33 -94 2 -27
14 -68 26 -91 13 -24 39 -74 59 -113 20 -38 38 -72 41 -75 11 -11 49 -97 55
-126 5 -27 1 -37 -30 -68 -19 -20 -35 -40 -35 -45 0 -5 -24 -11 -54 -13 -66
-5 -106 -29 -106 -63 0 -20 33 -119 76 -230 4 -11 -64 50 -152 135 -500 486
-1080 865 -1819 1190 -104 45 -192 84 -194 86 -4 4 58 125 103 198 20 33 36
65 36 71 0 7 8 21 18 33 9 11 27 34 39 50 12 16 34 41 48 56 14 15 25 30 25
33 0 3 14 19 30 35 17 15 30 32 30 37 0 5 7 12 16 15 8 3 13 10 9 15 -3 5 4
12 15 16 11 3 20 11 20 16 0 6 18 28 40 50 22 22 40 42 40 45 0 2 14 18 30 34
17 16 30 31 30 34 0 2 19 24 43 49 63 68 97 107 97 113 0 2 14 18 30 34 17 16
30 31 30 34 0 4 51 63 118 133 17 19 32 38 32 43 0 4 7 11 16 14 9 4 15 9 12
12 -5 4 23 41 65 85 9 11 17 21 17 24 0 3 8 13 18 23 23 24 73 84 97 118 11
16 28 36 38 46 9 10 17 21 17 24 0 3 6 12 13 19 21 24 32 38 109 140 145 193
298 406 298 416 0 5 5 9 10 9 6 0 14 8 17 18 6 14 53 83 81 118 5 5 15 21 22
34 7 14 19 31 27 38 7 7 13 20 13 28 0 8 5 14 10 14 6 0 15 11 20 25 5 14 14
25 20 25 5 0 10 6 10 14 0 7 6 19 14 25 8 7 22 27 31 46 9 19 20 35 25 35 6 0
10 6 10 13 0 6 14 30 30 51 17 22 30 46 30 53 0 7 4 13 8 13 5 0 17 18 28 40
10 22 22 40 26 40 4 0 17 20 28 44 11 24 23 46 27 48 5 1 19 23 32 48 14 25
27 47 31 50 3 3 14 21 24 40 9 19 37 71 61 115 39 72 94 178 103 198 2 4 0 7
-5 7 -5 0 -20 -23 -34 -51z m-9126 -2066 c-7 -2 -19 -2 -25 0 -7 3 -2 5 12 5
14 0 19 -2 13 -5z"/>
<path d="M18460 16263 c1 -25 28 -82 30 -63 1 8 17 -32 35 -89 19 -58 32 -108
29 -112 -2 -4 3 -25 10 -48 8 -22 15 -48 14 -58 0 -10 5 -45 12 -78 16 -78 23
-123 34 -215 3 -25 8 -61 11 -80 11 -78 17 -127 21 -165 24 -282 23 -617 -2
-920 -3 -33 -7 -87 -9 -120 -2 -33 -6 -80 -9 -104 -2 -24 -8 -74 -11 -110 -8
-73 -12 -116 -19 -176 -3 -22 -7 -65 -11 -95 -3 -30 -7 -64 -10 -75 -2 -11 -6
-31 -9 -45 -13 -64 -30 -111 -42 -121 -8 -6 -14 -19 -14 -27 0 -13 2 -13 13 2
24 32 37 15 23 -29 -7 -22 -19 -60 -26 -85 -7 -25 -19 -59 -26 -77 -8 -17 -14
-37 -14 -45 0 -8 -4 -18 -10 -24 -5 -5 -11 -19 -13 -31 -1 -11 -8 -27 -14 -35
-6 -7 -16 -31 -23 -53 -7 -22 -18 -47 -24 -55 -16 -22 -33 -53 -49 -92 -12
-28 -12 -37 -2 -52 13 -17 14 -17 34 0 11 10 18 20 16 24 -2 3 22 6 53 7 126
1 268 22 246 36 -15 9 -194 28 -253 27 -23 0 -23 1 -8 18 10 10 14 21 11 25
-3 3 2 21 11 39 32 60 35 68 35 86 0 10 5 23 12 30 6 6 13 22 15 34 2 13 7 32
12 43 10 22 41 124 46 152 2 10 4 18 5 18 1 0 4 13 6 29 2 16 6 36 10 45 10
22 13 50 29 241 2 36 7 76 10 90 13 61 26 157 40 288 3 26 8 67 11 92 31 251
45 646 29 860 -10 142 -14 183 -20 235 -3 28 -8 68 -10 90 -4 45 -13 105 -20
150 -3 17 -7 44 -10 62 -2 18 -7 42 -10 54 -4 12 -8 33 -10 48 -5 47 -24 141
-30 151 -3 5 -8 26 -11 46 -6 53 -59 217 -79 248 -20 31 -65 37 -65 9z"/>
<path d="M8955 13393 c3 -15 10 -30 14 -33 3 -3 14 -31 24 -62 10 -32 23 -63
30 -70 7 -7 25 -42 41 -78 15 -36 31 -67 35 -70 5 -3 23 -32 40 -65 33 -62 83
-138 124 -190 13 -16 34 -48 47 -70 14 -22 35 -51 48 -65 12 -14 33 -41 44
-60 12 -19 31 -44 43 -55 11 -11 36 -42 55 -70 18 -27 40 -54 47 -58 7 -4 31
-35 53 -67 23 -33 44 -60 49 -60 4 0 22 -20 40 -45 30 -42 52 -68 139 -164 18
-20 41 -48 50 -64 9 -15 23 -29 32 -32 8 -3 26 -21 39 -40 13 -20 56 -69 95
-110 99 -104 180 -194 184 -205 2 -6 10 -10 17 -10 7 0 24 -15 38 -32 33 -44
118 -129 203 -204 175 -155 212 -185 249 -204 104 -54 120 -68 120 -102 0 -27
4 -34 23 -36 20 -3 28 10 23 41 -6 33 96 117 142 117 8 0 17 4 19 9 2 5 32 15
68 22 36 7 67 16 70 20 3 4 32 9 65 12 201 19 273 23 327 19 l60 -5 -59 -33
c-32 -18 -66 -34 -75 -34 -10 0 -18 -4 -18 -10 0 -5 15 -10 33 -10 43 0 328
-38 397 -53 81 -18 524 -16 620 2 l75 14 -90 13 c-49 6 -209 15 -355 19 -146
4 -321 10 -390 14 l-125 6 90 58 c124 79 126 80 117 88 -4 4 -56 21 -117 38
-60 17 -204 62 -318 100 -114 38 -233 75 -265 81 -99 20 -96 18 -75 42 10 12
44 38 76 59 47 31 65 37 90 33 l32 -6 -30 26 c-16 14 -40 25 -52 26 -26 0
-488 231 -660 329 -133 76 -294 181 -278 181 22 0 232 -20 265 -25 l35 -6 -50
33 c-27 18 -51 32 -53 30 -2 -2 -10 5 -19 15 -8 10 -12 13 -9 6 5 -9 -28 -10
-137 -6 -132 5 -144 4 -151 -12 -6 -18 9 -45 26 -45 5 0 55 -31 111 -68 139
-94 255 -161 411 -239 147 -74 405 -190 443 -199 24 -6 23 -8 -24 -38 -93 -58
-163 -131 -163 -171 0 -30 17 -35 92 -29 55 6 95 -2 308 -55 135 -33 289 -66
343 -73 89 -10 96 -13 75 -24 -15 -9 -66 -14 -148 -14 -162 -2 -436 -25 -455
-40 -5 -4 -38 -13 -73 -20 -34 -7 -65 -16 -67 -20 -3 -4 -29 -20 -60 -34 -30
-15 -60 -36 -66 -47 -14 -27 -49 -39 -74 -26 -11 5 -48 34 -82 63 -33 30 -65
54 -70 54 -4 0 -58 49 -120 108 -61 59 -132 127 -158 150 -26 24 -76 76 -112
115 -36 40 -71 74 -77 76 -6 2 -20 16 -31 30 -30 38 -84 99 -135 151 -25 25
-63 68 -85 95 -22 27 -56 65 -75 84 -20 20 -48 53 -64 74 -15 21 -42 53 -60
72 -40 43 -72 80 -115 135 -19 25 -40 50 -46 55 -7 6 -22 26 -35 45 -13 19
-33 44 -45 55 -11 11 -35 41 -53 68 -18 26 -41 55 -51 65 -10 9 -31 37 -46 62
-15 25 -36 54 -46 65 -21 21 -81 110 -138 204 -19 31 -37 58 -40 61 -3 3 -21
34 -38 70 -18 36 -37 72 -42 80 -18 30 -71 148 -71 158 0 14 -28 42 -42 42 -6
0 -7 -11 -3 -27z"/>
<path d="M9090 13336 c0 -3 9 -10 20 -16 11 -6 20 -8 20 -6 0 3 -9 10 -20 16
-11 6 -20 8 -20 6z"/>
<path d="M9205 13246 c39 -36 74 -65 79 -66 4 0 43 -28 85 -62 42 -35 116 -92
164 -128 84 -62 236 -176 339 -255 26 -20 50 -35 53 -35 3 1 27 -17 52 -40 25
-22 51 -40 58 -40 6 0 24 -13 40 -30 16 -16 32 -30 36 -30 5 0 38 -21 74 -47
37 -27 88 -61 114 -78 26 -16 62 -43 81 -58 18 -15 35 -25 38 -22 3 3 3 7 1 8
-2 2 -74 55 -159 117 -85 62 -231 174 -323 249 -156 127 -339 268 -397 308
-14 9 -70 51 -125 93 -96 73 -154 111 -240 160 -35 19 -31 13 30 -44z"/>
<path d="M17660 11834 c0 -4 41 -49 91 -102 153 -160 251 -292 367 -493 158
-274 314 -720 398 -1132 30 -147 43 -384 25 -466 -13 -61 -8 -81 8 -30 l11 34
-6 -40 c-15 -112 -119 -370 -224 -557 -103 -182 -295 -448 -379 -522 -21 -19
-21 -19 -22 0 0 13 -6 6 -18 -18 -10 -21 -26 -47 -37 -59 -36 -42 -195 -169
-285 -230 -114 -77 -299 -180 -311 -173 -4 3 -8 0 -8 -5 0 -6 -4 -11 -9 -11
-5 0 -7 9 -4 20 8 29 -4 24 -21 -9 -13 -23 -31 -33 -109 -59 -107 -36 -245
-62 -325 -62 l-55 0 51 54 c102 108 263 386 313 541 12 39 53 121 90 183 158
262 316 642 369 889 25 117 36 238 23 246 -7 4 -13 -21 -18 -66 -27 -285 -254
-831 -474 -1142 -84 -119 -239 -270 -357 -348 -184 -122 -462 -241 -657 -281
-42 -9 -118 -19 -169 -23 l-91 -6 45 64 c132 187 368 670 412 844 33 131 86
365 103 450 19 102 26 446 8 452 -6 2 -11 -55 -12 -155 -1 -161 -21 -317 -63
-495 -25 -109 -88 -306 -106 -332 -21 -30 -16 -43 6 -16 11 13 20 20 20 17 0
-31 -313 -631 -393 -753 -39 -60 -43 -63 -90 -69 -35 -5 -45 -10 -37 -18 18
-18 295 -9 415 15 346 66 685 251 887 482 39 45 75 87 80 92 20 22 -36 -105
-88 -200 -128 -231 -257 -397 -316 -409 -59 -12 -15 -26 98 -32 116 -7 222 7
346 46 34 11 64 18 66 15 2 -2 -4 -49 -14 -105 -23 -138 -15 -362 16 -470 19
-69 67 -167 76 -158 2 2 -7 31 -20 63 -13 33 -27 80 -31 105 l-7 45 20 -19
c13 -11 28 -16 39 -12 13 5 14 9 5 15 -28 17 -42 102 -42 251 0 121 3 150 15
160 14 12 15 8 8 -31 -9 -51 -10 -125 -2 -134 23 -23 68 55 91 157 6 29 18 59
27 66 9 7 10 12 3 12 -7 0 -12 8 -12 18 1 14 5 12 24 -10 13 -15 33 -26 44
-25 22 1 19 22 -4 31 -9 3 -13 10 -9 15 3 5 1 12 -4 15 -11 7 -9 -13 2 -31 5
-7 4 -13 -2 -13 -6 0 -15 8 -20 18 -8 15 -1 28 43 71 29 28 56 48 61 44 4 -5
5 -3 1 4 -3 6 -2 14 4 18 6 4 10 -7 10 -28 0 -26 -5 -36 -19 -40 -15 -4 -19 0
-16 14 2 11 0 17 -6 14 -5 -4 -6 -11 -3 -17 4 -7 2 -8 -4 -4 -8 5 -10 1 -5
-10 5 -13 2 -16 -9 -12 -11 5 -14 1 -10 -18 2 -13 10 -24 18 -24 7 0 11 8 9
19 -2 12 3 21 16 24 16 4 19 0 19 -28 0 -72 -12 -125 -29 -125 -14 0 -14 2 -1
11 13 9 13 10 0 6 -8 -2 -14 -10 -13 -16 4 -15 -14 -14 -20 2 -3 9 -8 9 -18
-2 -8 -8 -9 -11 -3 -8 7 4 17 0 24 -8 11 -13 8 -19 -10 -17 -4 0 -6 -16 -5
-36 0 -21 5 -36 11 -35 14 2 9 -70 -9 -127 -7 -25 -18 -44 -24 -43 -6 1 -10
-4 -9 -11 1 -16 -121 -146 -138 -146 -6 0 -3 -5 7 -11 23 -14 52 5 129 81 41
41 59 69 68 101 6 24 20 71 30 104 40 125 51 184 57 301 l6 122 34 16 c18 9
36 16 38 16 14 0 3 -213 -14 -285 -11 -44 -18 -81 -16 -83 2 -2 13 13 25 35
21 37 20 34 -6 -39 -7 -20 -15 -47 -18 -60 -2 -12 -9 -34 -14 -48 -6 -14 -16
-54 -22 -90 -7 -36 -13 -72 -15 -80 -5 -25 -15 -131 -20 -205 -3 -38 -7 -76
-10 -85 -2 -8 -7 -33 -11 -55 -3 -22 -7 -50 -9 -62 -2 -11 -6 -30 -9 -41 -4
-11 -9 -30 -11 -42 -2 -13 -11 -33 -20 -46 -8 -13 -15 -30 -15 -37 0 -8 -9
-26 -20 -39 -10 -14 -17 -28 -14 -31 9 -9 -70 -109 -217 -277 -151 -172 -226
-245 -264 -260 -14 -5 -25 -14 -25 -19 0 -5 -33 -35 -72 -67 -40 -32 -89 -74
-108 -93 -35 -33 -180 -146 -190 -146 -3 0 -21 -12 -40 -27 -19 -14 -74 -51
-121 -80 -47 -30 -96 -64 -110 -77 -24 -23 -75 -53 -94 -57 -22 -4 -113 -65
-119 -79 -3 -8 -12 -15 -20 -15 -8 0 -49 -14 -90 -30 -42 -17 -81 -28 -87 -25
-5 4 -17 1 -26 -7 -21 -17 -289 -24 -406 -9 -169 20 -257 46 -572 166 -110 43
-221 83 -247 91 -27 8 -48 19 -48 24 0 5 -24 18 -52 29 -29 11 -48 21 -43 21
20 3 -31 19 -61 19 -24 1 -31 5 -30 19 2 30 -103 23 -194 -13 -67 -27 -86 -42
-191 -145 -64 -63 -143 -151 -175 -195 -32 -44 -74 -98 -95 -120 -62 -67 -129
-185 -128 -225 l1 -35 15 38 c28 68 39 47 52 -100 12 -143 28 -812 18 -803 -3
3 -35 95 -71 205 -79 241 -160 407 -286 590 -292 425 -376 563 -440 724 l-21
54 84 86 c115 119 251 289 245 308 -1 4 10 28 24 53 43 73 95 190 114 260 15
58 27 76 104 160 103 113 212 251 309 392 39 57 89 123 110 148 l39 45 74 -38
c89 -44 108 -46 108 -12 0 19 -15 37 -60 72 -33 25 -60 48 -60 50 0 2 15 23
33 47 l32 43 140 18 c77 10 146 20 154 23 12 4 13 -7 8 -65 -9 -90 12 -210 56
-335 l34 -93 52 1 c74 2 80 14 36 63 -20 22 -34 45 -30 51 3 5 0 10 -7 10 -16
0 -42 65 -33 80 10 16 30 1 31 -25 1 -14 -2 -22 -7 -19 -5 3 -6 -2 -3 -10 3
-9 10 -16 16 -16 5 0 6 5 2 12 -5 8 -2 9 12 4 10 -4 15 -4 11 0 -4 4 -2 13 4
20 8 10 6 12 -11 9 -15 -3 -20 0 -17 9 3 8 0 19 -6 25 -8 8 -7 11 4 11 11 0
11 2 1 9 -11 7 -11 9 1 14 11 4 19 -4 26 -24 5 -16 12 -29 14 -29 6 0 -5 60
-12 61 -38 5 -49 5 -46 -1 3 -4 -4 -15 -14 -24 -14 -13 -21 -14 -27 -5 -4 7 1
18 12 27 16 12 16 14 2 9 -22 -8 -27 1 -38 66 -5 36 -4 56 4 66 8 12 8 13 -1
7 -7 -4 -13 -3 -13 1 0 5 6 15 13 22 10 11 10 13 0 7 -17 -10 -16 2 1 20 20
19 26 18 26 -6 0 -11 5 -20 10 -20 6 0 10 9 10 21 0 15 5 20 23 17 15 -2 21
-9 19 -20 -2 -10 2 -18 8 -18 5 0 10 9 10 19 0 11 6 22 13 25 6 3 2 3 -10 1
-12 -3 -24 -1 -28 5 -7 11 3 13 51 10 30 -1 51 20 39 40 -2 4 14 10 38 14 23
3 63 10 89 14 26 5 45 5 42 1 -2 -4 0 -10 5 -14 6 -3 7 -13 4 -22 -4 -11 -3
-14 6 -9 6 4 11 15 10 24 -3 30 1 37 10 23 6 -10 4 -25 -6 -45 -13 -25 -17
-27 -27 -15 -13 17 -56 13 -56 -6 0 -8 4 -17 10 -20 5 -3 7 0 4 8 -6 17 28 16
48 -1 11 -9 17 -7 28 8 7 10 18 16 24 13 6 -4 5 1 -3 11 -13 15 -13 19 0 27
10 6 10 9 2 9 -7 0 -13 5 -13 11 0 5 4 8 9 5 5 -4 12 0 14 6 3 7 6 -24 6 -68
1 -103 15 -177 44 -234 21 -42 57 -67 57 -40 0 6 7 19 16 28 13 13 15 32 12
106 -2 50 -9 100 -15 111 -9 15 -10 2 -6 -61 3 -45 3 -98 -1 -117 -7 -35 -7
-36 -25 -18 -27 27 -41 77 -48 167 l-6 80 33 14 c18 7 46 13 62 13 22 0 26 2
14 9 -9 5 -21 6 -26 3 -5 -3 -19 -1 -30 5 -14 8 -20 8 -20 0 0 -6 -4 -8 -10
-5 -6 3 -7 -1 -4 -9 3 -9 2 -16 -3 -16 -14 0 -13 38 2 44 7 2 27 3 45 1 17 -2
28 0 25 4 -3 5 13 11 35 13 22 2 40 0 40 -4 0 -5 5 -8 11 -8 5 0 7 5 3 12 -4
7 -3 8 5 4 6 -4 9 -12 6 -17 -4 -5 4 -9 17 -9 18 0 20 2 8 10 -11 7 -11 10 -2
10 7 0 10 5 7 10 -6 9 15 12 103 13 17 1 32 5 32 9 0 5 15 8 33 7 17 0 42 2
55 5 35 8 24 -26 -11 -35 -15 -4 -25 -3 -22 1 6 10 -35 7 -53 -4 -7 -4 -12 -2
-12 6 -1 7 -9 3 -20 -11 -22 -25 -26 -41 -10 -41 6 0 10 9 10 21 0 14 4 18 13
12 22 -13 36 -12 30 4 -5 13 -2 13 14 4 11 -5 31 -8 44 -6 13 3 32 -3 43 -13
18 -15 19 -15 8 0 -9 11 -10 18 -2 23 5 3 10 1 10 -5 0 -7 6 -10 14 -7 7 3 19
0 25 -6 11 -11 12 -9 15 15 0 6 8 13 16 15 9 3 11 1 5 -4 -16 -13 -16 -33 0
-39 10 -4 15 -19 14 -48 0 -22 -3 -35 -6 -28 -2 6 -10 12 -16 12 -7 -1 -2 -9
11 -20 20 -16 20 -19 5 -22 -11 -2 -23 6 -30 22 -10 20 -12 21 -7 3 2 -12 -1
-25 -7 -29 -7 -4 -9 -3 -6 4 14 22 -4 41 -35 38 -18 -2 -32 2 -35 10 -3 8 -14
14 -24 14 -10 0 -24 9 -31 20 -14 21 -52 27 -63 9 -11 -18 5 -24 27 -10 11 7
17 8 13 2 -3 -6 2 -14 12 -18 22 -9 44 -29 37 -36 -3 -2 9 -3 25 -2 27 2 30 0
27 -20 -3 -14 1 -22 10 -22 9 0 11 4 4 12 -7 9 -5 17 7 26 15 12 16 12 10 -3
-3 -10 -2 -20 3 -23 5 -3 7 -14 5 -24 -2 -11 9 -30 28 -47 17 -16 25 -21 18
-11 -9 11 -10 17 -2 17 6 0 11 8 11 18 -1 15 -2 15 -15 -2 -8 -11 -15 -18 -16
-15 -6 42 -6 59 1 59 5 0 11 -6 13 -12 4 -10 6 -10 6 -1 1 7 7 10 14 7 10 -4
13 -22 11 -65 -2 -54 -6 -66 -41 -107 -52 -62 -77 -101 -70 -109 12 -11 102
30 134 62 58 58 64 136 24 343 -21 108 -33 99 144 108 115 5 125 4 245 -29
185 -52 231 -72 294 -127 58 -50 96 -64 96 -34 0 9 -12 25 -26 36 -14 12 -29
31 -34 44 -5 13 -29 37 -52 53 -24 16 -55 39 -69 50 -14 11 -37 22 -50 25 -13
2 -60 20 -104 39 -127 54 -234 85 -318 91 -105 8 -585 -44 -824 -90 -101 -19
-267 -50 -370 -70 -104 -19 -199 -38 -212 -41 -19 -5 -22 -3 -16 8 15 25 68
93 97 125 16 17 30 38 31 45 2 8 38 68 81 133 43 66 112 177 154 247 l76 127
185 56 c459 138 702 178 1084 180 210 1 218 2 215 21 -6 41 -256 95 -442 95
-190 0 -424 -49 -721 -149 -66 -23 -122 -41 -125 -41 -3 0 51 32 120 71 333
188 684 454 1009 765 175 167 435 454 423 466 -10 10 -61 -41 -257 -251 -85
-91 -334 -322 -472 -437 -206 -173 -496 -381 -721 -518 -86 -52 -205 -116
-216 -116 -3 0 31 73 74 163 89 185 189 433 250 621 54 170 38 190 -20 24 -88
-254 -209 -534 -317 -735 -30 -57 -55 -103 -56 -103 -1 0 -27 -10 -57 -20
l-55 -20 43 5 c28 3 42 1 42 -6 0 -36 -369 -606 -429 -663 -17 -17 -31 -35
-31 -42 0 -6 -48 -76 -106 -154 -58 -78 -109 -152 -114 -164 -11 -30 -82 -118
-170 -211 -42 -44 -106 -118 -142 -165 -367 -476 -884 -837 -1483 -1034 -336
-111 -694 -177 -853 -157 -61 8 -149 37 -139 47 2 2 32 4 68 5 53 1 77 8 144
41 103 52 195 113 320 213 118 94 281 254 319 311 20 31 46 51 101 78 55 27
75 42 75 57 0 14 -7 19 -27 18 -22 0 -24 -2 -10 -7 14 -6 9 -12 -28 -30 -51
-25 -59 -27 -50 -12 11 18 -6 11 -23 -10 -23 -26 -194 -75 -335 -96 -177 -26
-403 -8 -609 48 -57 15 -78 26 -78 37 0 11 -25 29 -67 50 -241 119 -1022 639
-1029 685 -3 24 -74 103 -139 157 -67 55 -216 135 -315 169 -80 27 -224 59
-267 60 -17 0 -34 4 -37 9 -9 14 169 26 364 25 293 -1 431 -33 1061 -239 195
-64 424 -134 509 -156 85 -22 162 -44 171 -49 9 -5 53 -14 98 -21 139 -21 280
12 501 117 267 128 465 268 675 479 293 292 499 626 630 1020 42 126 101 373
91 383 -17 16 -36 -17 -56 -100 -92 -380 -281 -764 -525 -1064 -71 -87 -250
-269 -321 -326 l-54 -43 -248 -1 c-136 0 -256 -3 -267 -6 -11 -2 -46 -8 -78
-12 -31 -5 -60 -12 -63 -17 -3 -5 -9 -7 -13 -4 -5 2 -32 -7 -60 -21 -53 -25
-72 -29 -226 -39 -49 -4 -93 -9 -98 -12 -4 -3 -22 -6 -40 -8 -32 -4 -121 -19
-167 -30 -14 -3 -59 -10 -100 -15 -79 -10 -108 -15 -180 -29 -25 -6 -58 -12
-74 -14 -19 -3 -112 23 -275 79 -453 153 -618 187 -911 188 -268 0 -494 -34
-697 -105 -122 -43 -243 -121 -243 -156 0 -10 11 -5 37 17 44 39 149 90 195
95 18 2 55 11 82 19 62 20 152 20 280 1 287 -43 503 -132 646 -264 33 -30 21
-23 -43 24 -48 36 -93 65 -100 65 -7 0 -3 -7 8 -16 26 -19 280 -232 314 -263
l26 -23 -38 21 -37 21 -48 -36 c-89 -67 -114 -89 -185 -162 -40 -40 -94 -87
-122 -104 -66 -40 -225 -161 -225 -170 0 -5 -6 -8 -13 -8 -7 0 -30 -18 -52
-40 -22 -21 -44 -40 -50 -40 -5 -1 -21 -15 -35 -31 -14 -17 -39 -46 -56 -65
-18 -19 -40 -47 -50 -61 -11 -14 -27 -33 -36 -42 -10 -8 -18 -21 -18 -29 0 -7
-7 -15 -15 -18 -8 -4 -15 -12 -15 -19 0 -8 -6 -20 -13 -27 -21 -21 -105 -173
-113 -202 -3 -14 -9 -26 -13 -26 -5 0 -14 -18 -21 -40 -12 -37 -21 -44 -89
-77 -246 -117 -514 -196 -806 -240 -152 -22 -590 -25 -735 -5 -422 60 -745
183 -1095 417 -194 130 -358 260 -497 394 -173 166 -252 280 -265 382 -6 41
-23 65 -23 32 0 -42 33 -139 66 -197 55 -94 123 -174 254 -299 295 -283 675
-528 993 -642 640 -229 1405 -196 2042 88 55 25 101 44 102 43 2 -1 -6 -20
-17 -41 -11 -22 -20 -45 -20 -52 0 -7 -4 -13 -9 -13 -5 0 -12 -15 -16 -32 -4
-18 -19 -60 -35 -93 -47 -101 -42 -81 -64 -250 -27 -200 -32 -235 -37 -238 -2
-1 -42 -15 -89 -30 -407 -135 -907 -647 -1081 -1107 l-29 -75 6 65 c28 312
229 934 379 1176 49 78 133 169 166 179 10 4 19 11 19 16 0 17 -73 -28 -119
-72 -220 -213 -480 -969 -481 -1395 0 -60 -5 -151 -10 -202 -26 -244 49 -453
168 -469 28 -4 42 -2 42 6 0 6 -15 11 -33 11 -75 0 -124 97 -142 277 -7 79 23
265 64 391 129 392 499 838 885 1064 70 42 219 108 244 108 9 0 12 -30 12
-119 0 -66 4 -122 9 -125 4 -3 11 -37 15 -76 4 -38 10 -70 15 -70 4 0 15 -31
26 -69 10 -39 22 -68 26 -65 4 2 13 -12 19 -31 6 -19 16 -35 21 -35 5 0 9 -7
9 -16 0 -8 4 -13 9 -10 5 3 16 -5 25 -18 9 -14 28 -26 43 -28 33 -4 48 -47 33
-92 -12 -34 -14 -216 -2 -216 4 0 16 -23 26 -51 28 -79 61 -103 216 -153 74
-24 150 -47 168 -51 18 -4 36 -14 41 -24 11 -20 75 -40 221 -71 173 -37 167
-22 50 -130 -57 -52 -129 -129 -160 -170 -32 -41 -79 -95 -104 -120 -25 -24
-46 -52 -46 -61 0 -10 -13 -27 -30 -39 -16 -12 -30 -29 -30 -37 0 -9 -15 -44
-33 -77 -19 -34 -44 -91 -56 -127 -13 -40 -52 -112 -97 -179 -41 -62 -88 -138
-104 -170 -16 -33 -36 -62 -43 -67 -26 -16 -227 -353 -394 -661 -200 -370
-382 -779 -466 -1047 -8 -27 -67 -208 -131 -401 -119 -363 -191 -614 -176
-614 5 0 14 19 20 43 21 78 140 427 236 690 190 516 317 823 476 1145 84 169
306 557 315 548 3 -2 0 -14 -7 -25 -6 -12 -8 -21 -5 -21 2 0 32 55 66 123 60
120 240 402 372 584 69 96 82 120 47 88 -11 -10 -20 -14 -20 -8 0 13 290 297
439 430 148 133 177 147 287 140 l83 -5 157 -148 c193 -183 367 -371 493 -529
52 -66 163 -205 247 -310 180 -226 251 -323 400 -550 410 -625 938 -1636 1097
-2101 l32 -94 691 0 691 0 18 63 c10 34 20 64 21 66 2 2 31 -27 66 -63 l63
-66 793 0 c435 0 792 2 792 5 0 2 -15 39 -34 82 -19 43 -37 89 -41 103 -4 14
-18 43 -31 65 -32 56 -94 245 -94 289 0 20 -4 36 -9 36 -14 0 -44 297 -43 435
0 109 9 204 27 285 2 8 4 24 5 35 1 20 1 20 15 1 17 -22 20 -5 5 23 -7 14 -2
40 20 101 35 94 52 229 40 306 -7 42 -21 68 -71 134 -142 185 -294 272 -440
252 l-57 -8 -62 69 -63 69 12 39 12 39 37 -25 c48 -33 68 -32 87 5 9 17 22 30
29 30 8 0 26 14 40 31 49 58 31 156 -49 254 l-32 40 31 140 31 141 54 -28 c54
-28 108 -36 140 -19 13 7 29 2 62 -20 45 -29 65 -23 34 11 -27 30 -137 92
-152 86 -8 -3 -11 -1 -8 4 8 12 -5 13 -23 1 -10 -6 -5 -11 19 -20 18 -6 29
-14 25 -18 -3 -4 6 -12 21 -19 l28 -12 -27 1 c-16 1 -28 5 -28 10 0 5 -8 6
-17 3 -11 -5 -25 2 -41 21 -13 15 -21 22 -17 15 8 -15 -4 -15 -38 1 -15 6 -27
18 -27 25 0 6 -4 12 -10 12 -5 0 -10 9 -10 19 0 22 -16 36 -24 22 -4 -5 0 -11
6 -14 7 -3 3 -4 -9 -4 -18 1 -20 4 -10 16 10 12 8 14 -10 9 -13 -4 -25 -3 -27
1 -8 12 135 12 193 0 107 -21 228 -101 215 -141 -3 -12 0 -18 10 -18 16 0 20
11 16 40 -3 26 -70 87 -125 113 -29 15 -85 32 -124 38 l-71 12 5 31 c18 109
26 220 32 437 5 211 4 251 -10 277 -15 30 -14 32 14 61 15 16 51 78 79 138 28
59 69 144 91 188 22 44 39 88 39 98 0 9 5 17 11 17 8 0 10 51 7 183 l-5 182
-55 171 -54 171 62 -42 c120 -83 254 -117 449 -117 336 0 629 107 843 306 l65
61 -72 -142 c-182 -355 -394 -653 -464 -653 -16 0 -26 -4 -22 -10 3 -5 18 -10
33 -10 21 0 45 19 102 78 138 143 293 386 437 682 47 96 109 223 139 283 59
117 64 141 34 157 -25 13 -36 -3 -89 -140 -34 -88 -52 -117 -108 -183 -213
-243 -514 -369 -883 -368 -136 0 -200 8 -299 37 -128 37 -253 125 -266 187 -4
18 -13 46 -21 62 -8 17 -18 51 -23 75 -6 29 -9 36 -10 20 -2 -24 -2 -24 -16
-6 -20 27 -19 33 10 40 34 9 51 66 35 124 -6 24 -15 40 -20 37 -6 -4 -10 5
-10 19 0 13 -6 31 -13 38 -13 13 -30 48 -23 48 2 0 23 -7 47 -15 83 -29 307
-84 411 -100 56 -9 168 -18 248 -21 l145 -6 105 36 c73 25 146 61 240 118 74
45 140 87 145 94 13 15 95 66 111 68 6 1 34 21 60 45 27 23 100 78 162 121 62
43 148 110 191 149 43 39 83 71 87 71 15 0 296 281 346 345 25 33 79 96 118
139 131 147 191 310 205 561 3 61 8 124 11 140 2 17 7 47 9 69 9 77 45 206 81
293 20 48 38 97 40 108 1 11 17 58 34 105 17 47 33 93 35 103 7 33 15 35 90
30 52 -4 79 -2 90 7 26 22 6 30 -76 30 -43 0 -79 4 -79 8 0 4 32 18 71 31 39
12 141 64 227 113 271 157 365 229 174 134 -48 -24 -118 -56 -157 -71 -68 -27
-253 -70 -262 -61 -2 2 3 18 11 35 9 16 16 37 16 45 0 9 36 55 81 103 281 305
537 766 603 1087 21 99 21 239 1 260 -8 8 -15 30 -15 50 0 70 -31 274 -66 430
-110 495 -273 877 -510 1197 -88 118 -291 329 -317 329 -9 0 -17 -3 -17 -6z
m907 -2166 c-3 -8 -6 -5 -6 6 -1 11 2 17 5 13 3 -3 4 -12 1 -19z m-2772 -964
c55 -8 132 -23 170 -33 l70 -18 -186 -1 c-102 -1 -235 -6 -295 -12 -252 -25
-548 -89 -801 -174 -128 -43 -131 -44 -121 -21 25 56 635 246 878 274 84 10
138 7 285 -15z m2060 -377 c-12 -28 -21 -37 -39 -37 -14 0 -33 -3 -43 -7 -10
-4 6 14 36 40 30 26 56 45 58 43 2 -1 -4 -19 -12 -39z m-90 -224 c-2 -10 -13
-43 -25 -73 -12 -30 -23 -63 -25 -72 -5 -23 -26 -61 -31 -56 -2 3 3 36 11 74
8 38 15 83 15 101 0 22 6 33 18 36 33 9 41 7 37 -10z m-415 -215 c0 -23 -51
-177 -60 -183 -21 -13 2 135 26 173 16 24 34 29 34 10z m328 -23 c-6 -14 -13
-24 -14 -22 -6 6 9 47 17 47 5 0 3 -11 -3 -25z m-178 -60 c0 -8 -8 -15 -17
-16 -11 0 -13 -3 -5 -6 19 -8 14 -40 -8 -46 -13 -3 -20 0 -20 9 0 8 3 13 8 12
4 -2 8 2 9 7 0 6 -4 9 -10 7 -7 -2 -1 8 12 22 28 30 31 31 31 11z m-2105 -86
c10 -16 -4 -24 -17 -11 -14 14 -58 16 -58 3 0 -5 11 -8 24 -5 26 4 44 -10 26
-21 -6 -4 -7 -12 -3 -18 3 -7 -4 -3 -17 8 -13 11 -20 14 -16 8 4 -7 5 -13 2
-13 -10 0 -27 40 -21 50 8 13 72 13 80 -1z m-840 -129 c3 -5 -9 -9 -27 -8 -34
1 -77 -16 -90 -35 -4 -6 -12 -4 -23 6 -17 18 -30 23 -21 9 2 -4 1 -14 -4 -22
-7 -12 -10 -11 -16 3 -9 25 -3 29 73 42 92 15 102 15 108 5z m-1898 -1738 c5
-4 22 -34 37 -67 15 -33 58 -100 95 -150 38 -49 88 -121 111 -159 37 -61 104
-165 160 -246 32 -47 222 -411 217 -416 -7 -7 -42 53 -130 221 -43 83 -99 179
-125 214 -64 87 -182 214 -268 286 -39 33 -84 78 -100 100 -15 22 -48 64 -71
93 -59 72 -58 101 5 165 l47 48 6 -41 c3 -23 10 -45 16 -48z m1335 -1277 c30
-76 32 -89 38 -275 10 -265 30 -379 85 -475 12 -22 25 -65 29 -95 7 -54 7 -55
-10 -30 -37 55 -92 103 -146 129 -32 16 -58 25 -58 21 0 -4 -24 -10 -52 -12
-29 -3 -61 -9 -70 -13 -13 -5 -18 -2 -18 10 0 9 5 13 10 10 6 -3 10 -1 10 6 0
7 11 41 25 76 18 45 30 103 40 203 8 77 19 171 24 208 5 37 15 146 22 242 13
174 13 175 27 125 7 -27 27 -86 44 -130z m421 -427 c72 -49 154 -143 154 -178
0 -8 10 -57 23 -108 12 -51 20 -95 18 -98 -3 -2 -28 17 -55 43 -35 32 -57 64
-69 98 -12 31 -38 70 -69 103 -45 46 -56 52 -91 52 -29 0 -49 -8 -74 -29 -34
-28 -35 -31 -38 -110 -5 -97 -19 -105 -51 -30 -25 60 -28 156 -7 197 18 34 53
68 86 81 38 17 137 5 173 -21z m-458 -348 c3 -5 13 -10 22 -10 41 0 155 -133
138 -160 -4 -6 0 -17 10 -23 9 -8 21 -40 27 -79 11 -64 5 -138 -29 -320 -5
-25 -2 -27 41 -33 40 -6 122 11 193 41 18 8 14 -81 -8 -152 -11 -37 -38 -88
-65 -123 -25 -34 -47 -61 -49 -61 -4 0 8 44 23 82 13 32 28 178 18 178 -6 0
-44 -20 -96 -49 -68 -38 -81 -42 -95 -31 -8 7 -15 18 -15 24 0 6 -7 23 -14 38
-12 22 -12 29 -2 35 16 10 40 53 29 53 -4 0 -3 4 3 8 14 9 25 54 16 67 -4 6
-19 18 -34 28 -32 20 -52 55 -78 135 -55 170 -117 272 -166 272 -15 0 -29 42
-21 64 3 8 16 16 29 19 45 9 117 7 123 -3z m790 -536 c-3 -25 -15 -49 -28 -60
-12 -10 -19 -15 -15 -10 4 5 0 15 -10 23 -10 9 -11 11 -2 7 13 -7 13 -6 0 10
-23 28 -21 43 16 119 19 39 35 78 36 87 1 8 4 -19 6 -60 2 -41 1 -94 -3 -116z
m-750 -24 c3 -6 -1 -7 -9 -4 -18 7 -21 14 -7 14 6 0 13 -4 16 -10z m-68 -32
c-3 -8 -6 -5 -6 6 -1 11 2 17 5 13 3 -3 4 -12 1 -19z m712 -22 c-9 -8 -10 -7
-5 7 3 10 7 24 7 30 1 7 3 4 6 -7 3 -10 -1 -23 -8 -30z m-696 -21 c4 -8 2 -17
-3 -20 -6 -4 -10 3 -10 14 0 25 6 27 13 6z m704 6 c7 7 13 7 13 2 0 -6 -10
-14 -22 -20 -19 -8 -20 -10 -4 -16 10 -4 15 -3 11 3 -3 6 -1 10 5 10 7 0 9 -7
6 -16 -3 -8 -1 -36 5 -61 l12 -45 -74 -74 c-40 -41 -80 -74 -87 -74 -7 0 -10
5 -6 12 4 6 3 8 -3 5 -6 -4 -16 0 -23 8 -7 8 -16 12 -21 9 -5 -3 -9 0 -9 6 0
6 -5 8 -12 4 -8 -5 -9 -2 -5 11 4 10 2 22 -5 29 -7 6 -12 10 -10 9 7 -3 138
126 167 166 18 24 34 36 39 31 6 -6 15 -5 23 1z m-609 -88 c31 -40 59 -156 43
-177 -4 -6 -13 -38 -20 -70 -6 -33 -18 -70 -26 -83 -9 -13 -11 -23 -5 -23 14
0 50 60 50 84 0 11 2 17 5 14 3 -3 10 -61 16 -129 5 -68 19 -159 30 -203 23
-91 110 -317 163 -426 87 -176 216 -462 241 -533 32 -89 41 -66 -83 -213 -109
-128 -213 -286 -302 -454 -39 -74 -69 -126 -66 -115 24 92 50 253 50 310 1 39
4 72 8 75 11 8 14 120 4 150 -5 19 -5 21 3 10 27 -38 6 26 -70 214 -45 111
-82 208 -83 216 -1 8 -35 98 -75 200 -122 306 -118 293 -132 507 -17 288 11
478 89 588 18 26 35 46 36 44 2 -2 -1 -33 -6 -69 -20 -141 20 -270 85 -270 21
0 21 1 -3 13 -44 22 -61 93 -56 230 3 69 10 125 17 133 21 25 56 16 87 -23z
m137 -223 c-8 -25 -41 -26 -53 -2 -5 9 -12 41 -16 70 -4 29 -9 60 -13 70 -3 9
16 -14 41 -51 33 -47 45 -74 41 -87z m215 73 c0 -24 -9 -33 -57 -58 -81 -43
-82 -43 -34 11 37 40 75 72 89 74 1 0 2 -12 2 -27z m46 -50 c-4 -9 -2 -11 6
-7 7 5 9 2 6 -8 -4 -8 -1 -15 7 -15 7 0 11 6 8 14 -3 7 0 13 7 13 6 0 8 5 4
11 -4 8 -9 7 -15 -2 -6 -10 -9 -10 -9 -2 0 23 17 22 38 -2 20 -23 20 -24 2
-40 -12 -11 -20 -13 -25 -5 -11 17 -26 0 -19 -22 4 -14 3 -18 -5 -13 -7 4 -11
14 -10 23 1 10 0 19 -1 22 -7 14 -5 58 3 53 4 -3 6 -12 3 -20z m-196 -82 c0
-5 5 -11 11 -13 6 -2 21 -20 33 -40 11 -19 40 -63 64 -97 53 -76 306 -587 360
-728 l40 -103 -57 0 c-47 0 -122 -20 -201 -53 -31 -13 -259 493 -323 713 -13
45 -34 180 -50 320 -3 23 0 26 25 22 25 -4 31 0 40 26 l12 31 23 -34 c13 -19
23 -38 23 -44z m337 59 c2 -22 -12 -27 -23 -9 -5 9 5 22 21 29 1 0 1 -9 2 -20z
m252 -209 c27 -27 61 -69 74 -93 29 -49 34 -116 10 -125 -10 -4 -11 -8 -3 -13
8 -5 7 -10 -2 -18 -11 -9 -14 -6 -15 10 -1 12 6 27 15 34 9 7 13 16 9 20 -4 5
-12 2 -17 -6 -8 -13 -10 -12 -10 3 0 9 7 17 15 17 23 0 18 18 -10 36 -19 12
-23 20 -15 29 8 9 6 14 -5 19 -9 3 -15 9 -12 13 2 5 -8 19 -21 33 l-24 25 7
-25 c41 -132 44 -182 14 -204 -14 -9 -19 -21 -15 -31 3 -9 2 -13 -4 -10 -6 3
-10 16 -10 28 0 18 -2 20 -11 7 -9 -13 -10 -12 -5 3 3 9 1 17 -4 17 -6 0 -10
-5 -10 -11 0 -6 -6 -9 -12 -6 -13 4 -14 9 -17 52 -1 16 -3 17 -10 5 -6 -8 -7
-18 -4 -24 3 -5 1 -6 -6 -2 -6 4 -8 12 -5 18 13 21 4 118 -16 170 -11 29 -40
79 -64 112 -25 32 -42 64 -39 71 6 17 153 -85 222 -154z m-379 -93 c15 -21 17
-28 6 -19 -16 13 -41 51 -33 51 2 0 14 -15 27 -32z m455 -58 c3 -5 2 -10 -4
-10 -5 0 -13 5 -16 10 -3 6 -2 10 4 10 5 0 13 -4 16 -10z m-375 -72 c0 -10 5
-15 13 -12 21 8 305 -328 394 -466 36 -55 48 -90 83 -229 22 -91 40 -168 40
-173 0 -5 -8 -4 -19 1 -10 6 -49 19 -86 29 l-68 18 -26 80 c-29 84 -56 134
-75 134 -6 1 -26 47 -44 103 -42 127 -110 286 -170 397 -25 47 -58 109 -73
138 l-27 54 29 -28 c16 -15 29 -36 29 -46z m519 -323 c118 -55 235 -158 306
-269 29 -45 35 -64 35 -108 0 -89 -58 -318 -81 -318 -5 0 -28 15 -52 33 -24
19 -73 46 -109 62 l-65 28 -14 106 c-8 58 -13 118 -12 132 3 26 -68 193 -84
200 -20 9 -111 148 -100 153 36 14 125 4 176 -19z m-294 -327 c25 -7 46 -16
46 -20 2 -14 5 -22 23 -61 9 -22 15 -46 13 -55 -3 -12 -5 -10 -6 5 0 12 -5 24
-9 27 -4 2 -6 -11 -4 -29 3 -24 8 -32 18 -28 8 3 14 1 14 -5 0 -6 -29 -10 -75
-9 -41 1 -75 -1 -75 -5 0 -5 -7 -8 -15 -8 -8 0 -15 5 -15 11 0 5 4 8 9 5 5 -3
11 1 15 9 3 8 1 17 -4 20 -5 3 -7 12 -4 19 3 7 -2 19 -11 26 -8 7 -15 8 -15 2
0 -5 -17 -10 -37 -11 -69 -2 -73 -2 -78 -12 -4 -5 2 -12 12 -16 23 -9 43 -28
43 -42 0 -6 -7 -8 -16 -4 -9 3 -20 0 -25 -8 -6 -9 -7 -4 -3 15 4 16 3 27 -2
23 -5 -3 -24 24 -41 59 -18 35 -29 63 -25 62 4 -1 21 4 37 11 72 30 161 37
230 19z m-818 -90 c-3 -8 -6 -5 -6 6 -1 11 2 17 5 13 3 -3 4 -12 1 -19z m703
-31 c0 -5 6 -4 13 2 18 14 30 2 15 -16 -6 -7 -8 -16 -4 -20 3 -3 6 -1 6 6 0 7
5 9 10 6 6 -4 0 -15 -15 -27 -14 -10 -25 -25 -25 -31 0 -7 5 -6 11 3 9 13 10
13 6 0 -2 -8 -10 -14 -16 -12 -6 1 -11 -3 -11 -9 0 -5 -4 -7 -10 -4 -5 3 -7
20 -3 38 7 40 12 45 23 27 8 -13 10 -12 10 3 0 12 -8 17 -25 17 -14 0 -25 6
-25 13 0 7 9 13 20 13 11 0 20 -4 20 -9z m-587 -209 c59 -156 78 -238 57 -238
-8 0 -10 -8 -7 -22 6 -22 1 -70 -28 -275 -8 -56 -15 -127 -15 -157 0 -31 -4
-56 -10 -56 -5 0 -10 3 -10 8 0 4 -23 15 -51 25 l-51 19 6 41 c16 119 46 607
46 766 0 24 2 42 4 40 2 -2 29 -70 59 -151z m557 98 c0 -4 -7 -5 -16 -2 -13 5
-14 3 -6 -7 6 -7 7 -18 3 -26 -7 -11 -10 -9 -15 7 -8 25 14 67 26 49 4 -7 8
-16 8 -21z m-1349 -279 c3 1 3 -11 1 -27 -3 -20 11 -60 49 -137 67 -136 68
-140 24 -73 -36 55 -106 194 -120 238 -6 22 -6 23 17 11 12 -7 26 -13 29 -12z
m235 -16 c28 -13 79 -55 137 -113 77 -77 102 -111 147 -197 64 -122 66 -126
51 -117 -24 15 -9 -12 27 -46 44 -44 148 -108 174 -108 10 0 18 -2 18 -4 0 -2
-15 -45 -34 -94 -46 -120 -96 -323 -99 -400 l-2 -62 -45 51 c-100 115 -164
212 -246 374 -317 628 -346 693 -323 722 24 28 124 25 195 -6z"/>
<path d="M14476 2853 c-6 -14 -5 -15 5 -6 7 7 10 15 7 18 -3 3 -9 -2 -12 -12z"/>
<path d="M14744 2508 c0 -13 6 -26 12 -30 6 -4 10 -22 8 -40 -3 -22 -1 -28 5
-19 5 8 7 21 3 29 -3 10 -1 13 6 8 7 -4 12 -1 12 9 0 9 -4 14 -9 11 -5 -3 -14
8 -20 24 -12 36 -19 39 -17 8z"/>
<path d="M14805 2453 c3 -7 1 -13 -6 -13 -10 0 -10 -3 -2 -11 20 -20 35 -6 18
16 -9 11 -14 14 -10 8z"/>
<path d="M14575 1730 c-4 -6 -10 -8 -14 -5 -5 2 -17 -2 -27 -10 -10 -9 -14
-14 -9 -13 6 1 21 -4 33 -11 13 -7 26 -10 30 -7 3 3 0 6 -5 6 -12 0 -12 18 0
38 5 6 6 12 3 12 -3 0 -8 -5 -11 -10z"/>
<path d="M14800 1711 c0 -6 4 -13 10 -16 6 -3 7 1 4 9 -7 18 -14 21 -14 7z"/>
<path d="M5783 10485 c-9 -20 -8 -25 3 -25 8 0 14 10 14 25 0 31 -2 31 -17 0z"/>
<path d="M3975 9984 c-16 -2 -72 -9 -124 -15 -119 -14 -297 -57 -425 -103
-610 -221 -1140 -753 -1335 -1341 -50 -150 -71 -292 -71 -475 0 -177 14 -265
47 -297 23 -23 29 -24 78 -7 6 2 27 -49 48 -114 91 -278 219 -469 302 -448 33
8 32 25 -1 18 -33 -6 -65 25 -110 104 -19 33 -34 64 -34 68 0 4 18 -8 41 -28
61 -52 106 -70 185 -74 183 -10 454 117 598 280 58 65 131 207 122 236 -11 34
-33 34 -55 -1 -51 -83 -120 -117 -235 -117 -249 1 -587 169 -740 369 -71 92
-78 111 -65 173 56 265 317 457 731 540 151 30 429 33 557 5 130 -28 236 -64
360 -123 120 -57 141 -63 141 -40 0 18 -263 148 -365 181 -241 76 -495 83
-774 23 -260 -55 -469 -166 -589 -311 -43 -53 -112 -178 -112 -204 0 -23 -17
-6 -25 24 -3 15 -11 31 -17 34 -23 14 68 268 150 419 107 197 232 359 418 541
421 410 932 619 1516 619 408 0 686 -100 1006 -361 94 -77 74 -41 -25 46 -300
260 -591 372 -993 380 -96 2 -188 2 -205 -1z m-1846 -1784 c-13 -56 -10 -237
6 -335 11 -69 11 -91 2 -97 -24 -15 -48 -8 -59 20 -23 57 -8 492 20 536 12 20
39 -88 31 -124z m194 -268 c114 -117 264 -208 442 -268 92 -31 128 -38 216
-42 99 -4 111 -3 163 21 31 14 56 23 56 20 0 -17 -87 -118 -139 -161 -209
-174 -481 -249 -614 -168 -89 54 -122 95 -156 191 -51 142 -90 305 -101 426
-15 153 -9 165 42 92 22 -32 63 -82 91 -111z"/>
<path d="M17720 8983 c-19 -3 -37 -8 -40 -11 -3 -4 -35 -15 -72 -24 -98 -25
-224 -94 -284 -156 -70 -72 -21 -85 77 -20 35 23 66 45 69 49 7 9 80 45 110
54 14 4 53 21 88 37 65 30 182 51 237 42 l30 -5 -21 18 c-21 19 -110 26 -194
16z m-164 -98 c-44 -19 -82 -38 -85 -42 -17 -23 -128 -93 -147 -93 -15 0 62
62 101 82 22 11 43 25 46 30 7 11 126 57 149 57 8 1 -21 -15 -64 -34z"/>
<path d="M18723 8960 c-61 -24 -81 -137 -108 -615 -44 -786 -117 -1252 -265
-1696 -138 -412 -356 -811 -632 -1157 -126 -156 -376 -408 -522 -524 -370
-296 -879 -551 -1145 -574 -57 -5 -72 -2 -113 19 -50 25 -62 22 -29 -7 29 -27
90 -45 148 -46 226 -1 680 191 1023 433 562 398 1022 1009 1278 1699 169 454
264 1005 297 1718 23 516 35 644 65 701 9 16 19 20 41 17 33 -5 34 8 3 28 -12
8 -27 9 -41 4z"/>
<path d="M3781 8591 c106 -40 179 -89 287 -195 114 -111 203 -226 356 -460
139 -213 201 -290 329 -412 506 -484 1472 -884 2452 -1016 230 -30 715 -33
895 -5 248 39 545 123 605 172 49 38 22 39 -72 1 -105 -41 -283 -88 -446 -116
-541 -92 -1255 -8 -1982 235 -474 157 -889 364 -1190 590 -231 174 -351 305
-532 578 -68 103 -157 227 -197 275 -163 195 -327 319 -485 366 -89 26 -102
17 -20 -13z"/>
<path d="M14497 8434 c-15 -8 -32 -12 -36 -9 -14 8 -61 -16 -54 -28 3 -6 1 -7
-5 -3 -14 8 -55 -12 -137 -67 -50 -33 -161 -127 -151 -127 1 0 43 17 92 38 49
22 132 54 184 72 90 31 130 53 119 65 -6 5 -97 -29 -239 -89 -80 -34 -83 -35
-55 -10 32 27 112 67 235 116 76 30 120 58 90 58 -8 -1 -27 -8 -43 -16z"/>
<path d="M17436 7874 c-9 -8 -16 -17 -16 -18 0 -6 57 1 69 8 16 10 13 26 -5
26 -8 0 -13 -4 -9 -9 3 -5 0 -13 -6 -17 -7 -4 -9 -3 -5 4 11 18 -11 23 -28 6z"/>
<path d="M17449 7693 c-1 -5 -1 -11 0 -15 0 -5 -3 -8 -9 -8 -5 0 -10 -8 -10
-17 0 -12 3 -14 10 -7 11 11 22 54 14 54 -2 0 -5 -3 -5 -7z"/>
<path d="M15124 7668 c0 -10 1 -18 3 -18 1 0 7 8 12 18 7 13 6 19 -2 19 -7 0
-13 -9 -13 -19z"/>
<path d="M14950 7650 c0 -5 7 -7 15 -4 8 4 15 8 15 10 0 2 -7 4 -15 4 -8 0
-15 -4 -15 -10z"/>
<path d="M15075 7640 c-4 -6 -12 -7 -18 -4 -9 5 -9 4 0 -6 9 -10 15 -10 28 4
9 9 12 16 6 16 -5 0 -13 -5 -16 -10z"/>
<path d="M15246 7635 c25 -19 40 -19 24 0 -7 8 -20 15 -28 15 -13 0 -12 -3 4
-15z"/>
<path d="M15000 7630 c20 -13 40 -13 40 0 0 6 -12 10 -27 10 -22 0 -25 -2 -13
-10z"/>
<path d="M15110 7630 c-13 -8 -12 -10 3 -10 9 0 17 5 17 10 0 12 -1 12 -20 0z"/>
<path d="M15327 7626 c-3 -8 4 -18 17 -24 21 -9 22 -8 18 14 -5 26 -27 32 -35
10z"/>
<path d="M15370 7629 c0 -5 5 -7 10 -4 6 3 10 8 10 11 0 2 -4 4 -10 4 -5 0
-10 -5 -10 -11z"/>
<path d="M17426 7617 c3 -10 9 -15 12 -12 3 3 0 11 -7 18 -10 9 -11 8 -5 -6z"/>
<path d="M14647 7609 c-9 -6 -15 -14 -12 -20 9 -14 25 -11 25 6 0 16 25 21 34
6 3 -5 15 -7 26 -4 27 7 22 11 -21 18 -19 2 -42 0 -52 -6z"/>
<path d="M15380 7599 c0 -5 5 -7 10 -4 6 3 10 8 10 11 0 2 -4 4 -10 4 -5 0
-10 -5 -10 -11z"/>
<path d="M14598 7593 c-25 -6 -23 -33 2 -33 13 0 20 7 20 20 0 11 -1 19 -2 19
-2 -1 -11 -3 -20 -6z"/>
<path d="M14640 7550 c0 -5 7 -7 15 -4 8 4 15 8 15 10 0 2 -7 4 -15 4 -8 0
-15 -4 -15 -10z"/>
<path d="M14576 7525 c-4 -11 -13 -14 -32 -9 -19 5 -25 4 -20 -5 9 -14 56 -15
56 -1 0 6 9 10 21 10 11 0 17 5 14 10 -9 15 -32 12 -39 -5z"/>
<path d="M14720 7530 c0 -5 5 -10 11 -10 5 0 7 5 4 10 -3 6 -8 10 -11 10 -2 0
-4 -4 -4 -10z"/>
<path d="M14635 7490 c-2 -3 0 -12 4 -19 6 -10 10 -9 15 4 3 9 10 13 16 10 5
-3 10 -2 10 4 0 10 -39 11 -45 1z"/>
<path d="M14560 7464 c0 -8 7 -22 15 -30 19 -19 21 -41 2 -26 -10 8 -13 6 -13
-7 0 -21 23 -24 31 -4 3 8 1 22 -4 31 -5 9 -7 25 -6 35 2 9 -3 17 -11 17 -8 0
-14 -7 -14 -16z"/>
<path d="M14522 7314 c-2 -25 12 -32 24 -12 5 7 3 8 -6 3 -8 -5 -11 -3 -8 6 3
8 12 13 19 11 8 -2 10 0 6 4 -16 17 -33 11 -35 -12z"/>
<path d="M14420 7309 c0 -5 5 -7 10 -4 6 3 10 8 10 11 0 2 -4 4 -10 4 -5 0
-10 -5 -10 -11z"/>
<path d="M14066 7114 c-31 -25 -56 -49 -56 -55 0 -12 1 -12 67 12 75 28 96 45
82 70 -15 28 -32 24 -93 -27z"/>
<path d="M14148 7031 c-29 -27 -50 -52 -46 -56 8 -8 115 31 135 49 10 9 10 16
-3 34 -8 12 -19 22 -24 22 -5 0 -33 -22 -62 -49z"/>
<path d="M16490 6167 c-68 -24 -107 -30 -197 -35 -62 -2 -113 -8 -113 -12 0
-16 149 -21 218 -6 83 17 184 56 190 74 5 15 4 15 -98 -21z"/>
<path d="M15018 2983 c6 -2 10 -8 7 -13 -3 -4 5 -6 17 -2 21 5 21 6 2 13 -10
4 -23 8 -29 8 -5 -1 -4 -3 3 -6z"/>
<path d="M8416 2415 c-12 -9 -42 -15 -78 -15 -62 0 -68 -6 -43 -44 21 -32 10
-56 -26 -56 -22 0 -32 7 -41 25 -10 22 -8 29 12 50 18 19 20 25 8 25 -44 0
-63 -75 -28 -110 44 -44 126 -9 118 51 -4 23 -1 29 14 29 24 0 70 24 87 44 17
20 2 20 -23 1z"/>
<path d="M7962 2228 c5 -14 258 -129 269 -122 20 12 7 32 -31 49 -82 37 -22
63 70 30 50 -18 50 -18 50 -5 0 14 -72 49 -118 56 -35 5 -44 3 -67 -20 l-27
-27 -64 25 c-71 29 -88 32 -82 14z"/>
<path d="M8012 2088 c-27 -27 4 -100 51 -119 24 -10 27 -16 23 -38 -6 -26 -6
-26 11 -6 16 19 22 20 58 9 51 -16 92 -17 101 -3 9 15 -7 24 -71 38 l-52 12 5
46 c4 37 1 49 -13 60 -23 16 -97 17 -113 1z m72 -18 c20 -7 26 -16 26 -40 0
-36 -16 -39 -54 -9 -28 22 -34 44 -13 52 6 3 13 6 14 6 1 1 13 -3 27 -9z"/>
<path d="M7824 1962 c4 -7 26 -22 48 -33 68 -35 265 -109 289 -109 40 0 7 19
-92 54 -78 27 -160 60 -238 93 -9 4 -12 2 -7 -5z"/>
<path d="M7934 1785 c-10 -15 -14 -34 -10 -48 9 -39 45 -77 71 -77 30 0 59 41
50 68 -5 16 1 21 31 29 58 13 51 28 -11 25 -38 -3 -61 1 -77 12 -30 21 -35 20
-54 -9z m74 -69 c2 -18 -1 -26 -12 -26 -18 0 -36 30 -36 61 0 20 1 20 23 7 12
-9 23 -27 25 -42z"/>
<path d="M7800 1706 c0 -22 17 -28 24 -10 9 22 8 24 -9 24 -8 0 -15 -6 -15
-14z"/>
<path d="M8899 1650 c-73 -42 23 -483 201 -930 133 -333 318 -720 345 -720 11
0 3 22 -29 83 -112 206 -305 662 -384 907 -99 305 -151 609 -108 626 31 12 95
-43 421 -365 638 -630 1314 -1251 1363 -1251 20 0 15 8 -35 53 -499 456 -732
677 -1123 1062 -415 409 -514 501 -559 525 -44 22 -67 24 -92 10z"/>
<path d="M7892 1638 c5 -15 126 -61 142 -55 12 5 -111 67 -132 67 -8 0 -12 -6
-10 -12z"/>
<path d="M7690 1562 c0 -9 117 -99 170 -131 67 -40 98 -13 40 36 -31 26 -40
63 -16 63 24 0 64 -57 71 -101 9 -52 25 -34 25 30 0 82 -97 144 -145 91 -10
-11 -15 -28 -12 -40 4 -16 -5 -13 -51 20 -53 38 -82 49 -82 32z"/>
<path d="M7770 1420 c50 -26 107 -87 94 -100 -7 -7 -22 -2 -48 15 -59 40 -80
26 -29 -21 33 -31 67 -40 99 -25 51 23 14 93 -71 132 -55 25 -92 25 -45 -1z"/>
<path d="M7687 1294 c-25 -25 13 -125 62 -167 39 -32 69 -34 105 -6 29 23 36
78 13 97 -10 9 -16 1 -25 -33 -9 -33 -17 -45 -30 -45 -32 0 -79 64 -91 124 -7
30 -21 42 -34 30z"/>
</g>
</svg>
