<svg width="2336" height="2190" viewBox="0 0 2336 2190" fill="none" xmlns="http://www.w3.org/2000/svg">
	<g id="Group 1">
		<path id="Vector" d="M2192.2 7.46652C2187.53 17.4665 2186.47 19.3332 2185.53 19.3332C2185 19.3332 2183.27 22.1332 2181.53 25.5999C2179.93 29.1999 2178.07 32.2665 2177.67 32.6665C2177.13 33.0665 2175.67 35.4665 2174.2 37.9999C2172.87 40.5332 2170.87 43.1999 2170.07 43.7332C2169.13 44.2665 2168.33 45.5999 2168.33 46.5332C2168.33 47.5999 2167.53 49.0665 2166.47 49.8665C2165.4 50.7999 2163.53 53.4665 2162.33 55.9999C2161.13 58.5332 2159.67 60.6665 2159 60.6665C2158.2 60.6665 2157.67 61.4665 2157.67 62.5332C2157.67 63.5999 2156.87 65.3332 2156.07 66.2665C2153.67 68.6665 2143.8 83.4666 2142.73 86.2666C2142.2 87.5999 2141.13 88.6666 2140.33 88.6666C2139.67 88.6666 2139 89.5999 2139 90.6666C2139 91.8666 2138.07 93.0666 2137 93.4666C2135.93 93.9999 2135 94.7999 2135 95.4666C2135 96.2666 2132.6 99.9999 2129.67 104C2126.73 108 2124.33 111.733 2124.33 112.533C2124.33 113.2 2123.4 114 2122.33 114.533C2121.27 114.933 2120.33 116.133 2120.33 117.2C2120.33 118.133 2119.4 119.333 2118.33 119.867C2117.27 120.267 2116.33 121.467 2116.33 122.533C2116.33 123.467 2115.4 124.8 2114.2 125.2C2113.13 125.6 2112.6 126.533 2113 127.333C2113.4 128.133 2112.87 129.067 2111.8 129.467C2110.6 129.867 2109.67 131.2 2109.67 132.133C2109.67 133.2 2108.73 134.4 2107.67 134.8C2106.6 135.333 2105.67 136.533 2105.67 137.467C2105.67 138.533 2104.73 139.733 2103.67 140.133C2102.6 140.667 2101.67 141.867 2101.67 142.8C2101.67 143.867 2100.73 145.067 2099.67 145.467C2098.6 146 2097.67 147.2 2097.67 148.133C2097.67 149.2 2096.73 150.4 2095.67 150.8C2094.6 151.333 2093.67 152.4 2093.67 153.467C2093.67 154.4 2092.73 155.733 2091.53 156.4C2090.33 157.067 2089.67 157.867 2089.93 158.133C2090.6 158.933 2081.4 171.333 2080.07 171.333C2079.53 171.333 2079 172.267 2079 173.333C2079 174.533 2078.07 175.733 2077 176.133C2075.93 176.667 2075 177.867 2075 178.8C2075 179.867 2074.07 181.067 2073 181.467C2071.93 182 2071.4 182.8 2071.8 183.467C2072.2 184.133 2071.53 185.067 2070.47 185.467C2069.27 185.867 2068.33 187.2 2068.33 188.133C2068.33 189.2 2067.4 190.4 2066.33 190.8C2065.27 191.333 2064.33 192.533 2064.33 193.467C2064.33 194.533 2063.4 195.733 2062.33 196.133C2061.27 196.667 2060.33 197.733 2060.33 198.667C2060.33 199.6 2059.4 200.667 2058.33 201.2C2057.27 201.6 2056.33 202.533 2056.33 203.2C2056.33 204 2054.87 206.133 2053 208.133C2051.13 210.133 2049.67 212.533 2049.67 213.467C2049.67 214.533 2049.13 215.333 2048.6 215.333C2047.93 215.333 2044.87 218.933 2041.67 223.333C2038.47 227.733 2035.4 231.333 2034.73 231.333C2034.2 231.333 2033.67 232.267 2033.67 233.333C2033.67 234.533 2032.73 235.733 2031.67 236.133C2030.6 236.667 2029.67 237.467 2029.67 238.133C2029.67 238.667 2028.2 240.8 2026.33 242.8C2024.47 244.8 2023 246.933 2023 247.467C2023 248.133 2021.93 249.733 2020.73 251.067C2019.4 252.4 2015.93 256.267 2013 259.867C2010.07 263.467 2006.33 267.867 2004.6 269.867C2002.87 271.733 1999.93 275.6 1998.07 278.267C1996.2 281.067 1994.07 283.333 1993.53 283.333C1992.87 283.333 1992.33 283.867 1992.33 284.667C1992.33 285.333 1991.27 287.067 1990.07 288.4C1988.73 289.733 1985 294 1981.67 298C1978.33 301.867 1974.33 306.533 1972.73 308.133C1971 309.867 1969.67 311.6 1969.67 312C1969.67 312.4 1968.6 313.733 1967.4 315.067C1966.07 316.4 1961.67 321.333 1957.67 326C1953.67 330.667 1948.33 336.533 1946.07 339.067C1943.67 341.467 1941.67 344.133 1941.67 344.8C1941.67 345.467 1941.13 346 1940.33 346C1939.67 346 1939 346.8 1939 347.867C1939 348.933 1937.8 350.267 1936.33 350.667C1934.87 351.2 1933.93 352.133 1934.33 352.8C1934.87 353.467 1934.2 354.4 1933.13 354.8C1931.93 355.2 1931 356.133 1931 356.8C1931 357.467 1929.93 359.067 1928.73 360.4C1926.6 362.4 1920.87 369.2 1913.4 378.533C1912.07 380 1910.47 382 1909.67 382.933C1909 383.867 1908.33 384.933 1908.33 385.467C1908.33 385.867 1906.6 388.533 1904.6 391.2C1902.47 393.867 1899.67 398.133 1898.2 400.667C1896.87 403.2 1894.73 406 1893.67 406.933C1892.6 407.867 1892.2 408.667 1892.87 408.667C1893.53 408.667 1893.13 409.6 1892.2 410.8C1891.27 412 1890.33 413.6 1890.07 414.533C1889.93 415.733 1884.2 431.333 1883.67 432.267C1883.53 432.4 1873.93 428.8 1862.2 424.133C1817.8 406.533 1765.67 389.067 1727.4 379.2C1709.67 374.533 1704.73 373.867 1688.73 373.333C1678.6 373.067 1660.2 372.133 1647.67 371.467C1580.07 367.333 1488.6 372.933 1428.33 384.8C1392.73 391.867 1359.27 401.867 1332.33 413.6L1315.67 420.933L1311 418.533C1308.47 417.2 1304.73 415.067 1302.87 413.733C1301 412.533 1299 411.733 1298.6 412.267C1298.07 412.667 1297 412.4 1296.07 411.6C1293.27 409.333 1281.93 403.333 1280.47 403.333C1279.67 403.333 1276.07 401.6 1272.33 399.333C1268.73 397.2 1265.67 395.733 1265.67 396C1265.67 396.4 1263.13 395.333 1260.07 393.733C1256.87 392 1253.8 390.667 1253 390.667C1252.33 390.667 1251.13 390.267 1250.33 389.733C1246.2 387.2 1236.2 381.867 1235.4 381.733C1233.13 381.467 1230.2 380.133 1226.87 377.867C1225 376.533 1223 375.733 1222.6 376.133C1222.2 376.667 1219.53 375.6 1216.73 373.867C1213.93 372.133 1211 370.667 1210.2 370.667C1209.4 370.667 1206.2 369.333 1202.87 367.733C1195.93 364.267 1183.93 358.8 1183 358.533C1182.6 358.533 1179.93 357.333 1177 356C1174.07 354.8 1171.4 353.733 1171 353.733C1170.6 353.733 1168.87 352.933 1167 352C1165.13 350.933 1159.8 348.533 1155 346.667C1150.2 344.667 1144.33 342.133 1141.93 340.933C1139.4 339.733 1136.2 338.667 1134.73 338.4C1133.27 338.133 1130.47 337.2 1128.47 336.133C1126.6 335.067 1122.33 333.2 1119 332C1115.67 330.667 1110.33 328.4 1107 326.933C1103.67 325.467 1099 323.333 1096.73 322.4C1094.33 321.467 1090.47 319.733 1088.07 318.8C1078.07 314.533 1071.67 312 1071 312C1070.6 311.867 1069.13 311.2 1067.53 310.4C1066.07 309.467 1063.27 308.533 1061.53 308.133C1059.8 307.733 1055 306.267 1051 304.667C1047 303.067 1042.2 301.6 1040.47 301.2C1038.73 300.8 1036.2 300 1034.73 299.2C1033.4 298.533 1032.33 298.267 1032.33 298.667C1032.33 299.067 1029.93 298.133 1027 296.667C1024.07 295.2 1021.67 294.267 1021.67 294.667C1021.67 294.933 1020.07 294.667 1018.07 293.867C1015.93 293.067 1013.13 292.133 1011.67 291.867C1010.2 291.6 1006.33 290.8 1003 290C999.667 289.2 995.8 288.267 994.333 288C981.667 285.2 978.867 284.267 980.333 283.333C982.467 282 978.733 281.2 962.333 279.333C955.8 278.533 943.8 276.8 935.667 275.333C902.067 269.467 888.467 268.267 858.2 268.533C842.067 268.667 827.133 269.2 824.867 269.867C819.267 271.333 819 275.867 824.333 279.2C826.733 280.533 830.733 285.6 833.667 290.533C836.467 295.333 839.8 300.267 840.867 301.467C842.067 302.533 843 304.267 843 305.2C843 306 843.933 308 845 309.333C847.133 312.133 853.533 322.267 860.2 333.333C870.2 350.267 871.667 352.667 872.467 352.667C873 352.667 876.467 358.133 880.333 364.667C884.2 371.333 888.067 377.2 889 377.733C889.933 378.267 891.933 381.067 893.533 384C895.133 386.933 897.8 391.733 899.533 394.667C901.267 397.6 905 404.133 907.667 409.333C910.333 414.4 913.267 419.333 914.2 420C915 420.8 917.4 424.667 919.4 428.8C921.4 432.933 924.2 437.467 925.4 438.8C926.733 440.267 929.8 444.933 932.2 449.333C934.733 453.733 938.067 458.8 939.667 460.667C941.267 462.533 944.6 467.467 946.867 471.6C949.267 475.867 951.667 479.333 952.333 479.333C953 479.333 955.4 482.8 957.8 486.933C960.2 491.2 963.133 495.6 964.333 496.667C965.533 497.733 968.2 501.2 970.2 504.4C972.2 507.6 975.267 511.867 977 513.733C978.733 515.733 982.067 520.133 984.6 523.6C995 538.133 998.467 542.8 1001.8 546C1003.67 547.867 1007 552.133 1009.4 555.6C1011.67 558.933 1015.27 563.467 1017.27 565.6C1022.2 570.8 1035.93 587.333 1049.67 604.667C1055.8 612.4 1066.2 624.933 1072.87 632.4C1079.53 640 1087 648.533 1089.4 651.333L1093.8 656.533L1085.4 668.267C1070.87 688.933 1050.33 715.6 1037.27 730.667C1020.47 750.267 986.867 782.8 969.667 796.133C907 844.933 828.333 879.067 745.667 893.6C730.467 896.267 720.2 897.067 697 897.6C663.133 898.4 642.467 896.133 610.067 888C586.333 882 553.533 871.333 554.467 869.867C554.867 869.2 553.667 868.667 551.8 868.667C547.4 868.667 523.667 858.267 508.733 849.733C493.667 841.067 484.867 834.533 471.267 821.467C465.267 815.733 460.333 811.467 460.333 812.133C460.333 814.533 483.533 838.267 492.467 844.8C497.533 848.667 501.667 852 501.667 852.267C501.667 853.733 480.867 838 469 827.6C454.067 814.533 440.067 797.867 434.333 786.533C427 772.133 428.467 758.533 438.067 752.533C441.667 750.267 444.067 749.867 452.467 750.4C460.867 750.8 464.2 751.733 473.8 756.4C479.933 759.333 489.533 765.067 495.133 768.933L505.133 776L493.4 775.6C467.4 774.533 449.933 786.267 453.667 802.133C454.733 806.4 454.733 806.4 454.867 800.133C455 794.8 455.667 793.067 459.4 789.333C465.267 783.467 475.133 780.667 489.933 780.667C505.933 780.667 513 782.533 517 788C518.867 790.267 520.333 792.933 520.333 793.733C520.333 794.533 521 795.6 521.8 796C522.733 796.667 523 795.067 522.6 790.933C521.933 785.467 520.867 784 511 774.4C495.933 760 490.867 756.667 465.133 743.867C410.733 716.8 364.067 710.267 333 725.333C316.733 733.2 301.133 749.733 291.667 769.333C284.467 784 281.8 793.867 280.867 808.667C280.067 820.533 282.733 838.4 285.8 841.2C287 842.267 287.133 841.867 286.467 839.333C285.933 837.467 285.267 830.8 284.733 824.533C282.333 789.867 306.467 747.2 337.667 731.333C348.2 726 358.6 724.4 377.667 725.067C397.8 725.733 414.2 729.333 436.333 737.733L449 742.533L443.267 743.6C430.333 745.733 423 754.533 423 767.867C423 782.667 431.8 797.733 452.867 818.8C476.733 842.667 503.533 860.533 527.8 868.533C534.333 870.667 545.133 874.8 551.667 877.733C578.2 889.333 618.467 901.067 645.667 905.2C698.467 913.333 759.267 906 824.867 883.733C870.067 868.4 905.267 851.333 943 826.667C995.4 792.267 1039 747.333 1086.6 678.8C1092.73 670.133 1097.67 663.733 1097.67 664.8C1097.67 666.133 1098.07 666.133 1099.27 664.933C1100.47 663.733 1104.33 666.8 1116.2 678.4C1132.87 694.667 1145 705.067 1152.73 709.867C1162.6 716 1160.33 711.6 1147.67 700C1118.07 672.8 1109.53 664.667 1094.07 648.267C1085 638.8 1077.93 630.533 1078.33 630C1078.73 629.467 1078.07 628.133 1076.87 627.2C1075.67 626.267 1071 620.933 1066.47 615.333C1062.07 609.867 1056.2 603.2 1053.67 600.667C1051.13 598.133 1046.6 593.067 1043.67 589.467C1040.73 585.867 1036.47 581.067 1034.2 578.8C1032.07 576.533 1028.73 572.533 1027 570C1025.27 567.467 1021.4 562.533 1018.47 559.2C1015.4 555.733 1009.67 548.667 1005.67 543.333C1001.67 538.133 997.667 533.067 997 532.267C996.2 531.333 993.667 527.867 991.267 524.4C988.867 521.067 986.2 517.467 985.267 516.4C984.333 515.467 982.333 512.8 981 510.667C979.533 508.4 975.667 503.067 972.333 498.533C969 494.133 965.4 489.067 964.333 487.333C963.267 485.733 961.133 482.667 959.667 480.8C954.6 474.267 951.533 469.333 944.2 456.667C940.333 449.733 936.067 442.933 934.867 441.6C933.533 440.133 930.733 435.6 928.333 431.2C926.067 426.933 923.667 423.333 923.133 423.333C922.6 423.333 920.867 420.533 919.133 417.067C917.4 413.6 914.333 408.667 912.333 406C910.333 403.467 906.333 397.067 903.533 392C900.733 386.8 897.933 382.4 897.267 382.133C896.6 381.867 895 379.2 893.8 376.133C892.467 373.2 889.267 367.867 886.6 364.4C884.067 361.067 882.333 357.733 882.733 357.2C883.267 356.667 883 356.667 882.067 357.2C881 357.733 879.667 356.4 878.2 353.733C877 351.333 871.667 342.667 866.333 334.667C861.133 326.533 855.133 316.933 853 313.333C851 309.6 848.6 306 847.8 305.333C846.867 304.533 844.2 300.4 841.8 296C835.933 285.6 833.133 282 828.333 279.067C826.067 277.733 824.333 276.133 824.333 275.333C824.333 273.6 861.667 273.6 872.333 275.333C876.333 276 882.733 276.933 886.333 277.333C897.933 278.8 900.467 279.333 901.667 280C902.333 280.4 909.4 281.067 917.267 281.467C925.133 281.867 936.333 283.067 941.933 284.133C947.667 285.2 952.867 285.867 953.533 285.467C954.2 284.933 955 285.333 955.267 286.133C955.533 287.067 958.467 287.6 961.667 287.6C965 287.6 969.8 288.133 972.333 288.8C975 289.467 984.2 291.2 993 292.667C1016.2 296.533 1035.53 302.267 1054.07 310.8C1063 314.933 1076.2 320.267 1083.4 322.8C1103.4 329.867 1176.47 362.133 1210.07 378.8C1219.4 383.333 1227 386.933 1227 386.533C1227 386.267 1230.33 387.867 1234.33 390.133C1238.33 392.4 1241.67 393.867 1241.67 393.467C1241.67 393.067 1244.73 394.533 1248.33 396.667C1252.07 398.933 1256.07 400.667 1257.13 400.667C1258.33 400.667 1260.87 401.733 1262.73 403.067C1265.93 405.2 1270.33 407.467 1272.33 407.867C1273 408 1281.8 412 1291 416.4C1293.53 417.6 1297.4 419.733 1299.4 421.067C1301.53 422.533 1303.53 423.333 1303.93 422.8C1304.33 422.4 1306.33 423.2 1308.2 424.533C1310.07 425.733 1315.93 428.933 1321 431.467C1326.2 433.867 1333.27 437.6 1336.73 439.6C1340.2 441.733 1343.67 443.333 1344.47 443.333C1345.13 443.333 1349.13 445.467 1353.13 448C1357.13 450.533 1360.87 452.667 1361.53 452.667C1362.73 452.667 1368.73 455.733 1374.33 459.333C1376.6 460.8 1379.27 462.4 1380.33 462.8C1381.4 463.333 1383.13 464.4 1384.2 465.2C1385.13 465.867 1386.73 466.667 1387.53 466.8C1388.47 466.933 1394.33 470.133 1400.47 474C1406.6 477.867 1412.33 481.067 1413.13 481.2C1415 481.467 1437.4 494.933 1440.73 497.733C1441.93 498.8 1443.4 499.333 1443.93 498.933C1444.33 498.4 1445.67 498.8 1446.73 499.6C1447.8 500.533 1449.67 501.867 1451.13 502.667C1452.47 503.333 1458.87 507.2 1465.27 511.067C1473.67 516.267 1477.53 517.867 1478.87 517.067C1481.67 515.333 1482.33 512.667 1479.93 512.667C1479 512.667 1477 511.467 1475.67 510C1474.33 508.533 1472.47 507.333 1471.67 507.333C1470.73 507.333 1469.27 506.4 1468.33 505.333C1467.4 504.267 1466.2 503.733 1465.53 504.133C1464.87 504.533 1462.73 503.733 1460.73 502.267C1458.6 500.933 1455.13 498.533 1452.73 496.933C1450.33 495.333 1447.93 494 1447.27 494C1446.6 494 1445 492.8 1443.67 491.333C1442.33 489.867 1440.6 488.667 1439.93 488.667C1439.13 488.667 1437.53 487.733 1436.2 486.533C1435 485.467 1433.13 484.4 1432.07 484.133C1431.13 484 1425.93 481.2 1420.6 478C1415.27 474.667 1409.8 471.333 1408.6 470.667C1407.4 469.867 1405.4 468.8 1404.33 468C1403.27 467.333 1401.67 466.667 1400.73 466.533C1399.8 466.4 1396.33 464.4 1393 462.133C1389.67 459.867 1386.33 458 1385.8 458C1385.13 458 1383.93 457.067 1383 456C1382.07 454.933 1380.6 454 1379.53 454C1377.8 454 1362.47 445.467 1358.73 442.267C1357.53 441.2 1355.93 440.8 1355.27 441.2C1354.6 441.6 1353.27 441.067 1352.33 440C1351.4 438.933 1350.2 438 1349.53 438C1348.87 438 1345.13 435.867 1341.13 433.333C1337.27 430.8 1333.67 429.067 1333.27 429.467C1332.87 430 1331.13 429.333 1329.67 428.267C1326.73 426.267 1326.73 426.133 1332.33 423.333C1340.47 419.2 1365.53 409.6 1379.27 405.467C1446.07 385.2 1545.27 374.667 1638.47 378C1694.33 380 1733.27 386.267 1771.53 399.333C1778.2 401.467 1784.87 403.333 1786.6 403.333C1790.47 403.333 1819.93 413.867 1854.73 427.6C1876.33 436.133 1882.07 439.067 1883 441.333C1884.6 445.467 1887.67 447.333 1886.33 443.467C1885.93 442 1885.8 440.667 1886.2 440.667C1888.47 440.667 1934.2 461.733 1958.33 474C2038.07 514.4 2098.33 557.2 2155 614C2207 665.867 2247.8 721.6 2279.67 784.4C2304.33 832.667 2319.93 877.867 2326.6 920.667C2329.93 942 2329.93 1003.33 2326.6 1026.67C2320.87 1066.93 2311.27 1100.67 2297.8 1128C2285.93 1152 2285.8 1152.13 2285.67 1135.6C2285.67 1112 2279.67 1088.53 2267.27 1064C2260.6 1050.67 2255.8 1043.2 2250.33 1037.6C2244.6 1031.87 2243.53 1033.33 2249 1039.6C2259.4 1051.87 2275 1089.6 2279.53 1114C2281.8 1125.6 2282.73 1147.33 2281.13 1149.87C2280.6 1150.67 2279 1151.33 2277.53 1151.33C2276.2 1151.33 2275 1151.87 2275 1152.67C2275 1154 2277.8 1154.53 2281.53 1154C2283.27 1153.87 2283.27 1154.13 2281.8 1155.87C2280.73 1157.07 2280.33 1158.4 2280.73 1158.8C2281.67 1159.87 2297 1136.53 2302.6 1125.47C2315.53 1099.73 2326.87 1062.13 2332.6 1025.87C2335.13 1009.33 2335.53 1001.33 2335.67 968C2335.67 925.867 2334.73 916.267 2327 884.667C2308.2 808 2254.47 710.933 2192.87 642.533L2183.27 631.867L2181 618.667C2179.8 611.467 2177.93 602.8 2176.87 599.467C2175.93 596.133 2175.4 593.067 2175.8 592.667C2176.2 592.267 2180.2 591.733 2184.73 591.333C2190.87 590.8 2193 590.133 2193 588.667C2193 586.267 2195.53 583.333 2197.53 583.333C2198.33 583.333 2199 582.667 2199 582C2199 581.2 2199.8 580.667 2200.73 580.667C2201.53 580.667 2203.4 579.067 2204.87 577.2C2207.27 573.867 2207.27 573.6 2204.33 563.2C2202.6 557.467 2200.87 552.667 2200.47 552.667C2200.07 552.667 2198.47 550 2197 546.667C2195.53 543.333 2193.93 540.667 2193.4 540.667C2192.73 540.667 2192.33 539.733 2192.33 538.667C2192.33 537.6 2191.8 536.667 2191 536.667C2190.33 536.667 2189.67 535.467 2189.67 534C2189.67 532.533 2189.13 531.333 2188.33 531.333C2187.67 531.333 2187 530.4 2187 529.333C2187 528.267 2186.47 527.333 2185.67 527.333C2185 527.333 2184.33 526.533 2184.33 525.6C2184.33 524.667 2182.73 521.6 2180.73 518.667C2178.47 515.333 2177.8 513.333 2178.73 512.933C2181.8 512 2180.47 508.933 2177.4 509.6L2174.33 510.4L2177.27 507.467C2178.87 506 2180.6 504.667 2181.13 504.667C2182.2 504.667 2196.6 489.733 2200.73 484.267C2202.33 482.133 2204.33 479.733 2205 478.933C2205.8 478 2207.53 475.2 2208.73 472.667C2210.07 470.133 2212.47 465.733 2213.93 463.067C2216.47 458.533 2216.6 454 2214.07 454C2213.53 454 2211.27 457.733 2209 462.4C2206.87 466.933 2204.2 471.2 2203.4 471.733C2202.47 472.267 2201.67 473.333 2201.67 474C2201.67 474.8 2200.6 476.4 2199.4 477.733C2198.07 479.067 2194.2 483.333 2190.73 487.067C2187.27 490.933 2183.93 494 2183.4 494.133C2182.87 494.133 2180.07 496.933 2177.27 500.267C2172.6 505.733 2172.33 506.8 2172.87 512.8C2173.13 516.4 2174.73 521.867 2176.33 524.933C2178.07 528.133 2181.53 534.8 2184.2 540C2186.87 545.067 2189.27 549.6 2189.67 550C2191.13 551.467 2196.2 562.933 2197 566.8C2197.67 570.4 2197.13 571.733 2193 575.867C2190.47 578.533 2188.33 581.2 2188.33 581.867C2188.33 582.533 2185.13 583.333 2181.13 583.6C2172.33 584.267 2167 587.467 2167 592C2167 594.667 2171.4 607.867 2177.13 622.667C2177.67 624.133 2168.6 616 2156.87 604.667C2090.2 539.867 2012.87 489.333 1914.33 446C1900.47 440 1888.73 434.8 1888.47 434.533C1887.93 434 1896.2 417.867 1902.2 408.133C1904.87 403.733 1907 399.467 1907 398.667C1907 397.733 1908.07 395.867 1909.4 394.267C1910.6 392.8 1913 389.733 1914.6 387.6C1916.2 385.467 1919.13 382.133 1921 380.133C1922.87 378.133 1924.33 376.133 1924.33 375.733C1924.33 375.333 1926.2 373.2 1928.33 371.067C1930.6 369.067 1932.33 366.8 1932.33 366.133C1932.33 365.467 1933.27 364.533 1934.47 364.133C1935.53 363.733 1936.2 362.8 1935.67 362.133C1935.27 361.467 1936.2 360.533 1937.67 360C1939.13 359.6 1940.33 358.533 1940.33 357.867C1940.33 357.067 1942.73 354.133 1945.67 351.2C1948.6 348.267 1951 345.6 1951 345.2C1951 344.933 1952.87 342.8 1955 340.667C1957.27 338.533 1959 336.533 1959 336.133C1959 335.867 1961.53 332.933 1964.73 329.6C1973.13 320.533 1977.67 315.333 1977.67 314.533C1977.67 314.267 1979.53 312.133 1981.67 310C1983.93 307.867 1985.67 305.867 1985.67 305.467C1985.67 304.933 1992.47 297.067 2001.4 287.733C2003.67 285.2 2005.67 282.667 2005.67 282C2005.67 281.467 2006.6 280.533 2007.8 280.133C2009 279.6 2009.8 278.933 2009.4 278.533C2008.73 278 2012.47 273.067 2018.07 267.2C2019.27 265.733 2020.33 264.4 2020.33 264C2020.33 263.6 2021.4 262.267 2022.73 260.933C2025.8 257.733 2032.47 249.733 2035.67 245.2C2037.13 243.067 2039.4 240.4 2040.73 239.067C2041.93 237.733 2043 236.267 2043 235.867C2043 235.467 2043.8 234.267 2044.73 233.333C2047.53 230.133 2049 228.267 2059.27 214.667C2078.6 188.933 2099 160.533 2099 159.2C2099 158.533 2099.67 158 2100.33 158C2101.13 158 2102.2 156.933 2102.6 155.6C2103.4 153.733 2109.67 144.533 2113.4 139.867C2114.07 139.2 2115.4 137.067 2116.33 135.333C2117.27 133.467 2118.87 131.2 2119.93 130.267C2120.87 129.333 2121.67 127.6 2121.67 126.533C2121.67 125.467 2122.33 124.667 2123 124.667C2123.8 124.667 2125 123.2 2125.67 121.333C2126.33 119.467 2127.53 118 2128.33 118C2129 118 2129.67 117.2 2129.67 116.133C2129.67 115.2 2130.47 113.6 2131.53 112.8C2132.6 111.867 2134.47 109.2 2135.67 106.667C2136.87 104.133 2138.33 102 2139 102C2139.8 102 2140.33 101.2 2140.33 100.267C2140.33 99.4666 2142.2 96.2666 2144.33 93.4666C2146.6 90.5333 2148.33 87.3333 2148.33 86.3999C2148.33 85.4666 2148.87 84.6666 2149.4 84.6666C2150.07 84.6666 2151.67 82.2666 2153.13 79.3333C2154.47 76.3999 2156.07 73.9999 2156.6 73.9999C2157.13 73.9999 2158.87 71.3333 2160.33 68.1333C2161.8 64.9333 2163.4 61.9999 2163.93 61.7332C2164.6 61.5999 2166.47 58.6665 2168.2 55.3332C2170.07 51.9999 2171.8 49.0665 2172.33 48.6665C2172.73 48.2665 2174.2 45.8665 2175.53 43.3332C2176.73 40.7999 2180.47 33.8665 2183.67 27.9999C2188.87 18.3999 2196.2 4.26652 2197.4 1.59985C2197.67 1.06652 2197.4 0.666517 2196.73 0.666517C2196.07 0.666517 2194.07 3.73318 2192.2 7.46652ZM975.4 282.933C974.467 283.2 972.867 283.2 972.067 282.933C971.133 282.533 971.8 282.267 973.667 282.267C975.533 282.267 976.2 282.533 975.4 282.933Z"/>
		<path id="Vector_2" d="M2192.33 21.6C2192.47 24.9334 2196.07 32.5334 2196.33 30C2196.47 28.9334 2198.6 34.2667 2201 41.8667C2203.53 49.6 2205.27 56.2667 2204.87 56.8C2204.6 57.3334 2205.27 60.1334 2206.2 63.2C2207.27 66.1334 2208.2 69.6 2208.07 70.9334C2208.07 72.2667 2208.73 76.9334 2209.67 81.3334C2211.8 91.7334 2212.73 97.7334 2214.2 110C2214.6 113.333 2215.27 118.133 2215.67 120.667C2217.13 131.067 2217.93 137.6 2218.47 142.667C2221.67 180.267 2221.53 224.933 2218.2 265.333C2217.8 269.733 2217.27 276.933 2217 281.333C2216.73 285.733 2216.2 292 2215.8 295.2C2215.53 298.4 2214.73 305.067 2214.33 309.867C2213.27 319.6 2212.73 325.333 2211.8 333.333C2211.4 336.267 2210.87 342 2210.33 346C2209.93 350 2209.4 354.533 2209 356C2208.73 357.467 2208.2 360.133 2207.8 362C2206.07 370.533 2203.8 376.8 2202.2 378.133C2201.13 378.933 2200.33 380.667 2200.33 381.733C2200.33 383.467 2200.6 383.467 2202.07 381.467C2205.27 377.2 2207 379.467 2205.13 385.333C2204.2 388.267 2202.6 393.333 2201.67 396.667C2200.73 400 2199.13 404.533 2198.2 406.933C2197.13 409.2 2196.33 411.867 2196.33 412.933C2196.33 414 2195.8 415.333 2195 416.133C2194.33 416.8 2193.53 418.667 2193.27 420.267C2193.13 421.733 2192.2 423.867 2191.4 424.933C2190.6 425.867 2189.27 429.067 2188.33 432C2187.4 434.933 2185.93 438.267 2185.13 439.333C2183 442.267 2180.73 446.4 2178.6 451.6C2177 455.333 2177 456.533 2178.33 458.533C2180.07 460.8 2180.2 460.8 2182.87 458.533C2184.33 457.2 2185.27 455.867 2185 455.333C2184.73 454.933 2187.93 454.533 2192.07 454.4C2208.87 454.267 2227.8 451.467 2224.87 449.6C2222.87 448.4 2199 445.867 2191.13 446C2188.07 446 2188.07 445.867 2190.07 443.6C2191.4 442.267 2191.93 440.8 2191.53 440.267C2191.13 439.867 2191.8 437.467 2193 435.067C2197.27 427.067 2197.67 426 2197.67 423.6C2197.67 422.267 2198.33 420.533 2199.27 419.6C2200.07 418.8 2201 416.667 2201.27 415.067C2201.53 413.333 2202.2 410.8 2202.87 409.333C2204.2 406.4 2208.33 392.8 2209 389.067C2209.27 387.733 2209.53 386.667 2209.67 386.667C2209.8 386.667 2210.2 384.933 2210.47 382.8C2210.73 380.667 2211.27 378 2211.8 376.8C2213.13 373.867 2213.53 370.133 2215.67 344.667C2215.93 339.867 2216.6 334.533 2217 332.667C2218.73 324.533 2220.47 311.733 2222.33 294.267C2222.73 290.8 2223.4 285.333 2223.8 282C2227.93 248.533 2229.8 195.867 2227.67 167.333C2226.33 148.4 2225.8 142.933 2225 136C2224.6 132.267 2223.93 126.933 2223.67 124C2223.13 118 2221.93 110 2221 104C2220.6 101.733 2220.07 98.1334 2219.67 95.7334C2219.4 93.3334 2218.73 90.1334 2218.33 88.5334C2217.8 86.9334 2217.27 84.1334 2217 82.1334C2216.33 75.8667 2213.8 63.3334 2213 62C2212.6 61.3334 2211.93 58.5334 2211.53 55.8667C2210.73 48.8 2203.67 26.9334 2201 22.8C2198.33 18.6667 2192.33 17.8667 2192.33 21.6Z"/>
		<path id="Vector_3" d="M925 404.267C925.4 406.267 926.333 408.267 926.867 408.667C927.267 409.067 928.733 412.8 930.067 416.933C931.4 421.2 933.133 425.333 934.067 426.267C935 427.2 937.4 431.867 939.533 436.667C941.533 441.467 943.667 445.6 944.2 446C944.867 446.4 947.267 450.267 949.533 454.667C953.933 462.933 960.6 473.067 966.067 480C967.8 482.133 970.6 486.4 972.333 489.333C974.2 492.267 977 496.133 978.733 498C980.333 499.867 983.133 503.467 984.6 506C986.2 508.533 988.733 511.867 990.333 513.333C991.8 514.8 995.133 518.933 997.667 522.667C1000.07 526.267 1003 529.867 1003.93 530.4C1004.87 530.933 1008.07 535.067 1011 539.333C1014.07 543.733 1016.87 547.333 1017.53 547.333C1018.07 547.333 1020.47 550 1022.87 553.333C1026.87 558.933 1029.8 562.4 1041.4 575.2C1043.8 577.867 1046.87 581.6 1048.07 583.733C1049.27 585.733 1051.13 587.6 1052.33 588C1053.4 588.4 1055.8 590.8 1057.53 593.333C1059.27 596 1065 602.533 1070.2 608C1083.4 621.867 1094.2 633.867 1094.73 635.333C1095 636.133 1096.07 636.667 1097 636.667C1097.93 636.667 1100.2 638.667 1102.07 640.933C1106.47 646.8 1117.8 658.133 1129.13 668.133C1152.47 688.8 1157.4 692.8 1162.33 695.333C1176.2 702.533 1178.33 704.4 1178.33 708.933C1178.33 712.533 1178.87 713.467 1181.4 713.733C1184.07 714.133 1185.13 712.4 1184.47 708.267C1183.67 703.867 1197.27 692.667 1203.4 692.667C1204.47 692.667 1205.67 692.133 1205.93 691.467C1206.2 690.8 1210.2 689.467 1215 688.533C1219.8 687.6 1223.93 686.4 1224.33 685.867C1224.73 685.333 1228.6 684.667 1233 684.267C1259.8 681.733 1269.4 681.2 1276.6 681.733L1284.6 682.4L1276.73 686.8C1272.47 689.2 1267.93 691.333 1266.73 691.333C1265.4 691.333 1264.33 691.867 1264.33 692.667C1264.33 693.333 1266.33 694 1268.73 694C1274.47 694 1312.47 699.067 1321.67 701.067C1332.47 703.467 1391.53 703.2 1404.33 700.8L1414.33 698.933L1402.33 697.2C1395.8 696.4 1374.47 695.2 1355 694.667C1335.53 694.133 1312.2 693.333 1303 692.8L1286.33 692L1298.33 684.267C1314.87 673.733 1315.13 673.6 1313.93 672.533C1313.4 672 1306.47 669.733 1298.33 667.467C1290.33 665.2 1271.13 659.2 1255.93 654.133C1240.73 649.067 1224.87 644.133 1220.6 643.333C1207.4 640.667 1207.8 640.933 1210.6 637.733C1211.93 636.133 1216.47 632.667 1220.73 629.867C1227 625.733 1229.4 624.933 1232.73 625.467L1237 626.267L1233 622.8C1230.87 620.933 1227.67 619.467 1226.07 619.333C1222.6 619.333 1161 588.533 1138.07 575.467C1120.33 565.333 1098.87 551.333 1101 551.333C1103.93 551.333 1131.93 554 1136.33 554.667L1141 555.467L1134.33 551.067C1130.73 548.667 1127.53 546.8 1127.27 547.067C1127 547.333 1125.93 546.4 1124.73 545.067C1123.67 543.733 1123.13 543.333 1123.53 544.267C1124.2 545.467 1119.8 545.6 1105.27 545.067C1087.67 544.4 1086.07 544.533 1085.13 546.667C1084.33 549.067 1086.33 552.667 1088.6 552.667C1089.27 552.667 1095.93 556.8 1103.4 561.733C1121.93 574.267 1137.4 583.2 1158.2 593.6C1177.8 603.467 1212.2 618.933 1217.27 620.133C1220.47 620.933 1220.33 621.2 1214.07 625.2C1201.67 632.933 1192.33 642.667 1192.33 648C1192.33 652 1194.6 652.667 1204.6 651.867C1211.93 651.067 1217.27 652.133 1245.67 659.2C1263.67 663.6 1284.2 668 1291.4 668.933C1303.27 670.267 1304.2 670.667 1301.4 672.133C1299.4 673.333 1292.6 674 1281.67 674C1260.07 674.267 1223.53 677.333 1221 679.333C1220.33 679.867 1215.93 681.067 1211.27 682C1206.73 682.933 1202.6 684.133 1202.33 684.667C1201.93 685.2 1198.47 687.333 1194.33 689.2C1190.33 691.2 1186.33 694 1185.53 695.467C1183.67 699.067 1179 700.667 1175.67 698.933C1174.2 698.267 1169.27 694.4 1164.73 690.533C1160.33 686.533 1156.07 683.333 1155.4 683.333C1154.87 683.333 1147.67 676.8 1139.4 668.933C1131.27 661.067 1121.8 652 1118.33 648.933C1114.87 645.733 1108.2 638.8 1103.4 633.6C1098.6 628.267 1093.93 623.733 1093.13 623.467C1092.33 623.2 1090.47 621.333 1089 619.467C1085 614.4 1077.8 606.267 1071 599.333C1067.67 596 1062.6 590.267 1059.67 586.667C1056.73 583.067 1052.2 578 1049.67 575.467C1047 572.8 1043.27 568.4 1041.13 565.6C1039.13 562.8 1035.53 558.533 1033.13 556C1027.8 550.267 1023.53 545.333 1017.8 538C1015.27 534.667 1012.47 531.333 1011.67 530.667C1010.73 529.867 1008.73 527.2 1007 524.667C1005.27 522.133 1002.6 518.8 1001 517.333C999.533 515.867 996.333 511.867 993.933 508.267C991.533 504.8 988.467 500.933 987.133 499.6C985.8 498.4 983 494.667 981 491.333C979 488 976.2 484.133 974.867 482.667C972.067 479.867 964.067 468 956.467 455.467C953.933 451.333 951.533 447.733 951.133 447.333C950.733 446.933 948.333 442.8 946.067 438C943.667 433.2 941.133 428.4 940.467 427.333C938.067 423.333 931 407.6 931 406.267C931 404.4 927.267 400.667 925.4 400.667C924.6 400.667 924.467 402.133 925 404.267Z"/>
		<path id="Vector_4" d="M943 411.867C943 412.267 944.2 413.2 945.667 414C947.133 414.8 948.333 415.067 948.333 414.8C948.333 414.4 947.133 413.467 945.667 412.667C944.2 411.867 943 411.6 943 411.867Z"/>
		<path id="Vector_5" d="M958.333 423.867C963.533 428.667 968.2 432.533 968.867 432.667C969.4 432.667 974.6 436.4 980.2 440.933C985.8 445.6 995.667 453.2 1002.07 458C1013.27 466.267 1033.53 481.467 1047.27 492C1050.73 494.667 1053.93 496.667 1054.33 496.667C1054.73 496.533 1057.93 498.933 1061.27 502C1064.6 504.933 1068.07 507.333 1069 507.333C1069.8 507.333 1072.2 509.067 1074.33 511.333C1076.47 513.467 1078.6 515.333 1079.13 515.333C1079.8 515.333 1084.2 518.133 1089 521.6C1093.93 525.2 1100.73 529.733 1104.2 532C1107.67 534.133 1112.47 537.733 1115 539.733C1117.4 541.733 1119.67 543.067 1120.07 542.667C1120.47 542.267 1120.47 541.733 1120.2 541.6C1119.93 541.333 1110.33 534.267 1099 526C1087.67 517.733 1068.2 502.8 1055.93 492.8C1035.13 475.867 1010.73 457.067 1003 451.733C1001.13 450.533 993.667 444.933 986.333 439.333C973.533 429.6 965.8 424.533 954.333 418C949.667 415.467 950.2 416.267 958.333 423.867Z"/>
		<path id="Vector_6" d="M1661.13 1809.6C1660.33 1811.47 1660.47 1811.6 1661.8 1810.4C1662.73 1809.47 1663.13 1808.4 1662.73 1808C1662.33 1807.6 1661.53 1808.27 1661.13 1809.6Z"/>
		<path id="Vector_7" d="M1696.87 1855.6C1696.87 1857.33 1697.67 1859.07 1698.47 1859.6C1699.27 1860.13 1699.8 1862.53 1699.53 1864.93C1699.13 1867.87 1699.4 1868.67 1700.2 1867.47C1700.87 1866.4 1701.13 1864.67 1700.6 1863.6C1700.2 1862.27 1700.47 1861.87 1701.4 1862.53C1702.33 1863.07 1703 1862.67 1703 1861.33C1703 1860.13 1702.47 1859.47 1701.8 1859.87C1701.13 1860.27 1699.93 1858.8 1699.13 1856.67C1697.53 1851.87 1696.6 1851.47 1696.87 1855.6Z"/>
		<path id="Vector_8" d="M1705 1862.93C1705.4 1863.87 1705.13 1864.67 1704.2 1864.67C1702.87 1864.67 1702.87 1865.07 1703.93 1866.13C1706.6 1868.8 1708.6 1866.93 1706.33 1864C1705.13 1862.53 1704.47 1862.13 1705 1862.93Z"/>
		<path id="Vector_9" d="M1674.33 1959.33C1673.8 1960.13 1673 1960.4 1672.47 1960C1671.8 1959.73 1670.2 1960.27 1668.87 1961.33C1667.53 1962.53 1667 1963.2 1667.67 1963.07C1668.47 1962.93 1670.47 1963.6 1672.07 1964.53C1673.8 1965.47 1675.53 1965.87 1676.07 1965.47C1676.47 1965.07 1676.07 1964.67 1675.4 1964.67C1673.8 1964.67 1673.8 1962.27 1675.4 1959.6C1676.07 1958.8 1676.2 1958 1675.8 1958C1675.4 1958 1674.73 1958.67 1674.33 1959.33Z"/>
		<path id="Vector_10" d="M1704.33 1961.87C1704.33 1962.67 1704.87 1963.6 1705.67 1964C1706.47 1964.4 1706.6 1963.87 1706.2 1962.8C1705.27 1960.4 1704.33 1960 1704.33 1961.87Z"/>
		<path id="Vector_11" d="M502.067 792C500.867 794.667 501 795.333 502.467 795.333C503.533 795.333 504.333 794 504.333 792C504.333 787.867 504.067 787.867 502.067 792Z"/>
		<path id="Vector_12" d="M261 858.8C258.867 859.067 251.4 860 244.467 860.8C228.6 862.667 204.867 868.4 187.8 874.533C106.467 904 35.8 974.933 9.79998 1053.33C3.13331 1073.33 0.333313 1092.27 0.333313 1116.67C0.333313 1140.27 2.19998 1152 6.59998 1156.27C9.66665 1159.33 10.4666 1159.47 17 1157.2C17.8 1156.93 20.6 1163.73 23.4 1172.4C35.5333 1209.47 52.6 1234.93 63.6666 1232.13C68.0666 1231.07 67.9333 1228.8 63.5333 1229.73C59.1333 1230.53 54.8666 1226.4 48.8666 1215.87C46.3333 1211.47 44.3333 1207.33 44.3333 1206.8C44.3333 1206.27 46.7333 1207.87 49.8 1210.53C57.9333 1217.47 63.9333 1219.87 74.4667 1220.4C98.8667 1221.73 135 1204.8 154.2 1183.07C161.933 1174.4 171.667 1155.47 170.467 1151.6C169 1147.07 166.067 1147.07 163.133 1151.73C156.333 1162.8 147.133 1167.33 131.8 1167.33C98.6 1167.2 53.5333 1144.8 33.1333 1118.13C23.6666 1105.87 22.7333 1103.33 24.4666 1095.07C31.9333 1059.73 66.7333 1034.13 121.933 1023.07C142.067 1019.07 179.133 1018.67 196.2 1022.4C213.533 1026.13 227.667 1030.93 244.2 1038.8C260.2 1046.4 263 1047.2 263 1044.13C263 1041.73 227.933 1024.4 214.333 1020C182.2 1009.87 148.333 1008.93 111.133 1016.93C76.4667 1024.27 48.6 1039.07 32.6 1058.4C26.8666 1065.47 17.6666 1082.13 17.6666 1085.6C17.6666 1088.67 15.4 1086.4 14.3333 1082.4C13.9333 1080.4 12.8666 1078.27 12.0666 1077.87C8.99998 1076 21.1333 1042.13 32.0666 1022C46.3333 995.733 63 974.133 87.8 949.867C143.933 895.2 212.067 867.333 289.933 867.333C344.333 867.333 381.4 880.667 424.067 915.467C436.6 925.733 433.933 920.933 420.733 909.333C380.733 874.667 341.933 859.733 288.333 858.667C275.533 858.4 263.267 858.4 261 858.8ZM14.8666 1096.67C13.1333 1104.13 13.5333 1128.27 15.6666 1141.33C17.1333 1150.53 17.1333 1153.47 15.9333 1154.27C12.7333 1156.27 9.53331 1155.33 8.06665 1151.6C4.99998 1144 6.99998 1086 10.7333 1080.13C12.3333 1077.47 15.9333 1091.87 14.8666 1096.67ZM40.7333 1132.4C55.9333 1148 75.9333 1160.13 99.6667 1168.13C111.933 1172.27 116.733 1173.2 128.467 1173.73C141.667 1174.27 143.267 1174.13 150.2 1170.93C154.333 1169.07 157.667 1167.87 157.667 1168.27C157.667 1170.53 146.067 1184 139.133 1189.73C111.267 1212.93 75 1222.93 57.2666 1212.13C45.4 1204.93 41 1199.47 36.4666 1186.67C29.6666 1167.73 24.4666 1146 23 1129.87C21 1109.47 21.8 1107.87 28.6 1117.6C31.5333 1121.87 37 1128.53 40.7333 1132.4Z"/>
		<path id="Vector_13" d="M2093.67 992.267C2091.13 992.667 2088.73 993.333 2088.33 993.733C2087.93 994.267 2083.67 995.733 2078.73 996.933C2065.67 1000.27 2048.87 1009.47 2040.87 1017.73C2031.53 1027.33 2038.07 1029.07 2051.13 1020.4C2055.8 1017.33 2059.93 1014.4 2060.33 1013.87C2061.27 1012.67 2071 1007.87 2075 1006.67C2076.87 1006.13 2082.07 1003.87 2086.73 1001.73C2095.4 997.733 2111 994.933 2118.33 996.133L2122.33 996.8L2119.53 994.4C2116.73 991.867 2104.87 990.933 2093.67 992.267ZM2071.8 1005.33C2065.93 1007.87 2060.87 1010.4 2060.47 1010.93C2058.2 1014 2043.4 1023.33 2040.87 1023.33C2038.87 1023.33 2049.13 1015.07 2054.33 1012.4C2057.27 1010.93 2060.07 1009.07 2060.47 1008.4C2061.4 1006.93 2077.27 1000.8 2080.33 1000.8C2081.4 1000.67 2077.53 1002.8 2071.8 1005.33Z"/>
		<path id="Vector_14" d="M2227.4 995.333C2219.27 998.533 2216.6 1013.6 2213 1077.33C2207.13 1182.13 2197.4 1244.27 2177.67 1303.47C2159.27 1358.4 2130.2 1411.6 2093.4 1457.73C2076.6 1478.53 2043.27 1512.13 2023.8 1527.6C1974.47 1567.07 1906.6 1601.07 1871.13 1604.13C1863.53 1604.8 1861.53 1604.4 1856.07 1601.6C1849.4 1598.27 1847.8 1598.67 1852.2 1602.53C1856.07 1606.13 1864.2 1608.53 1871.93 1608.67C1902.07 1608.8 1962.6 1583.2 2008.33 1550.93C2083.27 1497.87 2144.6 1416.4 2178.73 1324.4C2201.27 1263.87 2213.93 1190.4 2218.33 1095.33C2221.4 1026.53 2223 1009.47 2227 1001.87C2228.2 999.733 2229.53 999.2 2232.47 999.6C2236.87 1000.27 2237 998.533 2232.87 995.867C2231.27 994.8 2229.27 994.667 2227.4 995.333Z"/>
		<path id="Vector_15" d="M235.133 1044.53C249.267 1049.87 259 1056.4 273.4 1070.53C288.6 1085.33 300.467 1100.67 320.867 1131.87C339.4 1160.27 347.667 1170.53 364.733 1186.8C432.2 1251.33 561 1304.67 691.667 1322.27C722.333 1326.27 787 1326.67 811 1322.93C844.067 1317.73 883.667 1306.53 891.667 1300C898.2 1294.93 894.6 1294.8 882.067 1299.87C868.067 1305.33 844.333 1311.6 822.6 1315.33C750.467 1327.6 655.267 1316.4 558.333 1284C495.133 1263.07 439.8 1235.47 399.667 1205.33C368.867 1182.13 352.867 1164.67 328.733 1128.27C319.667 1114.53 307.8 1098 302.467 1091.6C280.733 1065.6 258.867 1049.07 237.8 1042.8C225.933 1039.33 224.2 1040.53 235.133 1044.53Z"/>
		<path id="Vector_16" d="M1663.93 1065.47C1661.93 1066.53 1659.67 1067.07 1659.13 1066.67C1657.27 1065.6 1651 1068.8 1651.93 1070.4C1652.33 1071.2 1652.07 1071.33 1651.27 1070.8C1649.4 1069.73 1643.93 1072.4 1633 1079.73C1626.33 1084.13 1611.53 1096.67 1612.87 1096.67C1613 1096.67 1618.6 1094.4 1625.13 1091.6C1631.67 1088.67 1642.73 1084.4 1649.67 1082C1661.67 1077.87 1667 1074.93 1665.53 1073.33C1664.73 1072.67 1652.6 1077.2 1633.67 1085.2C1623 1089.73 1622.6 1089.87 1626.33 1086.53C1630.6 1082.93 1641.27 1077.6 1657.67 1071.07C1667.8 1067.07 1673.67 1063.33 1669.67 1063.33C1668.6 1063.47 1666.07 1064.4 1663.93 1065.47Z"/>
		<path id="Vector_17" d="M2057.53 1164.27C2057.4 1164.93 2057.4 1165.73 2057.53 1166.27C2057.53 1166.93 2057.13 1167.33 2056.33 1167.33C2055.67 1167.33 2055 1168.4 2055 1169.6C2055 1171.2 2055.4 1171.47 2056.33 1170.53C2057.8 1169.07 2059.27 1163.33 2058.2 1163.33C2057.93 1163.33 2057.53 1163.73 2057.53 1164.27Z"/>
		<path id="Vector_18" d="M2054.47 1174.4C2054.87 1175.73 2055.67 1176.4 2056.07 1176C2056.47 1175.6 2056.07 1174.53 2055.13 1173.6C2053.8 1172.4 2053.67 1172.53 2054.47 1174.4Z"/>
		<path id="Vector_19" d="M1606.47 1241.47C1602.33 1244.8 1599 1248 1599 1248.8C1599 1250.4 1599.13 1250.4 1607.93 1247.2C1617.93 1243.47 1620.73 1241.2 1618.87 1237.87C1616.87 1234.13 1614.6 1234.67 1606.47 1241.47Z"/>
		<path id="Vector_20" d="M1617.4 1252.53C1613.53 1256.13 1610.73 1259.47 1611.27 1260C1612.33 1261.07 1626.6 1255.87 1629.27 1253.47C1630.6 1252.27 1630.6 1251.33 1628.87 1248.93C1627.8 1247.33 1626.33 1246 1625.67 1246C1625 1246 1621.27 1248.93 1617.4 1252.53Z"/>
		<path id="Vector_21" d="M1929.67 1367.73C1920.6 1370.93 1915.4 1371.73 1903.4 1372.4C1895.13 1372.67 1888.33 1373.47 1888.33 1374C1888.33 1376.13 1908.2 1376.8 1917.4 1374.8C1928.47 1372.53 1941.93 1367.33 1942.73 1364.93C1943.4 1362.93 1943.27 1362.93 1929.67 1367.73Z"/>
		<path id="Vector_22" d="M1733.4 1792.27C1734.2 1792.53 1734.73 1793.33 1734.33 1794C1733.93 1794.53 1735 1794.8 1736.6 1794.27C1739.4 1793.6 1739.4 1793.47 1736.87 1792.53C1735.53 1792 1733.8 1791.47 1733 1791.47C1732.33 1791.6 1732.47 1791.87 1733.4 1792.27Z"/>
		<path id="Vector_23" d="M2085.67 612.133C2085.67 612.667 2091.13 618.667 2097.8 625.733C2118.2 647.067 2131.27 664.667 2146.73 691.467C2167.8 728 2188.6 787.467 2199.8 842.4C2203.8 862 2205.53 893.6 2203.13 904.533C2201.4 912.667 2202.07 915.333 2204.2 908.533L2205.67 904L2204.87 909.333C2202.87 924.267 2189 958.667 2175 983.6C2161.27 1007.87 2135.67 1043.33 2124.47 1053.2C2121.67 1055.73 2121.67 1055.73 2121.53 1053.2C2121.53 1051.47 2120.73 1052.4 2119.13 1055.6C2117.8 1058.4 2115.67 1061.87 2114.2 1063.47C2109.4 1069.07 2088.2 1086 2076.2 1094.13C2061 1104.4 2036.33 1118.13 2034.73 1117.2C2034.2 1116.8 2033.67 1117.2 2033.67 1117.87C2033.67 1118.67 2033.13 1119.33 2032.47 1119.33C2031.8 1119.33 2031.53 1118.13 2031.93 1116.67C2033 1112.8 2031.4 1113.47 2029.13 1117.87C2027.4 1120.93 2025 1122.27 2014.6 1125.73C2000.33 1130.53 1981.93 1134 1971.27 1134H1963.93L1970.73 1126.8C1984.33 1112.4 2005.8 1075.33 2012.47 1054.67C2014.07 1049.47 2019.53 1038.53 2024.47 1030.27C2045.53 995.333 2066.6 944.667 2073.67 911.733C2077 896.133 2078.47 880 2076.73 878.933C2075.8 878.4 2075 881.733 2074.33 887.733C2070.73 925.733 2040.47 998.533 2011.13 1040C1999.93 1055.87 1979.27 1076 1963.53 1086.4C1939 1102.67 1901.93 1118.53 1875.93 1123.87C1870.33 1125.07 1860.2 1126.4 1853.4 1126.93L1841.27 1127.73L1847.27 1119.2C1864.87 1094.27 1896.33 1029.87 1902.2 1006.67C1906.6 989.2 1913.67 958 1915.93 946.667C1918.47 933.067 1919.4 887.2 1917 886.4C1916.2 886.133 1915.53 893.733 1915.4 907.067C1915.27 928.533 1912.6 949.333 1907 973.067C1903.67 987.6 1895.27 1013.87 1892.87 1017.33C1890.07 1021.33 1890.73 1023.07 1893.67 1019.47C1895.13 1017.73 1896.33 1016.8 1896.33 1017.2C1896.33 1021.33 1854.6 1101.33 1843.93 1117.6C1838.73 1125.6 1838.2 1126 1831.93 1126.8C1827.27 1127.47 1825.93 1128.13 1827 1129.2C1829.4 1131.6 1866.33 1130.4 1882.33 1127.2C1928.47 1118.4 1973.67 1093.73 2000.6 1062.93C2005.8 1056.93 2010.6 1051.33 2011.27 1050.67C2013.93 1047.73 2006.47 1064.67 1999.53 1077.33C1982.47 1108.13 1965.27 1130.27 1957.4 1131.87C1949.53 1133.47 1955.4 1135.33 1970.47 1136.13C1985.93 1137.07 2000.07 1135.2 2016.6 1130C2021.13 1128.53 2025.13 1127.6 2025.4 1128C2025.67 1128.27 2024.87 1134.53 2023.53 1142C2020.47 1160.4 2021.53 1190.27 2025.67 1204.67C2028.2 1213.87 2034.6 1226.93 2035.8 1225.73C2036.07 1225.47 2034.87 1221.6 2033.13 1217.33C2031.4 1212.93 2029.53 1206.67 2029 1203.33L2028.07 1197.33L2030.73 1199.87C2032.47 1201.33 2034.47 1202 2035.93 1201.47C2037.67 1200.8 2037.8 1200.27 2036.6 1199.47C2032.87 1197.2 2031 1185.87 2031 1166C2031 1149.87 2031.4 1146 2033 1144.67C2034.87 1143.07 2035 1143.6 2034.07 1148.8C2032.87 1155.6 2032.73 1165.47 2033.8 1166.67C2036.87 1169.73 2042.87 1159.33 2045.93 1145.73C2046.73 1141.87 2048.33 1137.87 2049.53 1136.93C2050.73 1136 2050.87 1135.33 2049.93 1135.33C2049 1135.33 2048.33 1134.27 2048.33 1132.93C2048.47 1131.07 2049 1131.33 2051.53 1134.27C2053.27 1136.27 2055.93 1137.73 2057.4 1137.6C2060.33 1137.47 2059.93 1134.67 2056.87 1133.47C2055.67 1133.07 2055.13 1132.13 2055.67 1131.47C2056.07 1130.8 2055.8 1129.87 2055.13 1129.47C2053.67 1128.53 2053.93 1131.2 2055.4 1133.6C2056.07 1134.53 2055.93 1135.33 2055.13 1135.33C2054.33 1135.33 2053.13 1134.27 2052.47 1132.93C2051.4 1130.93 2052.33 1129.2 2058.2 1123.47C2062.07 1119.73 2065.67 1117.07 2066.33 1117.6C2066.87 1118.27 2067 1118 2066.47 1117.07C2066.07 1116.27 2066.2 1115.2 2067 1114.67C2067.8 1114.13 2068.33 1115.6 2068.33 1118.4C2068.33 1121.87 2067.67 1123.2 2065.8 1123.73C2063.8 1124.27 2063.27 1123.73 2063.67 1121.87C2063.93 1120.4 2063.67 1119.6 2062.87 1120C2062.2 1120.53 2062.07 1121.47 2062.47 1122.27C2063 1123.2 2062.73 1123.33 2061.93 1122.8C2060.87 1122.13 2060.6 1122.67 2061.27 1124.13C2061.93 1125.87 2061.53 1126.27 2060.07 1125.73C2058.6 1125.07 2058.2 1125.6 2058.73 1128.13C2059 1129.87 2060.07 1131.33 2061.13 1131.33C2062.07 1131.33 2062.6 1130.27 2062.33 1128.8C2062.07 1127.2 2062.73 1126 2064.47 1125.6C2066.6 1125.07 2067 1125.6 2067 1129.33C2067 1138.93 2065.4 1146 2063.13 1146C2061.27 1146 2061.27 1145.73 2063 1144.53C2064.73 1143.33 2064.73 1143.2 2063 1143.73C2061.93 1144 2061.13 1145.07 2061.27 1145.87C2061.8 1147.87 2059.4 1147.73 2058.6 1145.6C2058.2 1144.4 2057.53 1144.4 2056.2 1145.87C2055.13 1146.93 2055 1147.33 2055.8 1146.93C2056.73 1146.4 2058.07 1146.93 2059 1148C2060.47 1149.73 2060.07 1150.53 2057.67 1150.27C2057.13 1150.27 2056.87 1152.4 2057 1155.07C2057 1157.87 2057.67 1159.87 2058.47 1159.73C2060.33 1159.47 2059.67 1169.07 2057.27 1176.67C2056.33 1180 2054.87 1182.53 2054.07 1182.4C2053.27 1182.27 2052.73 1182.93 2052.87 1183.87C2053 1186 2036.73 1203.33 2034.47 1203.33C2033.67 1203.33 2034.07 1204 2035.4 1204.8C2038.47 1206.67 2042.33 1204.13 2052.6 1194C2058.07 1188.53 2060.47 1184.8 2061.67 1180.53C2062.47 1177.33 2064.33 1171.07 2065.67 1166.67C2071 1150 2072.47 1142.13 2073.27 1126.53L2074.07 1110.27L2078.6 1108.13C2081 1106.93 2083.4 1106 2083.67 1106C2085.53 1106 2084.07 1134.4 2081.8 1144C2080.33 1149.87 2079.4 1154.8 2079.67 1155.07C2079.93 1155.33 2081.4 1153.33 2083 1150.4C2085.8 1145.47 2085.67 1145.87 2082.2 1155.6C2081.27 1158.27 2080.2 1161.87 2079.8 1163.6C2079.53 1165.2 2078.6 1168.13 2077.93 1170C2077.13 1171.87 2075.8 1177.2 2075 1182C2074.07 1186.8 2073.27 1191.6 2073 1192.67C2072.33 1196 2071 1210.13 2070.33 1220C2069.93 1225.07 2069.4 1230.13 2069 1231.33C2068.73 1232.4 2068.07 1235.73 2067.53 1238.67C2067.13 1241.6 2066.6 1245.33 2066.33 1246.93C2066.07 1248.4 2065.53 1250.93 2065.13 1252.4C2064.6 1253.87 2063.93 1256.4 2063.67 1258C2063.4 1259.73 2062.2 1262.4 2061 1264.13C2059.93 1265.87 2059 1268.13 2059 1269.07C2059 1270.13 2057.8 1272.53 2056.33 1274.27C2055 1276.13 2054.07 1278 2054.47 1278.4C2055.67 1279.6 2045.13 1292.93 2025.53 1315.33C2005.4 1338.27 1995.4 1348 1990.33 1350C1988.47 1350.67 1987 1351.87 1987 1352.53C1987 1353.2 1982.6 1357.2 1977.4 1361.47C1972.07 1365.73 1965.53 1371.33 1963 1373.87C1958.33 1378.27 1939 1393.33 1937.67 1393.33C1937.27 1393.33 1934.87 1394.93 1932.33 1396.93C1929.8 1398.8 1922.47 1403.73 1916.2 1407.6C1909.93 1411.6 1903.4 1416.13 1901.53 1417.87C1898.33 1420.93 1891.53 1424.93 1889 1425.47C1886.07 1426 1873.93 1434.13 1873.13 1436C1872.73 1437.07 1871.53 1438 1870.47 1438C1869.4 1438 1863.93 1439.87 1858.47 1442C1852.87 1444.27 1847.67 1445.73 1846.87 1445.33C1846.2 1444.8 1844.6 1445.2 1843.4 1446.27C1840.6 1448.53 1804.87 1449.47 1789.27 1447.47C1766.73 1444.8 1755 1441.33 1713 1425.33C1698.33 1419.6 1683.53 1414.27 1680.07 1413.2C1676.47 1412.13 1673.67 1410.67 1673.67 1410C1673.67 1409.33 1670.47 1407.6 1666.73 1406.13C1662.87 1404.67 1660.33 1403.33 1661 1403.33C1663.67 1402.93 1656.87 1400.8 1652.87 1400.8C1649.67 1400.67 1648.73 1400.13 1648.87 1398.27C1649.13 1394.27 1635.13 1395.2 1623 1400C1614.07 1403.6 1611.53 1405.6 1597.53 1419.33C1589 1427.73 1578.47 1439.47 1574.2 1445.33C1569.93 1451.2 1564.33 1458.4 1561.53 1461.33C1553.27 1470.27 1544.33 1486 1544.47 1491.33L1544.6 1496L1546.6 1490.93C1550.33 1481.87 1551.8 1484.67 1553.53 1504.27C1555.13 1523.33 1557.27 1612.53 1555.93 1611.33C1555.53 1610.93 1551.27 1598.67 1546.47 1584C1535.93 1551.87 1525.13 1529.73 1508.33 1505.33C1469.4 1448.67 1458.2 1430.27 1449.67 1408.8L1446.87 1401.6L1458.07 1390.13C1473.4 1374.27 1491.53 1351.6 1490.73 1349.07C1490.6 1348.53 1492.07 1345.33 1493.93 1342C1499.67 1332.27 1506.6 1316.67 1509.13 1307.33C1511.13 1299.6 1512.73 1297.2 1523 1286C1536.73 1270.93 1551.27 1252.53 1564.2 1233.73C1569.4 1226.13 1576.07 1217.33 1578.87 1214L1584.07 1208L1593.93 1213.07C1605.8 1218.93 1608.33 1219.2 1608.33 1214.67C1608.33 1212.13 1606.33 1209.73 1600.33 1205.07C1595.93 1201.73 1592.33 1198.67 1592.33 1198.4C1592.33 1198.13 1594.33 1195.33 1596.73 1192.13L1601 1186.4L1619.67 1184C1629.93 1182.67 1639.13 1181.33 1640.2 1180.93C1641.8 1180.4 1641.93 1181.87 1641.27 1189.6C1640.07 1201.6 1642.87 1217.6 1648.73 1234.27L1653.27 1246.67L1660.2 1246.53C1670.07 1246.27 1670.87 1244.67 1665 1238.13C1662.33 1235.2 1660.47 1232.13 1661 1231.33C1661.4 1230.67 1661 1230 1660.07 1230C1657.93 1230 1654.47 1221.33 1655.67 1219.33C1657 1217.2 1659.67 1219.2 1659.8 1222.67C1659.93 1224.53 1659.53 1225.6 1658.87 1225.2C1658.2 1224.8 1658.07 1225.47 1658.47 1226.53C1658.87 1227.73 1659.8 1228.67 1660.6 1228.67C1661.27 1228.67 1661.4 1228 1660.87 1227.07C1660.2 1226 1660.6 1225.87 1662.47 1226.53C1663.8 1227.07 1664.47 1227.07 1663.93 1226.53C1663.4 1226 1663.67 1224.8 1664.47 1223.87C1665.53 1222.53 1665.27 1222.27 1663 1222.67C1661 1223.07 1660.33 1222.67 1660.73 1221.47C1661.13 1220.4 1660.73 1218.93 1659.93 1218.13C1658.87 1217.07 1659 1216.67 1660.47 1216.67C1661.93 1216.67 1661.93 1216.4 1660.6 1215.47C1659.13 1214.53 1659.13 1214.27 1660.73 1213.6C1662.2 1213.07 1663.27 1214.13 1664.2 1216.8C1664.87 1218.93 1665.8 1220.67 1666.07 1220.67C1666.87 1220.67 1665.4 1212.67 1664.47 1212.53C1659.4 1211.87 1657.93 1211.87 1658.33 1212.67C1658.73 1213.2 1657.8 1214.67 1656.47 1215.87C1654.6 1217.6 1653.67 1217.73 1652.87 1216.53C1652.33 1215.6 1653 1214.13 1654.47 1212.93C1656.6 1211.33 1656.6 1211.07 1654.73 1211.73C1651.8 1212.8 1651.13 1211.6 1649.67 1202.93C1649 1198.13 1649.13 1195.47 1650.2 1194.13C1651.27 1192.53 1651.27 1192.4 1650.07 1193.2C1649.13 1193.73 1648.33 1193.6 1648.33 1193.07C1648.33 1192.4 1649.13 1191.07 1650.07 1190.13C1651.4 1188.67 1651.4 1188.4 1650.07 1189.2C1647.8 1190.53 1647.93 1188.93 1650.2 1186.53C1652.87 1184 1653.67 1184.13 1653.67 1187.33C1653.67 1188.8 1654.33 1190 1655 1190C1655.8 1190 1656.33 1188.8 1656.33 1187.2C1656.33 1185.2 1657 1184.53 1659.4 1184.93C1661.4 1185.2 1662.2 1186.13 1661.93 1187.6C1661.67 1188.93 1662.2 1190 1663 1190C1663.67 1190 1664.33 1188.8 1664.33 1187.47C1664.33 1186 1665.13 1184.53 1666.07 1184.13C1666.87 1183.73 1666.33 1183.73 1664.73 1184C1663.13 1184.4 1661.53 1184.13 1661 1183.33C1660.07 1181.87 1661.4 1181.6 1667.8 1182C1671.8 1182.13 1674.6 1179.33 1673 1176.67C1672.73 1176.13 1674.87 1175.33 1678.07 1174.8C1681.13 1174.4 1686.47 1173.47 1689.93 1172.93C1693.4 1172.27 1695.93 1172.27 1695.53 1172.8C1695.27 1173.33 1695.53 1174.13 1696.2 1174.67C1697 1175.07 1697.13 1176.4 1696.73 1177.6C1696.2 1179.07 1696.33 1179.47 1697.53 1178.8C1698.33 1178.27 1699 1176.8 1698.87 1175.6C1698.47 1171.6 1699 1170.67 1700.2 1172.53C1701 1173.87 1700.73 1175.87 1699.4 1178.53C1697.67 1181.87 1697.13 1182.13 1695.8 1180.53C1694.07 1178.27 1688.33 1178.8 1688.33 1181.33C1688.33 1182.4 1688.87 1183.6 1689.67 1184C1690.33 1184.4 1690.6 1184 1690.2 1182.93C1689.4 1180.67 1693.93 1180.8 1696.6 1183.07C1698.07 1184.27 1698.87 1184 1700.33 1182C1701.27 1180.67 1702.73 1179.87 1703.53 1180.27C1704.33 1180.8 1704.2 1180.13 1703.13 1178.8C1701.4 1176.8 1701.4 1176.27 1703.13 1175.2C1704.47 1174.4 1704.47 1174 1703.4 1174C1702.47 1174 1701.67 1173.33 1701.67 1172.53C1701.67 1171.87 1702.2 1171.47 1702.87 1171.87C1703.53 1172.4 1704.47 1171.87 1704.73 1171.07C1705.13 1170.13 1705.53 1174.27 1705.53 1180.13C1705.67 1193.87 1707.53 1203.73 1711.4 1211.33C1714.2 1216.93 1719 1220.27 1719 1216.67C1719 1215.87 1719.93 1214.13 1721.13 1212.93C1722.87 1211.2 1723.13 1208.67 1722.73 1198.8C1722.47 1192.13 1721.53 1185.47 1720.73 1184C1719.53 1182 1719.4 1183.73 1719.93 1192.13C1720.33 1198.13 1720.33 1205.2 1719.8 1207.73C1718.87 1212.4 1718.87 1212.53 1716.47 1210.13C1712.87 1206.53 1711 1199.87 1710.07 1187.87L1709.27 1177.2L1713.67 1175.33C1716.07 1174.4 1719.8 1173.6 1721.93 1173.6C1724.87 1173.6 1725.4 1173.33 1723.8 1172.4C1722.6 1171.73 1721 1171.6 1720.33 1172C1719.67 1172.4 1717.8 1172.13 1716.33 1171.33C1714.47 1170.27 1713.67 1170.27 1713.67 1171.33C1713.67 1172.13 1713.13 1172.4 1712.33 1172C1711.53 1171.6 1711.4 1172.13 1711.8 1173.2C1712.2 1174.4 1712.07 1175.33 1711.4 1175.33C1709.53 1175.33 1709.67 1170.27 1711.67 1169.47C1712.6 1169.2 1715.27 1169.07 1717.67 1169.33C1719.93 1169.6 1721.4 1169.33 1721 1168.8C1720.6 1168.13 1722.73 1167.33 1725.67 1167.07C1728.6 1166.8 1731 1167.07 1731 1167.6C1731 1168.27 1731.67 1168.67 1732.47 1168.67C1733.13 1168.67 1733.4 1168 1732.87 1167.07C1732.33 1166.13 1732.47 1166 1733.53 1166.53C1734.33 1167.07 1734.73 1168.13 1734.33 1168.8C1733.8 1169.47 1734.87 1170 1736.6 1170C1739 1170 1739.27 1169.73 1737.67 1168.67C1736.2 1167.73 1736.2 1167.33 1737.4 1167.33C1738.33 1167.33 1738.73 1166.67 1738.33 1166C1737.53 1164.8 1740.33 1164.4 1752.07 1164.27C1754.33 1164.13 1756.33 1163.6 1756.33 1163.07C1756.33 1162.4 1758.33 1162 1760.73 1162.13C1763 1162.13 1766.33 1161.87 1768.07 1161.47C1772.73 1160.4 1771.27 1164.93 1766.6 1166.13C1764.6 1166.67 1763.27 1166.53 1763.67 1166C1764.47 1164.67 1759 1165.07 1756.6 1166.53C1755.67 1167.07 1755 1166.8 1755 1165.73C1754.87 1164.8 1753.8 1165.33 1752.33 1167.2C1749.4 1170.53 1748.87 1172.67 1751 1172.67C1751.8 1172.67 1752.33 1171.47 1752.33 1169.87C1752.33 1168 1752.87 1167.47 1754.07 1168.27C1757 1170 1758.87 1169.87 1758.07 1167.73C1757.4 1166 1757.8 1166 1759.93 1167.2C1761.4 1167.87 1764.07 1168.27 1765.8 1168C1767.53 1167.6 1770.07 1168.4 1771.53 1169.73C1773.93 1171.73 1774.07 1171.73 1772.6 1169.73C1771.4 1168.27 1771.27 1167.33 1772.33 1166.67C1773 1166.27 1773.67 1166.53 1773.67 1167.33C1773.67 1168.27 1774.47 1168.67 1775.53 1168.27C1776.47 1167.87 1778.07 1168.27 1778.87 1169.07C1780.33 1170.53 1780.47 1170.27 1780.87 1167.07C1780.87 1166.27 1781.93 1165.33 1783 1165.07C1784.2 1164.67 1784.47 1164.93 1783.67 1165.6C1781.53 1167.33 1781.53 1170 1783.67 1170.8C1785 1171.33 1785.67 1173.33 1785.53 1177.2C1785.53 1180.13 1785.13 1181.87 1784.73 1180.93C1784.47 1180.13 1783.4 1179.33 1782.6 1179.33C1781.67 1179.47 1782.33 1180.53 1784.07 1182C1786.73 1184.13 1786.73 1184.53 1784.73 1184.93C1783.27 1185.2 1781.67 1184.13 1780.73 1182C1779.4 1179.33 1779.13 1179.2 1779.8 1181.6C1780.07 1183.2 1779.67 1184.93 1778.87 1185.47C1777.93 1186 1777.67 1185.87 1778.07 1184.93C1779.93 1182 1777.53 1179.47 1773.4 1179.87C1771 1180.13 1769.13 1179.6 1768.73 1178.53C1768.33 1177.47 1766.87 1176.67 1765.53 1176.67C1764.2 1176.67 1762.33 1175.47 1761.4 1174C1759.53 1171.2 1754.47 1170.4 1753 1172.8C1751.53 1175.2 1753.67 1176 1756.6 1174.13C1758.07 1173.2 1758.87 1173.07 1758.33 1173.87C1757.93 1174.67 1758.6 1175.73 1759.93 1176.27C1762.87 1177.47 1765.8 1180.13 1764.87 1181.07C1764.47 1181.33 1766.07 1181.47 1768.2 1181.33C1771.8 1181.07 1772.2 1181.33 1771.8 1184C1771.4 1185.87 1771.93 1186.93 1773.13 1186.93C1774.33 1186.93 1774.6 1186.4 1773.67 1185.33C1772.73 1184.13 1773 1183.07 1774.6 1181.87C1776.6 1180.27 1776.73 1180.27 1775.93 1182.27C1775.53 1183.6 1775.67 1184.93 1776.33 1185.33C1777 1185.73 1777.27 1187.2 1777 1188.53C1776.73 1190 1778.2 1192.53 1780.73 1194.8C1783 1196.93 1784.07 1197.6 1783.13 1196.27C1781.93 1194.8 1781.8 1194 1782.87 1194C1783.67 1194 1784.33 1192.93 1784.33 1191.6C1784.2 1189.6 1784.07 1189.6 1782.33 1191.87C1781.27 1193.33 1780.33 1194.27 1780.2 1193.87C1779.4 1188.27 1779.4 1186 1780.33 1186C1781 1186 1781.8 1186.8 1782.07 1187.6C1782.6 1188.93 1782.87 1188.93 1782.87 1187.73C1783 1186.8 1783.8 1186.4 1784.73 1186.8C1786.07 1187.33 1786.47 1189.73 1786.2 1195.47C1785.93 1202.67 1785.4 1204.27 1780.73 1209.73C1773.8 1218 1770.47 1223.2 1771.4 1224.27C1773 1225.73 1785 1220.27 1789.27 1216C1797 1208.27 1797.8 1197.87 1792.47 1170.27C1789.67 1155.87 1788.07 1157.07 1811.67 1155.87C1827 1155.2 1828.33 1155.33 1844.33 1159.73C1869 1166.67 1875.13 1169.33 1883.53 1176.67C1891.27 1183.33 1896.33 1185.2 1896.33 1181.2C1896.33 1180 1894.73 1177.87 1892.87 1176.4C1891 1174.8 1889 1172.27 1888.33 1170.53C1887.67 1168.8 1884.47 1165.6 1881.4 1163.47C1878.2 1161.33 1874.07 1158.27 1872.2 1156.8C1870.33 1155.33 1867.27 1153.87 1865.53 1153.47C1863.8 1153.2 1857.53 1150.8 1851.67 1148.27C1834.73 1141.07 1820.47 1136.93 1809.27 1136.13C1795.27 1135.07 1731.27 1142 1699.4 1148.13C1685.93 1150.67 1663.8 1154.8 1650.07 1157.47C1636.2 1160 1623.53 1162.53 1621.8 1162.93C1619.27 1163.6 1618.87 1163.33 1619.67 1161.87C1621.67 1158.53 1628.73 1149.47 1632.6 1145.2C1634.73 1142.93 1636.6 1140.13 1636.73 1139.2C1637 1138.13 1641.8 1130.13 1647.53 1121.47C1653.27 1112.67 1662.47 1097.87 1668.07 1088.53L1678.2 1071.6L1702.87 1064.13C1764.07 1045.73 1796.47 1040.4 1847.4 1040.13C1875.4 1040 1876.47 1039.87 1876.07 1037.33C1875.27 1031.87 1841.93 1024.67 1817.13 1024.67C1791.8 1024.67 1760.6 1031.2 1721 1044.53C1712.2 1047.6 1704.73 1050 1704.33 1050C1703.93 1050 1711.13 1045.73 1720.33 1040.53C1764.73 1015.47 1811.53 980 1854.87 938.533C1878.2 916.267 1912.87 878 1911.27 876.4C1909.93 875.067 1903.13 881.867 1877 909.867C1865.67 922 1832.47 952.8 1814.07 968.133C1786.6 991.2 1747.93 1018.93 1717.93 1037.2C1706.47 1044.13 1690.6 1052.67 1689.13 1052.67C1688.73 1052.67 1693.27 1042.93 1699 1030.93C1710.87 1006.27 1724.2 973.2 1732.33 948.133C1739.53 925.467 1737.4 922.8 1729.67 944.933C1717.93 978.8 1701.8 1016.13 1687.4 1042.93C1683.4 1050.53 1680.07 1056.67 1679.93 1056.67C1679.8 1056.67 1676.33 1058 1672.33 1059.33L1665 1062L1670.73 1061.33C1674.47 1060.93 1676.33 1061.2 1676.33 1062.13C1676.33 1066.93 1627.13 1142.93 1619.13 1150.53C1616.87 1152.8 1615 1155.2 1615 1156.13C1615 1156.93 1608.6 1166.27 1600.87 1176.67C1593.13 1187.07 1586.33 1196.93 1585.67 1198.53C1584.2 1202.53 1574.73 1214.27 1563 1226.67C1557.4 1232.53 1548.87 1242.4 1544.07 1248.67C1495.13 1312.13 1426.2 1360.27 1346.33 1386.53C1301.53 1401.33 1253.8 1410.13 1232.6 1407.47C1224.47 1406.4 1212.73 1402.53 1214.07 1401.2C1214.33 1400.93 1218.33 1400.67 1223.13 1400.53C1230.2 1400.4 1233.4 1399.47 1242.33 1395.07C1256.07 1388.13 1268.33 1380 1285 1366.67C1300.73 1354.13 1322.47 1332.8 1327.53 1325.2C1330.2 1321.07 1333.67 1318.4 1341 1314.8C1348.33 1311.2 1351 1309.2 1351 1307.2C1351 1305.33 1350.07 1304.67 1347.4 1304.8C1344.47 1304.8 1344.2 1305.07 1346.07 1305.73C1347.93 1306.53 1347.27 1307.33 1342.33 1309.73C1335.53 1313.07 1334.47 1313.33 1335.67 1311.33C1337.13 1308.93 1334.87 1309.87 1332.6 1312.67C1329.53 1316.13 1306.73 1322.67 1287.93 1325.47C1264.33 1328.93 1234.2 1326.53 1206.73 1319.07C1199.13 1317.07 1196.33 1315.6 1196.33 1314.13C1196.33 1312.67 1193 1310.27 1187.4 1307.47C1155.27 1291.6 1051.13 1222.27 1050.2 1216.13C1049.8 1212.93 1040.33 1202.4 1031.67 1195.2C1022.73 1187.87 1002.87 1177.2 989.667 1172.67C979 1169.07 959.8 1164.8 954.067 1164.67C951.8 1164.67 949.533 1164.13 949.133 1163.47C947.933 1161.6 971.667 1160 997.667 1160.13C1036.73 1160.27 1055.13 1164.53 1139.13 1192C1165.13 1200.53 1195.67 1209.87 1207 1212.8C1218.33 1215.73 1228.6 1218.67 1229.8 1219.33C1231 1220 1236.87 1221.2 1242.87 1222.13C1261.4 1224.93 1280.2 1220.53 1309.67 1206.53C1345.27 1189.47 1371.67 1170.8 1399.67 1142.67C1438.73 1103.73 1466.2 1059.2 1483.67 1006.67C1489.27 989.867 1497.13 956.933 1495.8 955.6C1493.53 953.467 1491 957.867 1488.33 968.933C1476.07 1019.6 1450.87 1070.8 1418.33 1110.8C1408.87 1122.4 1385 1146.67 1375.53 1154.27L1368.33 1160L1335.27 1160.13C1317.13 1160.13 1301.13 1160.53 1299.67 1160.93C1298.2 1161.2 1293.53 1162 1289.27 1162.53C1285.13 1163.2 1281.27 1164.13 1280.87 1164.8C1280.47 1165.47 1279.67 1165.73 1279.13 1165.33C1278.47 1165.07 1274.87 1166.27 1271.13 1168.13C1264.07 1171.47 1261.53 1172 1241 1173.33C1234.47 1173.87 1228.6 1174.53 1227.93 1174.93C1227.4 1175.33 1225 1175.73 1222.6 1176C1218.33 1176.53 1206.47 1178.53 1200.33 1180C1198.47 1180.4 1192.47 1181.33 1187 1182C1176.47 1183.33 1172.6 1184 1163 1185.87C1159.67 1186.67 1155.27 1187.47 1153.13 1187.73C1150.6 1188.13 1138.2 1184.67 1116.47 1177.2C1056.07 1156.8 1034.07 1152.27 995 1152.13C959.267 1152.13 929.133 1156.67 902.067 1166.13C885.8 1171.87 869.667 1182.27 869.667 1186.93C869.667 1188.27 871.133 1187.6 874.6 1184.67C880.467 1179.47 894.467 1172.67 900.6 1172C903 1171.73 907.933 1170.53 911.533 1169.47C919.8 1166.8 931.8 1166.8 948.867 1169.33C987.133 1175.07 1015.93 1186.93 1035 1204.53C1039.4 1208.53 1037.8 1207.6 1029.27 1201.33C1022.87 1196.53 1016.87 1192.67 1015.93 1192.67C1015 1192.67 1015.53 1193.6 1017 1194.8C1020.47 1197.33 1054.33 1225.73 1058.87 1229.87L1062.33 1232.93L1057.27 1230.13L1052.33 1227.33L1045.93 1232.13C1034.07 1241.07 1030.73 1244 1021.27 1253.73C1015.93 1259.07 1008.73 1265.33 1005 1267.6C996.2 1272.93 975 1289.07 975 1290.27C975 1290.93 974.2 1291.33 973.267 1291.33C972.333 1291.33 969.267 1293.73 966.333 1296.67C963.4 1299.47 960.467 1302 959.667 1302C959 1302.13 956.867 1304 955 1306.13C953.133 1308.4 949.8 1312.27 947.533 1314.8C945.133 1317.33 942.2 1321.07 940.867 1322.93C939.4 1324.8 937.267 1327.33 936.067 1328.53C934.733 1329.6 933.667 1331.33 933.667 1332.4C933.667 1333.33 932.733 1334.4 931.667 1334.8C930.6 1335.33 929.667 1336.4 929.667 1337.33C929.667 1338.4 928.867 1340 927.933 1340.93C925.133 1343.73 913.933 1364 912.867 1367.87C912.467 1369.73 911.667 1371.33 911.133 1371.33C910.467 1371.33 909.267 1373.73 908.333 1376.67C906.733 1381.6 905.533 1382.53 896.467 1386.93C863.667 1402.53 827.933 1413.07 789 1418.93C768.733 1421.87 710.333 1422.27 691 1419.6C634.733 1411.6 591.667 1395.2 545 1364C519.133 1346.67 497.267 1329.33 478.733 1311.47C455.667 1289.33 445.133 1274.13 443.4 1260.53C442.6 1255.07 440.333 1251.87 440.333 1256.27C440.333 1261.87 444.733 1274.8 449.133 1282.53C456.467 1295.07 465.533 1305.73 483 1322.4C522.333 1360.13 573 1392.8 615.4 1408C700.733 1438.53 802.733 1434.13 887.667 1396.27C895 1392.93 901.133 1390.4 901.267 1390.53C901.533 1390.67 900.467 1393.2 899 1396C897.533 1398.93 896.333 1402 896.333 1402.93C896.333 1403.87 895.8 1404.67 895.133 1404.67C894.467 1404.67 893.533 1406.67 893 1408.93C892.467 1411.33 890.467 1416.93 888.333 1421.33C882.067 1434.8 882.733 1432.13 879.8 1454.67C876.2 1481.33 875.533 1486 874.867 1486.4C874.6 1486.53 869.267 1488.4 863 1490.4C808.733 1508.4 742.067 1576.67 718.867 1638L715 1648L715.8 1639.33C719.533 1597.73 746.333 1514.8 766.333 1482.53C772.867 1472.13 784.067 1460 788.467 1458.67C789.8 1458.13 791 1457.2 791 1456.53C791 1454.27 781.267 1460.27 775.133 1466.13C745.8 1494.53 711.133 1595.33 711 1652.13C711 1660.13 710.333 1672.27 709.667 1679.07C706.2 1711.6 716.2 1739.47 732.067 1741.6C735.8 1742.13 737.667 1741.87 737.667 1740.8C737.667 1740 735.667 1739.33 733.267 1739.33C723.267 1739.33 716.733 1726.4 714.333 1702.4C713.4 1691.87 717.4 1667.07 722.867 1650.27C740.067 1598 789.4 1538.53 840.867 1508.4C850.2 1502.8 870.067 1494 873.4 1494C874.6 1494 875 1498 875 1509.87C875 1518.67 875.533 1526.13 876.2 1526.53C876.733 1526.93 877.667 1531.47 878.2 1536.67C878.733 1541.73 879.533 1546 880.2 1546C880.733 1546 882.2 1550.13 883.667 1555.2C885 1560.4 886.6 1564.27 887.133 1563.87C887.667 1563.6 888.867 1565.47 889.667 1568C890.467 1570.53 891.8 1572.67 892.467 1572.67C893.133 1572.67 893.667 1573.6 893.667 1574.8C893.667 1575.87 894.2 1576.53 894.867 1576.13C895.533 1575.73 897 1576.8 898.2 1578.53C899.4 1580.4 901.933 1582 903.933 1582.27C908.333 1582.8 910.333 1588.53 908.333 1594.53C906.733 1599.07 906.467 1623.33 908.067 1623.33C908.6 1623.33 910.2 1626.4 911.533 1630.13C915.267 1640.67 919.667 1643.87 940.333 1650.53C950.2 1653.73 960.333 1656.8 962.733 1657.33C965.133 1657.87 967.533 1659.2 968.2 1660.53C969.667 1663.2 978.2 1665.87 997.667 1670C1020.73 1674.93 1019.93 1672.93 1004.33 1687.33C996.733 1694.27 987.133 1704.53 983 1710C978.733 1715.47 972.467 1722.67 969.133 1726C965.8 1729.2 963 1732.93 963 1734.13C963 1735.47 961.267 1737.73 959 1739.33C956.867 1740.93 955 1743.2 955 1744.27C955 1745.47 953 1750.13 950.6 1754.53C948.067 1759.07 944.733 1766.67 943.133 1771.47C941.4 1776.8 936.2 1786.4 930.2 1795.33C924.733 1803.6 918.467 1813.73 916.333 1818C914.2 1822.4 911.533 1826.27 910.6 1826.93C907.133 1829.07 880.333 1874 858.067 1915.07C831.4 1964.4 807.133 2018.93 795.933 2054.67C794.867 2058.27 787 2082.4 778.467 2108.13C762.6 2156.53 753 2190 755 2190C755.667 2190 756.867 2187.47 757.667 2184.27C760.467 2173.87 776.333 2127.33 789.133 2092.27C814.467 2023.47 831.4 1982.53 852.6 1939.6C863.8 1917.07 893.4 1865.33 894.6 1866.53C895 1866.8 894.6 1868.4 893.667 1869.87C892.867 1871.47 892.6 1872.67 893 1872.67C893.267 1872.67 897.267 1865.33 901.8 1856.27C909.8 1840.27 933.8 1802.67 951.4 1778.4C960.6 1765.6 962.333 1762.4 957.667 1766.67C956.2 1768 955 1768.53 955 1767.73C955 1766 993.667 1728.13 1013.53 1710.4C1033.27 1692.67 1037.13 1690.8 1051.8 1691.73L1062.87 1692.4L1083.8 1712.13C1109.53 1736.53 1132.73 1761.6 1149.53 1782.67C1156.47 1791.47 1171.27 1810 1182.47 1824C1206.47 1854.13 1215.93 1867.07 1235.8 1897.33C1290.47 1980.67 1360.87 2115.47 1382.07 2177.47L1386.33 2190H1478.47H1570.6L1573 2181.6C1574.33 2177.07 1575.67 2173.07 1575.8 2172.8C1576.07 2172.53 1579.93 2176.4 1584.6 2181.2L1593 2190H1698.73C1756.73 2190 1804.33 2189.73 1804.33 2189.33C1804.33 2189.07 1802.33 2184.13 1799.8 2178.4C1797.27 2172.67 1794.87 2166.53 1794.33 2164.67C1793.8 2162.8 1791.93 2158.93 1790.2 2156C1785.93 2148.53 1777.67 2123.33 1777.67 2117.47C1777.67 2114.8 1777.13 2112.67 1776.47 2112.67C1774.6 2112.67 1770.6 2073.07 1770.73 2054.67C1770.73 2040.13 1771.93 2027.47 1774.33 2016.67C1774.6 2015.6 1774.87 2013.47 1775 2012C1775.13 2009.33 1775.13 2009.33 1777 2011.87C1779.27 2014.8 1779.67 2012.53 1777.67 2008.8C1776.73 2006.93 1777.4 2003.47 1780.33 1995.33C1785 1982.8 1787.27 1964.8 1785.67 1954.53C1784.73 1948.93 1782.87 1945.47 1776.2 1936.67C1757.27 1912 1737 1900.4 1717.53 1903.07L1709.93 1904.13L1701.67 1894.93L1693.27 1885.73L1694.87 1880.53L1696.47 1875.33L1701.4 1878.67C1707.8 1883.07 1710.47 1882.93 1713 1878C1714.2 1875.73 1715.93 1874 1716.87 1874C1717.93 1874 1720.33 1872.13 1722.2 1869.87C1728.73 1862.13 1726.33 1849.07 1715.67 1836L1711.4 1830.67L1715.53 1812L1719.67 1793.2L1726.87 1796.93C1734.07 1800.67 1741.27 1801.73 1745.53 1799.47C1747.27 1798.53 1749.4 1799.2 1753.8 1802.13C1759.8 1806 1762.47 1805.2 1758.33 1800.67C1754.73 1796.67 1740.07 1788.4 1738.07 1789.2C1737 1789.6 1736.6 1789.33 1737 1788.67C1738.07 1787.07 1736.33 1786.93 1733.93 1788.53C1732.6 1789.33 1733.27 1790 1736.47 1791.2C1738.87 1792 1740.33 1793.07 1739.8 1793.6C1739.4 1794.13 1740.6 1795.2 1742.6 1796.13L1746.33 1797.73L1742.73 1797.6C1740.6 1797.47 1739 1796.93 1739 1796.27C1739 1795.6 1737.93 1795.47 1736.73 1795.87C1735.27 1796.53 1733.4 1795.6 1731.27 1793.07C1729.53 1791.07 1728.47 1790.13 1729 1791.07C1730.07 1793.07 1728.47 1793.07 1723.93 1790.93C1721.93 1790.13 1720.33 1788.53 1720.33 1787.6C1720.33 1786.8 1719.8 1786 1719 1786C1718.33 1786 1717.67 1784.8 1717.67 1783.47C1717.67 1780.53 1715.53 1778.67 1714.47 1780.53C1713.93 1781.2 1714.47 1782 1715.27 1782.4C1716.2 1782.8 1715.67 1782.93 1714.07 1782.93C1711.67 1782.8 1711.4 1782.4 1712.73 1780.8C1714.07 1779.2 1713.8 1778.93 1711.4 1779.6C1709.67 1780.13 1708.07 1780 1707.8 1779.47C1706.73 1777.87 1725.8 1777.87 1733.53 1779.47C1747.8 1782.27 1763.93 1792.93 1762.2 1798.27C1761.8 1799.87 1762.2 1800.67 1763.53 1800.67C1765.67 1800.67 1766.2 1799.2 1765.67 1795.33C1765.27 1791.87 1756.33 1783.73 1749 1780.27C1745.13 1778.27 1737.67 1776 1732.47 1775.2L1723 1773.6L1723.67 1769.47C1726.07 1754.93 1727.13 1740.13 1727.93 1711.2C1728.6 1683.07 1728.47 1677.73 1726.6 1674.27C1724.6 1670.27 1724.73 1670 1728.47 1666.13C1730.47 1664 1735.27 1655.73 1739 1647.73C1742.73 1639.87 1748.2 1628.53 1751.13 1622.67C1754.07 1616.8 1756.33 1610.93 1756.33 1609.6C1756.33 1608.4 1757 1607.33 1757.8 1607.33C1758.87 1607.33 1759.13 1600.53 1758.73 1582.93L1758.07 1558.67L1750.73 1535.87L1743.53 1513.07L1751.8 1518.67C1767.8 1529.73 1785.67 1534.27 1811.67 1534.27C1856.47 1534.27 1895.53 1520 1924.07 1493.47L1932.73 1485.33L1923.13 1504.27C1898.87 1551.6 1870.6 1591.33 1861.27 1591.33C1859.13 1591.33 1857.8 1591.87 1858.33 1592.67C1858.73 1593.33 1860.73 1594 1862.73 1594C1865.53 1594 1868.73 1591.47 1876.33 1583.6C1894.73 1564.53 1915.4 1532.13 1934.6 1492.67C1940.87 1479.87 1949.13 1462.93 1953.13 1454.93C1961 1439.33 1961.67 1436.13 1957.67 1434C1954.33 1432.27 1952.87 1434.4 1945.8 1452.67C1941.27 1464.4 1938.87 1468.27 1931.4 1477.07C1903 1509.47 1862.87 1526.27 1813.67 1526.13C1795.53 1526.13 1787 1525.07 1773.8 1521.2C1756.73 1516.27 1740.07 1504.53 1738.33 1496.27C1737.8 1493.87 1736.6 1490.13 1735.53 1488C1734.47 1485.73 1733.13 1481.2 1732.47 1478C1731.67 1474.13 1731.27 1473.2 1731.13 1475.33C1730.87 1478.53 1730.87 1478.53 1729 1476.13C1726.33 1472.53 1726.47 1471.73 1730.33 1470.8C1734.87 1469.6 1737.13 1462 1735 1454.27C1734.2 1451.07 1733 1448.93 1732.33 1449.33C1731.53 1449.87 1731 1448.67 1731 1446.8C1731 1445.07 1730.2 1442.67 1729.27 1441.73C1727.53 1440 1725.27 1435.33 1726.2 1435.33C1726.47 1435.33 1729.27 1436.27 1732.47 1437.33C1743.53 1441.2 1773.4 1448.53 1787.27 1450.67C1794.73 1451.87 1809.67 1453.07 1820.33 1453.47L1839.67 1454.27L1853.67 1449.47C1863.4 1446.13 1873.13 1441.33 1885.67 1433.73C1895.53 1427.73 1904.33 1422.13 1905 1421.2C1906.73 1419.2 1917.67 1412.4 1919.8 1412.13C1920.6 1412 1924.33 1409.33 1927.8 1406.13C1931.4 1403.07 1941.13 1395.73 1949.4 1390C1957.67 1384.27 1969.13 1375.33 1974.87 1370.13C1980.6 1364.93 1985.93 1360.67 1986.47 1360.67C1988.47 1360.67 2025.93 1323.2 2032.6 1314.67C2035.93 1310.27 2043.13 1301.87 2048.33 1296.13C2065.8 1276.53 2073.8 1254.8 2075.67 1221.33C2076.07 1213.2 2076.73 1204.8 2077.13 1202.67C2077.4 1200.4 2078.07 1196.4 2078.33 1193.47C2079.53 1183.2 2084.33 1166 2089.13 1154.4C2091.8 1148 2094.2 1141.47 2094.47 1140C2094.6 1138.53 2096.73 1132.27 2099 1126C2101.27 1119.73 2103.4 1113.6 2103.67 1112.27C2104.6 1107.87 2105.67 1107.6 2115.67 1108.27C2122.6 1108.8 2126.2 1108.53 2127.67 1107.33C2131.13 1104.4 2128.47 1103.33 2117.53 1103.33C2111.8 1103.33 2107 1102.8 2107 1102.27C2107 1101.73 2111.27 1099.87 2116.47 1098.13C2121.67 1096.53 2135.27 1089.6 2146.73 1083.07C2182.87 1062.13 2195.4 1052.53 2169.93 1065.2C2163.53 1068.4 2154.2 1072.67 2149 1074.67C2139.93 1078.27 2115.27 1084 2114.07 1082.8C2113.8 1082.53 2114.47 1080.4 2115.53 1078.13C2116.73 1076 2117.67 1073.2 2117.67 1072.13C2117.67 1070.93 2122.47 1064.8 2128.47 1058.4C2165.93 1017.73 2200.07 956.267 2208.87 913.467C2211.67 900.267 2211.67 881.6 2209 878.8C2207.93 877.733 2207 874.8 2207 872.133C2207 862.8 2202.87 835.6 2198.2 814.8C2183.53 748.8 2161.8 697.867 2130.2 655.2C2118.47 639.467 2091.4 611.333 2087.93 611.333C2086.73 611.333 2085.67 611.733 2085.67 612.133ZM2206.6 900.933C2206.2 902 2205.8 901.6 2205.8 900.133C2205.67 898.667 2206.07 897.867 2206.47 898.4C2206.87 898.8 2207 900 2206.6 900.933ZM1837 1029.47C1844.33 1030.53 1854.6 1032.53 1859.67 1033.87L1869 1036.27L1844.2 1036.4C1830.6 1036.53 1812.87 1037.2 1804.87 1038C1771.27 1041.33 1731.8 1049.87 1698.07 1061.2C1681 1066.93 1680.6 1067.07 1681.93 1064C1685.27 1056.53 1766.6 1031.2 1799 1027.47C1810.2 1026.13 1817.4 1026.53 1837 1029.47ZM2111.67 1079.73C2110.07 1083.47 2108.87 1084.67 2106.47 1084.67C2104.6 1084.67 2102.07 1085.07 2100.73 1085.6C2099.4 1086.13 2101.53 1083.73 2105.53 1080.27C2109.53 1076.8 2113 1074.27 2113.27 1074.53C2113.53 1074.67 2112.73 1077.07 2111.67 1079.73ZM2099.67 1109.6C2099.4 1110.93 2097.93 1115.33 2096.33 1119.33C2094.73 1123.33 2093.27 1127.73 2093 1128.93C2092.33 1132 2089.53 1137.07 2088.87 1136.4C2088.6 1136 2089.27 1131.6 2090.33 1126.53C2091.4 1121.47 2092.33 1115.47 2092.33 1113.07C2092.33 1110.13 2093.13 1108.67 2094.73 1108.27C2099.13 1107.07 2100.2 1107.33 2099.67 1109.6ZM2044.33 1138.27C2044.33 1141.33 2037.53 1161.87 2036.33 1162.67C2033.53 1164.4 2036.6 1144.67 2039.8 1139.6C2041.93 1136.4 2044.33 1135.73 2044.33 1138.27ZM2088.07 1141.33C2087.27 1143.2 2086.33 1144.53 2086.2 1144.27C2085.4 1143.47 2087.4 1138 2088.47 1138C2089.13 1138 2088.87 1139.47 2088.07 1141.33ZM2064.33 1149.33C2064.33 1150.4 2063.27 1151.33 2062.07 1151.47C2060.6 1151.47 2060.33 1151.87 2061.4 1152.27C2063.93 1153.33 2063.27 1157.6 2060.33 1158.4C2058.6 1158.8 2057.67 1158.4 2057.67 1157.2C2057.67 1156.13 2058.07 1155.47 2058.73 1155.6C2059.27 1155.87 2059.8 1155.33 2059.93 1154.67C2059.93 1153.87 2059.4 1153.47 2058.6 1153.73C2057.67 1154 2058.47 1152.67 2060.2 1150.8C2063.93 1146.8 2064.33 1146.67 2064.33 1149.33ZM1783.67 1160.8C1785 1162.93 1783.13 1164 1781.4 1162.27C1779.53 1160.4 1773.67 1160.13 1773.67 1161.87C1773.67 1162.53 1775.13 1162.93 1776.87 1162.53C1780.33 1162 1782.73 1163.87 1780.33 1165.33C1779.53 1165.87 1779.4 1166.93 1779.93 1167.73C1780.33 1168.67 1779.4 1168.13 1777.67 1166.67C1775.93 1165.2 1775 1164.8 1775.53 1165.6C1776.07 1166.53 1776.2 1167.33 1775.8 1167.33C1774.47 1167.33 1772.2 1162 1773 1160.67C1774.07 1158.93 1782.6 1158.93 1783.67 1160.8ZM1671.67 1178C1672.07 1178.67 1670.47 1179.2 1668.07 1179.07C1663.53 1178.93 1657.8 1181.2 1656.07 1183.73C1655.53 1184.53 1654.47 1184.27 1653 1182.93C1650.73 1180.53 1649 1179.87 1650.2 1181.73C1650.47 1182.27 1650.33 1183.6 1649.67 1184.67C1648.73 1186.27 1648.33 1186.13 1647.53 1184.27C1646.33 1180.93 1647.13 1180.4 1657.27 1178.67C1669.53 1176.67 1670.87 1176.67 1671.67 1178ZM1418.6 1409.73C1419.27 1410.27 1421.53 1414.27 1423.53 1418.67C1425.53 1423.07 1431.27 1432 1436.2 1438.67C1441.27 1445.2 1447.93 1454.8 1451 1459.87C1455.93 1468 1464.87 1481.87 1472.33 1492.67C1476.6 1498.93 1501.93 1547.47 1501.27 1548.13C1500.33 1549.07 1495.67 1541.07 1483.93 1518.67C1478.2 1507.6 1470.73 1494.8 1467.27 1490.13C1458.73 1478.53 1443 1461.6 1431.53 1452C1426.33 1447.6 1420.33 1441.6 1418.2 1438.67C1416.2 1435.73 1411.8 1430.13 1408.73 1426.27C1400.87 1416.67 1401 1412.8 1409.4 1404.27L1415.67 1397.87L1416.47 1403.33C1416.87 1406.4 1417.8 1409.33 1418.6 1409.73ZM1596.6 1580C1600.6 1590.13 1600.87 1591.87 1601.67 1616.67C1603 1652 1605.67 1667.2 1613 1680C1614.6 1682.93 1616.33 1688.67 1616.87 1692.67C1617.8 1699.87 1617.8 1700 1615.53 1696.67C1610.6 1689.33 1603.27 1682.93 1596.07 1679.47C1591.8 1677.33 1588.33 1676.13 1588.33 1676.67C1588.33 1677.2 1585.13 1678 1581.4 1678.27C1577.53 1678.67 1573.27 1679.47 1572.07 1680C1570.33 1680.67 1569.67 1680.27 1569.67 1678.67C1569.67 1677.47 1570.33 1676.93 1571 1677.33C1571.8 1677.73 1572.33 1677.47 1572.33 1676.53C1572.33 1675.6 1573.8 1671.07 1575.67 1666.4C1578.07 1660.4 1579.67 1652.67 1581 1639.33C1582.07 1629.07 1583.53 1616.53 1584.2 1611.6C1584.87 1606.67 1586.2 1592.13 1587.13 1579.33C1588.87 1556.13 1588.87 1556 1590.73 1562.67C1591.67 1566.27 1594.33 1574.13 1596.6 1580ZM1652.73 1636.93C1662.33 1643.47 1673.27 1656 1673.27 1660.67C1673.27 1661.73 1674.6 1668.27 1676.33 1675.07C1677.93 1681.87 1679 1687.73 1678.73 1688.13C1678.33 1688.4 1675 1685.87 1671.4 1682.4C1666.73 1678.13 1663.8 1673.87 1662.2 1669.33C1660.6 1665.2 1657.13 1660 1653 1655.6C1647 1649.47 1645.53 1648.67 1640.87 1648.67C1637 1648.67 1634.33 1649.73 1631 1652.53C1626.47 1656.27 1626.33 1656.67 1625.93 1667.2C1625.27 1680.13 1623.4 1681.2 1619.13 1671.2C1615.8 1663.2 1615.4 1650.4 1618.2 1644.93C1620.6 1640.4 1625.27 1635.87 1629.67 1634.13C1634.73 1631.87 1647.93 1633.47 1652.73 1636.93ZM1591.67 1683.33C1592.07 1684 1593.4 1684.67 1594.6 1684.67C1600.07 1684.67 1615.27 1702.4 1613 1706C1612.47 1706.8 1613 1708.27 1614.33 1709.07C1615.53 1710.13 1617.13 1714.4 1617.93 1719.6C1619.4 1728.13 1618.6 1738 1614.07 1762.27C1613.4 1765.6 1613.8 1765.87 1619.53 1766.67C1624.87 1767.47 1635.8 1765.2 1645.27 1761.2C1647.67 1760.13 1647.13 1772 1644.2 1781.47C1642.73 1786.4 1639.13 1793.2 1635.53 1797.87C1632.2 1802.4 1629.27 1806 1629 1806C1628.47 1806 1630.07 1800.13 1632.07 1795.07C1633.8 1790.8 1635.8 1771.33 1634.47 1771.33C1633.67 1771.33 1628.6 1774 1621.67 1777.87C1612.6 1782.93 1610.87 1783.47 1609 1782C1607.93 1781.07 1607 1779.6 1607 1778.8C1607 1778 1606.07 1775.73 1605.13 1773.73C1603.53 1770.8 1603.53 1769.87 1604.87 1769.07C1607 1767.73 1610.2 1762 1608.73 1762C1608.2 1762 1608.33 1761.47 1609.13 1760.93C1611 1759.73 1612.47 1753.73 1611.27 1752C1610.73 1751.2 1608.73 1749.6 1606.73 1748.27C1602.47 1745.6 1599.8 1740.93 1596.33 1730.27C1589 1707.6 1580.73 1694 1574.2 1694C1572.2 1694 1570.33 1688.4 1571.4 1685.47C1571.8 1684.4 1573.53 1683.33 1575.27 1682.93C1581.27 1681.73 1590.87 1682 1591.67 1683.33ZM1697 1754.8C1696.6 1758.13 1695 1761.33 1693.27 1762.8C1691.67 1764.13 1690.73 1764.8 1691.27 1764.13C1691.8 1763.47 1691.27 1762.13 1689.93 1761.07C1688.6 1759.87 1688.47 1759.6 1689.67 1760.13C1691.4 1761.07 1691.4 1760.93 1689.67 1758.8C1686.6 1755.07 1686.87 1753.07 1691.8 1742.93C1694.33 1737.73 1696.47 1732.53 1696.6 1731.33C1696.73 1730.27 1697.13 1733.87 1697.4 1739.33C1697.67 1744.8 1697.53 1751.87 1697 1754.8ZM1597 1758C1597.4 1758.8 1596.87 1758.93 1595.8 1758.53C1593.4 1757.6 1593 1756.67 1594.87 1756.67C1595.67 1756.67 1596.6 1757.2 1597 1758ZM1587.93 1762.27C1587.53 1763.33 1587.13 1762.93 1587.13 1761.47C1587 1760 1587.4 1759.2 1587.8 1759.73C1588.2 1760.13 1588.33 1761.33 1587.93 1762.27ZM1682.87 1765.2C1681.67 1766.27 1681.53 1766.13 1682.2 1764.27C1682.6 1762.93 1683.13 1761.07 1683.13 1760.27C1683.27 1759.33 1683.53 1759.73 1683.93 1761.2C1684.33 1762.53 1683.8 1764.27 1682.87 1765.2ZM1590.07 1768C1590.6 1769.07 1590.33 1770.27 1589.67 1770.67C1588.87 1771.2 1588.33 1770.27 1588.33 1768.8C1588.33 1765.47 1589.13 1765.2 1590.07 1768ZM1683.93 1767.2C1684.87 1766.27 1685.67 1766.27 1685.67 1766.93C1685.67 1767.73 1684.33 1768.8 1682.73 1769.6C1680.2 1770.67 1680.07 1770.93 1682.2 1771.73C1683.53 1772.27 1684.2 1772.13 1683.67 1771.33C1683.27 1770.53 1683.53 1770 1684.33 1770C1685.27 1770 1685.53 1770.93 1685.13 1772.13C1684.73 1773.2 1685 1776.93 1685.8 1780.27L1687.4 1786.27L1677.53 1796.13C1672.2 1801.6 1666.87 1806 1665.93 1806C1665 1806 1664.6 1805.33 1665.13 1804.4C1665.67 1803.6 1665.53 1803.33 1664.73 1803.73C1663.93 1804.27 1662.6 1803.73 1661.67 1802.67C1660.73 1801.6 1659.53 1801.07 1658.87 1801.47C1658.2 1801.87 1657.67 1801.47 1657.67 1800.67C1657.67 1799.87 1657 1799.6 1656.07 1800.13C1655 1800.8 1654.87 1800.4 1655.4 1798.67C1655.93 1797.33 1655.67 1795.73 1654.73 1794.8C1653.8 1794 1653.13 1793.47 1653.4 1793.6C1654.33 1794 1671.8 1776.8 1675.67 1771.47C1678.07 1768.27 1680.2 1766.67 1680.87 1767.33C1681.67 1768.13 1682.87 1768 1683.93 1767.2ZM1602.73 1778.93C1606.87 1784.27 1610.6 1799.73 1608.47 1802.53C1607.93 1803.33 1606.73 1807.6 1605.8 1811.87C1605 1816.27 1603.4 1821.2 1602.33 1822.93C1601.13 1824.67 1600.87 1826 1601.67 1826C1603.53 1826 1608.33 1818 1608.33 1814.8C1608.33 1813.33 1608.6 1812.53 1609 1812.93C1609.4 1813.33 1610.33 1821.07 1611.13 1830.13C1611.8 1839.2 1613.67 1851.33 1615.13 1857.2C1618.2 1869.33 1629.8 1899.47 1636.87 1914C1648.47 1937.47 1665.67 1975.6 1669 1985.07C1673.27 1996.93 1674.47 1993.87 1657.93 2013.47C1643.4 2030.53 1629.53 2051.6 1617.67 2074C1612.47 2083.87 1608.47 2090.8 1608.87 2089.33C1612.07 2077.07 1615.53 2055.6 1615.53 2048C1615.67 2042.8 1616.07 2038.4 1616.6 2038C1618.07 2036.93 1618.47 2022 1617.13 2018C1616.47 2015.47 1616.47 2015.2 1617.53 2016.67C1621.13 2021.73 1618.33 2013.2 1608.2 1988.13C1602.2 1973.33 1597.27 1960.4 1597.13 1959.33C1597 1958.27 1592.47 1946.27 1587.13 1932.67C1570.87 1891.87 1571.4 1893.6 1569.53 1865.07C1567.27 1826.67 1571 1801.33 1581.4 1786.67C1583.8 1783.2 1586.07 1780.53 1586.2 1780.8C1586.47 1781.07 1586.07 1785.2 1585.4 1790C1582.73 1808.8 1588.07 1826 1596.73 1826C1599.53 1826 1599.53 1825.87 1596.33 1824.27C1590.47 1821.33 1588.2 1811.87 1588.87 1793.6C1589.27 1784.4 1590.2 1776.93 1591.13 1775.87C1593.93 1772.53 1598.6 1773.73 1602.73 1778.93ZM1621 1808.67C1619.93 1812 1615.53 1812.13 1613.93 1808.93C1613.27 1807.73 1612.33 1803.47 1611.8 1799.6C1611.27 1795.73 1610.6 1791.6 1610.07 1790.27C1609.67 1789.07 1612.2 1792.13 1615.53 1797.07C1619.93 1803.33 1621.53 1806.93 1621 1808.67ZM1649.67 1798.93C1649.67 1802.13 1648.47 1803.33 1642.07 1806.67C1631.27 1812.4 1631.13 1812.4 1637.53 1805.2C1642.47 1799.87 1647.53 1795.6 1649.4 1795.33C1649.53 1795.33 1649.67 1796.93 1649.67 1798.93ZM1655.8 1805.6C1655.27 1806.8 1655.53 1807.07 1656.6 1806.53C1657.53 1805.87 1657.8 1806.27 1657.4 1807.6C1656.87 1808.67 1657.27 1809.6 1658.33 1809.6C1659.27 1809.6 1659.8 1808.8 1659.4 1807.73C1659 1806.8 1659.4 1806 1660.33 1806C1661.13 1806 1661.4 1805.33 1660.87 1804.53C1660.33 1803.47 1659.67 1803.6 1658.87 1804.8C1658.07 1806.13 1657.67 1806.13 1657.67 1805.07C1657.67 1802 1659.93 1802.13 1662.73 1805.33C1665.4 1808.4 1665.4 1808.53 1663 1810.67C1661.4 1812.13 1660.33 1812.4 1659.67 1811.33C1658.2 1809.07 1656.2 1811.33 1657.13 1814.27C1657.67 1816.13 1657.53 1816.67 1656.47 1816C1655.53 1815.47 1655 1814.13 1655.13 1812.93C1655.27 1811.6 1655.13 1810.4 1655 1810C1654.07 1808.13 1654.33 1802.27 1655.4 1802.93C1655.93 1803.33 1656.2 1804.53 1655.8 1805.6ZM1629.67 1816.53C1629.67 1817.2 1630.33 1818 1631.13 1818.27C1631.93 1818.53 1633.93 1820.93 1635.53 1823.6C1637 1826.13 1640.87 1832 1644.07 1836.53C1651.13 1846.67 1684.87 1914.8 1692.07 1933.6L1697.4 1947.33H1689.8C1683.53 1947.33 1673.53 1950 1663 1954.4C1658.87 1956.13 1628.47 1888.67 1619.93 1859.33C1618.2 1853.33 1615.4 1835.33 1613.27 1816.67C1612.87 1813.6 1613.27 1813.2 1616.6 1813.73C1619.93 1814.27 1620.73 1813.73 1621.93 1810.27L1623.53 1806.13L1626.6 1810.67C1628.33 1813.2 1629.67 1815.73 1629.67 1816.53ZM1674.6 1808.67C1674.87 1811.6 1673 1812.27 1671.53 1809.87C1670.87 1808.67 1672.2 1806.93 1674.33 1806C1674.47 1806 1674.47 1807.2 1674.6 1808.67ZM1708.2 1836.53C1711.8 1840.13 1716.33 1845.73 1718.07 1848.93C1721.93 1855.47 1722.6 1864.4 1719.4 1865.6C1718.07 1866.13 1717.93 1866.67 1719 1867.33C1720.07 1868 1719.93 1868.67 1718.73 1869.73C1717.27 1870.93 1716.87 1870.53 1716.73 1868.4C1716.6 1866.8 1717.53 1864.8 1718.73 1863.87C1719.93 1862.93 1720.47 1861.73 1719.93 1861.2C1719.4 1860.53 1718.33 1860.93 1717.67 1862C1716.6 1863.73 1716.33 1863.6 1716.33 1861.6C1716.33 1860.4 1717.27 1859.33 1718.33 1859.33C1721.4 1859.33 1720.73 1856.93 1717 1854.53C1714.47 1852.93 1713.93 1851.87 1715 1850.67C1716.07 1849.47 1715.8 1848.8 1714.33 1848.13C1713.13 1847.73 1712.33 1846.93 1712.73 1846.4C1713 1845.73 1711.67 1843.87 1709.93 1842L1706.73 1838.67L1707.67 1842C1713.13 1859.6 1713.53 1866.27 1709.53 1869.2C1707.67 1870.4 1707 1872 1707.53 1873.33C1707.93 1874.53 1707.8 1875.07 1707 1874.67C1706.2 1874.27 1705.67 1872.53 1705.67 1870.93C1705.67 1868.53 1705.4 1868.27 1704.2 1870C1703 1871.73 1702.87 1871.6 1703.53 1869.6C1703.93 1868.4 1703.67 1867.33 1703 1867.33C1702.2 1867.33 1701.67 1868 1701.67 1868.8C1701.67 1869.6 1700.87 1870 1700.07 1869.6C1698.33 1869.07 1698.2 1868.4 1697.8 1862.67C1697.67 1860.53 1697.4 1860.4 1696.47 1862C1695.67 1863.07 1695.53 1864.4 1695.93 1865.2C1696.33 1865.87 1696.07 1866 1695.13 1865.47C1694.33 1864.93 1694.07 1863.87 1694.47 1863.07C1696.2 1860.27 1695 1847.33 1692.33 1840.4C1690.87 1836.53 1687 1829.87 1683.8 1825.47C1680.47 1821.2 1678.2 1816.93 1678.6 1816C1679.4 1813.73 1699 1827.33 1708.2 1836.53ZM1657.67 1848.93C1659.67 1851.73 1659.93 1852.67 1658.47 1851.47C1656.33 1849.73 1653 1844.67 1654.07 1844.67C1654.33 1844.67 1655.93 1846.67 1657.67 1848.93ZM1718.33 1856.67C1718.73 1857.33 1718.6 1858 1717.8 1858C1717.13 1858 1716.07 1857.33 1715.67 1856.67C1715.27 1855.87 1715.4 1855.33 1716.2 1855.33C1716.87 1855.33 1717.93 1855.87 1718.33 1856.67ZM1668.33 1866.27C1668.33 1867.6 1669 1868.27 1670.07 1867.87C1672.87 1866.8 1710.73 1911.6 1722.6 1930C1727.4 1937.33 1729 1942 1733.67 1960.53C1736.6 1972.67 1739 1982.93 1739 1983.6C1739 1984.27 1737.93 1984.13 1736.47 1983.47C1735.13 1982.67 1729.93 1980.93 1725 1979.6L1715.93 1977.2L1712.47 1966.53C1708.6 1955.33 1705 1948.67 1702.47 1948.67C1701.67 1948.53 1699 1942.4 1696.6 1934.93C1691 1918 1681.93 1896.8 1673.93 1882C1670.6 1875.73 1666.2 1867.47 1664.2 1863.6L1660.6 1856.4L1664.47 1860.13C1666.6 1862.13 1668.33 1864.93 1668.33 1866.27ZM1737.53 1909.33C1753.27 1916.67 1768.87 1930.4 1778.33 1945.2C1782.2 1951.2 1783 1953.73 1783 1959.6C1783 1971.47 1775.27 2002 1772.2 2002C1771.53 2002 1768.47 2000 1765.27 1997.6C1762.07 1995.07 1755.53 1991.47 1750.73 1989.33L1742.07 1985.6L1740.2 1971.47C1739.13 1963.73 1738.47 1955.73 1738.6 1953.87C1739 1950.4 1729.53 1928.13 1727.4 1927.2C1724.73 1926 1712.6 1907.47 1714.07 1906.8C1718.87 1904.93 1730.73 1906.27 1737.53 1909.33ZM1698.33 1952.93C1701.67 1953.87 1704.47 1955.07 1704.47 1955.6C1704.73 1957.47 1705.13 1958.53 1707.53 1963.73C1708.73 1966.67 1709.53 1969.87 1709.27 1971.07C1708.87 1972.67 1708.6 1972.4 1708.47 1970.4C1708.47 1968.8 1707.8 1967.2 1707.27 1966.8C1706.73 1966.53 1706.47 1968.27 1706.73 1970.67C1707.13 1973.87 1707.8 1974.93 1709.13 1974.4C1710.2 1974 1711 1974.27 1711 1975.07C1711 1975.87 1707.13 1976.4 1701 1976.27C1695.53 1976.13 1691 1976.4 1691 1976.93C1691 1977.6 1690.07 1978 1689 1978C1687.93 1978 1687 1977.33 1687 1976.53C1687 1975.87 1687.53 1975.47 1688.2 1975.87C1688.87 1976.27 1689.67 1975.73 1690.2 1974.67C1690.6 1973.6 1690.33 1972.4 1689.67 1972C1689 1971.6 1688.73 1970.4 1689.13 1969.47C1689.53 1968.53 1688.87 1966.93 1687.67 1966C1686.6 1965.07 1685.67 1964.93 1685.67 1965.73C1685.67 1966.4 1683.4 1967.07 1680.73 1967.2C1671.53 1967.47 1671 1967.47 1670.33 1968.8C1669.8 1969.47 1670.6 1970.4 1671.93 1970.93C1675 1972.13 1677.67 1974.67 1677.67 1976.53C1677.67 1977.33 1676.73 1977.6 1675.53 1977.07C1674.33 1976.67 1672.87 1977.07 1672.2 1978.13C1671.4 1979.33 1671.27 1978.67 1671.8 1976.13C1672.33 1974 1672.2 1972.53 1671.53 1973.07C1670.87 1973.47 1668.33 1969.87 1666.07 1965.2C1663.67 1960.53 1662.2 1956.8 1662.73 1956.93C1663.27 1957.07 1665.53 1956.4 1667.67 1955.47C1677.27 1951.47 1689.13 1950.53 1698.33 1952.93ZM1589.27 1964.93C1588.87 1966 1588.47 1965.6 1588.47 1964.13C1588.33 1962.67 1588.73 1961.87 1589.13 1962.4C1589.53 1962.8 1589.67 1964 1589.27 1964.93ZM1683 1969.07C1683 1969.73 1683.8 1969.6 1684.73 1968.8C1687.13 1966.93 1688.73 1968.53 1686.73 1970.93C1685.93 1971.87 1685.67 1973.07 1686.2 1973.6C1686.6 1974 1687 1973.73 1687 1972.8C1687 1971.87 1687.67 1971.6 1688.33 1972C1689.13 1972.53 1688.33 1974 1686.33 1975.6C1684.47 1976.93 1683 1978.93 1683 1979.73C1683 1980.67 1683.67 1980.53 1684.47 1979.33C1685.67 1977.6 1685.8 1977.6 1685.27 1979.33C1685 1980.4 1683.93 1981.2 1683.13 1980.93C1682.33 1980.8 1681.67 1981.33 1681.67 1982.13C1681.67 1982.8 1681.13 1983.07 1680.33 1982.67C1679.67 1982.27 1679.4 1980 1679.93 1977.6C1680.87 1972.27 1681.53 1971.6 1683 1974C1684.07 1975.73 1684.33 1975.6 1684.33 1973.6C1684.33 1972 1683.27 1971.33 1681 1971.33C1679.13 1971.33 1677.67 1970.53 1677.67 1969.6C1677.67 1968.67 1678.87 1967.87 1680.33 1967.87C1681.8 1967.87 1683 1968.4 1683 1969.07ZM1604.73 1996.93C1612.6 2017.73 1615.13 2028.67 1612.33 2028.67C1611.27 2028.67 1611 2029.73 1611.4 2031.6C1612.2 2034.53 1611.53 2040.93 1607.67 2068.27C1606.6 2075.73 1605.67 2085.2 1605.67 2089.2C1605.67 2093.33 1605.13 2096.67 1604.33 2096.67C1603.67 2096.67 1603 2096.27 1603 2095.6C1603 2095.07 1599.93 2093.6 1596.2 2092.27L1589.4 2089.73L1590.2 2084.27C1592.33 2068.4 1596.33 2003.33 1596.33 1982.13C1596.33 1978.93 1596.6 1976.53 1596.87 1976.8C1597.13 1977.07 1600.73 1986.13 1604.73 1996.93ZM1679 1983.87C1679 1984.4 1678.07 1984.53 1676.87 1984.13C1675.13 1983.47 1675 1983.73 1676.07 1985.07C1676.87 1986 1677 1987.47 1676.47 1988.53C1675.53 1990 1675.13 1989.73 1674.47 1987.6C1673.4 1984.27 1676.33 1978.67 1677.93 1981.07C1678.47 1982 1679 1983.2 1679 1983.87ZM1499.13 2021.07C1499.53 2020.93 1499.53 2022.53 1499.27 2024.67C1498.87 2027.33 1500.73 2032.67 1505.8 2042.93C1514.73 2061.07 1514.87 2061.6 1509 2052.67C1504.2 2045.33 1494.87 2026.8 1493 2020.93C1492.2 2018 1492.2 2017.87 1495.27 2019.47C1496.87 2020.4 1498.73 2021.2 1499.13 2021.07ZM1530.47 2023.2C1534.2 2024.93 1541 2030.53 1548.73 2038.27C1559 2048.53 1562.33 2053.07 1568.33 2064.53C1576.87 2080.8 1577.13 2081.33 1575.13 2080.13C1571.93 2078.13 1573.93 2081.73 1578.73 2086.27C1584.6 2092.13 1598.47 2100.67 1601.93 2100.67C1603.27 2100.67 1604.33 2100.93 1604.33 2101.2C1604.33 2101.47 1602.33 2107.2 1599.8 2113.73C1593.67 2129.73 1587 2156.8 1586.6 2167.07L1586.33 2175.33L1580.33 2168.53C1567 2153.2 1558.47 2140.27 1547.53 2118.67C1505.27 2034.93 1501.4 2026.27 1504.47 2022.4C1507.67 2018.67 1521 2019.07 1530.47 2023.2Z"/>
		<path id="Vector_24" d="M917.533 1970C907.8 1975.6 920.6 2034.4 944.333 2094C962.067 2138.4 986.733 2190 990.333 2190C991.8 2190 990.733 2187.07 986.467 2178.93C971.533 2151.47 945.8 2090.67 935.267 2058C922.067 2017.33 915.133 1976.8 920.867 1974.53C925 1972.93 933.533 1980.27 977 2023.2C1062.07 2107.2 1152.2 2190 1158.73 2190C1161.4 2190 1160.73 2188.93 1154.07 2182.93C1087.53 2122.13 1056.47 2092.67 1004.33 2041.33C949 1986.8 935.8 1974.53 929.8 1971.33C923.933 1968.4 920.867 1968.13 917.533 1970Z"/>
		<g id="eyes">
			<path id="Vector 3" d="M2038.93 1202.7C2025.52 1200.14 2022.57 1161.51 2031.24 1125.83L2070.26 1107.11C2073.02 1167.81 2050.55 1198.95 2038.93 1202.7Z" fill="#FFC700"/>
			<path id="Vector 4" d="M2052.34 1188.62C2054.71 1126.77 2058.53 1126.95 2027.42 1148.24C2027.42 1127.68 2047.06 1120.84 2069.62 1106.03C2072.17 1113.86 2065.98 1178.8 2052.34 1188.62Z" fill="#FF3D00"/>
			<path id="Vector 1" d="M1780.52 1220.7C1754.94 1233.23 1706.96 1242.95 1658.77 1245C1652.76 1233.89 1642.85 1203.58 1646.45 1170.55L1785.28 1150C1790.98 1179.74 1792.71 1195.98 1789.03 1207.36C1787.36 1212.54 1784.57 1216.71 1780.52 1220.7Z" fill="#FFC700"/>
			<path id="Vector 2" d="M1646.45 1170.55L1785.28 1150C1790.98 1179.74 1792.71 1195.98 1789.03 1207.36C1758.68 1150 1675.73 1166.21 1658.77 1245C1652.76 1233.89 1642.85 1203.58 1646.45 1170.55Z" fill="#FF3D00"/>
		</g>
		<g id="signature">
			<path id="Vector_25" d="M853.133 1868C851.533 1869.2 847.533 1870 842.733 1870C834.467 1870 833.667 1870.8 837 1875.87C839.8 1880.13 838.333 1883.33 833.533 1883.33C830.6 1883.33 829.267 1882.4 828.067 1880C826.733 1877.07 827 1876.13 829.667 1873.33C832.067 1870.8 832.333 1870 830.733 1870C824.867 1870 822.333 1880 827 1884.67C832.867 1890.53 843.8 1885.87 842.733 1877.87C842.2 1874.8 842.6 1874 844.6 1874C847.8 1874 853.933 1870.8 856.2 1868.13C858.467 1865.47 856.467 1865.47 853.133 1868Z"/>
			<path id="Vector_26" d="M792.6 1892.93C793.267 1894.8 827 1910.13 828.467 1909.2C831.133 1907.6 829.4 1904.93 824.333 1902.67C813.4 1897.73 821.4 1894.27 833.667 1898.67C840.333 1901.07 840.333 1901.07 840.333 1899.33C840.333 1897.47 830.733 1892.8 824.6 1891.87C819.933 1891.2 818.733 1891.47 815.667 1894.53L812.067 1898.13L803.533 1894.8C794.067 1890.93 791.8 1890.53 792.6 1892.93Z"/>
			<path id="Vector_27" d="M799.267 1911.6C795.667 1915.2 799.8 1924.93 806.067 1927.47C809.267 1928.8 809.667 1929.6 809.133 1932.53C808.333 1936 808.333 1936 810.6 1933.33C812.733 1930.8 813.533 1930.67 818.333 1932.13C825.133 1934.27 830.6 1934.4 831.8 1932.53C833 1930.53 830.867 1929.33 822.333 1927.47L815.4 1925.87L816.067 1919.73C816.6 1914.8 816.2 1913.2 814.333 1911.73C811.267 1909.6 801.4 1909.47 799.267 1911.6ZM808.867 1914C811.533 1914.93 812.333 1916.13 812.333 1919.33C812.333 1924.13 810.2 1924.53 805.133 1920.53C801.4 1917.6 800.6 1914.67 803.4 1913.6C804.2 1913.2 805.133 1912.8 805.267 1912.8C805.4 1912.67 807 1913.2 808.867 1914Z"/>
			<path id="Vector_28" d="M774.2 1928.4C774.733 1929.33 777.667 1931.33 780.6 1932.8C789.667 1937.47 815.933 1947.33 819.133 1947.33C824.467 1947.33 820.067 1944.8 806.867 1940.13C796.467 1936.53 785.533 1932.13 775.133 1927.73C773.933 1927.2 773.533 1927.47 774.2 1928.4Z"/>
			<path id="Vector_29" d="M788.867 1952C787.533 1954 787 1956.53 787.533 1958.4C788.733 1963.6 793.533 1968.67 797 1968.67C801 1968.67 804.867 1963.2 803.667 1959.6C803 1957.47 803.8 1956.8 807.8 1955.73C815.533 1954 814.6 1952 806.333 1952.4C801.267 1952.8 798.2 1952.27 796.067 1950.8C792.067 1948 791.4 1948.13 788.867 1952ZM798.733 1961.2C799 1963.6 798.6 1964.67 797.133 1964.67C794.733 1964.67 792.333 1960.67 792.333 1956.53C792.333 1953.87 792.467 1953.87 795.4 1955.6C797 1956.8 798.467 1959.2 798.733 1961.2Z"/>
			<path id="Vector_30" d="M771 1962.53C771 1965.47 773.267 1966.27 774.2 1963.87C775.4 1960.93 775.267 1960.67 773 1960.67C771.933 1960.67 771 1961.47 771 1962.53Z"/>
			<path id="Vector_31" d="M783.267 1971.6C783.933 1973.6 800.067 1979.73 802.2 1978.93C803.8 1978.27 787.4 1970 784.6 1970C783.533 1970 783 1970.8 783.267 1971.6Z"/>
			<path id="Vector_32" d="M756.333 1981.73C756.333 1982.93 771.933 1994.93 779 1999.2C787.933 2004.53 792.067 2000.93 784.333 1994.4C780.2 1990.93 779 1986 782.2 1986C785.4 1986 790.733 1993.6 791.667 1999.47C792.867 2006.4 795 2004 795 1995.47C795 1984.53 782.067 1976.27 775.667 1983.33C774.333 1984.8 773.667 1987.07 774.067 1988.67C774.6 1990.8 773.4 1990.4 767.267 1986C760.2 1980.93 756.333 1979.47 756.333 1981.73Z"/>
			<path id="Vector_33" d="M767 2000.67C773.667 2004.13 781.267 2012.27 779.533 2014C778.6 2014.93 776.6 2014.27 773.133 2012C765.267 2006.67 762.467 2008.53 769.267 2014.8C773.667 2018.93 778.2 2020.13 782.467 2018.13C789.267 2015.07 784.333 2005.73 773 2000.53C765.667 1997.2 760.733 1997.2 767 2000.67Z"/>
			<path id="Vector_34" d="M755.933 2017.47C752.6 2020.8 757.667 2034.13 764.2 2039.73C769.4 2044 773.4 2044.27 778.2 2040.53C782.067 2037.47 783 2030.13 779.933 2027.6C778.6 2026.4 777.8 2027.47 776.6 2032C775.4 2036.4 774.333 2038 772.6 2038C768.333 2038 762.067 2029.47 760.467 2021.47C759.533 2017.47 757.667 2015.87 755.933 2017.47Z"/>
		</g>
	</g>
</svg>
